<svg xmlns="http://www.w3.org/2000/svg" version="1.1" width="131.89mm" height="84.42999999999999mm" viewBox = " 0 0 467.3271558999999 299.1616633" >
<!-- Front--> 
<g transform="translate(22.5000185, 22.5000185) " > 
<polygon style="stroke:#000000; fill:none; stroke-width:0.90000074" points="0, 0 20.134859075000005, 0 20.134859075000005, 10.62993 40.26971815000001, 10.62993 40.26971815000001, 0 54.44295815000001, 0 54.44295815000001, 10.62993 68.61619815, 10.62993 68.61619815, 0 82.78943815000001, 0 82.78943815000001, 10.62993 102.924297225, 10.62993 102.924297225, 0 123.05915630000001, 0 123.05915630000001, 15.590564 112.42922630000001, 15.590564 112.42922630000001, 31.181128 123.05915630000001, 31.181128 123.05915630000001, 46.771692 112.42922630000001, 46.771692 112.42922630000001, 62.362256 123.05915630000001, 62.362256 123.05915630000001, 77.95282 102.924297225, 77.95282 102.924297225, 67.32289 82.78943815000001, 67.32289 82.78943815000001, 77.95282 68.61619815, 77.95282 68.61619815, 67.32289 54.44295815000001, 67.32289 54.44295815000001, 77.95282 40.26971815000001, 77.95282 40.26971815000001, 67.32289 20.134859075000005, 67.32289 20.134859075000005, 77.95282 0, 77.95282 0, 62.362256 10.62993, 62.362256 10.62993, 46.771692 0, 46.771692 0, 31.181128 10.62993, 31.181128 10.62993, 15.590564 0, 15.590564 "/> 
</g>
<!-- Back--> 
<g transform="translate(145.55917480000002, 22.5000185) " > 
<polygon style="stroke:#000000; fill:none; stroke-width:0.90000074" points="0, 0 20.134859075000005, 0 20.134859075000005, 10.62993 40.26971815000001, 10.62993 40.26971815000001, 0 54.44295815000001, 0 54.44295815000001, 10.62993 68.61619815, 10.62993 68.61619815, 0 82.78943815000001, 0 82.78943815000001, 10.62993 102.924297225, 10.62993 102.924297225, 0 123.05915630000001, 0 123.05915630000001, 15.590564 112.42922630000001, 15.590564 112.42922630000001, 31.181128 123.05915630000001, 31.181128 123.05915630000001, 46.771692 112.42922630000001, 46.771692 112.42922630000001, 62.362256 123.05915630000001, 62.362256 123.05915630000001, 77.95282 102.924297225, 77.95282 102.924297225, 67.32289 82.78943815000001, 67.32289 82.78943815000001, 77.95282 68.61619815, 77.95282 68.61619815, 67.32289 54.44295815000001, 67.32289 54.44295815000001, 77.95282 40.26971815000001, 77.95282 40.26971815000001, 67.32289 20.134859075000005, 67.32289 20.134859075000005, 77.95282 0, 77.95282 0, 62.362256 10.62993, 62.362256 10.62993, 46.771692 0, 46.771692 0, 31.181128 10.62993, 31.181128 10.62993, 15.590564 0, 15.590564 "/> 
</g>
<!-- Left--> 
<g transform="translate(268.6183311, 22.5000185) " > 
<polygon style="stroke:#000000; fill:none; stroke-width:0.90000074" points="10.62993, 0 19.249031574999997, 0 19.249031574999997, 10.62993 38.49806314999999, 10.62993 38.49806314999999, 0 52.67130314999999, 0 52.67130314999999, 10.62993 66.84454314999999, 10.62993 66.84454314999999, 0 81.01778314999999, 0 81.01778314999999, 10.62993 95.19102314999999, 10.62993 95.19102314999999, 0 109.36426314999999, 0 109.36426314999999, 10.62993 123.53750314999999, 10.62993 123.53750314999999, 0 137.71074314999998, 0 137.71074314999998, 10.62993 156.959774725, 10.62993 156.959774725, 0 165.5788763, 0 165.5788763, 15.590564 176.2088063, 15.590564 176.2088063, 31.181128 165.5788763, 31.181128 165.5788763, 46.771692 176.2088063, 46.771692 176.2088063, 62.362256 165.5788763, 62.362256 165.5788763, 77.95282 156.959774725, 77.95282 156.959774725, 67.32289 137.71074314999998, 67.32289 137.71074314999998, 77.95282 123.53750314999999, 77.95282 123.53750314999999, 67.32289 109.36426314999999, 67.32289 109.36426314999999, 77.95282 95.19102314999999, 77.95282 95.19102314999999, 67.32289 81.01778314999999, 67.32289 81.01778314999999, 77.95282 66.84454314999999, 77.95282 66.84454314999999, 67.32289 52.67130314999999, 67.32289 52.67130314999999, 77.95282 38.49806314999999, 77.95282 38.49806314999999, 67.32289 19.249031574999997, 67.32289 19.249031574999997, 77.95282 10.62993, 77.95282 10.62993, 62.362256 0, 62.362256 0, 46.771692 10.62993, 46.771692 10.62993, 31.181128 0, 31.181128 0, 15.590564 10.62993, 15.590564 "/> 
</g>
<!-- Right--> 
<g transform="translate(268.6183311, 100.4528385) " > 
<polygon style="stroke:#000000; fill:none; stroke-width:0.90000074" points="10.62993, 0 19.249031574999997, 0 19.249031574999997, 10.62993 38.49806314999999, 10.62993 38.49806314999999, 0 52.67130314999999, 0 52.67130314999999, 10.62993 66.84454314999999, 10.62993 66.84454314999999, 0 81.01778314999999, 0 81.01778314999999, 10.62993 95.19102314999999, 10.62993 95.19102314999999, 0 109.36426314999999, 0 109.36426314999999, 10.62993 123.53750314999999, 10.62993 123.53750314999999, 0 137.71074314999998, 0 137.71074314999998, 10.62993 156.959774725, 10.62993 156.959774725, 0 165.5788763, 0 165.5788763, 15.590564 176.2088063, 15.590564 176.2088063, 31.181128 165.5788763, 31.181128 165.5788763, 46.771692 176.2088063, 46.771692 176.2088063, 62.362256 165.5788763, 62.362256 165.5788763, 77.95282 156.959774725, 77.95282 156.959774725, 67.32289 137.71074314999998, 67.32289 137.71074314999998, 77.95282 123.53750314999999, 77.95282 123.53750314999999, 67.32289 109.36426314999999, 67.32289 109.36426314999999, 77.95282 95.19102314999999, 77.95282 95.19102314999999, 67.32289 81.01778314999999, 67.32289 81.01778314999999, 77.95282 66.84454314999999, 77.95282 66.84454314999999, 67.32289 52.67130314999999, 67.32289 52.67130314999999, 77.95282 38.49806314999999, 77.95282 38.49806314999999, 67.32289 19.249031574999997, 67.32289 19.249031574999997, 77.95282 10.62993, 77.95282 10.62993, 62.362256 0, 62.362256 0, 46.771692 10.62993, 46.771692 10.62993, 31.181128 0, 31.181128 0, 15.590564 10.62993, 15.590564 "/> 
</g>
<!-- Top--> 
<g transform="translate(22.5000185, 100.4528385) " > 
<polygon style="stroke:#000000; fill:none; stroke-width:0.90000074" points="10.62993, 10.62993 20.134859075000005, 10.62993 20.134859075000005, 0 40.26971815000001, 0 40.26971815000001, 10.62993 54.44295815000001, 10.62993 54.44295815000001, 0 68.61619815, 0 68.61619815, 10.62993 82.78943815000001, 10.62993 82.78943815000001, 0 102.924297225, 0 102.924297225, 10.62993 112.42922630000001, 10.62993 112.42922630000001, 19.249031574999997 123.05915630000001, 19.249031574999997 123.05915630000001, 38.49806314999999 112.42922630000001, 38.49806314999999 112.42922630000001, 52.67130314999999 123.05915630000001, 52.67130314999999 123.05915630000001, 66.84454314999999 112.42922630000001, 66.84454314999999 112.42922630000001, 81.01778314999999 123.05915630000001, 81.01778314999999 123.05915630000001, 95.19102314999999 112.42922630000001, 95.19102314999999 112.42922630000001, 109.36426314999999 123.05915630000001, 109.36426314999999 123.05915630000001, 123.53750314999999 112.42922630000001, 123.53750314999999 112.42922630000001, 137.71074314999998 123.05915630000001, 137.71074314999998 123.05915630000001, 156.959774725 112.42922630000001, 156.959774725 112.42922630000001, 165.5788763 102.924297225, 165.5788763 102.924297225, 176.2088063 82.78943815000001, 176.2088063 82.78943815000001, 165.5788763 68.61619815, 165.5788763 68.61619815, 176.2088063 54.44295815000001, 176.2088063 54.44295815000001, 165.5788763 40.26971815000001, 165.5788763 40.26971815000001, 176.2088063 20.134859075000005, 176.2088063 20.134859075000005, 165.5788763 10.62993, 165.5788763 10.62993, 156.959774725 0, 156.959774725 0, 137.71074314999998 10.62993, 137.71074314999998 10.62993, 123.53750314999999 0, 123.53750314999999 0, 109.36426314999999 10.62993, 109.36426314999999 10.62993, 95.19102314999999 0, 95.19102314999999 0, 81.01778314999999 10.62993, 81.01778314999999 10.62993, 66.84454314999999 0, 66.84454314999999 0, 52.67130314999999 10.62993, 52.67130314999999 10.62993, 38.49806314999999 0, 38.49806314999999 0, 19.249031574999997 10.62993, 19.249031574999997 "/> 
</g>
<!-- Bottom--> 
<g transform="translate(145.55917480000002, 100.4528385) " > 
<polygon style="stroke:#000000; fill:none; stroke-width:0.90000074" points="10.62993, 10.62993 20.134859075000005, 10.62993 20.134859075000005, 0 40.26971815000001, 0 40.26971815000001, 10.62993 54.44295815000001, 10.62993 54.44295815000001, 0 68.61619815, 0 68.61619815, 10.62993 82.78943815000001, 10.62993 82.78943815000001, 0 102.924297225, 0 102.924297225, 10.62993 112.42922630000001, 10.62993 112.42922630000001, 19.249031574999997 123.05915630000001, 19.249031574999997 123.05915630000001, 38.49806314999999 112.42922630000001, 38.49806314999999 112.42922630000001, 52.67130314999999 123.05915630000001, 52.67130314999999 123.05915630000001, 66.84454314999999 112.42922630000001, 66.84454314999999 112.42922630000001, 81.01778314999999 123.05915630000001, 81.01778314999999 123.05915630000001, 95.19102314999999 112.42922630000001, 95.19102314999999 112.42922630000001, 109.36426314999999 123.05915630000001, 109.36426314999999 123.05915630000001, 123.53750314999999 112.42922630000001, 123.53750314999999 112.42922630000001, 137.71074314999998 123.05915630000001, 137.71074314999998 123.05915630000001, 156.959774725 112.42922630000001, 156.959774725 112.42922630000001, 165.5788763 102.924297225, 165.5788763 102.924297225, 176.2088063 82.78943815000001, 176.2088063 82.78943815000001, 165.5788763 68.61619815, 165.5788763 68.61619815, 176.2088063 54.44295815000001, 176.2088063 54.44295815000001, 165.5788763 40.26971815000001, 165.5788763 40.26971815000001, 176.2088063 20.134859075000005, 176.2088063 20.134859075000005, 165.5788763 10.62993, 165.5788763 10.62993, 156.959774725 0, 156.959774725 0, 137.71074314999998 10.62993, 137.71074314999998 10.62993, 123.53750314999999 0, 123.53750314999999 0, 109.36426314999999 10.62993, 109.36426314999999 10.62993, 95.19102314999999 0, 95.19102314999999 0, 81.01778314999999 10.62993, 81.01778314999999 10.62993, 66.84454314999999 0, 66.84454314999999 0, 52.67130314999999 10.62993, 52.67130314999999 10.62993, 38.49806314999999 0, 38.49806314999999 0, 19.249031574999997 10.62993, 19.249031574999997 "/> 
</g></svg>