ISO-10303-21;
HEADER;
FILE_DESCRIPTION(('shape.step'),'2;1');
FILE_NAME('shape.step','2026-09-12',('tscircuit'),('tscircuit'),'generator','','');
FILE_SCHEMA(('AUTOMOTIVE_DESIGN { 1 0 10303 214 1 1 1 1 }'));
ENDSEC;
DATA;
#1 = APPLICATION_CONTEXT('core data for automotive mechanical design processes');
#2 = APPLICATION_PROTOCOL_DEFINITION('international standard','automotive_design',2000,#1);
#3 = PRODUCT_CONTEXT('',#1,'mechanical');
#4 = PRODUCT('shape','shape','',(#3));
#5 = PRODUCT_DEFINITION_CONTEXT('part definition',#1,'design');
#6 = PRODUCT_DEFINITION_FORMATION('','',#4);
#7 = PRODUCT_DEFINITION('design','',#6,#5);
#8 = PRODUCT_DEFINITION_SHAPE('','',#7);
#9 = (
LENGTH_UNIT()
NAMED_UNIT(*)
SI_UNIT(.MILLI.,.METRE.)
);
#10 = (
NAMED_UNIT(*)
PLANE_ANGLE_UNIT()
SI_UNIT($,.RADIAN.)
);
#11 = (
NAMED_UNIT(*)
SI_UNIT($,.STERADIAN.)
SOLID_ANGLE_UNIT()
);
#12 = UNCERTAINTY_MEASURE_WITH_UNIT(LENGTH_MEASURE(1.E-07),#9,'distance_accuracy_value','confusion accuracy');
#13 = (
GEOMETRIC_REPRESENTATION_CONTEXT(3)
GLOBAL_UNCERTAINTY_ASSIGNED_CONTEXT((#12))
GLOBAL_UNIT_ASSIGNED_CONTEXT((#9,#10,#11))
REPRESENTATION_CONTEXT('Context #1','3D
Context with
TORTURE://UNITS')
);
#14 = CARTESIAN_POINT('',(0.,0.,0.));
#15 = DIRECTION('',(0.,0.,1.));
#16 = DIRECTION('',(1.,0.,0.));
#17 = AXIS2_PLACEMENT_3D('',#14,#15,#16);
#18 = CARTESIAN_POINT('',(-0.5,-0.625,0.));
#19 = VERTEX_POINT('',#18);
#20 = CARTESIAN_POINT('',(-0.5,-0.625,0.55));
#21 = VERTEX_POINT('',#20);
#22 = CARTESIAN_POINT('',(-0.5,0.625,0.55));
#23 = VERTEX_POINT('',#22);
#24 = CARTESIAN_POINT('',(-0.5,0.625,0.));
#25 = VERTEX_POINT('',#24);
#26 = DIRECTION('',(0.,0.,1.));
#27 = VECTOR('',#26,1.);
#28 = LINE('',#18,#27);
#29 = EDGE_CURVE('',#19,#21,#28,.T.);
#30 = ORIENTED_EDGE('',*,*,#29,.T.);
#31 = DIRECTION('',(0.,1.,0.));
#32 = VECTOR('',#31,1.);
#33 = LINE('',#20,#32);
#34 = EDGE_CURVE('',#21,#23,#33,.T.);
#35 = ORIENTED_EDGE('',*,*,#34,.T.);
#36 = DIRECTION('',(0.,0.,1.));
#37 = VECTOR('',#36,1.);
#38 = LINE('',#24,#37);
#39 = EDGE_CURVE('',#25,#23,#38,.T.);
#40 = ORIENTED_EDGE('',*,*,#39,.F.);
#41 = DIRECTION('',(0.,1.,0.));
#42 = VECTOR('',#41,1.);
#43 = LINE('',#18,#42);
#44 = EDGE_CURVE('',#19,#25,#43,.T.);
#45 = ORIENTED_EDGE('',*,*,#44,.F.);
#46 = CARTESIAN_POINT('',(-0.5,-0.625,0.));
#47 = DIRECTION('',(-1.,0.,0.));
#48 = DIRECTION('',(0.,0.,1.));
#49 = AXIS2_PLACEMENT_3D('',#46,#47,#48);
#50 = PLANE('',#49);
#51 = EDGE_LOOP('',(#30,#35,#40,#45));
#52 = FACE_OUTER_BOUND('',#51,.T.);
#53 = ADVANCED_FACE('',(#52),#50,.T.);
#54 = CARTESIAN_POINT('',(0.5,-0.625,0.));
#55 = VERTEX_POINT('',#54);
#56 = CARTESIAN_POINT('',(0.5,0.625,0.));
#57 = VERTEX_POINT('',#56);
#58 = CARTESIAN_POINT('',(0.5,0.625,0.55));
#59 = VERTEX_POINT('',#58);
#60 = CARTESIAN_POINT('',(0.5,-0.625,0.55));
#61 = VERTEX_POINT('',#60);
#62 = DIRECTION('',(0.,1.,0.));
#63 = VECTOR('',#62,1.);
#64 = LINE('',#54,#63);
#65 = EDGE_CURVE('',#55,#57,#64,.T.);
#66 = ORIENTED_EDGE('',*,*,#65,.T.);
#67 = DIRECTION('',(0.,0.,1.));
#68 = VECTOR('',#67,1.);
#69 = LINE('',#56,#68);
#70 = EDGE_CURVE('',#57,#59,#69,.T.);
#71 = ORIENTED_EDGE('',*,*,#70,.T.);
#72 = DIRECTION('',(0.,1.,0.));
#73 = VECTOR('',#72,1.);
#74 = LINE('',#60,#73);
#75 = EDGE_CURVE('',#61,#59,#74,.T.);
#76 = ORIENTED_EDGE('',*,*,#75,.F.);
#77 = DIRECTION('',(0.,0.,1.));
#78 = VECTOR('',#77,1.);
#79 = LINE('',#54,#78);
#80 = EDGE_CURVE('',#55,#61,#79,.T.);
#81 = ORIENTED_EDGE('',*,*,#80,.F.);
#82 = CARTESIAN_POINT('',(0.5,-0.625,0.));
#83 = DIRECTION('',(1.,0.,0.));
#84 = DIRECTION('',(0.,1.,0.));
#85 = AXIS2_PLACEMENT_3D('',#82,#83,#84);
#86 = PLANE('',#85);
#87 = EDGE_LOOP('',(#66,#71,#76,#81));
#88 = FACE_OUTER_BOUND('',#87,.T.);
#89 = ADVANCED_FACE('',(#88),#86,.T.);
#90 = DIRECTION('',(1.,0.,0.));
#91 = VECTOR('',#90,1.);
#92 = LINE('',#18,#91);
#93 = EDGE_CURVE('',#19,#55,#92,.T.);
#94 = ORIENTED_EDGE('',*,*,#93,.T.);
#95 = ORIENTED_EDGE('',*,*,#80,.T.);
#96 = DIRECTION('',(1.,0.,0.));
#97 = VECTOR('',#96,1.);
#98 = LINE('',#20,#97);
#99 = EDGE_CURVE('',#21,#61,#98,.T.);
#100 = ORIENTED_EDGE('',*,*,#99,.F.);
#101 = ORIENTED_EDGE('',*,*,#29,.F.);
#102 = CARTESIAN_POINT('',(-0.5,-0.625,0.));
#103 = DIRECTION('',(0.,-1.,0.));
#104 = DIRECTION('',(1.,0.,0.));
#105 = AXIS2_PLACEMENT_3D('',#102,#103,#104);
#106 = PLANE('',#105);
#107 = EDGE_LOOP('',(#94,#95,#100,#101));
#108 = FACE_OUTER_BOUND('',#107,.T.);
#109 = ADVANCED_FACE('',(#108),#106,.T.);
#110 = ORIENTED_EDGE('',*,*,#39,.T.);
#111 = DIRECTION('',(1.,0.,0.));
#112 = VECTOR('',#111,1.);
#113 = LINE('',#22,#112);
#114 = EDGE_CURVE('',#23,#59,#113,.T.);
#115 = ORIENTED_EDGE('',*,*,#114,.T.);
#116 = ORIENTED_EDGE('',*,*,#70,.F.);
#117 = DIRECTION('',(1.,0.,0.));
#118 = VECTOR('',#117,1.);
#119 = LINE('',#24,#118);
#120 = EDGE_CURVE('',#25,#57,#119,.T.);
#121 = ORIENTED_EDGE('',*,*,#120,.F.);
#122 = CARTESIAN_POINT('',(-0.5,0.625,0.));
#123 = DIRECTION('',(0.,1.,0.));
#124 = DIRECTION('',(0.,0.,1.));
#125 = AXIS2_PLACEMENT_3D('',#122,#123,#124);
#126 = PLANE('',#125);
#127 = EDGE_LOOP('',(#110,#115,#116,#121));
#128 = FACE_OUTER_BOUND('',#127,.T.);
#129 = ADVANCED_FACE('',(#128),#126,.T.);
#130 = ORIENTED_EDGE('',*,*,#44,.T.);
#131 = ORIENTED_EDGE('',*,*,#120,.T.);
#132 = ORIENTED_EDGE('',*,*,#65,.F.);
#133 = ORIENTED_EDGE('',*,*,#93,.F.);
#134 = CARTESIAN_POINT('',(-0.5,-0.625,0.));
#135 = DIRECTION('',(0.,0.,-1.));
#136 = DIRECTION('',(0.,1.,0.));
#137 = AXIS2_PLACEMENT_3D('',#134,#135,#136);
#138 = PLANE('',#137);
#139 = EDGE_LOOP('',(#130,#131,#132,#133));
#140 = FACE_OUTER_BOUND('',#139,.T.);
#141 = ADVANCED_FACE('',(#140),#138,.T.);
#142 = ORIENTED_EDGE('',*,*,#99,.T.);
#143 = ORIENTED_EDGE('',*,*,#75,.T.);
#144 = ORIENTED_EDGE('',*,*,#114,.F.);
#145 = ORIENTED_EDGE('',*,*,#34,.F.);
#146 = CARTESIAN_POINT('',(-0.5,-0.625,0.55));
#147 = DIRECTION('',(0.,0.,1.));
#148 = DIRECTION('',(1.,0.,0.));
#149 = AXIS2_PLACEMENT_3D('',#146,#147,#148);
#150 = PLANE('',#149);
#151 = EDGE_LOOP('',(#142,#143,#144,#145));
#152 = FACE_OUTER_BOUND('',#151,.T.);
#153 = ADVANCED_FACE('',(#152),#150,.T.);
#154 = CLOSED_SHELL('',(#53,#89,#109,#129,#141,#153));
#155 = MANIFOLD_SOLID_BREP('',#154);
#156 = CARTESIAN_POINT('',(0.5,-0.625,0.));
#157 = VERTEX_POINT('',#156);
#158 = CARTESIAN_POINT('',(0.5,-0.625,0.55));
#159 = VERTEX_POINT('',#158);
#160 = CARTESIAN_POINT('',(0.5,0.625,0.55));
#161 = VERTEX_POINT('',#160);
#162 = CARTESIAN_POINT('',(0.5,0.625,0.));
#163 = VERTEX_POINT('',#162);
#164 = DIRECTION('',(0.,0.,1.));
#165 = VECTOR('',#164,1.);
#166 = LINE('',#156,#165);
#167 = EDGE_CURVE('',#157,#159,#166,.T.);
#168 = ORIENTED_EDGE('',*,*,#167,.T.);
#169 = DIRECTION('',(0.,1.,0.));
#170 = VECTOR('',#169,1.);
#171 = LINE('',#158,#170);
#172 = EDGE_CURVE('',#159,#161,#171,.T.);
#173 = ORIENTED_EDGE('',*,*,#172,.T.);
#174 = DIRECTION('',(0.,0.,1.));
#175 = VECTOR('',#174,1.);
#176 = LINE('',#162,#175);
#177 = EDGE_CURVE('',#163,#161,#176,.T.);
#178 = ORIENTED_EDGE('',*,*,#177,.F.);
#179 = DIRECTION('',(0.,1.,0.));
#180 = VECTOR('',#179,1.);
#181 = LINE('',#156,#180);
#182 = EDGE_CURVE('',#157,#163,#181,.T.);
#183 = ORIENTED_EDGE('',*,*,#182,.F.);
#184 = CARTESIAN_POINT('',(0.5,-0.625,0.));
#185 = DIRECTION('',(-1.,0.,0.));
#186 = DIRECTION('',(0.,0.,1.));
#187 = AXIS2_PLACEMENT_3D('',#184,#185,#186);
#188 = PLANE('',#187);
#189 = EDGE_LOOP('',(#168,#173,#178,#183));
#190 = FACE_OUTER_BOUND('',#189,.T.);
#191 = ADVANCED_FACE('',(#190),#188,.T.);
#192 = CARTESIAN_POINT('',(1.,-0.625,0.));
#193 = VERTEX_POINT('',#192);
#194 = CARTESIAN_POINT('',(1.,0.625,0.));
#195 = VERTEX_POINT('',#194);
#196 = CARTESIAN_POINT('',(1.,0.625,0.55));
#197 = VERTEX_POINT('',#196);
#198 = CARTESIAN_POINT('',(1.,-0.625,0.55));
#199 = VERTEX_POINT('',#198);
#200 = DIRECTION('',(0.,1.,0.));
#201 = VECTOR('',#200,1.);
#202 = LINE('',#192,#201);
#203 = EDGE_CURVE('',#193,#195,#202,.T.);
#204 = ORIENTED_EDGE('',*,*,#203,.T.);
#205 = DIRECTION('',(0.,0.,1.));
#206 = VECTOR('',#205,1.);
#207 = LINE('',#194,#206);
#208 = EDGE_CURVE('',#195,#197,#207,.T.);
#209 = ORIENTED_EDGE('',*,*,#208,.T.);
#210 = DIRECTION('',(0.,1.,0.));
#211 = VECTOR('',#210,1.);
#212 = LINE('',#198,#211);
#213 = EDGE_CURVE('',#199,#197,#212,.T.);
#214 = ORIENTED_EDGE('',*,*,#213,.F.);
#215 = DIRECTION('',(0.,0.,1.));
#216 = VECTOR('',#215,1.);
#217 = LINE('',#192,#216);
#218 = EDGE_CURVE('',#193,#199,#217,.T.);
#219 = ORIENTED_EDGE('',*,*,#218,.F.);
#220 = CARTESIAN_POINT('',(1.,-0.625,0.));
#221 = DIRECTION('',(1.,0.,0.));
#222 = DIRECTION('',(0.,1.,0.));
#223 = AXIS2_PLACEMENT_3D('',#220,#221,#222);
#224 = PLANE('',#223);
#225 = EDGE_LOOP('',(#204,#209,#214,#219));
#226 = FACE_OUTER_BOUND('',#225,.T.);
#227 = ADVANCED_FACE('',(#226),#224,.T.);
#228 = DIRECTION('',(1.,0.,0.));
#229 = VECTOR('',#228,1.);
#230 = LINE('',#156,#229);
#231 = EDGE_CURVE('',#157,#193,#230,.T.);
#232 = ORIENTED_EDGE('',*,*,#231,.T.);
#233 = ORIENTED_EDGE('',*,*,#218,.T.);
#234 = DIRECTION('',(1.,0.,0.));
#235 = VECTOR('',#234,1.);
#236 = LINE('',#158,#235);
#237 = EDGE_CURVE('',#159,#199,#236,.T.);
#238 = ORIENTED_EDGE('',*,*,#237,.F.);
#239 = ORIENTED_EDGE('',*,*,#167,.F.);
#240 = CARTESIAN_POINT('',(0.5,-0.625,0.));
#241 = DIRECTION('',(0.,-1.,0.));
#242 = DIRECTION('',(1.,0.,0.));
#243 = AXIS2_PLACEMENT_3D('',#240,#241,#242);
#244 = PLANE('',#243);
#245 = EDGE_LOOP('',(#232,#233,#238,#239));
#246 = FACE_OUTER_BOUND('',#245,.T.);
#247 = ADVANCED_FACE('',(#246),#244,.T.);
#248 = ORIENTED_EDGE('',*,*,#177,.T.);
#249 = DIRECTION('',(1.,0.,0.));
#250 = VECTOR('',#249,1.);
#251 = LINE('',#160,#250);
#252 = EDGE_CURVE('',#161,#197,#251,.T.);
#253 = ORIENTED_EDGE('',*,*,#252,.T.);
#254 = ORIENTED_EDGE('',*,*,#208,.F.);
#255 = DIRECTION('',(1.,0.,0.));
#256 = VECTOR('',#255,1.);
#257 = LINE('',#162,#256);
#258 = EDGE_CURVE('',#163,#195,#257,.T.);
#259 = ORIENTED_EDGE('',*,*,#258,.F.);
#260 = CARTESIAN_POINT('',(0.5,0.625,0.));
#261 = DIRECTION('',(0.,1.,0.));
#262 = DIRECTION('',(0.,0.,1.));
#263 = AXIS2_PLACEMENT_3D('',#260,#261,#262);
#264 = PLANE('',#263);
#265 = EDGE_LOOP('',(#248,#253,#254,#259));
#266 = FACE_OUTER_BOUND('',#265,.T.);
#267 = ADVANCED_FACE('',(#266),#264,.T.);
#268 = ORIENTED_EDGE('',*,*,#182,.T.);
#269 = ORIENTED_EDGE('',*,*,#258,.T.);
#270 = ORIENTED_EDGE('',*,*,#203,.F.);
#271 = ORIENTED_EDGE('',*,*,#231,.F.);
#272 = CARTESIAN_POINT('',(0.5,-0.625,0.));
#273 = DIRECTION('',(0.,0.,-1.));
#274 = DIRECTION('',(0.,1.,0.));
#275 = AXIS2_PLACEMENT_3D('',#272,#273,#274);
#276 = PLANE('',#275);
#277 = EDGE_LOOP('',(#268,#269,#270,#271));
#278 = FACE_OUTER_BOUND('',#277,.T.);
#279 = ADVANCED_FACE('',(#278),#276,.T.);
#280 = ORIENTED_EDGE('',*,*,#237,.T.);
#281 = ORIENTED_EDGE('',*,*,#213,.T.);
#282 = ORIENTED_EDGE('',*,*,#252,.F.);
#283 = ORIENTED_EDGE('',*,*,#172,.F.);
#284 = CARTESIAN_POINT('',(0.5,-0.625,0.55));
#285 = DIRECTION('',(0.,0.,1.));
#286 = DIRECTION('',(1.,0.,0.));
#287 = AXIS2_PLACEMENT_3D('',#284,#285,#286);
#288 = PLANE('',#287);
#289 = EDGE_LOOP('',(#280,#281,#282,#283));
#290 = FACE_OUTER_BOUND('',#289,.T.);
#291 = ADVANCED_FACE('',(#290),#288,.T.);
#292 = CLOSED_SHELL('',(#191,#227,#247,#267,#279,#291));
#293 = MANIFOLD_SOLID_BREP('',#292);
#294 = COLOUR_RGB('',0.8,0.8,0.8);
#295 = FILL_AREA_STYLE_COLOUR('',#294);
#296 = FILL_AREA_STYLE('',(#295));
#297 = SURFACE_STYLE_FILL_AREA(#296);
#298 = SURFACE_SIDE_STYLE('',(#297));
#299 = SURFACE_STYLE_USAGE(.BOTH.,#298);
#300 = PRESENTATION_STYLE_ASSIGNMENT((#299));
#301 = STYLED_ITEM('',(#300),#293);
#302 = CARTESIAN_POINT('',(-1.,-0.625,0.));
#303 = VERTEX_POINT('',#302);
#304 = CARTESIAN_POINT('',(-1.,-0.625,0.55));
#305 = VERTEX_POINT('',#304);
#306 = CARTESIAN_POINT('',(-1.,0.625,0.55));
#307 = VERTEX_POINT('',#306);
#308 = CARTESIAN_POINT('',(-1.,0.625,0.));
#309 = VERTEX_POINT('',#308);
#310 = DIRECTION('',(0.,0.,1.));
#311 = VECTOR('',#310,1.);
#312 = LINE('',#302,#311);
#313 = EDGE_CURVE('',#303,#305,#312,.T.);
#314 = ORIENTED_EDGE('',*,*,#313,.T.);
#315 = DIRECTION('',(0.,1.,0.));
#316 = VECTOR('',#315,1.);
#317 = LINE('',#304,#316);
#318 = EDGE_CURVE('',#305,#307,#317,.T.);
#319 = ORIENTED_EDGE('',*,*,#318,.T.);
#320 = DIRECTION('',(0.,0.,1.));
#321 = VECTOR('',#320,1.);
#322 = LINE('',#308,#321);
#323 = EDGE_CURVE('',#309,#307,#322,.T.);
#324 = ORIENTED_EDGE('',*,*,#323,.F.);
#325 = DIRECTION('',(0.,1.,0.));
#326 = VECTOR('',#325,1.);
#327 = LINE('',#302,#326);
#328 = EDGE_CURVE('',#303,#309,#327,.T.);
#329 = ORIENTED_EDGE('',*,*,#328,.F.);
#330 = CARTESIAN_POINT('',(-1.,-0.625,0.));
#331 = DIRECTION('',(-1.,0.,0.));
#332 = DIRECTION('',(0.,0.,1.));
#333 = AXIS2_PLACEMENT_3D('',#330,#331,#332);
#334 = PLANE('',#333);
#335 = EDGE_LOOP('',(#314,#319,#324,#329));
#336 = FACE_OUTER_BOUND('',#335,.T.);
#337 = ADVANCED_FACE('',(#336),#334,.T.);
#338 = CARTESIAN_POINT('',(-0.5,-0.625,0.));
#339 = VERTEX_POINT('',#338);
#340 = CARTESIAN_POINT('',(-0.5,0.625,0.));
#341 = VERTEX_POINT('',#340);
#342 = CARTESIAN_POINT('',(-0.5,0.625,0.55));
#343 = VERTEX_POINT('',#342);
#344 = CARTESIAN_POINT('',(-0.5,-0.625,0.55));
#345 = VERTEX_POINT('',#344);
#346 = DIRECTION('',(0.,1.,0.));
#347 = VECTOR('',#346,1.);
#348 = LINE('',#338,#347);
#349 = EDGE_CURVE('',#339,#341,#348,.T.);
#350 = ORIENTED_EDGE('',*,*,#349,.T.);
#351 = DIRECTION('',(0.,0.,1.));
#352 = VECTOR('',#351,1.);
#353 = LINE('',#340,#352);
#354 = EDGE_CURVE('',#341,#343,#353,.T.);
#355 = ORIENTED_EDGE('',*,*,#354,.T.);
#356 = DIRECTION('',(0.,1.,0.));
#357 = VECTOR('',#356,1.);
#358 = LINE('',#344,#357);
#359 = EDGE_CURVE('',#345,#343,#358,.T.);
#360 = ORIENTED_EDGE('',*,*,#359,.F.);
#361 = DIRECTION('',(0.,0.,1.));
#362 = VECTOR('',#361,1.);
#363 = LINE('',#338,#362);
#364 = EDGE_CURVE('',#339,#345,#363,.T.);
#365 = ORIENTED_EDGE('',*,*,#364,.F.);
#366 = CARTESIAN_POINT('',(-0.5,-0.625,0.));
#367 = DIRECTION('',(1.,0.,0.));
#368 = DIRECTION('',(0.,1.,0.));
#369 = AXIS2_PLACEMENT_3D('',#366,#367,#368);
#370 = PLANE('',#369);
#371 = EDGE_LOOP('',(#350,#355,#360,#365));
#372 = FACE_OUTER_BOUND('',#371,.T.);
#373 = ADVANCED_FACE('',(#372),#370,.T.);
#374 = DIRECTION('',(-1.,0.,0.));
#375 = VECTOR('',#374,1.);
#376 = LINE('',#338,#375);
#377 = EDGE_CURVE('',#339,#303,#376,.T.);
#378 = ORIENTED_EDGE('',*,*,#377,.F.);
#379 = ORIENTED_EDGE('',*,*,#364,.T.);
#380 = DIRECTION('',(-1.,0.,0.));
#381 = VECTOR('',#380,1.);
#382 = LINE('',#344,#381);
#383 = EDGE_CURVE('',#345,#305,#382,.T.);
#384 = ORIENTED_EDGE('',*,*,#383,.T.);
#385 = ORIENTED_EDGE('',*,*,#313,.F.);
#386 = CARTESIAN_POINT('',(-1.,-0.625,0.));
#387 = DIRECTION('',(0.,-1.,0.));
#388 = DIRECTION('',(1.,0.,0.));
#389 = AXIS2_PLACEMENT_3D('',#386,#387,#388);
#390 = PLANE('',#389);
#391 = EDGE_LOOP('',(#378,#379,#384,#385));
#392 = FACE_OUTER_BOUND('',#391,.T.);
#393 = ADVANCED_FACE('',(#392),#390,.T.);
#394 = ORIENTED_EDGE('',*,*,#323,.T.);
#395 = DIRECTION('',(-1.,0.,0.));
#396 = VECTOR('',#395,1.);
#397 = LINE('',#342,#396);
#398 = EDGE_CURVE('',#343,#307,#397,.T.);
#399 = ORIENTED_EDGE('',*,*,#398,.F.);
#400 = ORIENTED_EDGE('',*,*,#354,.F.);
#401 = DIRECTION('',(-1.,0.,0.));
#402 = VECTOR('',#401,1.);
#403 = LINE('',#340,#402);
#404 = EDGE_CURVE('',#341,#309,#403,.T.);
#405 = ORIENTED_EDGE('',*,*,#404,.T.);
#406 = CARTESIAN_POINT('',(-1.,0.625,0.));
#407 = DIRECTION('',(0.,1.,0.));
#408 = DIRECTION('',(0.,0.,1.));
#409 = AXIS2_PLACEMENT_3D('',#406,#407,#408);
#410 = PLANE('',#409);
#411 = EDGE_LOOP('',(#394,#399,#400,#405));
#412 = FACE_OUTER_BOUND('',#411,.T.);
#413 = ADVANCED_FACE('',(#412),#410,.T.);
#414 = ORIENTED_EDGE('',*,*,#328,.T.);
#415 = ORIENTED_EDGE('',*,*,#404,.F.);
#416 = ORIENTED_EDGE('',*,*,#349,.F.);
#417 = ORIENTED_EDGE('',*,*,#377,.T.);
#418 = CARTESIAN_POINT('',(-1.,-0.625,0.));
#419 = DIRECTION('',(0.,0.,-1.));
#420 = DIRECTION('',(0.,1.,0.));
#421 = AXIS2_PLACEMENT_3D('',#418,#419,#420);
#422 = PLANE('',#421);
#423 = EDGE_LOOP('',(#414,#415,#416,#417));
#424 = FACE_OUTER_BOUND('',#423,.T.);
#425 = ADVANCED_FACE('',(#424),#422,.T.);
#426 = ORIENTED_EDGE('',*,*,#383,.F.);
#427 = ORIENTED_EDGE('',*,*,#359,.T.);
#428 = ORIENTED_EDGE('',*,*,#398,.T.);
#429 = ORIENTED_EDGE('',*,*,#318,.F.);
#430 = CARTESIAN_POINT('',(-1.,-0.625,0.55));
#431 = DIRECTION('',(0.,0.,1.));
#432 = DIRECTION('',(1.,0.,0.));
#433 = AXIS2_PLACEMENT_3D('',#430,#431,#432);
#434 = PLANE('',#433);
#435 = EDGE_LOOP('',(#426,#427,#428,#429));
#436 = FACE_OUTER_BOUND('',#435,.T.);
#437 = ADVANCED_FACE('',(#436),#434,.T.);
#438 = CLOSED_SHELL('',(#337,#373,#393,#413,#425,#437));
#439 = MANIFOLD_SOLID_BREP('',#438);
#440 = COLOUR_RGB('',0.8,0.8,0.8);
#441 = FILL_AREA_STYLE_COLOUR('',#440);
#442 = FILL_AREA_STYLE('',(#441));
#443 = SURFACE_STYLE_FILL_AREA(#442);
#444 = SURFACE_SIDE_STYLE('',(#443));
#445 = SURFACE_STYLE_USAGE(.BOTH.,#444);
#446 = PRESENTATION_STYLE_ASSIGNMENT((#445));
#447 = STYLED_ITEM('',(#446),#439);
#448 = ADVANCED_BREP_SHAPE_REPRESENTATION('',(#17,#155,#293,#439),#13);
#449 = SHAPE_DEFINITION_REPRESENTATION(#8,#448);
#450 = MECHANICAL_DESIGN_GEOMETRIC_PRESENTATION_REPRESENTATION('',(#301,#447),#13);
ENDSEC;
END-ISO-10303-21;