ISO-10303-21;
HEADER;
FILE_DESCRIPTION(('shape.step'),'2;1');
FILE_NAME('shape.step','2026-09-12',('tscircuit'),('tscircuit'),'generator','','');
FILE_SCHEMA(('AUTOMOTIVE_DESIGN { 1 0 10303 214 1 1 1 1 }'));
ENDSEC;
DATA;
#1 = APPLICATION_CONTEXT('core data for automotive mechanical design processes');
#2 = APPLICATION_PROTOCOL_DEFINITION('international standard','automotive_design',2000,#1);
#3 = PRODUCT_CONTEXT('',#1,'mechanical');
#4 = PRODUCT('shape','shape','',(#3));
#5 = PRODUCT_DEFINITION_CONTEXT('part definition',#1,'design');
#6 = PRODUCT_DEFINITION_FORMATION('','',#4);
#7 = PRODUCT_DEFINITION('design','',#6,#5);
#8 = PRODUCT_DEFINITION_SHAPE('','',#7);
#9 = (
LENGTH_UNIT()
NAMED_UNIT(*)
SI_UNIT(.MILLI.,.METRE.)
);
#10 = (
NAMED_UNIT(*)
PLANE_ANGLE_UNIT()
SI_UNIT($,.RADIAN.)
);
#11 = (
NAMED_UNIT(*)
SI_UNIT($,.STERADIAN.)
SOLID_ANGLE_UNIT()
);
#12 = UNCERTAINTY_MEASURE_WITH_UNIT(LENGTH_MEASURE(1.E-07),#9,'distance_accuracy_value','confusion accuracy');
#13 = (
GEOMETRIC_REPRESENTATION_CONTEXT(3)
GLOBAL_UNCERTAINTY_ASSIGNED_CONTEXT((#12))
GLOBAL_UNIT_ASSIGNED_CONTEXT((#9,#10,#11))
REPRESENTATION_CONTEXT('Context #1','3D
Context with
TORTURE://UNITS')
);
#14 = CARTESIAN_POINT('',(0.,0.,0.));
#15 = DIRECTION('',(0.,0.,1.));
#16 = DIRECTION('',(1.,0.,0.));
#17 = AXIS2_PLACEMENT_3D('',#14,#15,#16);
#18 = CARTESIAN_POINT('',(-0.5,-0.625,0.));
#19 = VERTEX_POINT('',#18);
#20 = CARTESIAN_POINT('',(-0.5,-0.625,0.55));
#21 = VERTEX_POINT('',#20);
#22 = CARTESIAN_POINT('',(-0.5,0.625,0.55));
#23 = VERTEX_POINT('',#22);
#24 = CARTESIAN_POINT('',(-0.5,0.625,0.));
#25 = VERTEX_POINT('',#24);
#26 = DIRECTION('',(0.,0.,1.));
#27 = VECTOR('',#26,1.);
#28 = LINE('',#18,#27);
#29 = EDGE_CURVE('',#19,#21,#28,.T.);
#30 = ORIENTED_EDGE('',*,*,#29,.T.);
#31 = DIRECTION('',(0.,1.,0.));
#32 = VECTOR('',#31,1.);
#33 = LINE('',#20,#32);
#34 = EDGE_CURVE('',#21,#23,#33,.T.);
#35 = ORIENTED_EDGE('',*,*,#34,.T.);
#36 = DIRECTION('',(0.,0.,1.));
#37 = VECTOR('',#36,1.);
#38 = LINE('',#24,#37);
#39 = EDGE_CURVE('',#25,#23,#38,.T.);
#40 = ORIENTED_EDGE('',*,*,#39,.F.);
#41 = DIRECTION('',(0.,1.,0.));
#42 = VECTOR('',#41,1.);
#43 = LINE('',#18,#42);
#44 = EDGE_CURVE('',#19,#25,#43,.T.);
#45 = ORIENTED_EDGE('',*,*,#44,.F.);
#46 = CARTESIAN_POINT('',(-0.5,-0.625,0.));
#47 = DIRECTION('',(-1.,0.,0.));
#48 = DIRECTION('',(0.,0.,1.));
#49 = AXIS2_PLACEMENT_3D('',#46,#47,#48);
#50 = PLANE('',#49);
#51 = EDGE_LOOP('',(#30,#35,#40,#45));
#52 = FACE_OUTER_BOUND('',#51,.T.);
#53 = ADVANCED_FACE('',(#52),#50,.T.);
#54 = CARTESIAN_POINT('',(0.5,-0.625,0.));
#55 = VERTEX_POINT('',#54);
#56 = CARTESIAN_POINT('',(0.5,0.625,0.));
#57 = VERTEX_POINT('',#56);
#58 = CARTESIAN_POINT('',(0.5,0.625,0.55));
#59 = VERTEX_POINT('',#58);
#60 = CARTESIAN_POINT('',(0.5,-0.625,0.55));
#61 = VERTEX_POINT('',#60);
#62 = DIRECTION('',(0.,1.,0.));
#63 = VECTOR('',#62,1.);
#64 = LINE('',#54,#63);
#65 = EDGE_CURVE('',#55,#57,#64,.T.);
#66 = ORIENTED_EDGE('',*,*,#65,.T.);
#67 = DIRECTION('',(0.,0.,1.));
#68 = VECTOR('',#67,1.);
#69 = LINE('',#56,#68);
#70 = EDGE_CURVE('',#57,#59,#69,.T.);
#71 = ORIENTED_EDGE('',*,*,#70,.T.);
#72 = DIRECTION('',(0.,1.,0.));
#73 = VECTOR('',#72,1.);
#74 = LINE('',#60,#73);
#75 = EDGE_CURVE('',#61,#59,#74,.T.);
#76 = ORIENTED_EDGE('',*,*,#75,.F.);
#77 = DIRECTION('',(0.,0.,1.));
#78 = VECTOR('',#77,1.);
#79 = LINE('',#54,#78);
#80 = EDGE_CURVE('',#55,#61,#79,.T.);
#81 = ORIENTED_EDGE('',*,*,#80,.F.);
#82 = CARTESIAN_POINT('',(0.5,-0.625,0.));
#83 = DIRECTION('',(1.,0.,0.));
#84 = DIRECTION('',(0.,1.,0.));
#85 = AXIS2_PLACEMENT_3D('',#82,#83,#84);
#86 = PLANE('',#85);
#87 = EDGE_LOOP('',(#66,#71,#76,#81));
#88 = FACE_OUTER_BOUND('',#87,.T.);
#89 = ADVANCED_FACE('',(#88),#86,.T.);
#90 = DIRECTION('',(1.,0.,0.));
#91 = VECTOR('',#90,1.);
#92 = LINE('',#18,#91);
#93 = EDGE_CURVE('',#19,#55,#92,.T.);
#94 = ORIENTED_EDGE('',*,*,#93,.T.);
#95 = ORIENTED_EDGE('',*,*,#80,.T.);
#96 = DIRECTION('',(1.,0.,0.));
#97 = VECTOR('',#96,1.);
#98 = LINE('',#20,#97);
#99 = EDGE_CURVE('',#21,#61,#98,.T.);
#100 = ORIENTED_EDGE('',*,*,#99,.F.);
#101 = ORIENTED_EDGE('',*,*,#29,.F.);
#102 = CARTESIAN_POINT('',(-0.5,-0.625,0.));
#103 = DIRECTION('',(0.,-1.,0.));
#104 = DIRECTION('',(1.,0.,0.));
#105 = AXIS2_PLACEMENT_3D('',#102,#103,#104);
#106 = PLANE('',#105);
#107 = EDGE_LOOP('',(#94,#95,#100,#101));
#108 = FACE_OUTER_BOUND('',#107,.T.);
#109 = ADVANCED_FACE('',(#108),#106,.T.);
#110 = ORIENTED_EDGE('',*,*,#39,.T.);
#111 = DIRECTION('',(1.,0.,0.));
#112 = VECTOR('',#111,1.);
#113 = LINE('',#22,#112);
#114 = EDGE_CURVE('',#23,#59,#113,.T.);
#115 = ORIENTED_EDGE('',*,*,#114,.T.);
#116 = ORIENTED_EDGE('',*,*,#70,.F.);
#117 = DIRECTION('',(1.,0.,0.));
#118 = VECTOR('',#117,1.);
#119 = LINE('',#24,#118);
#120 = EDGE_CURVE('',#25,#57,#119,.T.);
#121 = ORIENTED_EDGE('',*,*,#120,.F.);
#122 = CARTESIAN_POINT('',(-0.5,0.625,0.));
#123 = DIRECTION('',(0.,1.,0.));
#124 = DIRECTION('',(0.,0.,1.));
#125 = AXIS2_PLACEMENT_3D('',#122,#123,#124);
#126 = PLANE('',#125);
#127 = EDGE_LOOP('',(#110,#115,#116,#121));
#128 = FACE_OUTER_BOUND('',#127,.T.);
#129 = ADVANCED_FACE('',(#128),#126,.T.);
#130 = ORIENTED_EDGE('',*,*,#44,.T.);
#131 = ORIENTED_EDGE('',*,*,#120,.T.);
#132 = ORIENTED_EDGE('',*,*,#65,.F.);
#133 = ORIENTED_EDGE('',*,*,#93,.F.);
#134 = CARTESIAN_POINT('',(-0.5,-0.625,0.));
#135 = DIRECTION('',(0.,0.,-1.));
#136 = DIRECTION('',(0.,1.,0.));
#137 = AXIS2_PLACEMENT_3D('',#134,#135,#136);
#138 = PLANE('',#137);
#139 = EDGE_LOOP('',(#130,#131,#132,#133));
#140 = FACE_OUTER_BOUND('',#139,.T.);
#141 = ADVANCED_FACE('',(#140),#138,.T.);
#142 = ORIENTED_EDGE('',*,*,#99,.T.);
#143 = ORIENTED_EDGE('',*,*,#75,.T.);
#144 = ORIENTED_EDGE('',*,*,#114,.F.);
#145 = ORIENTED_EDGE('',*,*,#34,.F.);
#146 = CARTESIAN_POINT('',(-0.5,-0.625,0.55));
#147 = DIRECTION('',(0.,0.,1.));
#148 = DIRECTION('',(1.,0.,0.));
#149 = AXIS2_PLACEMENT_3D('',#146,#147,#148);
#150 = PLANE('',#149);
#151 = EDGE_LOOP('',(#142,#143,#144,#145));
#152 = FACE_OUTER_BOUND('',#151,.T.);
#153 = ADVANCED_FACE('',(#152),#150,.T.);
#154 = CLOSED_SHELL('',(#53,#89,#109,#129,#141,#153));
#155 = MANIFOLD_SOLID_BREP('',#154);
#156 = COLOUR_RGB('',0.5215686274509804,0.4235294117647059,0.30196078431372547);
#157 = FILL_AREA_STYLE_COLOUR('',#156);
#158 = FILL_AREA_STYLE('',(#157));
#159 = SURFACE_STYLE_FILL_AREA(#158);
#160 = SURFACE_SIDE_STYLE('',(#159));
#161 = SURFACE_STYLE_USAGE(.BOTH.,#160);
#162 = PRESENTATION_STYLE_ASSIGNMENT((#161));
#163 = STYLED_ITEM('',(#162),#155);
#164 = CARTESIAN_POINT('',(0.5,-0.625,0.));
#165 = VERTEX_POINT('',#164);
#166 = CARTESIAN_POINT('',(0.5,-0.625,0.55));
#167 = VERTEX_POINT('',#166);
#168 = CARTESIAN_POINT('',(0.5,0.625,0.55));
#169 = VERTEX_POINT('',#168);
#170 = CARTESIAN_POINT('',(0.5,0.625,0.));
#171 = VERTEX_POINT('',#170);
#172 = DIRECTION('',(0.,0.,1.));
#173 = VECTOR('',#172,1.);
#174 = LINE('',#164,#173);
#175 = EDGE_CURVE('',#165,#167,#174,.T.);
#176 = ORIENTED_EDGE('',*,*,#175,.T.);
#177 = DIRECTION('',(0.,1.,0.));
#178 = VECTOR('',#177,1.);
#179 = LINE('',#166,#178);
#180 = EDGE_CURVE('',#167,#169,#179,.T.);
#181 = ORIENTED_EDGE('',*,*,#180,.T.);
#182 = DIRECTION('',(0.,0.,1.));
#183 = VECTOR('',#182,1.);
#184 = LINE('',#170,#183);
#185 = EDGE_CURVE('',#171,#169,#184,.T.);
#186 = ORIENTED_EDGE('',*,*,#185,.F.);
#187 = DIRECTION('',(0.,1.,0.));
#188 = VECTOR('',#187,1.);
#189 = LINE('',#164,#188);
#190 = EDGE_CURVE('',#165,#171,#189,.T.);
#191 = ORIENTED_EDGE('',*,*,#190,.F.);
#192 = CARTESIAN_POINT('',(0.5,-0.625,0.));
#193 = DIRECTION('',(-1.,0.,0.));
#194 = DIRECTION('',(0.,0.,1.));
#195 = AXIS2_PLACEMENT_3D('',#192,#193,#194);
#196 = PLANE('',#195);
#197 = EDGE_LOOP('',(#176,#181,#186,#191));
#198 = FACE_OUTER_BOUND('',#197,.T.);
#199 = ADVANCED_FACE('',(#198),#196,.T.);
#200 = CARTESIAN_POINT('',(1.,-0.625,0.));
#201 = VERTEX_POINT('',#200);
#202 = CARTESIAN_POINT('',(1.,0.625,0.));
#203 = VERTEX_POINT('',#202);
#204 = CARTESIAN_POINT('',(1.,0.625,0.55));
#205 = VERTEX_POINT('',#204);
#206 = CARTESIAN_POINT('',(1.,-0.625,0.55));
#207 = VERTEX_POINT('',#206);
#208 = DIRECTION('',(0.,1.,0.));
#209 = VECTOR('',#208,1.);
#210 = LINE('',#200,#209);
#211 = EDGE_CURVE('',#201,#203,#210,.T.);
#212 = ORIENTED_EDGE('',*,*,#211,.T.);
#213 = DIRECTION('',(0.,0.,1.));
#214 = VECTOR('',#213,1.);
#215 = LINE('',#202,#214);
#216 = EDGE_CURVE('',#203,#205,#215,.T.);
#217 = ORIENTED_EDGE('',*,*,#216,.T.);
#218 = DIRECTION('',(0.,1.,0.));
#219 = VECTOR('',#218,1.);
#220 = LINE('',#206,#219);
#221 = EDGE_CURVE('',#207,#205,#220,.T.);
#222 = ORIENTED_EDGE('',*,*,#221,.F.);
#223 = DIRECTION('',(0.,0.,1.));
#224 = VECTOR('',#223,1.);
#225 = LINE('',#200,#224);
#226 = EDGE_CURVE('',#201,#207,#225,.T.);
#227 = ORIENTED_EDGE('',*,*,#226,.F.);
#228 = CARTESIAN_POINT('',(1.,-0.625,0.));
#229 = DIRECTION('',(1.,0.,0.));
#230 = DIRECTION('',(0.,1.,0.));
#231 = AXIS2_PLACEMENT_3D('',#228,#229,#230);
#232 = PLANE('',#231);
#233 = EDGE_LOOP('',(#212,#217,#222,#227));
#234 = FACE_OUTER_BOUND('',#233,.T.);
#235 = ADVANCED_FACE('',(#234),#232,.T.);
#236 = DIRECTION('',(1.,0.,0.));
#237 = VECTOR('',#236,1.);
#238 = LINE('',#164,#237);
#239 = EDGE_CURVE('',#165,#201,#238,.T.);
#240 = ORIENTED_EDGE('',*,*,#239,.T.);
#241 = ORIENTED_EDGE('',*,*,#226,.T.);
#242 = DIRECTION('',(1.,0.,0.));
#243 = VECTOR('',#242,1.);
#244 = LINE('',#166,#243);
#245 = EDGE_CURVE('',#167,#207,#244,.T.);
#246 = ORIENTED_EDGE('',*,*,#245,.F.);
#247 = ORIENTED_EDGE('',*,*,#175,.F.);
#248 = CARTESIAN_POINT('',(0.5,-0.625,0.));
#249 = DIRECTION('',(0.,-1.,0.));
#250 = DIRECTION('',(1.,0.,0.));
#251 = AXIS2_PLACEMENT_3D('',#248,#249,#250);
#252 = PLANE('',#251);
#253 = EDGE_LOOP('',(#240,#241,#246,#247));
#254 = FACE_OUTER_BOUND('',#253,.T.);
#255 = ADVANCED_FACE('',(#254),#252,.T.);
#256 = ORIENTED_EDGE('',*,*,#185,.T.);
#257 = DIRECTION('',(1.,0.,0.));
#258 = VECTOR('',#257,1.);
#259 = LINE('',#168,#258);
#260 = EDGE_CURVE('',#169,#205,#259,.T.);
#261 = ORIENTED_EDGE('',*,*,#260,.T.);
#262 = ORIENTED_EDGE('',*,*,#216,.F.);
#263 = DIRECTION('',(1.,0.,0.));
#264 = VECTOR('',#263,1.);
#265 = LINE('',#170,#264);
#266 = EDGE_CURVE('',#171,#203,#265,.T.);
#267 = ORIENTED_EDGE('',*,*,#266,.F.);
#268 = CARTESIAN_POINT('',(0.5,0.625,0.));
#269 = DIRECTION('',(0.,1.,0.));
#270 = DIRECTION('',(0.,0.,1.));
#271 = AXIS2_PLACEMENT_3D('',#268,#269,#270);
#272 = PLANE('',#271);
#273 = EDGE_LOOP('',(#256,#261,#262,#267));
#274 = FACE_OUTER_BOUND('',#273,.T.);
#275 = ADVANCED_FACE('',(#274),#272,.T.);
#276 = ORIENTED_EDGE('',*,*,#190,.T.);
#277 = ORIENTED_EDGE('',*,*,#266,.T.);
#278 = ORIENTED_EDGE('',*,*,#211,.F.);
#279 = ORIENTED_EDGE('',*,*,#239,.F.);
#280 = CARTESIAN_POINT('',(0.5,-0.625,0.));
#281 = DIRECTION('',(0.,0.,-1.));
#282 = DIRECTION('',(0.,1.,0.));
#283 = AXIS2_PLACEMENT_3D('',#280,#281,#282);
#284 = PLANE('',#283);
#285 = EDGE_LOOP('',(#276,#277,#278,#279));
#286 = FACE_OUTER_BOUND('',#285,.T.);
#287 = ADVANCED_FACE('',(#286),#284,.T.);
#288 = ORIENTED_EDGE('',*,*,#245,.T.);
#289 = ORIENTED_EDGE('',*,*,#221,.T.);
#290 = ORIENTED_EDGE('',*,*,#260,.F.);
#291 = ORIENTED_EDGE('',*,*,#180,.F.);
#292 = CARTESIAN_POINT('',(0.5,-0.625,0.55));
#293 = DIRECTION('',(0.,0.,1.));
#294 = DIRECTION('',(1.,0.,0.));
#295 = AXIS2_PLACEMENT_3D('',#292,#293,#294);
#296 = PLANE('',#295);
#297 = EDGE_LOOP('',(#288,#289,#290,#291));
#298 = FACE_OUTER_BOUND('',#297,.T.);
#299 = ADVANCED_FACE('',(#298),#296,.T.);
#300 = CLOSED_SHELL('',(#199,#235,#255,#275,#287,#299));
#301 = MANIFOLD_SOLID_BREP('',#300);
#302 = COLOUR_RGB('',0.8,0.8,0.8);
#303 = FILL_AREA_STYLE_COLOUR('',#302);
#304 = FILL_AREA_STYLE('',(#303));
#305 = SURFACE_STYLE_FILL_AREA(#304);
#306 = SURFACE_SIDE_STYLE('',(#305));
#307 = SURFACE_STYLE_USAGE(.BOTH.,#306);
#308 = PRESENTATION_STYLE_ASSIGNMENT((#307));
#309 = STYLED_ITEM('',(#308),#301);
#310 = CARTESIAN_POINT('',(-1.,-0.625,0.));
#311 = VERTEX_POINT('',#310);
#312 = CARTESIAN_POINT('',(-1.,-0.625,0.55));
#313 = VERTEX_POINT('',#312);
#314 = CARTESIAN_POINT('',(-1.,0.625,0.55));
#315 = VERTEX_POINT('',#314);
#316 = CARTESIAN_POINT('',(-1.,0.625,0.));
#317 = VERTEX_POINT('',#316);
#318 = DIRECTION('',(0.,0.,1.));
#319 = VECTOR('',#318,1.);
#320 = LINE('',#310,#319);
#321 = EDGE_CURVE('',#311,#313,#320,.T.);
#322 = ORIENTED_EDGE('',*,*,#321,.T.);
#323 = DIRECTION('',(0.,1.,0.));
#324 = VECTOR('',#323,1.);
#325 = LINE('',#312,#324);
#326 = EDGE_CURVE('',#313,#315,#325,.T.);
#327 = ORIENTED_EDGE('',*,*,#326,.T.);
#328 = DIRECTION('',(0.,0.,1.));
#329 = VECTOR('',#328,1.);
#330 = LINE('',#316,#329);
#331 = EDGE_CURVE('',#317,#315,#330,.T.);
#332 = ORIENTED_EDGE('',*,*,#331,.F.);
#333 = DIRECTION('',(0.,1.,0.));
#334 = VECTOR('',#333,1.);
#335 = LINE('',#310,#334);
#336 = EDGE_CURVE('',#311,#317,#335,.T.);
#337 = ORIENTED_EDGE('',*,*,#336,.F.);
#338 = CARTESIAN_POINT('',(-1.,-0.625,0.));
#339 = DIRECTION('',(-1.,0.,0.));
#340 = DIRECTION('',(0.,0.,1.));
#341 = AXIS2_PLACEMENT_3D('',#338,#339,#340);
#342 = PLANE('',#341);
#343 = EDGE_LOOP('',(#322,#327,#332,#337));
#344 = FACE_OUTER_BOUND('',#343,.T.);
#345 = ADVANCED_FACE('',(#344),#342,.T.);
#346 = CARTESIAN_POINT('',(-0.5,-0.625,0.));
#347 = VERTEX_POINT('',#346);
#348 = CARTESIAN_POINT('',(-0.5,0.625,0.));
#349 = VERTEX_POINT('',#348);
#350 = CARTESIAN_POINT('',(-0.5,0.625,0.55));
#351 = VERTEX_POINT('',#350);
#352 = CARTESIAN_POINT('',(-0.5,-0.625,0.55));
#353 = VERTEX_POINT('',#352);
#354 = DIRECTION('',(0.,1.,0.));
#355 = VECTOR('',#354,1.);
#356 = LINE('',#346,#355);
#357 = EDGE_CURVE('',#347,#349,#356,.T.);
#358 = ORIENTED_EDGE('',*,*,#357,.T.);
#359 = DIRECTION('',(0.,0.,1.));
#360 = VECTOR('',#359,1.);
#361 = LINE('',#348,#360);
#362 = EDGE_CURVE('',#349,#351,#361,.T.);
#363 = ORIENTED_EDGE('',*,*,#362,.T.);
#364 = DIRECTION('',(0.,1.,0.));
#365 = VECTOR('',#364,1.);
#366 = LINE('',#352,#365);
#367 = EDGE_CURVE('',#353,#351,#366,.T.);
#368 = ORIENTED_EDGE('',*,*,#367,.F.);
#369 = DIRECTION('',(0.,0.,1.));
#370 = VECTOR('',#369,1.);
#371 = LINE('',#346,#370);
#372 = EDGE_CURVE('',#347,#353,#371,.T.);
#373 = ORIENTED_EDGE('',*,*,#372,.F.);
#374 = CARTESIAN_POINT('',(-0.5,-0.625,0.));
#375 = DIRECTION('',(1.,0.,0.));
#376 = DIRECTION('',(0.,1.,0.));
#377 = AXIS2_PLACEMENT_3D('',#374,#375,#376);
#378 = PLANE('',#377);
#379 = EDGE_LOOP('',(#358,#363,#368,#373));
#380 = FACE_OUTER_BOUND('',#379,.T.);
#381 = ADVANCED_FACE('',(#380),#378,.T.);
#382 = DIRECTION('',(-1.,0.,0.));
#383 = VECTOR('',#382,1.);
#384 = LINE('',#346,#383);
#385 = EDGE_CURVE('',#347,#311,#384,.T.);
#386 = ORIENTED_EDGE('',*,*,#385,.F.);
#387 = ORIENTED_EDGE('',*,*,#372,.T.);
#388 = DIRECTION('',(-1.,0.,0.));
#389 = VECTOR('',#388,1.);
#390 = LINE('',#352,#389);
#391 = EDGE_CURVE('',#353,#313,#390,.T.);
#392 = ORIENTED_EDGE('',*,*,#391,.T.);
#393 = ORIENTED_EDGE('',*,*,#321,.F.);
#394 = CARTESIAN_POINT('',(-1.,-0.625,0.));
#395 = DIRECTION('',(0.,-1.,0.));
#396 = DIRECTION('',(1.,0.,0.));
#397 = AXIS2_PLACEMENT_3D('',#394,#395,#396);
#398 = PLANE('',#397);
#399 = EDGE_LOOP('',(#386,#387,#392,#393));
#400 = FACE_OUTER_BOUND('',#399,.T.);
#401 = ADVANCED_FACE('',(#400),#398,.T.);
#402 = ORIENTED_EDGE('',*,*,#331,.T.);
#403 = DIRECTION('',(-1.,0.,0.));
#404 = VECTOR('',#403,1.);
#405 = LINE('',#350,#404);
#406 = EDGE_CURVE('',#351,#315,#405,.T.);
#407 = ORIENTED_EDGE('',*,*,#406,.F.);
#408 = ORIENTED_EDGE('',*,*,#362,.F.);
#409 = DIRECTION('',(-1.,0.,0.));
#410 = VECTOR('',#409,1.);
#411 = LINE('',#348,#410);
#412 = EDGE_CURVE('',#349,#317,#411,.T.);
#413 = ORIENTED_EDGE('',*,*,#412,.T.);
#414 = CARTESIAN_POINT('',(-1.,0.625,0.));
#415 = DIRECTION('',(0.,1.,0.));
#416 = DIRECTION('',(0.,0.,1.));
#417 = AXIS2_PLACEMENT_3D('',#414,#415,#416);
#418 = PLANE('',#417);
#419 = EDGE_LOOP('',(#402,#407,#408,#413));
#420 = FACE_OUTER_BOUND('',#419,.T.);
#421 = ADVANCED_FACE('',(#420),#418,.T.);
#422 = ORIENTED_EDGE('',*,*,#336,.T.);
#423 = ORIENTED_EDGE('',*,*,#412,.F.);
#424 = ORIENTED_EDGE('',*,*,#357,.F.);
#425 = ORIENTED_EDGE('',*,*,#385,.T.);
#426 = CARTESIAN_POINT('',(-1.,-0.625,0.));
#427 = DIRECTION('',(0.,0.,-1.));
#428 = DIRECTION('',(0.,1.,0.));
#429 = AXIS2_PLACEMENT_3D('',#426,#427,#428);
#430 = PLANE('',#429);
#431 = EDGE_LOOP('',(#422,#423,#424,#425));
#432 = FACE_OUTER_BOUND('',#431,.T.);
#433 = ADVANCED_FACE('',(#432),#430,.T.);
#434 = ORIENTED_EDGE('',*,*,#391,.F.);
#435 = ORIENTED_EDGE('',*,*,#367,.T.);
#436 = ORIENTED_EDGE('',*,*,#406,.T.);
#437 = ORIENTED_EDGE('',*,*,#326,.F.);
#438 = CARTESIAN_POINT('',(-1.,-0.625,0.55));
#439 = DIRECTION('',(0.,0.,1.));
#440 = DIRECTION('',(1.,0.,0.));
#441 = AXIS2_PLACEMENT_3D('',#438,#439,#440);
#442 = PLANE('',#441);
#443 = EDGE_LOOP('',(#434,#435,#436,#437));
#444 = FACE_OUTER_BOUND('',#443,.T.);
#445 = ADVANCED_FACE('',(#444),#442,.T.);
#446 = CLOSED_SHELL('',(#345,#381,#401,#421,#433,#445));
#447 = MANIFOLD_SOLID_BREP('',#446);
#448 = COLOUR_RGB('',0.8,0.8,0.8);
#449 = FILL_AREA_STYLE_COLOUR('',#448);
#450 = FILL_AREA_STYLE('',(#449));
#451 = SURFACE_STYLE_FILL_AREA(#450);
#452 = SURFACE_SIDE_STYLE('',(#451));
#453 = SURFACE_STYLE_USAGE(.BOTH.,#452);
#454 = PRESENTATION_STYLE_ASSIGNMENT((#453));
#455 = STYLED_ITEM('',(#454),#447);
#456 = ADVANCED_BREP_SHAPE_REPRESENTATION('',(#17,#155,#301,#447),#13);
#457 = SHAPE_DEFINITION_REPRESENTATION(#8,#456);
#458 = MECHANICAL_DESIGN_GEOMETRIC_PRESENTATION_REPRESENTATION('',(#163,#309,#455),#13);
ENDSEC;
END-ISO-10303-21;