ISO-10303-21;
HEADER;
FILE_DESCRIPTION(('shape.step'),'2;1');
FILE_NAME('shape.step','2026-09-12',('tscircuit'),('tscircuit'),'generator','','');
FILE_SCHEMA(('AUTOMOTIVE_DESIGN { 1 0 10303 214 1 1 1 1 }'));
ENDSEC;
DATA;
#1 = APPLICATION_CONTEXT('core data for automotive mechanical design processes');
#2 = APPLICATION_PROTOCOL_DEFINITION('international standard','automotive_design',2000,#1);
#3 = PRODUCT_CONTEXT('',#1,'mechanical');
#4 = PRODUCT('shape','shape','',(#3));
#5 = PRODUCT_DEFINITION_CONTEXT('part definition',#1,'design');
#6 = PRODUCT_DEFINITION_FORMATION('','',#4);
#7 = PRODUCT_DEFINITION('design','',#6,#5);
#8 = PRODUCT_DEFINITION_SHAPE('','',#7);
#9 = (
LENGTH_UNIT()
NAMED_UNIT(*)
SI_UNIT(.MILLI.,.METRE.)
);
#10 = (
NAMED_UNIT(*)
PLANE_ANGLE_UNIT()
SI_UNIT($,.RADIAN.)
);
#11 = (
NAMED_UNIT(*)
SI_UNIT($,.STERADIAN.)
SOLID_ANGLE_UNIT()
);
#12 = UNCERTAINTY_MEASURE_WITH_UNIT(LENGTH_MEASURE(1.E-07),#9,'distance_accuracy_value','confusion accuracy');
#13 = (
GEOMETRIC_REPRESENTATION_CONTEXT(3)
GLOBAL_UNCERTAINTY_ASSIGNED_CONTEXT((#12))
GLOBAL_UNIT_ASSIGNED_CONTEXT((#9,#10,#11))
REPRESENTATION_CONTEXT('Context #1','3D
Context with
TORTURE://UNITS')
);
#14 = CARTESIAN_POINT('',(0.,0.,0.));
#15 = DIRECTION('',(0.,0.,1.));
#16 = DIRECTION('',(1.,0.,0.));
#17 = AXIS2_PLACEMENT_3D('',#14,#15,#16);
#18 = CARTESIAN_POINT('',(-2.54,-1.27,-3.6));
#19 = VERTEX_POINT('',#18);
#20 = CARTESIAN_POINT('',(-2.54,-1.27,-1.6));
#21 = VERTEX_POINT('',#20);
#22 = CARTESIAN_POINT('',(-2.54,1.27,-1.6));
#23 = VERTEX_POINT('',#22);
#24 = CARTESIAN_POINT('',(-2.54,1.27,-3.6));
#25 = VERTEX_POINT('',#24);
#26 = DIRECTION('',(0.,0.,-1.));
#27 = VECTOR('',#26,1.);
#28 = LINE('',#20,#27);
#29 = EDGE_CURVE('',#21,#19,#28,.T.);
#30 = ORIENTED_EDGE('',*,*,#29,.F.);
#31 = DIRECTION('',(0.,1.,0.));
#32 = VECTOR('',#31,1.);
#33 = LINE('',#20,#32);
#34 = EDGE_CURVE('',#21,#23,#33,.T.);
#35 = ORIENTED_EDGE('',*,*,#34,.T.);
#36 = DIRECTION('',(0.,0.,-1.));
#37 = VECTOR('',#36,1.);
#38 = LINE('',#22,#37);
#39 = EDGE_CURVE('',#23,#25,#38,.T.);
#40 = ORIENTED_EDGE('',*,*,#39,.T.);
#41 = DIRECTION('',(0.,1.,0.));
#42 = VECTOR('',#41,1.);
#43 = LINE('',#18,#42);
#44 = EDGE_CURVE('',#19,#25,#43,.T.);
#45 = ORIENTED_EDGE('',*,*,#44,.F.);
#46 = CARTESIAN_POINT('',(-2.54,-1.27,-3.6));
#47 = DIRECTION('',(-1.,0.,0.));
#48 = DIRECTION('',(0.,0.,1.));
#49 = AXIS2_PLACEMENT_3D('',#46,#47,#48);
#50 = PLANE('',#49);
#51 = EDGE_LOOP('',(#30,#35,#40,#45));
#52 = FACE_OUTER_BOUND('',#51,.T.);
#53 = ADVANCED_FACE('',(#52),#50,.T.);
#54 = CARTESIAN_POINT('',(0.,-1.27,-3.6));
#55 = VERTEX_POINT('',#54);
#56 = CARTESIAN_POINT('',(0.,1.27,-3.6));
#57 = VERTEX_POINT('',#56);
#58 = CARTESIAN_POINT('',(0.,1.27,-1.6));
#59 = VERTEX_POINT('',#58);
#60 = CARTESIAN_POINT('',(0.,-1.27,-1.6));
#61 = VERTEX_POINT('',#60);
#62 = DIRECTION('',(0.,1.,0.));
#63 = VECTOR('',#62,1.);
#64 = LINE('',#54,#63);
#65 = EDGE_CURVE('',#55,#57,#64,.T.);
#66 = ORIENTED_EDGE('',*,*,#65,.T.);
#67 = DIRECTION('',(0.,0.,-1.));
#68 = VECTOR('',#67,1.);
#69 = LINE('',#58,#68);
#70 = EDGE_CURVE('',#59,#57,#69,.T.);
#71 = ORIENTED_EDGE('',*,*,#70,.F.);
#72 = DIRECTION('',(0.,1.,0.));
#73 = VECTOR('',#72,1.);
#74 = LINE('',#60,#73);
#75 = EDGE_CURVE('',#61,#59,#74,.T.);
#76 = ORIENTED_EDGE('',*,*,#75,.F.);
#77 = DIRECTION('',(0.,0.,-1.));
#78 = VECTOR('',#77,1.);
#79 = LINE('',#60,#78);
#80 = EDGE_CURVE('',#61,#55,#79,.T.);
#81 = ORIENTED_EDGE('',*,*,#80,.T.);
#82 = CARTESIAN_POINT('',(0.,-1.27,-3.6));
#83 = DIRECTION('',(1.,0.,0.));
#84 = DIRECTION('',(0.,1.,0.));
#85 = AXIS2_PLACEMENT_3D('',#82,#83,#84);
#86 = PLANE('',#85);
#87 = EDGE_LOOP('',(#66,#71,#76,#81));
#88 = FACE_OUTER_BOUND('',#87,.T.);
#89 = ADVANCED_FACE('',(#88),#86,.T.);
#90 = DIRECTION('',(1.,0.,0.));
#91 = VECTOR('',#90,1.);
#92 = LINE('',#18,#91);
#93 = EDGE_CURVE('',#19,#55,#92,.T.);
#94 = ORIENTED_EDGE('',*,*,#93,.T.);
#95 = ORIENTED_EDGE('',*,*,#80,.F.);
#96 = DIRECTION('',(1.,0.,0.));
#97 = VECTOR('',#96,1.);
#98 = LINE('',#20,#97);
#99 = EDGE_CURVE('',#21,#61,#98,.T.);
#100 = ORIENTED_EDGE('',*,*,#99,.F.);
#101 = ORIENTED_EDGE('',*,*,#29,.T.);
#102 = CARTESIAN_POINT('',(-2.54,-1.27,-3.6));
#103 = DIRECTION('',(0.,-1.,0.));
#104 = DIRECTION('',(1.,0.,0.));
#105 = AXIS2_PLACEMENT_3D('',#102,#103,#104);
#106 = PLANE('',#105);
#107 = EDGE_LOOP('',(#94,#95,#100,#101));
#108 = FACE_OUTER_BOUND('',#107,.T.);
#109 = ADVANCED_FACE('',(#108),#106,.T.);
#110 = ORIENTED_EDGE('',*,*,#39,.F.);
#111 = DIRECTION('',(1.,0.,0.));
#112 = VECTOR('',#111,1.);
#113 = LINE('',#22,#112);
#114 = EDGE_CURVE('',#23,#59,#113,.T.);
#115 = ORIENTED_EDGE('',*,*,#114,.T.);
#116 = ORIENTED_EDGE('',*,*,#70,.T.);
#117 = DIRECTION('',(1.,0.,0.));
#118 = VECTOR('',#117,1.);
#119 = LINE('',#24,#118);
#120 = EDGE_CURVE('',#25,#57,#119,.T.);
#121 = ORIENTED_EDGE('',*,*,#120,.F.);
#122 = CARTESIAN_POINT('',(-2.54,1.27,-3.6));
#123 = DIRECTION('',(0.,1.,0.));
#124 = DIRECTION('',(0.,0.,1.));
#125 = AXIS2_PLACEMENT_3D('',#122,#123,#124);
#126 = PLANE('',#125);
#127 = EDGE_LOOP('',(#110,#115,#116,#121));
#128 = FACE_OUTER_BOUND('',#127,.T.);
#129 = ADVANCED_FACE('',(#128),#126,.T.);
#130 = ORIENTED_EDGE('',*,*,#44,.T.);
#131 = ORIENTED_EDGE('',*,*,#120,.T.);
#132 = ORIENTED_EDGE('',*,*,#65,.F.);
#133 = ORIENTED_EDGE('',*,*,#93,.F.);
#134 = CARTESIAN_POINT('',(-2.54,-1.27,-3.6));
#135 = DIRECTION('',(0.,0.,-1.));
#136 = DIRECTION('',(0.,1.,0.));
#137 = AXIS2_PLACEMENT_3D('',#134,#135,#136);
#138 = PLANE('',#137);
#139 = EDGE_LOOP('',(#130,#131,#132,#133));
#140 = FACE_OUTER_BOUND('',#139,.T.);
#141 = ADVANCED_FACE('',(#140),#138,.T.);
#142 = ORIENTED_EDGE('',*,*,#99,.T.);
#143 = ORIENTED_EDGE('',*,*,#75,.T.);
#144 = ORIENTED_EDGE('',*,*,#114,.F.);
#145 = ORIENTED_EDGE('',*,*,#34,.F.);
#146 = CARTESIAN_POINT('',(-2.54,-1.27,-1.6));
#147 = DIRECTION('',(0.,0.,1.));
#148 = DIRECTION('',(1.,0.,0.));
#149 = AXIS2_PLACEMENT_3D('',#146,#147,#148);
#150 = PLANE('',#149);
#151 = EDGE_LOOP('',(#142,#143,#144,#145));
#152 = FACE_OUTER_BOUND('',#151,.T.);
#153 = ADVANCED_FACE('',(#152),#150,.T.);
#154 = CLOSED_SHELL('',(#53,#89,#109,#129,#141,#153));
#155 = MANIFOLD_SOLID_BREP('',#154);
#156 = COLOUR_RGB('',0.13333333333333333,0.13333333333333333,0.13333333333333333);
#157 = FILL_AREA_STYLE_COLOUR('',#156);
#158 = FILL_AREA_STYLE('',(#157));
#159 = SURFACE_STYLE_FILL_AREA(#158);
#160 = SURFACE_SIDE_STYLE('',(#159));
#161 = SURFACE_STYLE_USAGE(.BOTH.,#160);
#162 = PRESENTATION_STYLE_ASSIGNMENT((#161));
#163 = STYLED_ITEM('',(#162),#155);
#164 = CARTESIAN_POINT('',(-0.9550000000000001,-0.315,-2.1500000000000004));
#165 = VERTEX_POINT('',#164);
#166 = CARTESIAN_POINT('',(-0.9550000000000001,-0.315,0.5499999999999998));
#167 = VERTEX_POINT('',#166);
#168 = CARTESIAN_POINT('',(-1.585,-0.315,0.5499999999999998));
#169 = VERTEX_POINT('',#168);
#170 = CARTESIAN_POINT('',(-1.585,-0.315,-2.1500000000000004));
#171 = VERTEX_POINT('',#170);
#172 = DIRECTION('',(0.,0.,1.));
#173 = VECTOR('',#172,1.);
#174 = LINE('',#164,#173);
#175 = EDGE_CURVE('',#165,#167,#174,.T.);
#176 = ORIENTED_EDGE('',*,*,#175,.T.);
#177 = DIRECTION('',(-1.,0.,0.));
#178 = VECTOR('',#177,1.);
#179 = LINE('',#166,#178);
#180 = EDGE_CURVE('',#167,#169,#179,.T.);
#181 = ORIENTED_EDGE('',*,*,#180,.T.);
#182 = DIRECTION('',(0.,0.,1.));
#183 = VECTOR('',#182,1.);
#184 = LINE('',#170,#183);
#185 = EDGE_CURVE('',#171,#169,#184,.T.);
#186 = ORIENTED_EDGE('',*,*,#185,.F.);
#187 = DIRECTION('',(-1.,0.,0.));
#188 = VECTOR('',#187,1.);
#189 = LINE('',#164,#188);
#190 = EDGE_CURVE('',#165,#171,#189,.T.);
#191 = ORIENTED_EDGE('',*,*,#190,.F.);
#192 = CARTESIAN_POINT('',(-0.9550000000000001,-0.315,-2.1500000000000004));
#193 = DIRECTION('',(0.,-1.,0.));
#194 = DIRECTION('',(0.,0.,1.));
#195 = AXIS2_PLACEMENT_3D('',#192,#193,#194);
#196 = PLANE('',#195);
#197 = EDGE_LOOP('',(#176,#181,#186,#191));
#198 = FACE_OUTER_BOUND('',#197,.T.);
#199 = ADVANCED_FACE('',(#198),#196,.T.);
#200 = CARTESIAN_POINT('',(-0.9550000000000001,0.315,0.5499999999999998));
#201 = VERTEX_POINT('',#200);
#202 = CARTESIAN_POINT('',(-0.9550000000000001,0.315,-2.1500000000000004));
#203 = VERTEX_POINT('',#202);
#204 = DIRECTION('',(0.,1.,0.));
#205 = VECTOR('',#204,1.);
#206 = LINE('',#166,#205);
#207 = EDGE_CURVE('',#167,#201,#206,.T.);
#208 = ORIENTED_EDGE('',*,*,#207,.F.);
#209 = ORIENTED_EDGE('',*,*,#175,.F.);
#210 = DIRECTION('',(0.,1.,0.));
#211 = VECTOR('',#210,1.);
#212 = LINE('',#164,#211);
#213 = EDGE_CURVE('',#165,#203,#212,.T.);
#214 = ORIENTED_EDGE('',*,*,#213,.T.);
#215 = DIRECTION('',(0.,0.,1.));
#216 = VECTOR('',#215,1.);
#217 = LINE('',#202,#216);
#218 = EDGE_CURVE('',#203,#201,#217,.T.);
#219 = ORIENTED_EDGE('',*,*,#218,.T.);
#220 = CARTESIAN_POINT('',(-0.9550000000000001,0.315,0.5499999999999998));
#221 = DIRECTION('',(1.,0.,0.));
#222 = DIRECTION('',(0.,-1.,0.));
#223 = AXIS2_PLACEMENT_3D('',#220,#221,#222);
#224 = PLANE('',#223);
#225 = EDGE_LOOP('',(#208,#209,#214,#219));
#226 = FACE_OUTER_BOUND('',#225,.T.);
#227 = ADVANCED_FACE('',(#226),#224,.T.);
#228 = CARTESIAN_POINT('',(-1.585,0.315,-2.1500000000000004));
#229 = VERTEX_POINT('',#228);
#230 = DIRECTION('',(-1.,0.,0.));
#231 = VECTOR('',#230,1.);
#232 = LINE('',#202,#231);
#233 = EDGE_CURVE('',#203,#229,#232,.T.);
#234 = ORIENTED_EDGE('',*,*,#233,.F.);
#235 = ORIENTED_EDGE('',*,*,#213,.F.);
#236 = ORIENTED_EDGE('',*,*,#190,.T.);
#237 = DIRECTION('',(0.,1.,0.));
#238 = VECTOR('',#237,1.);
#239 = LINE('',#170,#238);
#240 = EDGE_CURVE('',#171,#229,#239,.T.);
#241 = ORIENTED_EDGE('',*,*,#240,.T.);
#242 = CARTESIAN_POINT('',(-1.585,0.315,-2.1500000000000004));
#243 = DIRECTION('',(0.,0.,-1.));
#244 = DIRECTION('',(1.,0.,0.));
#245 = AXIS2_PLACEMENT_3D('',#242,#243,#244);
#246 = PLANE('',#245);
#247 = EDGE_LOOP('',(#234,#235,#236,#241));
#248 = FACE_OUTER_BOUND('',#247,.T.);
#249 = ADVANCED_FACE('',(#248),#246,.T.);
#250 = CARTESIAN_POINT('',(-1.095,-0.175,0.8999999999999999));
#251 = VERTEX_POINT('',#250);
#252 = CARTESIAN_POINT('',(-1.095,0.175,0.8999999999999999));
#253 = VERTEX_POINT('',#252);
#254 = DIRECTION('',(-0.3481553119113954,0.3481553119113957,0.8703882797784894));
#255 = VECTOR('',#254,1.);
#256 = LINE('',#166,#255);
#257 = EDGE_CURVE('',#167,#251,#256,.T.);
#258 = ORIENTED_EDGE('',*,*,#257,.F.);
#259 = ORIENTED_EDGE('',*,*,#207,.T.);
#260 = DIRECTION('',(-0.3481553119113954,-0.3481553119113957,0.8703882797784894));
#261 = VECTOR('',#260,1.);
#262 = LINE('',#200,#261);
#263 = EDGE_CURVE('',#201,#253,#262,.T.);
#264 = ORIENTED_EDGE('',*,*,#263,.T.);
#265 = DIRECTION('',(0.,1.,0.));
#266 = VECTOR('',#265,1.);
#267 = LINE('',#250,#266);
#268 = EDGE_CURVE('',#251,#253,#267,.T.);
#269 = ORIENTED_EDGE('',*,*,#268,.F.);
#270 = CARTESIAN_POINT('',(-1.095,-0.175,0.8999999999999999));
#271 = DIRECTION('',(0.9284766908852594,0.,0.37139067635410344));
#272 = DIRECTION('',(0.3481553119113954,-0.3481553119113957,-0.8703882797784894));
#273 = AXIS2_PLACEMENT_3D('',#270,#271,#272);
#274 = PLANE('',#273);
#275 = EDGE_LOOP('',(#258,#259,#264,#269));
#276 = FACE_OUTER_BOUND('',#275,.T.);
#277 = ADVANCED_FACE('',(#276),#274,.T.);
#278 = CARTESIAN_POINT('',(-1.445,-0.175,0.8999999999999999));
#279 = VERTEX_POINT('',#278);
#280 = DIRECTION('',(-1.,0.,0.));
#281 = VECTOR('',#280,1.);
#282 = LINE('',#250,#281);
#283 = EDGE_CURVE('',#251,#279,#282,.T.);
#284 = ORIENTED_EDGE('',*,*,#283,.T.);
#285 = DIRECTION('',(-0.3481553119113954,-0.3481553119113957,-0.8703882797784894));
#286 = VECTOR('',#285,1.);
#287 = LINE('',#278,#286);
#288 = EDGE_CURVE('',#279,#169,#287,.T.);
#289 = ORIENTED_EDGE('',*,*,#288,.T.);
#290 = ORIENTED_EDGE('',*,*,#180,.F.);
#291 = ORIENTED_EDGE('',*,*,#257,.T.);
#292 = CARTESIAN_POINT('',(-1.095,-0.175,0.8999999999999999));
#293 = DIRECTION('',(0.,-0.9284766908852593,0.3713906763541034));
#294 = DIRECTION('',(-1.,0.,0.));
#295 = AXIS2_PLACEMENT_3D('',#292,#293,#294);
#296 = PLANE('',#295);
#297 = EDGE_LOOP('',(#284,#289,#290,#291));
#298 = FACE_OUTER_BOUND('',#297,.T.);
#299 = ADVANCED_FACE('',(#298),#296,.T.);
#300 = CARTESIAN_POINT('',(-1.585,0.315,0.5499999999999998));
#301 = VERTEX_POINT('',#300);
#302 = DIRECTION('',(0.,0.,1.));
#303 = VECTOR('',#302,1.);
#304 = LINE('',#228,#303);
#305 = EDGE_CURVE('',#229,#301,#304,.T.);
#306 = ORIENTED_EDGE('',*,*,#305,.F.);
#307 = ORIENTED_EDGE('',*,*,#240,.F.);
#308 = ORIENTED_EDGE('',*,*,#185,.T.);
#309 = DIRECTION('',(0.,1.,0.));
#310 = VECTOR('',#309,1.);
#311 = LINE('',#168,#310);
#312 = EDGE_CURVE('',#169,#301,#311,.T.);
#313 = ORIENTED_EDGE('',*,*,#312,.T.);
#314 = CARTESIAN_POINT('',(-1.585,0.315,0.5499999999999998));
#315 = DIRECTION('',(-1.,0.,0.));
#316 = DIRECTION('',(0.,0.,-1.));
#317 = AXIS2_PLACEMENT_3D('',#314,#315,#316);
#318 = PLANE('',#317);
#319 = EDGE_LOOP('',(#306,#307,#308,#313));
#320 = FACE_OUTER_BOUND('',#319,.T.);
#321 = ADVANCED_FACE('',(#320),#318,.T.);
#322 = DIRECTION('',(-1.,0.,0.));
#323 = VECTOR('',#322,1.);
#324 = LINE('',#200,#323);
#325 = EDGE_CURVE('',#201,#301,#324,.T.);
#326 = ORIENTED_EDGE('',*,*,#325,.F.);
#327 = ORIENTED_EDGE('',*,*,#218,.F.);
#328 = ORIENTED_EDGE('',*,*,#233,.T.);
#329 = ORIENTED_EDGE('',*,*,#305,.T.);
#330 = CARTESIAN_POINT('',(-1.585,0.315,0.5499999999999998));
#331 = DIRECTION('',(0.,1.,0.));
#332 = DIRECTION('',(1.,0.,0.));
#333 = AXIS2_PLACEMENT_3D('',#330,#331,#332);
#334 = PLANE('',#333);
#335 = EDGE_LOOP('',(#326,#327,#328,#329));
#336 = FACE_OUTER_BOUND('',#335,.T.);
#337 = ADVANCED_FACE('',(#336),#334,.T.);
#338 = CARTESIAN_POINT('',(-1.445,0.175,0.8999999999999999));
#339 = VERTEX_POINT('',#338);
#340 = DIRECTION('',(-1.,0.,0.));
#341 = VECTOR('',#340,1.);
#342 = LINE('',#252,#341);
#343 = EDGE_CURVE('',#253,#339,#342,.T.);
#344 = ORIENTED_EDGE('',*,*,#343,.F.);
#345 = ORIENTED_EDGE('',*,*,#263,.F.);
#346 = ORIENTED_EDGE('',*,*,#325,.T.);
#347 = DIRECTION('',(-0.3481553119113954,0.3481553119113957,-0.8703882797784894));
#348 = VECTOR('',#347,1.);
#349 = LINE('',#338,#348);
#350 = EDGE_CURVE('',#339,#301,#349,.T.);
#351 = ORIENTED_EDGE('',*,*,#350,.F.);
#352 = CARTESIAN_POINT('',(-1.445,0.175,0.8999999999999999));
#353 = DIRECTION('',(0.,0.9284766908852593,0.3713906763541034));
#354 = DIRECTION('',(1.,0.,0.));
#355 = AXIS2_PLACEMENT_3D('',#352,#353,#354);
#356 = PLANE('',#355);
#357 = EDGE_LOOP('',(#344,#345,#346,#351));
#358 = FACE_OUTER_BOUND('',#357,.T.);
#359 = ADVANCED_FACE('',(#358),#356,.T.);
#360 = ORIENTED_EDGE('',*,*,#350,.T.);
#361 = ORIENTED_EDGE('',*,*,#312,.F.);
#362 = ORIENTED_EDGE('',*,*,#288,.F.);
#363 = DIRECTION('',(0.,1.,0.));
#364 = VECTOR('',#363,1.);
#365 = LINE('',#278,#364);
#366 = EDGE_CURVE('',#279,#339,#365,.T.);
#367 = ORIENTED_EDGE('',*,*,#366,.T.);
#368 = CARTESIAN_POINT('',(-1.445,0.175,0.8999999999999999));
#369 = DIRECTION('',(-0.9284766908852594,0.,0.37139067635410344));
#370 = DIRECTION('',(-0.3481553119113954,0.3481553119113957,-0.8703882797784894));
#371 = AXIS2_PLACEMENT_3D('',#368,#369,#370);
#372 = PLANE('',#371);
#373 = EDGE_LOOP('',(#360,#361,#362,#367));
#374 = FACE_OUTER_BOUND('',#373,.T.);
#375 = ADVANCED_FACE('',(#374),#372,.T.);
#376 = ORIENTED_EDGE('',*,*,#366,.F.);
#377 = ORIENTED_EDGE('',*,*,#283,.F.);
#378 = ORIENTED_EDGE('',*,*,#268,.T.);
#379 = ORIENTED_EDGE('',*,*,#343,.T.);
#380 = CARTESIAN_POINT('',(-1.445,0.175,0.8999999999999999));
#381 = DIRECTION('',(0.,0.,1.));
#382 = DIRECTION('',(0.,-1.,0.));
#383 = AXIS2_PLACEMENT_3D('',#380,#381,#382);
#384 = PLANE('',#383);
#385 = EDGE_LOOP('',(#376,#377,#378,#379));
#386 = FACE_OUTER_BOUND('',#385,.T.);
#387 = ADVANCED_FACE('',(#386),#384,.T.);
#388 = CLOSED_SHELL('',(#199,#227,#249,#277,#299,#321,#337,#359,#375,#387));
#389 = MANIFOLD_SOLID_BREP('',#388);
#390 = CARTESIAN_POINT('',(-0.9550000000000001,0.315,-3.6000000000000005));
#391 = VERTEX_POINT('',#390);
#392 = CARTESIAN_POINT('',(-0.9550000000000001,0.315,-9.));
#393 = VERTEX_POINT('',#392);
#394 = CARTESIAN_POINT('',(-1.585,0.315,-9.));
#395 = VERTEX_POINT('',#394);
#396 = CARTESIAN_POINT('',(-1.585,0.315,-3.6000000000000005));
#397 = VERTEX_POINT('',#396);
#398 = DIRECTION('',(0.,0.,-1.));
#399 = VECTOR('',#398,1.);
#400 = LINE('',#390,#399);
#401 = EDGE_CURVE('',#391,#393,#400,.T.);
#402 = ORIENTED_EDGE('',*,*,#401,.T.);
#403 = DIRECTION('',(-1.,0.,0.));
#404 = VECTOR('',#403,1.);
#405 = LINE('',#392,#404);
#406 = EDGE_CURVE('',#393,#395,#405,.T.);
#407 = ORIENTED_EDGE('',*,*,#406,.T.);
#408 = DIRECTION('',(0.,0.,-1.));
#409 = VECTOR('',#408,1.);
#410 = LINE('',#396,#409);
#411 = EDGE_CURVE('',#397,#395,#410,.T.);
#412 = ORIENTED_EDGE('',*,*,#411,.F.);
#413 = DIRECTION('',(-1.,0.,0.));
#414 = VECTOR('',#413,1.);
#415 = LINE('',#390,#414);
#416 = EDGE_CURVE('',#391,#397,#415,.T.);
#417 = ORIENTED_EDGE('',*,*,#416,.F.);
#418 = CARTESIAN_POINT('',(-0.9550000000000001,0.315,-3.6000000000000005));
#419 = DIRECTION('',(0.,1.,0.));
#420 = DIRECTION('',(0.,0.,-1.));
#421 = AXIS2_PLACEMENT_3D('',#418,#419,#420);
#422 = PLANE('',#421);
#423 = EDGE_LOOP('',(#402,#407,#412,#417));
#424 = FACE_OUTER_BOUND('',#423,.T.);
#425 = ADVANCED_FACE('',(#424),#422,.T.);
#426 = CARTESIAN_POINT('',(-1.585,-0.315,-9.));
#427 = VERTEX_POINT('',#426);
#428 = CARTESIAN_POINT('',(-1.585,-0.315,-3.6000000000000005));
#429 = VERTEX_POINT('',#428);
#430 = DIRECTION('',(0.,0.,-1.));
#431 = VECTOR('',#430,1.);
#432 = LINE('',#428,#431);
#433 = EDGE_CURVE('',#429,#427,#432,.T.);
#434 = ORIENTED_EDGE('',*,*,#433,.F.);
#435 = DIRECTION('',(0.,1.,0.));
#436 = VECTOR('',#435,1.);
#437 = LINE('',#428,#436);
#438 = EDGE_CURVE('',#429,#397,#437,.T.);
#439 = ORIENTED_EDGE('',*,*,#438,.T.);
#440 = ORIENTED_EDGE('',*,*,#411,.T.);
#441 = DIRECTION('',(0.,1.,0.));
#442 = VECTOR('',#441,1.);
#443 = LINE('',#426,#442);
#444 = EDGE_CURVE('',#427,#395,#443,.T.);
#445 = ORIENTED_EDGE('',*,*,#444,.F.);
#446 = CARTESIAN_POINT('',(-1.585,-0.315,-9.));
#447 = DIRECTION('',(-1.,0.,0.));
#448 = DIRECTION('',(0.,0.,1.));
#449 = AXIS2_PLACEMENT_3D('',#446,#447,#448);
#450 = PLANE('',#449);
#451 = EDGE_LOOP('',(#434,#439,#440,#445));
#452 = FACE_OUTER_BOUND('',#451,.T.);
#453 = ADVANCED_FACE('',(#452),#450,.T.);
#454 = CARTESIAN_POINT('',(-1.445,0.175,-9.6));
#455 = VERTEX_POINT('',#454);
#456 = CARTESIAN_POINT('',(-1.445,-0.175,-9.6));
#457 = VERTEX_POINT('',#456);
#458 = ORIENTED_EDGE('',*,*,#444,.T.);
#459 = DIRECTION('',(-0.2215811282415214,0.22158112824152157,0.9496334067493776));
#460 = VECTOR('',#459,1.);
#461 = LINE('',#454,#460);
#462 = EDGE_CURVE('',#455,#395,#461,.T.);
#463 = ORIENTED_EDGE('',*,*,#462,.F.);
#464 = DIRECTION('',(0.,1.,0.));
#465 = VECTOR('',#464,1.);
#466 = LINE('',#456,#465);
#467 = EDGE_CURVE('',#457,#455,#466,.T.);
#468 = ORIENTED_EDGE('',*,*,#467,.F.);
#469 = DIRECTION('',(-0.2215811282415214,-0.22158112824152157,0.9496334067493776));
#470 = VECTOR('',#469,1.);
#471 = LINE('',#456,#470);
#472 = EDGE_CURVE('',#457,#427,#471,.T.);
#473 = ORIENTED_EDGE('',*,*,#472,.T.);
#474 = CARTESIAN_POINT('',(-1.585,-0.315,-9.));
#475 = DIRECTION('',(-0.9738412097417934,0.,-0.22722961560641775));
#476 = DIRECTION('',(0.,1.,0.));
#477 = AXIS2_PLACEMENT_3D('',#474,#475,#476);
#478 = PLANE('',#477);
#479 = EDGE_LOOP('',(#458,#463,#468,#473));
#480 = FACE_OUTER_BOUND('',#479,.T.);
#481 = ADVANCED_FACE('',(#480),#478,.T.);
#482 = CARTESIAN_POINT('',(-1.095,0.175,-9.6));
#483 = VERTEX_POINT('',#482);
#484 = DIRECTION('',(-1.,0.,0.));
#485 = VECTOR('',#484,1.);
#486 = LINE('',#482,#485);
#487 = EDGE_CURVE('',#483,#455,#486,.T.);
#488 = ORIENTED_EDGE('',*,*,#487,.T.);
#489 = ORIENTED_EDGE('',*,*,#462,.T.);
#490 = ORIENTED_EDGE('',*,*,#406,.F.);
#491 = DIRECTION('',(-0.2215811282415214,-0.22158112824152157,-0.9496334067493776));
#492 = VECTOR('',#491,1.);
#493 = LINE('',#392,#492);
#494 = EDGE_CURVE('',#393,#483,#493,.T.);
#495 = ORIENTED_EDGE('',*,*,#494,.T.);
#496 = CARTESIAN_POINT('',(-1.095,0.175,-9.6));
#497 = DIRECTION('',(0.,0.9738412097417931,-0.22722961560641836));
#498 = DIRECTION('',(-1.,0.,0.));
#499 = AXIS2_PLACEMENT_3D('',#496,#497,#498);
#500 = PLANE('',#499);
#501 = EDGE_LOOP('',(#488,#489,#490,#495));
#502 = FACE_OUTER_BOUND('',#501,.T.);
#503 = ADVANCED_FACE('',(#502),#500,.T.);
#504 = CARTESIAN_POINT('',(-0.9550000000000001,-0.315,-3.6000000000000005));
#505 = VERTEX_POINT('',#504);
#506 = DIRECTION('',(0.,1.,0.));
#507 = VECTOR('',#506,1.);
#508 = LINE('',#504,#507);
#509 = EDGE_CURVE('',#505,#391,#508,.T.);
#510 = ORIENTED_EDGE('',*,*,#509,.T.);
#511 = ORIENTED_EDGE('',*,*,#416,.T.);
#512 = ORIENTED_EDGE('',*,*,#438,.F.);
#513 = DIRECTION('',(-1.,0.,0.));
#514 = VECTOR('',#513,1.);
#515 = LINE('',#504,#514);
#516 = EDGE_CURVE('',#505,#429,#515,.T.);
#517 = ORIENTED_EDGE('',*,*,#516,.F.);
#518 = CARTESIAN_POINT('',(-0.9550000000000001,-0.315,-3.6000000000000005));
#519 = DIRECTION('',(0.,0.,1.));
#520 = DIRECTION('',(0.,1.,0.));
#521 = AXIS2_PLACEMENT_3D('',#518,#519,#520);
#522 = PLANE('',#521);
#523 = EDGE_LOOP('',(#510,#511,#512,#517));
#524 = FACE_OUTER_BOUND('',#523,.T.);
#525 = ADVANCED_FACE('',(#524),#522,.T.);
#526 = CARTESIAN_POINT('',(-0.9550000000000001,-0.315,-9.));
#527 = VERTEX_POINT('',#526);
#528 = DIRECTION('',(0.,1.,0.));
#529 = VECTOR('',#528,1.);
#530 = LINE('',#526,#529);
#531 = EDGE_CURVE('',#527,#393,#530,.T.);
#532 = ORIENTED_EDGE('',*,*,#531,.T.);
#533 = ORIENTED_EDGE('',*,*,#401,.F.);
#534 = ORIENTED_EDGE('',*,*,#509,.F.);
#535 = DIRECTION('',(0.,0.,-1.));
#536 = VECTOR('',#535,1.);
#537 = LINE('',#504,#536);
#538 = EDGE_CURVE('',#505,#527,#537,.T.);
#539 = ORIENTED_EDGE('',*,*,#538,.T.);
#540 = CARTESIAN_POINT('',(-0.9550000000000001,-0.315,-9.));
#541 = DIRECTION('',(1.,0.,0.));
#542 = DIRECTION('',(0.,1.,0.));
#543 = AXIS2_PLACEMENT_3D('',#540,#541,#542);
#544 = PLANE('',#543);
#545 = EDGE_LOOP('',(#532,#533,#534,#539));
#546 = FACE_OUTER_BOUND('',#545,.T.);
#547 = ADVANCED_FACE('',(#546),#544,.T.);
#548 = ORIENTED_EDGE('',*,*,#538,.F.);
#549 = ORIENTED_EDGE('',*,*,#516,.T.);
#550 = ORIENTED_EDGE('',*,*,#433,.T.);
#551 = DIRECTION('',(-1.,0.,0.));
#552 = VECTOR('',#551,1.);
#553 = LINE('',#526,#552);
#554 = EDGE_CURVE('',#527,#427,#553,.T.);
#555 = ORIENTED_EDGE('',*,*,#554,.F.);
#556 = CARTESIAN_POINT('',(-0.9550000000000001,-0.315,-9.));
#557 = DIRECTION('',(0.,-1.,0.));
#558 = DIRECTION('',(0.,0.,1.));
#559 = AXIS2_PLACEMENT_3D('',#556,#557,#558);
#560 = PLANE('',#559);
#561 = EDGE_LOOP('',(#548,#549,#550,#555));
#562 = FACE_OUTER_BOUND('',#561,.T.);
#563 = ADVANCED_FACE('',(#562),#560,.T.);
#564 = CARTESIAN_POINT('',(-1.095,-0.175,-9.6));
#565 = VERTEX_POINT('',#564);
#566 = DIRECTION('',(0.,1.,0.));
#567 = VECTOR('',#566,1.);
#568 = LINE('',#564,#567);
#569 = EDGE_CURVE('',#565,#483,#568,.T.);
#570 = ORIENTED_EDGE('',*,*,#569,.T.);
#571 = ORIENTED_EDGE('',*,*,#494,.F.);
#572 = ORIENTED_EDGE('',*,*,#531,.F.);
#573 = DIRECTION('',(-0.2215811282415214,0.22158112824152157,-0.9496334067493776));
#574 = VECTOR('',#573,1.);
#575 = LINE('',#526,#574);
#576 = EDGE_CURVE('',#527,#565,#575,.T.);
#577 = ORIENTED_EDGE('',*,*,#576,.T.);
#578 = CARTESIAN_POINT('',(-1.095,-0.175,-9.6));
#579 = DIRECTION('',(0.9738412097417933,0.,-0.2272296156064181));
#580 = DIRECTION('',(0.,1.,0.));
#581 = AXIS2_PLACEMENT_3D('',#578,#579,#580);
#582 = PLANE('',#581);
#583 = EDGE_LOOP('',(#570,#571,#572,#577));
#584 = FACE_OUTER_BOUND('',#583,.T.);
#585 = ADVANCED_FACE('',(#584),#582,.T.);
#586 = ORIENTED_EDGE('',*,*,#576,.F.);
#587 = ORIENTED_EDGE('',*,*,#554,.T.);
#588 = ORIENTED_EDGE('',*,*,#472,.F.);
#589 = DIRECTION('',(-1.,0.,0.));
#590 = VECTOR('',#589,1.);
#591 = LINE('',#564,#590);
#592 = EDGE_CURVE('',#565,#457,#591,.T.);
#593 = ORIENTED_EDGE('',*,*,#592,.F.);
#594 = CARTESIAN_POINT('',(-1.095,-0.175,-9.6));
#595 = DIRECTION('',(0.,-0.9738412097417931,-0.2272296156064184));
#596 = DIRECTION('',(0.2215811282415214,-0.22158112824152157,0.9496334067493776));
#597 = AXIS2_PLACEMENT_3D('',#594,#595,#596);
#598 = PLANE('',#597);
#599 = EDGE_LOOP('',(#586,#587,#588,#593));
#600 = FACE_OUTER_BOUND('',#599,.T.);
#601 = ADVANCED_FACE('',(#600),#598,.T.);
#602 = ORIENTED_EDGE('',*,*,#592,.T.);
#603 = ORIENTED_EDGE('',*,*,#467,.T.);
#604 = ORIENTED_EDGE('',*,*,#487,.F.);
#605 = ORIENTED_EDGE('',*,*,#569,.F.);
#606 = CARTESIAN_POINT('',(-1.095,-0.175,-9.6));
#607 = DIRECTION('',(0.,0.,-1.));
#608 = DIRECTION('',(-1.,0.,0.));
#609 = AXIS2_PLACEMENT_3D('',#606,#607,#608);
#610 = PLANE('',#609);
#611 = EDGE_LOOP('',(#602,#603,#604,#605));
#612 = FACE_OUTER_BOUND('',#611,.T.);
#613 = ADVANCED_FACE('',(#612),#610,.T.);
#614 = CLOSED_SHELL('',(#425,#453,#481,#503,#525,#547,#563,#585,#601,#613));
#615 = MANIFOLD_SOLID_BREP('',#614);
#616 = CARTESIAN_POINT('',(0.,-1.27,-3.6));
#617 = VERTEX_POINT('',#616);
#618 = CARTESIAN_POINT('',(0.,-1.27,-1.6));
#619 = VERTEX_POINT('',#618);
#620 = CARTESIAN_POINT('',(0.,1.27,-1.6));
#621 = VERTEX_POINT('',#620);
#622 = CARTESIAN_POINT('',(0.,1.27,-3.6));
#623 = VERTEX_POINT('',#622);
#624 = DIRECTION('',(0.,0.,-1.));
#625 = VECTOR('',#624,1.);
#626 = LINE('',#618,#625);
#627 = EDGE_CURVE('',#619,#617,#626,.T.);
#628 = ORIENTED_EDGE('',*,*,#627,.F.);
#629 = DIRECTION('',(0.,1.,0.));
#630 = VECTOR('',#629,1.);
#631 = LINE('',#618,#630);
#632 = EDGE_CURVE('',#619,#621,#631,.T.);
#633 = ORIENTED_EDGE('',*,*,#632,.T.);
#634 = DIRECTION('',(0.,0.,-1.));
#635 = VECTOR('',#634,1.);
#636 = LINE('',#620,#635);
#637 = EDGE_CURVE('',#621,#623,#636,.T.);
#638 = ORIENTED_EDGE('',*,*,#637,.T.);
#639 = DIRECTION('',(0.,1.,0.));
#640 = VECTOR('',#639,1.);
#641 = LINE('',#616,#640);
#642 = EDGE_CURVE('',#617,#623,#641,.T.);
#643 = ORIENTED_EDGE('',*,*,#642,.F.);
#644 = CARTESIAN_POINT('',(0.,-1.27,-3.6));
#645 = DIRECTION('',(-1.,0.,0.));
#646 = DIRECTION('',(0.,0.,1.));
#647 = AXIS2_PLACEMENT_3D('',#644,#645,#646);
#648 = PLANE('',#647);
#649 = EDGE_LOOP('',(#628,#633,#638,#643));
#650 = FACE_OUTER_BOUND('',#649,.T.);
#651 = ADVANCED_FACE('',(#650),#648,.T.);
#652 = CARTESIAN_POINT('',(2.54,-1.27,-3.6));
#653 = VERTEX_POINT('',#652);
#654 = CARTESIAN_POINT('',(2.54,1.27,-3.6));
#655 = VERTEX_POINT('',#654);
#656 = CARTESIAN_POINT('',(2.54,1.27,-1.6));
#657 = VERTEX_POINT('',#656);
#658 = CARTESIAN_POINT('',(2.54,-1.27,-1.6));
#659 = VERTEX_POINT('',#658);
#660 = DIRECTION('',(0.,1.,0.));
#661 = VECTOR('',#660,1.);
#662 = LINE('',#652,#661);
#663 = EDGE_CURVE('',#653,#655,#662,.T.);
#664 = ORIENTED_EDGE('',*,*,#663,.T.);
#665 = DIRECTION('',(0.,0.,-1.));
#666 = VECTOR('',#665,1.);
#667 = LINE('',#656,#666);
#668 = EDGE_CURVE('',#657,#655,#667,.T.);
#669 = ORIENTED_EDGE('',*,*,#668,.F.);
#670 = DIRECTION('',(0.,1.,0.));
#671 = VECTOR('',#670,1.);
#672 = LINE('',#658,#671);
#673 = EDGE_CURVE('',#659,#657,#672,.T.);
#674 = ORIENTED_EDGE('',*,*,#673,.F.);
#675 = DIRECTION('',(0.,0.,-1.));
#676 = VECTOR('',#675,1.);
#677 = LINE('',#658,#676);
#678 = EDGE_CURVE('',#659,#653,#677,.T.);
#679 = ORIENTED_EDGE('',*,*,#678,.T.);
#680 = CARTESIAN_POINT('',(2.54,-1.27,-3.6));
#681 = DIRECTION('',(1.,0.,0.));
#682 = DIRECTION('',(0.,1.,0.));
#683 = AXIS2_PLACEMENT_3D('',#680,#681,#682);
#684 = PLANE('',#683);
#685 = EDGE_LOOP('',(#664,#669,#674,#679));
#686 = FACE_OUTER_BOUND('',#685,.T.);
#687 = ADVANCED_FACE('',(#686),#684,.T.);
#688 = DIRECTION('',(1.,0.,0.));
#689 = VECTOR('',#688,1.);
#690 = LINE('',#616,#689);
#691 = EDGE_CURVE('',#617,#653,#690,.T.);
#692 = ORIENTED_EDGE('',*,*,#691,.T.);
#693 = ORIENTED_EDGE('',*,*,#678,.F.);
#694 = DIRECTION('',(1.,0.,0.));
#695 = VECTOR('',#694,1.);
#696 = LINE('',#618,#695);
#697 = EDGE_CURVE('',#619,#659,#696,.T.);
#698 = ORIENTED_EDGE('',*,*,#697,.F.);
#699 = ORIENTED_EDGE('',*,*,#627,.T.);
#700 = CARTESIAN_POINT('',(0.,-1.27,-3.6));
#701 = DIRECTION('',(0.,-1.,0.));
#702 = DIRECTION('',(1.,0.,0.));
#703 = AXIS2_PLACEMENT_3D('',#700,#701,#702);
#704 = PLANE('',#703);
#705 = EDGE_LOOP('',(#692,#693,#698,#699));
#706 = FACE_OUTER_BOUND('',#705,.T.);
#707 = ADVANCED_FACE('',(#706),#704,.T.);
#708 = ORIENTED_EDGE('',*,*,#637,.F.);
#709 = DIRECTION('',(1.,0.,0.));
#710 = VECTOR('',#709,1.);
#711 = LINE('',#620,#710);
#712 = EDGE_CURVE('',#621,#657,#711,.T.);
#713 = ORIENTED_EDGE('',*,*,#712,.T.);
#714 = ORIENTED_EDGE('',*,*,#668,.T.);
#715 = DIRECTION('',(1.,0.,0.));
#716 = VECTOR('',#715,1.);
#717 = LINE('',#622,#716);
#718 = EDGE_CURVE('',#623,#655,#717,.T.);
#719 = ORIENTED_EDGE('',*,*,#718,.F.);
#720 = CARTESIAN_POINT('',(0.,1.27,-3.6));
#721 = DIRECTION('',(0.,1.,0.));
#722 = DIRECTION('',(0.,0.,1.));
#723 = AXIS2_PLACEMENT_3D('',#720,#721,#722);
#724 = PLANE('',#723);
#725 = EDGE_LOOP('',(#708,#713,#714,#719));
#726 = FACE_OUTER_BOUND('',#725,.T.);
#727 = ADVANCED_FACE('',(#726),#724,.T.);
#728 = ORIENTED_EDGE('',*,*,#642,.T.);
#729 = ORIENTED_EDGE('',*,*,#718,.T.);
#730 = ORIENTED_EDGE('',*,*,#663,.F.);
#731 = ORIENTED_EDGE('',*,*,#691,.F.);
#732 = CARTESIAN_POINT('',(0.,-1.27,-3.6));
#733 = DIRECTION('',(0.,0.,-1.));
#734 = DIRECTION('',(0.,1.,0.));
#735 = AXIS2_PLACEMENT_3D('',#732,#733,#734);
#736 = PLANE('',#735);
#737 = EDGE_LOOP('',(#728,#729,#730,#731));
#738 = FACE_OUTER_BOUND('',#737,.T.);
#739 = ADVANCED_FACE('',(#738),#736,.T.);
#740 = ORIENTED_EDGE('',*,*,#697,.T.);
#741 = ORIENTED_EDGE('',*,*,#673,.T.);
#742 = ORIENTED_EDGE('',*,*,#712,.F.);
#743 = ORIENTED_EDGE('',*,*,#632,.F.);
#744 = CARTESIAN_POINT('',(0.,-1.27,-1.6));
#745 = DIRECTION('',(0.,0.,1.));
#746 = DIRECTION('',(1.,0.,0.));
#747 = AXIS2_PLACEMENT_3D('',#744,#745,#746);
#748 = PLANE('',#747);
#749 = EDGE_LOOP('',(#740,#741,#742,#743));
#750 = FACE_OUTER_BOUND('',#749,.T.);
#751 = ADVANCED_FACE('',(#750),#748,.T.);
#752 = CLOSED_SHELL('',(#651,#687,#707,#727,#739,#751));
#753 = MANIFOLD_SOLID_BREP('',#752);
#754 = COLOUR_RGB('',0.13333333333333333,0.13333333333333333,0.13333333333333333);
#755 = FILL_AREA_STYLE_COLOUR('',#754);
#756 = FILL_AREA_STYLE('',(#755));
#757 = SURFACE_STYLE_FILL_AREA(#756);
#758 = SURFACE_SIDE_STYLE('',(#757));
#759 = SURFACE_STYLE_USAGE(.BOTH.,#758);
#760 = PRESENTATION_STYLE_ASSIGNMENT((#759));
#761 = STYLED_ITEM('',(#760),#753);
#762 = CARTESIAN_POINT('',(0.9550000000000001,0.315,0.5499999999999998));
#763 = VERTEX_POINT('',#762);
#764 = CARTESIAN_POINT('',(1.585,0.315,0.5499999999999998));
#765 = VERTEX_POINT('',#764);
#766 = CARTESIAN_POINT('',(1.585,0.315,-2.1500000000000004));
#767 = VERTEX_POINT('',#766);
#768 = CARTESIAN_POINT('',(0.9550000000000001,0.315,-2.1500000000000004));
#769 = VERTEX_POINT('',#768);
#770 = DIRECTION('',(1.,0.,0.));
#771 = VECTOR('',#770,1.);
#772 = LINE('',#762,#771);
#773 = EDGE_CURVE('',#763,#765,#772,.T.);
#774 = ORIENTED_EDGE('',*,*,#773,.T.);
#775 = DIRECTION('',(0.,0.,1.));
#776 = VECTOR('',#775,1.);
#777 = LINE('',#766,#776);
#778 = EDGE_CURVE('',#767,#765,#777,.T.);
#779 = ORIENTED_EDGE('',*,*,#778,.F.);
#780 = DIRECTION('',(1.,0.,0.));
#781 = VECTOR('',#780,1.);
#782 = LINE('',#768,#781);
#783 = EDGE_CURVE('',#769,#767,#782,.T.);
#784 = ORIENTED_EDGE('',*,*,#783,.F.);
#785 = DIRECTION('',(0.,0.,1.));
#786 = VECTOR('',#785,1.);
#787 = LINE('',#768,#786);
#788 = EDGE_CURVE('',#769,#763,#787,.T.);
#789 = ORIENTED_EDGE('',*,*,#788,.T.);
#790 = CARTESIAN_POINT('',(0.9550000000000001,0.315,0.5499999999999998));
#791 = DIRECTION('',(0.,1.,0.));
#792 = DIRECTION('',(1.,0.,0.));
#793 = AXIS2_PLACEMENT_3D('',#790,#791,#792);
#794 = PLANE('',#793);
#795 = EDGE_LOOP('',(#774,#779,#784,#789));
#796 = FACE_OUTER_BOUND('',#795,.T.);
#797 = ADVANCED_FACE('',(#796),#794,.T.);
#798 = CARTESIAN_POINT('',(0.9550000000000001,-0.315,-2.1500000000000004));
#799 = VERTEX_POINT('',#798);
#800 = CARTESIAN_POINT('',(0.9550000000000001,-0.315,0.5499999999999998));
#801 = VERTEX_POINT('',#800);
#802 = ORIENTED_EDGE('',*,*,#788,.F.);
#803 = DIRECTION('',(0.,1.,0.));
#804 = VECTOR('',#803,1.);
#805 = LINE('',#798,#804);
#806 = EDGE_CURVE('',#799,#769,#805,.T.);
#807 = ORIENTED_EDGE('',*,*,#806,.F.);
#808 = DIRECTION('',(0.,0.,1.));
#809 = VECTOR('',#808,1.);
#810 = LINE('',#798,#809);
#811 = EDGE_CURVE('',#799,#801,#810,.T.);
#812 = ORIENTED_EDGE('',*,*,#811,.T.);
#813 = DIRECTION('',(0.,1.,0.));
#814 = VECTOR('',#813,1.);
#815 = LINE('',#800,#814);
#816 = EDGE_CURVE('',#801,#763,#815,.T.);
#817 = ORIENTED_EDGE('',*,*,#816,.T.);
#818 = CARTESIAN_POINT('',(0.9550000000000001,0.315,0.5499999999999998));
#819 = DIRECTION('',(-1.,0.,0.));
#820 = DIRECTION('',(0.,0.,-1.));
#821 = AXIS2_PLACEMENT_3D('',#818,#819,#820);
#822 = PLANE('',#821);
#823 = EDGE_LOOP('',(#802,#807,#812,#817));
#824 = FACE_OUTER_BOUND('',#823,.T.);
#825 = ADVANCED_FACE('',(#824),#822,.T.);
#826 = CARTESIAN_POINT('',(1.445,-0.175,0.8999999999999999));
#827 = VERTEX_POINT('',#826);
#828 = CARTESIAN_POINT('',(1.095,-0.175,0.8999999999999999));
#829 = VERTEX_POINT('',#828);
#830 = CARTESIAN_POINT('',(1.585,-0.315,0.5499999999999998));
#831 = VERTEX_POINT('',#830);
#832 = DIRECTION('',(1.,0.,0.));
#833 = VECTOR('',#832,1.);
#834 = LINE('',#828,#833);
#835 = EDGE_CURVE('',#829,#827,#834,.T.);
#836 = ORIENTED_EDGE('',*,*,#835,.F.);
#837 = DIRECTION('',(0.3481553119113954,0.3481553119113957,0.8703882797784894));
#838 = VECTOR('',#837,1.);
#839 = LINE('',#800,#838);
#840 = EDGE_CURVE('',#801,#829,#839,.T.);
#841 = ORIENTED_EDGE('',*,*,#840,.F.);
#842 = DIRECTION('',(1.,0.,0.));
#843 = VECTOR('',#842,1.);
#844 = LINE('',#800,#843);
#845 = EDGE_CURVE('',#801,#831,#844,.T.);
#846 = ORIENTED_EDGE('',*,*,#845,.T.);
#847 = DIRECTION('',(0.3481553119113954,-0.3481553119113957,-0.8703882797784894));
#848 = VECTOR('',#847,1.);
#849 = LINE('',#826,#848);
#850 = EDGE_CURVE('',#827,#831,#849,.T.);
#851 = ORIENTED_EDGE('',*,*,#850,.F.);
#852 = CARTESIAN_POINT('',(1.445,-0.175,0.8999999999999999));
#853 = DIRECTION('',(0.,-0.9284766908852593,0.3713906763541034));
#854 = DIRECTION('',(-1.,0.,0.));
#855 = AXIS2_PLACEMENT_3D('',#852,#853,#854);
#856 = PLANE('',#855);
#857 = EDGE_LOOP('',(#836,#841,#846,#851));
#858 = FACE_OUTER_BOUND('',#857,.T.);
#859 = ADVANCED_FACE('',(#858),#856,.T.);
#860 = CARTESIAN_POINT('',(1.585,-0.315,-2.1500000000000004));
#861 = VERTEX_POINT('',#860);
#862 = DIRECTION('',(0.,1.,0.));
#863 = VECTOR('',#862,1.);
#864 = LINE('',#860,#863);
#865 = EDGE_CURVE('',#861,#767,#864,.T.);
#866 = ORIENTED_EDGE('',*,*,#865,.T.);
#867 = ORIENTED_EDGE('',*,*,#778,.T.);
#868 = DIRECTION('',(0.,1.,0.));
#869 = VECTOR('',#868,1.);
#870 = LINE('',#830,#869);
#871 = EDGE_CURVE('',#831,#765,#870,.T.);
#872 = ORIENTED_EDGE('',*,*,#871,.F.);
#873 = DIRECTION('',(0.,0.,1.));
#874 = VECTOR('',#873,1.);
#875 = LINE('',#860,#874);
#876 = EDGE_CURVE('',#861,#831,#875,.T.);
#877 = ORIENTED_EDGE('',*,*,#876,.F.);
#878 = CARTESIAN_POINT('',(1.585,-0.315,-2.1500000000000004));
#879 = DIRECTION('',(1.,0.,0.));
#880 = DIRECTION('',(0.,1.,0.));
#881 = AXIS2_PLACEMENT_3D('',#878,#879,#880);
#882 = PLANE('',#881);
#883 = EDGE_LOOP('',(#866,#867,#872,#877));
#884 = FACE_OUTER_BOUND('',#883,.T.);
#885 = ADVANCED_FACE('',(#884),#882,.T.);
#886 = ORIENTED_EDGE('',*,*,#876,.T.);
#887 = ORIENTED_EDGE('',*,*,#845,.F.);
#888 = ORIENTED_EDGE('',*,*,#811,.F.);
#889 = DIRECTION('',(1.,0.,0.));
#890 = VECTOR('',#889,1.);
#891 = LINE('',#798,#890);
#892 = EDGE_CURVE('',#799,#861,#891,.T.);
#893 = ORIENTED_EDGE('',*,*,#892,.T.);
#894 = CARTESIAN_POINT('',(1.585,-0.315,-2.1500000000000004));
#895 = DIRECTION('',(0.,-1.,0.));
#896 = DIRECTION('',(0.,0.,1.));
#897 = AXIS2_PLACEMENT_3D('',#894,#895,#896);
#898 = PLANE('',#897);
#899 = EDGE_LOOP('',(#886,#887,#888,#893));
#900 = FACE_OUTER_BOUND('',#899,.T.);
#901 = ADVANCED_FACE('',(#900),#898,.T.);
#902 = ORIENTED_EDGE('',*,*,#892,.F.);
#903 = ORIENTED_EDGE('',*,*,#806,.T.);
#904 = ORIENTED_EDGE('',*,*,#783,.T.);
#905 = ORIENTED_EDGE('',*,*,#865,.F.);
#906 = CARTESIAN_POINT('',(1.585,-0.315,-2.1500000000000004));
#907 = DIRECTION('',(0.,0.,-1.));
#908 = DIRECTION('',(-1.,0.,0.));
#909 = AXIS2_PLACEMENT_3D('',#906,#907,#908);
#910 = PLANE('',#909);
#911 = EDGE_LOOP('',(#902,#903,#904,#905));
#912 = FACE_OUTER_BOUND('',#911,.T.);
#913 = ADVANCED_FACE('',(#912),#910,.T.);
#914 = CARTESIAN_POINT('',(1.095,0.175,0.8999999999999999));
#915 = VERTEX_POINT('',#914);
#916 = DIRECTION('',(0.3481553119113954,-0.3481553119113957,0.8703882797784894));
#917 = VECTOR('',#916,1.);
#918 = LINE('',#762,#917);
#919 = EDGE_CURVE('',#763,#915,#918,.T.);
#920 = ORIENTED_EDGE('',*,*,#919,.F.);
#921 = ORIENTED_EDGE('',*,*,#816,.F.);
#922 = ORIENTED_EDGE('',*,*,#840,.T.);
#923 = DIRECTION('',(0.,1.,0.));
#924 = VECTOR('',#923,1.);
#925 = LINE('',#828,#924);
#926 = EDGE_CURVE('',#829,#915,#925,.T.);
#927 = ORIENTED_EDGE('',*,*,#926,.T.);
#928 = CARTESIAN_POINT('',(1.095,0.175,0.8999999999999999));
#929 = DIRECTION('',(-0.9284766908852594,0.,0.37139067635410344));
#930 = DIRECTION('',(-0.3481553119113954,0.3481553119113957,-0.8703882797784894));
#931 = AXIS2_PLACEMENT_3D('',#928,#929,#930);
#932 = PLANE('',#931);
#933 = EDGE_LOOP('',(#920,#921,#922,#927));
#934 = FACE_OUTER_BOUND('',#933,.T.);
#935 = ADVANCED_FACE('',(#934),#932,.T.);
#936 = CARTESIAN_POINT('',(1.445,0.175,0.8999999999999999));
#937 = VERTEX_POINT('',#936);
#938 = DIRECTION('',(0.3481553119113954,0.3481553119113957,-0.8703882797784894));
#939 = VECTOR('',#938,1.);
#940 = LINE('',#936,#939);
#941 = EDGE_CURVE('',#937,#765,#940,.T.);
#942 = ORIENTED_EDGE('',*,*,#941,.T.);
#943 = ORIENTED_EDGE('',*,*,#773,.F.);
#944 = ORIENTED_EDGE('',*,*,#919,.T.);
#945 = DIRECTION('',(1.,0.,0.));
#946 = VECTOR('',#945,1.);
#947 = LINE('',#914,#946);
#948 = EDGE_CURVE('',#915,#937,#947,.T.);
#949 = ORIENTED_EDGE('',*,*,#948,.T.);
#950 = CARTESIAN_POINT('',(1.445,0.175,0.8999999999999999));
#951 = DIRECTION('',(0.,0.9284766908852593,0.37139067635410344));
#952 = DIRECTION('',(0.3481553119113954,0.3481553119113957,-0.8703882797784894));
#953 = AXIS2_PLACEMENT_3D('',#950,#951,#952);
#954 = PLANE('',#953);
#955 = EDGE_LOOP('',(#942,#943,#944,#949));
#956 = FACE_OUTER_BOUND('',#955,.T.);
#957 = ADVANCED_FACE('',(#956),#954,.T.);
#958 = ORIENTED_EDGE('',*,*,#948,.F.);
#959 = ORIENTED_EDGE('',*,*,#926,.F.);
#960 = ORIENTED_EDGE('',*,*,#835,.T.);
#961 = DIRECTION('',(0.,1.,0.));
#962 = VECTOR('',#961,1.);
#963 = LINE('',#826,#962);
#964 = EDGE_CURVE('',#827,#937,#963,.T.);
#965 = ORIENTED_EDGE('',*,*,#964,.T.);
#966 = CARTESIAN_POINT('',(1.445,0.175,0.8999999999999999));
#967 = DIRECTION('',(0.,0.,1.));
#968 = DIRECTION('',(-1.,0.,0.));
#969 = AXIS2_PLACEMENT_3D('',#966,#967,#968);
#970 = PLANE('',#969);
#971 = EDGE_LOOP('',(#958,#959,#960,#965));
#972 = FACE_OUTER_BOUND('',#971,.T.);
#973 = ADVANCED_FACE('',(#972),#970,.T.);
#974 = ORIENTED_EDGE('',*,*,#964,.F.);
#975 = ORIENTED_EDGE('',*,*,#850,.T.);
#976 = ORIENTED_EDGE('',*,*,#871,.T.);
#977 = ORIENTED_EDGE('',*,*,#941,.F.);
#978 = CARTESIAN_POINT('',(1.445,0.175,0.8999999999999999));
#979 = DIRECTION('',(0.9284766908852594,0.,0.37139067635410344));
#980 = DIRECTION('',(0.,-1.,0.));
#981 = AXIS2_PLACEMENT_3D('',#978,#979,#980);
#982 = PLANE('',#981);
#983 = EDGE_LOOP('',(#974,#975,#976,#977));
#984 = FACE_OUTER_BOUND('',#983,.T.);
#985 = ADVANCED_FACE('',(#984),#982,.T.);
#986 = CLOSED_SHELL('',(#797,#825,#859,#885,#901,#913,#935,#957,#973,#985));
#987 = MANIFOLD_SOLID_BREP('',#986);
#988 = CARTESIAN_POINT('',(0.9550000000000001,-0.315,-9.));
#989 = VERTEX_POINT('',#988);
#990 = CARTESIAN_POINT('',(1.585,-0.315,-9.));
#991 = VERTEX_POINT('',#990);
#992 = CARTESIAN_POINT('',(1.585,-0.315,-3.6000000000000005));
#993 = VERTEX_POINT('',#992);
#994 = CARTESIAN_POINT('',(0.9550000000000001,-0.315,-3.6000000000000005));
#995 = VERTEX_POINT('',#994);
#996 = DIRECTION('',(1.,0.,0.));
#997 = VECTOR('',#996,1.);
#998 = LINE('',#988,#997);
#999 = EDGE_CURVE('',#989,#991,#998,.T.);
#1000 = ORIENTED_EDGE('',*,*,#999,.T.);
#1001 = DIRECTION('',(0.,0.,-1.));
#1002 = VECTOR('',#1001,1.);
#1003 = LINE('',#992,#1002);
#1004 = EDGE_CURVE('',#993,#991,#1003,.T.);
#1005 = ORIENTED_EDGE('',*,*,#1004,.F.);
#1006 = DIRECTION('',(1.,0.,0.));
#1007 = VECTOR('',#1006,1.);
#1008 = LINE('',#994,#1007);
#1009 = EDGE_CURVE('',#995,#993,#1008,.T.);
#1010 = ORIENTED_EDGE('',*,*,#1009,.F.);
#1011 = DIRECTION('',(0.,0.,-1.));
#1012 = VECTOR('',#1011,1.);
#1013 = LINE('',#994,#1012);
#1014 = EDGE_CURVE('',#995,#989,#1013,.T.);
#1015 = ORIENTED_EDGE('',*,*,#1014,.T.);
#1016 = CARTESIAN_POINT('',(0.9550000000000001,-0.315,-9.));
#1017 = DIRECTION('',(0.,-1.,0.));
#1018 = DIRECTION('',(1.,0.,0.));
#1019 = AXIS2_PLACEMENT_3D('',#1016,#1017,#1018);
#1020 = PLANE('',#1019);
#1021 = EDGE_LOOP('',(#1000,#1005,#1010,#1015));
#1022 = FACE_OUTER_BOUND('',#1021,.T.);
#1023 = ADVANCED_FACE('',(#1022),#1020,.T.);
#1024 = CARTESIAN_POINT('',(1.585,0.315,-3.6000000000000005));
#1025 = VERTEX_POINT('',#1024);
#1026 = CARTESIAN_POINT('',(1.585,0.315,-9.));
#1027 = VERTEX_POINT('',#1026);
#1028 = DIRECTION('',(0.,1.,0.));
#1029 = VECTOR('',#1028,1.);
#1030 = LINE('',#992,#1029);
#1031 = EDGE_CURVE('',#993,#1025,#1030,.T.);
#1032 = ORIENTED_EDGE('',*,*,#1031,.F.);
#1033 = ORIENTED_EDGE('',*,*,#1004,.T.);
#1034 = DIRECTION('',(0.,1.,0.));
#1035 = VECTOR('',#1034,1.);
#1036 = LINE('',#990,#1035);
#1037 = EDGE_CURVE('',#991,#1027,#1036,.T.);
#1038 = ORIENTED_EDGE('',*,*,#1037,.T.);
#1039 = DIRECTION('',(0.,0.,-1.));
#1040 = VECTOR('',#1039,1.);
#1041 = LINE('',#1024,#1040);
#1042 = EDGE_CURVE('',#1025,#1027,#1041,.T.);
#1043 = ORIENTED_EDGE('',*,*,#1042,.F.);
#1044 = CARTESIAN_POINT('',(1.585,0.315,-3.6000000000000005));
#1045 = DIRECTION('',(1.,0.,0.));
#1046 = DIRECTION('',(0.,-1.,0.));
#1047 = AXIS2_PLACEMENT_3D('',#1044,#1045,#1046);
#1048 = PLANE('',#1047);
#1049 = EDGE_LOOP('',(#1032,#1033,#1038,#1043));
#1050 = FACE_OUTER_BOUND('',#1049,.T.);
#1051 = ADVANCED_FACE('',(#1050),#1048,.T.);
#1052 = CARTESIAN_POINT('',(1.445,-0.175,-9.6));
#1053 = VERTEX_POINT('',#1052);
#1054 = CARTESIAN_POINT('',(1.445,0.175,-9.6));
#1055 = VERTEX_POINT('',#1054);
#1056 = DIRECTION('',(0.,1.,0.));
#1057 = VECTOR('',#1056,1.);
#1058 = LINE('',#1052,#1057);
#1059 = EDGE_CURVE('',#1053,#1055,#1058,.T.);
#1060 = ORIENTED_EDGE('',*,*,#1059,.T.);
#1061 = DIRECTION('',(0.2215811282415214,0.22158112824152157,0.9496334067493776));
#1062 = VECTOR('',#1061,1.);
#1063 = LINE('',#1054,#1062);
#1064 = EDGE_CURVE('',#1055,#1027,#1063,.T.);
#1065 = ORIENTED_EDGE('',*,*,#1064,.T.);
#1066 = ORIENTED_EDGE('',*,*,#1037,.F.);
#1067 = DIRECTION('',(0.2215811282415214,-0.22158112824152157,0.9496334067493776));
#1068 = VECTOR('',#1067,1.);
#1069 = LINE('',#1052,#1068);
#1070 = EDGE_CURVE('',#1053,#991,#1069,.T.);
#1071 = ORIENTED_EDGE('',*,*,#1070,.F.);
#1072 = CARTESIAN_POINT('',(1.445,-0.175,-9.6));
#1073 = DIRECTION('',(0.9738412097417933,0.,-0.2272296156064181));
#1074 = DIRECTION('',(0.,1.,0.));
#1075 = AXIS2_PLACEMENT_3D('',#1072,#1073,#1074);
#1076 = PLANE('',#1075);
#1077 = EDGE_LOOP('',(#1060,#1065,#1066,#1071));
#1078 = FACE_OUTER_BOUND('',#1077,.T.);
#1079 = ADVANCED_FACE('',(#1078),#1076,.T.);
#1080 = CARTESIAN_POINT('',(1.095,-0.175,-9.6));
#1081 = VERTEX_POINT('',#1080);
#1082 = ORIENTED_EDGE('',*,*,#1070,.T.);
#1083 = ORIENTED_EDGE('',*,*,#999,.F.);
#1084 = DIRECTION('',(0.2215811282415214,0.22158112824152157,-0.9496334067493776));
#1085 = VECTOR('',#1084,1.);
#1086 = LINE('',#988,#1085);
#1087 = EDGE_CURVE('',#989,#1081,#1086,.T.);
#1088 = ORIENTED_EDGE('',*,*,#1087,.T.);
#1089 = DIRECTION('',(1.,0.,0.));
#1090 = VECTOR('',#1089,1.);
#1091 = LINE('',#1080,#1090);
#1092 = EDGE_CURVE('',#1081,#1053,#1091,.T.);
#1093 = ORIENTED_EDGE('',*,*,#1092,.T.);
#1094 = CARTESIAN_POINT('',(1.445,-0.175,-9.6));
#1095 = DIRECTION('',(0.,-0.9738412097417931,-0.2272296156064184));
#1096 = DIRECTION('',(0.2215811282415214,-0.22158112824152157,0.9496334067493776));
#1097 = AXIS2_PLACEMENT_3D('',#1094,#1095,#1096);
#1098 = PLANE('',#1097);
#1099 = EDGE_LOOP('',(#1082,#1083,#1088,#1093));
#1100 = FACE_OUTER_BOUND('',#1099,.T.);
#1101 = ADVANCED_FACE('',(#1100),#1098,.T.);
#1102 = CARTESIAN_POINT('',(1.095,0.175,-9.6));
#1103 = VERTEX_POINT('',#1102);
#1104 = CARTESIAN_POINT('',(0.9550000000000001,0.315,-9.));
#1105 = VERTEX_POINT('',#1104);
#1106 = DIRECTION('',(0.,1.,0.));
#1107 = VECTOR('',#1106,1.);
#1108 = LINE('',#1080,#1107);
#1109 = EDGE_CURVE('',#1081,#1103,#1108,.T.);
#1110 = ORIENTED_EDGE('',*,*,#1109,.F.);
#1111 = ORIENTED_EDGE('',*,*,#1087,.F.);
#1112 = DIRECTION('',(0.,1.,0.));
#1113 = VECTOR('',#1112,1.);
#1114 = LINE('',#988,#1113);
#1115 = EDGE_CURVE('',#989,#1105,#1114,.T.);
#1116 = ORIENTED_EDGE('',*,*,#1115,.T.);
#1117 = DIRECTION('',(0.2215811282415214,-0.22158112824152157,-0.9496334067493776));
#1118 = VECTOR('',#1117,1.);
#1119 = LINE('',#1104,#1118);
#1120 = EDGE_CURVE('',#1105,#1103,#1119,.T.);
#1121 = ORIENTED_EDGE('',*,*,#1120,.T.);
#1122 = CARTESIAN_POINT('',(1.095,0.175,-9.6));
#1123 = DIRECTION('',(-0.9738412097417933,0.,-0.2272296156064181));
#1124 = DIRECTION('',(0.,-1.,0.));
#1125 = AXIS2_PLACEMENT_3D('',#1122,#1123,#1124);
#1126 = PLANE('',#1125);
#1127 = EDGE_LOOP('',(#1110,#1111,#1116,#1121));
#1128 = FACE_OUTER_BOUND('',#1127,.T.);
#1129 = ADVANCED_FACE('',(#1128),#1126,.T.);
#1130 = ORIENTED_EDGE('',*,*,#1120,.F.);
#1131 = DIRECTION('',(1.,0.,0.));
#1132 = VECTOR('',#1131,1.);
#1133 = LINE('',#1104,#1132);
#1134 = EDGE_CURVE('',#1105,#1027,#1133,.T.);
#1135 = ORIENTED_EDGE('',*,*,#1134,.T.);
#1136 = ORIENTED_EDGE('',*,*,#1064,.F.);
#1137 = DIRECTION('',(1.,0.,0.));
#1138 = VECTOR('',#1137,1.);
#1139 = LINE('',#1102,#1138);
#1140 = EDGE_CURVE('',#1103,#1055,#1139,.T.);
#1141 = ORIENTED_EDGE('',*,*,#1140,.F.);
#1142 = CARTESIAN_POINT('',(1.095,0.175,-9.6));
#1143 = DIRECTION('',(0.,0.9738412097417931,-0.2272296156064184));
#1144 = DIRECTION('',(-0.2215811282415214,0.22158112824152157,0.9496334067493776));
#1145 = AXIS2_PLACEMENT_3D('',#1142,#1143,#1144);
#1146 = PLANE('',#1145);
#1147 = EDGE_LOOP('',(#1130,#1135,#1136,#1141));
#1148 = FACE_OUTER_BOUND('',#1147,.T.);
#1149 = ADVANCED_FACE('',(#1148),#1146,.T.);
#1150 = ORIENTED_EDGE('',*,*,#1140,.T.);
#1151 = ORIENTED_EDGE('',*,*,#1059,.F.);
#1152 = ORIENTED_EDGE('',*,*,#1092,.F.);
#1153 = ORIENTED_EDGE('',*,*,#1109,.T.);
#1154 = CARTESIAN_POINT('',(1.095,0.175,-9.6));
#1155 = DIRECTION('',(0.,0.,-1.));
#1156 = DIRECTION('',(1.,0.,0.));
#1157 = AXIS2_PLACEMENT_3D('',#1154,#1155,#1156);
#1158 = PLANE('',#1157);
#1159 = EDGE_LOOP('',(#1150,#1151,#1152,#1153));
#1160 = FACE_OUTER_BOUND('',#1159,.T.);
#1161 = ADVANCED_FACE('',(#1160),#1158,.T.);
#1162 = CARTESIAN_POINT('',(0.9550000000000001,0.315,-3.6000000000000005));
#1163 = VERTEX_POINT('',#1162);
#1164 = DIRECTION('',(1.,0.,0.));
#1165 = VECTOR('',#1164,1.);
#1166 = LINE('',#1162,#1165);
#1167 = EDGE_CURVE('',#1163,#1025,#1166,.T.);
#1168 = ORIENTED_EDGE('',*,*,#1167,.T.);
#1169 = ORIENTED_EDGE('',*,*,#1042,.T.);
#1170 = ORIENTED_EDGE('',*,*,#1134,.F.);
#1171 = DIRECTION('',(0.,0.,-1.));
#1172 = VECTOR('',#1171,1.);
#1173 = LINE('',#1162,#1172);
#1174 = EDGE_CURVE('',#1163,#1105,#1173,.T.);
#1175 = ORIENTED_EDGE('',*,*,#1174,.F.);
#1176 = CARTESIAN_POINT('',(0.9550000000000001,0.315,-3.6000000000000005));
#1177 = DIRECTION('',(0.,1.,0.));
#1178 = DIRECTION('',(1.,0.,0.));
#1179 = AXIS2_PLACEMENT_3D('',#1176,#1177,#1178);
#1180 = PLANE('',#1179);
#1181 = EDGE_LOOP('',(#1168,#1169,#1170,#1175));
#1182 = FACE_OUTER_BOUND('',#1181,.T.);
#1183 = ADVANCED_FACE('',(#1182),#1180,.T.);
#1184 = ORIENTED_EDGE('',*,*,#1174,.T.);
#1185 = ORIENTED_EDGE('',*,*,#1115,.F.);
#1186 = ORIENTED_EDGE('',*,*,#1014,.F.);
#1187 = DIRECTION('',(0.,1.,0.));
#1188 = VECTOR('',#1187,1.);
#1189 = LINE('',#994,#1188);
#1190 = EDGE_CURVE('',#995,#1163,#1189,.T.);
#1191 = ORIENTED_EDGE('',*,*,#1190,.T.);
#1192 = CARTESIAN_POINT('',(0.9550000000000001,0.315,-3.6000000000000005));
#1193 = DIRECTION('',(-1.,0.,0.));
#1194 = DIRECTION('',(0.,0.,-1.));
#1195 = AXIS2_PLACEMENT_3D('',#1192,#1193,#1194);
#1196 = PLANE('',#1195);
#1197 = EDGE_LOOP('',(#1184,#1185,#1186,#1191));
#1198 = FACE_OUTER_BOUND('',#1197,.T.);
#1199 = ADVANCED_FACE('',(#1198),#1196,.T.);
#1200 = ORIENTED_EDGE('',*,*,#1190,.F.);
#1201 = ORIENTED_EDGE('',*,*,#1009,.T.);
#1202 = ORIENTED_EDGE('',*,*,#1031,.T.);
#1203 = ORIENTED_EDGE('',*,*,#1167,.F.);
#1204 = CARTESIAN_POINT('',(0.9550000000000001,0.315,-3.6000000000000005));
#1205 = DIRECTION('',(0.,0.,1.));
#1206 = DIRECTION('',(0.,-1.,0.));
#1207 = AXIS2_PLACEMENT_3D('',#1204,#1205,#1206);
#1208 = PLANE('',#1207);
#1209 = EDGE_LOOP('',(#1200,#1201,#1202,#1203));
#1210 = FACE_OUTER_BOUND('',#1209,.T.);
#1211 = ADVANCED_FACE('',(#1210),#1208,.T.);
#1212 = CLOSED_SHELL('',(#1023,#1051,#1079,#1101,#1129,#1149,#1161,#1183,#1199,#1211));
#1213 = MANIFOLD_SOLID_BREP('',#1212);
#1214 = ADVANCED_BREP_SHAPE_REPRESENTATION('',(#17,#155,#389,#615,#753,#987,#1213),#13);
#1215 = SHAPE_DEFINITION_REPRESENTATION(#8,#1214);
#1216 = MECHANICAL_DESIGN_GEOMETRIC_PRESENTATION_REPRESENTATION('',(#163,#761),#13);
ENDSEC;
END-ISO-10303-21;