ISO-10303-21;
HEADER;
FILE_DESCRIPTION(('shape.step'),'2;1');
FILE_NAME('shape.step','2026-09-12',('tscircuit'),('tscircuit'),'generator','','');
FILE_SCHEMA(('AUTOMOTIVE_DESIGN { 1 0 10303 214 1 1 1 1 }'));
ENDSEC;
DATA;
#1 = APPLICATION_CONTEXT('core data for automotive mechanical design processes');
#2 = APPLICATION_PROTOCOL_DEFINITION('international standard','automotive_design',2000,#1);
#3 = PRODUCT_CONTEXT('',#1,'mechanical');
#4 = PRODUCT('shape','shape','',(#3));
#5 = PRODUCT_DEFINITION_CONTEXT('part definition',#1,'design');
#6 = PRODUCT_DEFINITION_FORMATION('','',#4);
#7 = PRODUCT_DEFINITION('design','',#6,#5);
#8 = PRODUCT_DEFINITION_SHAPE('','',#7);
#9 = (
LENGTH_UNIT()
NAMED_UNIT(*)
SI_UNIT(.MILLI.,.METRE.)
);
#10 = (
NAMED_UNIT(*)
PLANE_ANGLE_UNIT()
SI_UNIT($,.RADIAN.)
);
#11 = (
NAMED_UNIT(*)
SI_UNIT($,.STERADIAN.)
SOLID_ANGLE_UNIT()
);
#12 = UNCERTAINTY_MEASURE_WITH_UNIT(LENGTH_MEASURE(1.E-07),#9,'distance_accuracy_value','confusion accuracy');
#13 = (
GEOMETRIC_REPRESENTATION_CONTEXT(3)
GLOBAL_UNCERTAINTY_ASSIGNED_CONTEXT((#12))
GLOBAL_UNIT_ASSIGNED_CONTEXT((#9,#10,#11))
REPRESENTATION_CONTEXT('Context #1','3D
Context with
TORTURE://UNITS')
);
#14 = CARTESIAN_POINT('',(0.,0.,0.));
#15 = DIRECTION('',(0.,0.,1.));
#16 = DIRECTION('',(1.,0.,0.));
#17 = AXIS2_PLACEMENT_3D('',#14,#15,#16);
#18 = CARTESIAN_POINT('',(-2.54,-1.27,0.));
#19 = VERTEX_POINT('',#18);
#20 = CARTESIAN_POINT('',(-2.54,-1.27,5.));
#21 = VERTEX_POINT('',#20);
#22 = CARTESIAN_POINT('',(-2.54,-0.8504999999999999,5.));
#23 = VERTEX_POINT('',#22);
#24 = CARTESIAN_POINT('',(-2.54,0.8504999999999999,5.));
#25 = VERTEX_POINT('',#24);
#26 = CARTESIAN_POINT('',(-2.54,1.27,5.));
#27 = VERTEX_POINT('',#26);
#28 = CARTESIAN_POINT('',(-2.54,1.27,0.));
#29 = VERTEX_POINT('',#28);
#30 = CARTESIAN_POINT('',(-2.54,0.4724999999999999,0.));
#31 = VERTEX_POINT('',#30);
#32 = CARTESIAN_POINT('',(-2.54,-0.4724999999999999,0.));
#33 = VERTEX_POINT('',#32);
#34 = DIRECTION('',(0.,0.,1.));
#35 = VECTOR('',#34,1.);
#36 = LINE('',#18,#35);
#37 = EDGE_CURVE('',#19,#21,#36,.T.);
#38 = ORIENTED_EDGE('',*,*,#37,.T.);
#39 = DIRECTION('',(0.,-1.,0.));
#40 = VECTOR('',#39,1.);
#41 = LINE('',#22,#40);
#42 = EDGE_CURVE('',#23,#21,#41,.T.);
#43 = ORIENTED_EDGE('',*,*,#42,.F.);
#44 = DIRECTION('',(0.,1.,0.));
#45 = VECTOR('',#44,1.);
#46 = LINE('',#22,#45);
#47 = EDGE_CURVE('',#23,#25,#46,.T.);
#48 = ORIENTED_EDGE('',*,*,#47,.T.);
#49 = DIRECTION('',(0.,1.,0.));
#50 = VECTOR('',#49,1.);
#51 = LINE('',#24,#50);
#52 = EDGE_CURVE('',#25,#27,#51,.T.);
#53 = ORIENTED_EDGE('',*,*,#52,.T.);
#54 = DIRECTION('',(0.,0.,1.));
#55 = VECTOR('',#54,1.);
#56 = LINE('',#28,#55);
#57 = EDGE_CURVE('',#29,#27,#56,.T.);
#58 = ORIENTED_EDGE('',*,*,#57,.F.);
#59 = DIRECTION('',(0.,1.,0.));
#60 = VECTOR('',#59,1.);
#61 = LINE('',#30,#60);
#62 = EDGE_CURVE('',#31,#29,#61,.T.);
#63 = ORIENTED_EDGE('',*,*,#62,.F.);
#64 = DIRECTION('',(0.,1.,0.));
#65 = VECTOR('',#64,1.);
#66 = LINE('',#32,#65);
#67 = EDGE_CURVE('',#33,#31,#66,.T.);
#68 = ORIENTED_EDGE('',*,*,#67,.F.);
#69 = DIRECTION('',(0.,-1.,0.));
#70 = VECTOR('',#69,1.);
#71 = LINE('',#32,#70);
#72 = EDGE_CURVE('',#33,#19,#71,.T.);
#73 = ORIENTED_EDGE('',*,*,#72,.T.);
#74 = CARTESIAN_POINT('',(-2.54,-1.27,0.));
#75 = DIRECTION('',(-1.,0.,0.));
#76 = DIRECTION('',(0.,0.,1.));
#77 = AXIS2_PLACEMENT_3D('',#74,#75,#76);
#78 = PLANE('',#77);
#79 = EDGE_LOOP('',(#38,#43,#48,#53,#58,#63,#68,#73));
#80 = FACE_OUTER_BOUND('',#79,.T.);
#81 = ADVANCED_FACE('',(#80),#78,.T.);
#82 = CARTESIAN_POINT('',(0.,-1.27,0.));
#83 = VERTEX_POINT('',#82);
#84 = CARTESIAN_POINT('',(0.,-0.4724999999999999,0.));
#85 = VERTEX_POINT('',#84);
#86 = CARTESIAN_POINT('',(0.,0.4724999999999999,0.));
#87 = VERTEX_POINT('',#86);
#88 = CARTESIAN_POINT('',(0.,1.27,0.));
#89 = VERTEX_POINT('',#88);
#90 = CARTESIAN_POINT('',(0.,1.27,5.));
#91 = VERTEX_POINT('',#90);
#92 = CARTESIAN_POINT('',(0.,0.8504999999999999,5.));
#93 = VERTEX_POINT('',#92);
#94 = CARTESIAN_POINT('',(0.,-0.8504999999999999,5.));
#95 = VERTEX_POINT('',#94);
#96 = CARTESIAN_POINT('',(0.,-1.27,5.));
#97 = VERTEX_POINT('',#96);
#98 = DIRECTION('',(0.,-1.,0.));
#99 = VECTOR('',#98,1.);
#100 = LINE('',#84,#99);
#101 = EDGE_CURVE('',#85,#83,#100,.T.);
#102 = ORIENTED_EDGE('',*,*,#101,.F.);
#103 = DIRECTION('',(0.,1.,0.));
#104 = VECTOR('',#103,1.);
#105 = LINE('',#84,#104);
#106 = EDGE_CURVE('',#85,#87,#105,.T.);
#107 = ORIENTED_EDGE('',*,*,#106,.T.);
#108 = DIRECTION('',(0.,1.,0.));
#109 = VECTOR('',#108,1.);
#110 = LINE('',#86,#109);
#111 = EDGE_CURVE('',#87,#89,#110,.T.);
#112 = ORIENTED_EDGE('',*,*,#111,.T.);
#113 = DIRECTION('',(0.,0.,1.));
#114 = VECTOR('',#113,1.);
#115 = LINE('',#88,#114);
#116 = EDGE_CURVE('',#89,#91,#115,.T.);
#117 = ORIENTED_EDGE('',*,*,#116,.T.);
#118 = DIRECTION('',(0.,1.,0.));
#119 = VECTOR('',#118,1.);
#120 = LINE('',#92,#119);
#121 = EDGE_CURVE('',#93,#91,#120,.T.);
#122 = ORIENTED_EDGE('',*,*,#121,.F.);
#123 = DIRECTION('',(0.,1.,0.));
#124 = VECTOR('',#123,1.);
#125 = LINE('',#94,#124);
#126 = EDGE_CURVE('',#95,#93,#125,.T.);
#127 = ORIENTED_EDGE('',*,*,#126,.F.);
#128 = DIRECTION('',(0.,-1.,0.));
#129 = VECTOR('',#128,1.);
#130 = LINE('',#94,#129);
#131 = EDGE_CURVE('',#95,#97,#130,.T.);
#132 = ORIENTED_EDGE('',*,*,#131,.T.);
#133 = DIRECTION('',(0.,0.,1.));
#134 = VECTOR('',#133,1.);
#135 = LINE('',#82,#134);
#136 = EDGE_CURVE('',#83,#97,#135,.T.);
#137 = ORIENTED_EDGE('',*,*,#136,.F.);
#138 = CARTESIAN_POINT('',(0.,-1.27,0.));
#139 = DIRECTION('',(1.,0.,0.));
#140 = DIRECTION('',(0.,1.,0.));
#141 = AXIS2_PLACEMENT_3D('',#138,#139,#140);
#142 = PLANE('',#141);
#143 = EDGE_LOOP('',(#102,#107,#112,#117,#122,#127,#132,#137));
#144 = FACE_OUTER_BOUND('',#143,.T.);
#145 = ADVANCED_FACE('',(#144),#142,.T.);
#146 = DIRECTION('',(1.,0.,0.));
#147 = VECTOR('',#146,1.);
#148 = LINE('',#18,#147);
#149 = EDGE_CURVE('',#19,#83,#148,.T.);
#150 = ORIENTED_EDGE('',*,*,#149,.T.);
#151 = ORIENTED_EDGE('',*,*,#136,.T.);
#152 = DIRECTION('',(1.,0.,0.));
#153 = VECTOR('',#152,1.);
#154 = LINE('',#20,#153);
#155 = EDGE_CURVE('',#21,#97,#154,.T.);
#156 = ORIENTED_EDGE('',*,*,#155,.F.);
#157 = ORIENTED_EDGE('',*,*,#37,.F.);
#158 = CARTESIAN_POINT('',(-2.54,-1.27,0.));
#159 = DIRECTION('',(0.,-1.,0.));
#160 = DIRECTION('',(1.,0.,0.));
#161 = AXIS2_PLACEMENT_3D('',#158,#159,#160);
#162 = PLANE('',#161);
#163 = EDGE_LOOP('',(#150,#151,#156,#157));
#164 = FACE_OUTER_BOUND('',#163,.T.);
#165 = ADVANCED_FACE('',(#164),#162,.T.);
#166 = ORIENTED_EDGE('',*,*,#57,.T.);
#167 = DIRECTION('',(1.,0.,0.));
#168 = VECTOR('',#167,1.);
#169 = LINE('',#26,#168);
#170 = EDGE_CURVE('',#27,#91,#169,.T.);
#171 = ORIENTED_EDGE('',*,*,#170,.T.);
#172 = ORIENTED_EDGE('',*,*,#116,.F.);
#173 = DIRECTION('',(1.,0.,0.));
#174 = VECTOR('',#173,1.);
#175 = LINE('',#28,#174);
#176 = EDGE_CURVE('',#29,#89,#175,.T.);
#177 = ORIENTED_EDGE('',*,*,#176,.F.);
#178 = CARTESIAN_POINT('',(-2.54,1.27,0.));
#179 = DIRECTION('',(0.,1.,0.));
#180 = DIRECTION('',(0.,0.,1.));
#181 = AXIS2_PLACEMENT_3D('',#178,#179,#180);
#182 = PLANE('',#181);
#183 = EDGE_LOOP('',(#166,#171,#172,#177));
#184 = FACE_OUTER_BOUND('',#183,.T.);
#185 = ADVANCED_FACE('',(#184),#182,.T.);
#186 = CARTESIAN_POINT('',(-0.7975000000000001,0.4725,0.));
#187 = VERTEX_POINT('',#186);
#188 = CARTESIAN_POINT('',(-1.7425,0.4725,0.));
#189 = VERTEX_POINT('',#188);
#190 = ORIENTED_EDGE('',*,*,#111,.F.);
#191 = DIRECTION('',(1.,0.,0.));
#192 = VECTOR('',#191,1.);
#193 = LINE('',#186,#192);
#194 = EDGE_CURVE('',#187,#87,#193,.T.);
#195 = ORIENTED_EDGE('',*,*,#194,.F.);
#196 = DIRECTION('',(-1.,0.,0.));
#197 = VECTOR('',#196,1.);
#198 = LINE('',#186,#197);
#199 = EDGE_CURVE('',#187,#189,#198,.T.);
#200 = ORIENTED_EDGE('',*,*,#199,.T.);
#201 = DIRECTION('',(-1.,0.,0.));
#202 = VECTOR('',#201,1.);
#203 = LINE('',#188,#202);
#204 = EDGE_CURVE('',#189,#31,#203,.T.);
#205 = ORIENTED_EDGE('',*,*,#204,.T.);
#206 = ORIENTED_EDGE('',*,*,#62,.T.);
#207 = ORIENTED_EDGE('',*,*,#176,.T.);
#208 = CARTESIAN_POINT('',(0.,1.27,0.));
#209 = DIRECTION('',(0.,0.,-1.));
#210 = DIRECTION('',(0.,-1.,0.));
#211 = AXIS2_PLACEMENT_3D('',#208,#209,#210);
#212 = PLANE('',#211);
#213 = EDGE_LOOP('',(#190,#195,#200,#205,#206,#207));
#214 = FACE_OUTER_BOUND('',#213,.T.);
#215 = ADVANCED_FACE('',(#214),#212,.T.);
#216 = CARTESIAN_POINT('',(-1.7425,-0.4724999999999999,0.));
#217 = VERTEX_POINT('',#216);
#218 = DIRECTION('',(0.,1.,0.));
#219 = VECTOR('',#218,1.);
#220 = LINE('',#216,#219);
#221 = EDGE_CURVE('',#217,#189,#220,.T.);
#222 = ORIENTED_EDGE('',*,*,#221,.F.);
#223 = DIRECTION('',(-1.,0.,0.));
#224 = VECTOR('',#223,1.);
#225 = LINE('',#216,#224);
#226 = EDGE_CURVE('',#217,#33,#225,.T.);
#227 = ORIENTED_EDGE('',*,*,#226,.T.);
#228 = ORIENTED_EDGE('',*,*,#67,.T.);
#229 = ORIENTED_EDGE('',*,*,#204,.F.);
#230 = CARTESIAN_POINT('',(-1.7425,0.4724999999999999,0.));
#231 = DIRECTION('',(0.,0.,-1.));
#232 = DIRECTION('',(0.,-1.,0.));
#233 = AXIS2_PLACEMENT_3D('',#230,#231,#232);
#234 = PLANE('',#233);
#235 = EDGE_LOOP('',(#222,#227,#228,#229));
#236 = FACE_OUTER_BOUND('',#235,.T.);
#237 = ADVANCED_FACE('',(#236),#234,.T.);
#238 = CARTESIAN_POINT('',(-0.7975000000000001,-0.4724999999999999,0.));
#239 = VERTEX_POINT('',#238);
#240 = ORIENTED_EDGE('',*,*,#106,.F.);
#241 = DIRECTION('',(1.,0.,0.));
#242 = VECTOR('',#241,1.);
#243 = LINE('',#238,#242);
#244 = EDGE_CURVE('',#239,#85,#243,.T.);
#245 = ORIENTED_EDGE('',*,*,#244,.F.);
#246 = DIRECTION('',(0.,1.,0.));
#247 = VECTOR('',#246,1.);
#248 = LINE('',#238,#247);
#249 = EDGE_CURVE('',#239,#187,#248,.T.);
#250 = ORIENTED_EDGE('',*,*,#249,.T.);
#251 = ORIENTED_EDGE('',*,*,#194,.T.);
#252 = CARTESIAN_POINT('',(0.,0.4724999999999999,0.));
#253 = DIRECTION('',(0.,0.,-1.));
#254 = DIRECTION('',(0.,-1.,0.));
#255 = AXIS2_PLACEMENT_3D('',#252,#253,#254);
#256 = PLANE('',#255);
#257 = EDGE_LOOP('',(#240,#245,#250,#251));
#258 = FACE_OUTER_BOUND('',#257,.T.);
#259 = ADVANCED_FACE('',(#258),#256,.T.);
#260 = ORIENTED_EDGE('',*,*,#101,.T.);
#261 = ORIENTED_EDGE('',*,*,#149,.F.);
#262 = ORIENTED_EDGE('',*,*,#72,.F.);
#263 = ORIENTED_EDGE('',*,*,#226,.F.);
#264 = DIRECTION('',(-1.,0.,0.));
#265 = VECTOR('',#264,1.);
#266 = LINE('',#238,#265);
#267 = EDGE_CURVE('',#239,#217,#266,.T.);
#268 = ORIENTED_EDGE('',*,*,#267,.F.);
#269 = ORIENTED_EDGE('',*,*,#244,.T.);
#270 = CARTESIAN_POINT('',(0.,-0.4724999999999999,0.));
#271 = DIRECTION('',(0.,0.,-1.));
#272 = DIRECTION('',(0.,-1.,0.));
#273 = AXIS2_PLACEMENT_3D('',#270,#271,#272);
#274 = PLANE('',#273);
#275 = EDGE_LOOP('',(#260,#261,#262,#263,#268,#269));
#276 = FACE_OUTER_BOUND('',#275,.T.);
#277 = ADVANCED_FACE('',(#276),#274,.T.);
#278 = CARTESIAN_POINT('',(-0.4195000000000001,0.8504999999999999,4.995));
#279 = VERTEX_POINT('',#278);
#280 = CARTESIAN_POINT('',(-2.1205,0.8504999999999999,4.995));
#281 = VERTEX_POINT('',#280);
#282 = CARTESIAN_POINT('',(-1.7425,0.4725,4.3854));
#283 = VERTEX_POINT('',#282);
#284 = CARTESIAN_POINT('',(-0.7975000000000001,0.4725,4.3854));
#285 = VERTEX_POINT('',#284);
#286 = DIRECTION('',(-1.,0.,0.));
#287 = VECTOR('',#286,1.);
#288 = LINE('',#278,#287);
#289 = EDGE_CURVE('',#279,#281,#288,.T.);
#290 = ORIENTED_EDGE('',*,*,#289,.T.);
#291 = DIRECTION('',(-0.46621205975657,0.4662120597565701,0.7518594487502787));
#292 = VECTOR('',#291,1.);
#293 = LINE('',#282,#292);
#294 = EDGE_CURVE('',#283,#281,#293,.T.);
#295 = ORIENTED_EDGE('',*,*,#294,.F.);
#296 = DIRECTION('',(-1.,0.,0.));
#297 = VECTOR('',#296,1.);
#298 = LINE('',#284,#297);
#299 = EDGE_CURVE('',#285,#283,#298,.T.);
#300 = ORIENTED_EDGE('',*,*,#299,.F.);
#301 = DIRECTION('',(-0.46621205975657004,-0.46621205975656993,-0.7518594487502784));
#302 = VECTOR('',#301,1.);
#303 = LINE('',#278,#302);
#304 = EDGE_CURVE('',#279,#285,#303,.T.);
#305 = ORIENTED_EDGE('',*,*,#304,.F.);
#306 = CARTESIAN_POINT('',(-0.4195000000000001,0.8504999999999999,4.995));
#307 = DIRECTION('',(0.,-0.8498727207846388,0.5269880059983484));
#308 = DIRECTION('',(-1.,0.,0.));
#309 = AXIS2_PLACEMENT_3D('',#306,#307,#308);
#310 = PLANE('',#309);
#311 = EDGE_LOOP('',(#290,#295,#300,#305));
#312 = FACE_OUTER_BOUND('',#311,.T.);
#313 = ADVANCED_FACE('',(#312),#310,.T.);
#314 = CARTESIAN_POINT('',(-2.1205,-0.8504999999999999,4.995));
#315 = VERTEX_POINT('',#314);
#316 = CARTESIAN_POINT('',(-1.7425,-0.4725,4.3854));
#317 = VERTEX_POINT('',#316);
#318 = ORIENTED_EDGE('',*,*,#294,.T.);
#319 = DIRECTION('',(0.,1.,0.));
#320 = VECTOR('',#319,1.);
#321 = LINE('',#314,#320);
#322 = EDGE_CURVE('',#315,#281,#321,.T.);
#323 = ORIENTED_EDGE('',*,*,#322,.F.);
#324 = DIRECTION('',(-0.46621205975657,-0.4662120597565701,0.7518594487502787));
#325 = VECTOR('',#324,1.);
#326 = LINE('',#316,#325);
#327 = EDGE_CURVE('',#317,#315,#326,.T.);
#328 = ORIENTED_EDGE('',*,*,#327,.F.);
#329 = DIRECTION('',(0.,1.,0.));
#330 = VECTOR('',#329,1.);
#331 = LINE('',#316,#330);
#332 = EDGE_CURVE('',#317,#283,#331,.T.);
#333 = ORIENTED_EDGE('',*,*,#332,.T.);
#334 = CARTESIAN_POINT('',(-1.7425,0.4725,4.3854));
#335 = DIRECTION('',(0.8498727207846388,0.,0.5269880059983486));
#336 = DIRECTION('',(-0.46621205975657,0.4662120597565701,0.7518594487502787));
#337 = AXIS2_PLACEMENT_3D('',#334,#335,#336);
#338 = PLANE('',#337);
#339 = EDGE_LOOP('',(#318,#323,#328,#333));
#340 = FACE_OUTER_BOUND('',#339,.T.);
#341 = ADVANCED_FACE('',(#340),#338,.T.);
#342 = CARTESIAN_POINT('',(-0.7975000000000001,-0.4725,4.3854));
#343 = VERTEX_POINT('',#342);
#344 = CARTESIAN_POINT('',(-0.4195000000000001,-0.8504999999999999,4.995));
#345 = VERTEX_POINT('',#344);
#346 = ORIENTED_EDGE('',*,*,#304,.T.);
#347 = DIRECTION('',(0.,1.,0.));
#348 = VECTOR('',#347,1.);
#349 = LINE('',#342,#348);
#350 = EDGE_CURVE('',#343,#285,#349,.T.);
#351 = ORIENTED_EDGE('',*,*,#350,.F.);
#352 = DIRECTION('',(-0.46621205975657004,0.46621205975656993,-0.7518594487502784));
#353 = VECTOR('',#352,1.);
#354 = LINE('',#344,#353);
#355 = EDGE_CURVE('',#345,#343,#354,.T.);
#356 = ORIENTED_EDGE('',*,*,#355,.F.);
#357 = DIRECTION('',(0.,1.,0.));
#358 = VECTOR('',#357,1.);
#359 = LINE('',#344,#358);
#360 = EDGE_CURVE('',#345,#279,#359,.T.);
#361 = ORIENTED_EDGE('',*,*,#360,.T.);
#362 = CARTESIAN_POINT('',(-0.4195000000000001,0.8504999999999999,4.995));
#363 = DIRECTION('',(-0.8498727207846387,0.,0.5269880059983487));
#364 = DIRECTION('',(-0.46621205975657004,-0.46621205975656993,-0.7518594487502784));
#365 = AXIS2_PLACEMENT_3D('',#362,#363,#364);
#366 = PLANE('',#365);
#367 = EDGE_LOOP('',(#346,#351,#356,#361));
#368 = FACE_OUTER_BOUND('',#367,.T.);
#369 = ADVANCED_FACE('',(#368),#366,.T.);
#370 = DIRECTION('',(-1.,0.,0.));
#371 = VECTOR('',#370,1.);
#372 = LINE('',#342,#371);
#373 = EDGE_CURVE('',#343,#317,#372,.T.);
#374 = ORIENTED_EDGE('',*,*,#373,.T.);
#375 = ORIENTED_EDGE('',*,*,#327,.T.);
#376 = DIRECTION('',(-1.,0.,0.));
#377 = VECTOR('',#376,1.);
#378 = LINE('',#344,#377);
#379 = EDGE_CURVE('',#345,#315,#378,.T.);
#380 = ORIENTED_EDGE('',*,*,#379,.F.);
#381 = ORIENTED_EDGE('',*,*,#355,.T.);
#382 = CARTESIAN_POINT('',(-0.7975000000000001,-0.4725,4.3854));
#383 = DIRECTION('',(0.,0.8498727207846388,0.5269880059983484));
#384 = DIRECTION('',(-1.,0.,0.));
#385 = AXIS2_PLACEMENT_3D('',#382,#383,#384);
#386 = PLANE('',#385);
#387 = EDGE_LOOP('',(#374,#375,#380,#381));
#388 = FACE_OUTER_BOUND('',#387,.T.);
#389 = ADVANCED_FACE('',(#388),#386,.T.);
#390 = CARTESIAN_POINT('',(-2.1205,-0.8504999999999999,5.));
#391 = VERTEX_POINT('',#390);
#392 = CARTESIAN_POINT('',(-0.4195000000000001,-0.8504999999999999,5.));
#393 = VERTEX_POINT('',#392);
#394 = DIRECTION('',(0.,0.,1.));
#395 = VECTOR('',#394,1.);
#396 = LINE('',#314,#395);
#397 = EDGE_CURVE('',#315,#391,#396,.T.);
#398 = ORIENTED_EDGE('',*,*,#397,.T.);
#399 = DIRECTION('',(-1.,0.,0.));
#400 = VECTOR('',#399,1.);
#401 = LINE('',#392,#400);
#402 = EDGE_CURVE('',#393,#391,#401,.T.);
#403 = ORIENTED_EDGE('',*,*,#402,.F.);
#404 = DIRECTION('',(0.,0.,1.));
#405 = VECTOR('',#404,1.);
#406 = LINE('',#344,#405);
#407 = EDGE_CURVE('',#345,#393,#406,.T.);
#408 = ORIENTED_EDGE('',*,*,#407,.F.);
#409 = ORIENTED_EDGE('',*,*,#379,.T.);
#410 = CARTESIAN_POINT('',(-2.1205,-0.8504999999999999,4.995));
#411 = DIRECTION('',(0.,1.,0.));
#412 = DIRECTION('',(0.,0.,1.));
#413 = AXIS2_PLACEMENT_3D('',#410,#411,#412);
#414 = PLANE('',#413);
#415 = EDGE_LOOP('',(#398,#403,#408,#409));
#416 = FACE_OUTER_BOUND('',#415,.T.);
#417 = ADVANCED_FACE('',(#416),#414,.T.);
#418 = CARTESIAN_POINT('',(-2.1205,0.8504999999999999,5.));
#419 = VERTEX_POINT('',#418);
#420 = CARTESIAN_POINT('',(-0.4195000000000001,0.8504999999999999,5.));
#421 = VERTEX_POINT('',#420);
#422 = DIRECTION('',(0.,0.,1.));
#423 = VECTOR('',#422,1.);
#424 = LINE('',#280,#423);
#425 = EDGE_CURVE('',#281,#419,#424,.T.);
#426 = ORIENTED_EDGE('',*,*,#425,.F.);
#427 = ORIENTED_EDGE('',*,*,#289,.F.);
#428 = DIRECTION('',(0.,0.,1.));
#429 = VECTOR('',#428,1.);
#430 = LINE('',#278,#429);
#431 = EDGE_CURVE('',#279,#421,#430,.T.);
#432 = ORIENTED_EDGE('',*,*,#431,.T.);
#433 = DIRECTION('',(-1.,0.,0.));
#434 = VECTOR('',#433,1.);
#435 = LINE('',#420,#434);
#436 = EDGE_CURVE('',#421,#419,#435,.T.);
#437 = ORIENTED_EDGE('',*,*,#436,.T.);
#438 = CARTESIAN_POINT('',(-2.1205,0.8504999999999999,5.));
#439 = DIRECTION('',(0.,-1.,0.));
#440 = DIRECTION('',(0.,0.,-1.));
#441 = AXIS2_PLACEMENT_3D('',#438,#439,#440);
#442 = PLANE('',#441);
#443 = EDGE_LOOP('',(#426,#427,#432,#437));
#444 = FACE_OUTER_BOUND('',#443,.T.);
#445 = ADVANCED_FACE('',(#444),#442,.T.);
#446 = ORIENTED_EDGE('',*,*,#397,.F.);
#447 = ORIENTED_EDGE('',*,*,#322,.T.);
#448 = ORIENTED_EDGE('',*,*,#425,.T.);
#449 = DIRECTION('',(0.,1.,0.));
#450 = VECTOR('',#449,1.);
#451 = LINE('',#390,#450);
#452 = EDGE_CURVE('',#391,#419,#451,.T.);
#453 = ORIENTED_EDGE('',*,*,#452,.F.);
#454 = CARTESIAN_POINT('',(-2.1205,-0.8504999999999999,5.));
#455 = DIRECTION('',(1.,0.,0.));
#456 = DIRECTION('',(0.,0.,-1.));
#457 = AXIS2_PLACEMENT_3D('',#454,#455,#456);
#458 = PLANE('',#457);
#459 = EDGE_LOOP('',(#446,#447,#448,#453));
#460 = FACE_OUTER_BOUND('',#459,.T.);
#461 = ADVANCED_FACE('',(#460),#458,.T.);
#462 = ORIENTED_EDGE('',*,*,#431,.F.);
#463 = ORIENTED_EDGE('',*,*,#360,.F.);
#464 = ORIENTED_EDGE('',*,*,#407,.T.);
#465 = DIRECTION('',(0.,1.,0.));
#466 = VECTOR('',#465,1.);
#467 = LINE('',#392,#466);
#468 = EDGE_CURVE('',#393,#421,#467,.T.);
#469 = ORIENTED_EDGE('',*,*,#468,.T.);
#470 = CARTESIAN_POINT('',(-0.4195000000000001,0.8504999999999999,5.));
#471 = DIRECTION('',(-1.,0.,0.));
#472 = DIRECTION('',(0.,0.,-1.));
#473 = AXIS2_PLACEMENT_3D('',#470,#471,#472);
#474 = PLANE('',#473);
#475 = EDGE_LOOP('',(#462,#463,#464,#469));
#476 = FACE_OUTER_BOUND('',#475,.T.);
#477 = ADVANCED_FACE('',(#476),#474,.T.);
#478 = DIRECTION('',(0.,0.,1.));
#479 = VECTOR('',#478,1.);
#480 = LINE('',#216,#479);
#481 = EDGE_CURVE('',#217,#317,#480,.T.);
#482 = ORIENTED_EDGE('',*,*,#481,.F.);
#483 = ORIENTED_EDGE('',*,*,#221,.T.);
#484 = DIRECTION('',(0.,0.,1.));
#485 = VECTOR('',#484,1.);
#486 = LINE('',#188,#485);
#487 = EDGE_CURVE('',#189,#283,#486,.T.);
#488 = ORIENTED_EDGE('',*,*,#487,.T.);
#489 = ORIENTED_EDGE('',*,*,#332,.F.);
#490 = CARTESIAN_POINT('',(-1.7425,-0.4725,4.3854));
#491 = DIRECTION('',(1.,0.,0.));
#492 = DIRECTION('',(0.,0.,-1.));
#493 = AXIS2_PLACEMENT_3D('',#490,#491,#492);
#494 = PLANE('',#493);
#495 = EDGE_LOOP('',(#482,#483,#488,#489));
#496 = FACE_OUTER_BOUND('',#495,.T.);
#497 = ADVANCED_FACE('',(#496),#494,.T.);
#498 = ORIENTED_EDGE('',*,*,#350,.T.);
#499 = DIRECTION('',(0.,0.,1.));
#500 = VECTOR('',#499,1.);
#501 = LINE('',#186,#500);
#502 = EDGE_CURVE('',#187,#285,#501,.T.);
#503 = ORIENTED_EDGE('',*,*,#502,.F.);
#504 = ORIENTED_EDGE('',*,*,#249,.F.);
#505 = DIRECTION('',(0.,0.,1.));
#506 = VECTOR('',#505,1.);
#507 = LINE('',#238,#506);
#508 = EDGE_CURVE('',#239,#343,#507,.T.);
#509 = ORIENTED_EDGE('',*,*,#508,.T.);
#510 = CARTESIAN_POINT('',(-0.7975000000000001,-0.4725,4.385399999999999));
#511 = DIRECTION('',(-1.,0.,0.));
#512 = DIRECTION('',(0.,1.,0.));
#513 = AXIS2_PLACEMENT_3D('',#510,#511,#512);
#514 = PLANE('',#513);
#515 = EDGE_LOOP('',(#498,#503,#504,#509));
#516 = FACE_OUTER_BOUND('',#515,.T.);
#517 = ADVANCED_FACE('',(#516),#514,.T.);
#518 = ORIENTED_EDGE('',*,*,#508,.F.);
#519 = ORIENTED_EDGE('',*,*,#267,.T.);
#520 = ORIENTED_EDGE('',*,*,#481,.T.);
#521 = ORIENTED_EDGE('',*,*,#373,.F.);
#522 = CARTESIAN_POINT('',(-0.7975000000000001,-0.4725,4.385399999999999));
#523 = DIRECTION('',(0.,1.,0.));
#524 = DIRECTION('',(0.,0.,-1.));
#525 = AXIS2_PLACEMENT_3D('',#522,#523,#524);
#526 = PLANE('',#525);
#527 = EDGE_LOOP('',(#518,#519,#520,#521));
#528 = FACE_OUTER_BOUND('',#527,.T.);
#529 = ADVANCED_FACE('',(#528),#526,.T.);
#530 = ORIENTED_EDGE('',*,*,#487,.F.);
#531 = ORIENTED_EDGE('',*,*,#199,.F.);
#532 = ORIENTED_EDGE('',*,*,#502,.T.);
#533 = ORIENTED_EDGE('',*,*,#299,.T.);
#534 = CARTESIAN_POINT('',(-1.7425,0.4725,4.385399999999999));
#535 = DIRECTION('',(0.,-1.,0.));
#536 = DIRECTION('',(0.,0.,-1.));
#537 = AXIS2_PLACEMENT_3D('',#534,#535,#536);
#538 = PLANE('',#537);
#539 = EDGE_LOOP('',(#530,#531,#532,#533));
#540 = FACE_OUTER_BOUND('',#539,.T.);
#541 = ADVANCED_FACE('',(#540),#538,.T.);
#542 = ORIENTED_EDGE('',*,*,#52,.F.);
#543 = DIRECTION('',(-1.,0.,0.));
#544 = VECTOR('',#543,1.);
#545 = LINE('',#418,#544);
#546 = EDGE_CURVE('',#419,#25,#545,.T.);
#547 = ORIENTED_EDGE('',*,*,#546,.F.);
#548 = ORIENTED_EDGE('',*,*,#436,.F.);
#549 = DIRECTION('',(1.,0.,0.));
#550 = VECTOR('',#549,1.);
#551 = LINE('',#420,#550);
#552 = EDGE_CURVE('',#421,#93,#551,.T.);
#553 = ORIENTED_EDGE('',*,*,#552,.T.);
#554 = ORIENTED_EDGE('',*,*,#121,.T.);
#555 = ORIENTED_EDGE('',*,*,#170,.F.);
#556 = CARTESIAN_POINT('',(-2.54,1.27,5.));
#557 = DIRECTION('',(0.,0.,1.));
#558 = DIRECTION('',(0.,-1.,0.));
#559 = AXIS2_PLACEMENT_3D('',#556,#557,#558);
#560 = PLANE('',#559);
#561 = EDGE_LOOP('',(#542,#547,#548,#553,#554,#555));
#562 = FACE_OUTER_BOUND('',#561,.T.);
#563 = ADVANCED_FACE('',(#562),#560,.T.);
#564 = ORIENTED_EDGE('',*,*,#468,.F.);
#565 = DIRECTION('',(1.,0.,0.));
#566 = VECTOR('',#565,1.);
#567 = LINE('',#392,#566);
#568 = EDGE_CURVE('',#393,#95,#567,.T.);
#569 = ORIENTED_EDGE('',*,*,#568,.T.);
#570 = ORIENTED_EDGE('',*,*,#126,.T.);
#571 = ORIENTED_EDGE('',*,*,#552,.F.);
#572 = CARTESIAN_POINT('',(-0.4195000000000001,0.8504999999999999,5.));
#573 = DIRECTION('',(0.,0.,1.));
#574 = DIRECTION('',(0.,-1.,0.));
#575 = AXIS2_PLACEMENT_3D('',#572,#573,#574);
#576 = PLANE('',#575);
#577 = EDGE_LOOP('',(#564,#569,#570,#571));
#578 = FACE_OUTER_BOUND('',#577,.T.);
#579 = ADVANCED_FACE('',(#578),#576,.T.);
#580 = ORIENTED_EDGE('',*,*,#47,.F.);
#581 = DIRECTION('',(-1.,0.,0.));
#582 = VECTOR('',#581,1.);
#583 = LINE('',#390,#582);
#584 = EDGE_CURVE('',#391,#23,#583,.T.);
#585 = ORIENTED_EDGE('',*,*,#584,.F.);
#586 = ORIENTED_EDGE('',*,*,#452,.T.);
#587 = ORIENTED_EDGE('',*,*,#546,.T.);
#588 = CARTESIAN_POINT('',(-2.54,0.8504999999999999,5.));
#589 = DIRECTION('',(0.,0.,1.));
#590 = DIRECTION('',(0.,-1.,0.));
#591 = AXIS2_PLACEMENT_3D('',#588,#589,#590);
#592 = PLANE('',#591);
#593 = EDGE_LOOP('',(#580,#585,#586,#587));
#594 = FACE_OUTER_BOUND('',#593,.T.);
#595 = ADVANCED_FACE('',(#594),#592,.T.);
#596 = ORIENTED_EDGE('',*,*,#42,.T.);
#597 = ORIENTED_EDGE('',*,*,#155,.T.);
#598 = ORIENTED_EDGE('',*,*,#131,.F.);
#599 = ORIENTED_EDGE('',*,*,#568,.F.);
#600 = ORIENTED_EDGE('',*,*,#402,.T.);
#601 = ORIENTED_EDGE('',*,*,#584,.T.);
#602 = CARTESIAN_POINT('',(-2.54,-0.8504999999999999,5.));
#603 = DIRECTION('',(0.,0.,1.));
#604 = DIRECTION('',(0.,-1.,0.));
#605 = AXIS2_PLACEMENT_3D('',#602,#603,#604);
#606 = PLANE('',#605);
#607 = EDGE_LOOP('',(#596,#597,#598,#599,#600,#601));
#608 = FACE_OUTER_BOUND('',#607,.T.);
#609 = ADVANCED_FACE('',(#608),#606,.T.);
#610 = CLOSED_SHELL('',(#81,#145,#165,#185,#215,#237,#259,#277,#313,#341,#369,#389,#417,#445,#461,#477,#497,#517,#529,#541,#563,#579,#595,#609));
#611 = MANIFOLD_SOLID_BREP('',#610);
#612 = COLOUR_RGB('',0.10196078431372549,0.10196078431372549,0.10196078431372549);
#613 = FILL_AREA_STYLE_COLOUR('',#612);
#614 = FILL_AREA_STYLE('',(#613));
#615 = SURFACE_STYLE_FILL_AREA(#614);
#616 = SURFACE_SIDE_STYLE('',(#615));
#617 = SURFACE_STYLE_USAGE(.BOTH.,#616);
#618 = PRESENTATION_STYLE_ASSIGNMENT((#617));
#619 = STYLED_ITEM('',(#618),#611);
#620 = CARTESIAN_POINT('',(-0.9550000000000001,-0.315,0.));
#621 = VERTEX_POINT('',#620);
#622 = CARTESIAN_POINT('',(-1.585,-0.315,0.));
#623 = VERTEX_POINT('',#622);
#624 = CARTESIAN_POINT('',(-1.585,-0.315,-2.7));
#625 = VERTEX_POINT('',#624);
#626 = CARTESIAN_POINT('',(-0.9550000000000001,-0.315,-2.7));
#627 = VERTEX_POINT('',#626);
#628 = DIRECTION('',(-1.,0.,0.));
#629 = VECTOR('',#628,1.);
#630 = LINE('',#620,#629);
#631 = EDGE_CURVE('',#621,#623,#630,.T.);
#632 = ORIENTED_EDGE('',*,*,#631,.T.);
#633 = DIRECTION('',(0.,0.,1.));
#634 = VECTOR('',#633,1.);
#635 = LINE('',#624,#634);
#636 = EDGE_CURVE('',#625,#623,#635,.T.);
#637 = ORIENTED_EDGE('',*,*,#636,.F.);
#638 = DIRECTION('',(-1.,0.,0.));
#639 = VECTOR('',#638,1.);
#640 = LINE('',#626,#639);
#641 = EDGE_CURVE('',#627,#625,#640,.T.);
#642 = ORIENTED_EDGE('',*,*,#641,.F.);
#643 = DIRECTION('',(0.,0.,1.));
#644 = VECTOR('',#643,1.);
#645 = LINE('',#626,#644);
#646 = EDGE_CURVE('',#627,#621,#645,.T.);
#647 = ORIENTED_EDGE('',*,*,#646,.T.);
#648 = CARTESIAN_POINT('',(-0.9550000000000001,-0.315,0.));
#649 = DIRECTION('',(0.,-1.,0.));
#650 = DIRECTION('',(-1.,0.,0.));
#651 = AXIS2_PLACEMENT_3D('',#648,#649,#650);
#652 = PLANE('',#651);
#653 = EDGE_LOOP('',(#632,#637,#642,#647));
#654 = FACE_OUTER_BOUND('',#653,.T.);
#655 = ADVANCED_FACE('',(#654),#652,.T.);
#656 = CARTESIAN_POINT('',(-0.9550000000000001,0.315,-2.7));
#657 = VERTEX_POINT('',#656);
#658 = CARTESIAN_POINT('',(-0.9550000000000001,0.315,0.));
#659 = VERTEX_POINT('',#658);
#660 = ORIENTED_EDGE('',*,*,#646,.F.);
#661 = DIRECTION('',(0.,1.,0.));
#662 = VECTOR('',#661,1.);
#663 = LINE('',#626,#662);
#664 = EDGE_CURVE('',#627,#657,#663,.T.);
#665 = ORIENTED_EDGE('',*,*,#664,.T.);
#666 = DIRECTION('',(0.,0.,1.));
#667 = VECTOR('',#666,1.);
#668 = LINE('',#656,#667);
#669 = EDGE_CURVE('',#657,#659,#668,.T.);
#670 = ORIENTED_EDGE('',*,*,#669,.T.);
#671 = DIRECTION('',(0.,1.,0.));
#672 = VECTOR('',#671,1.);
#673 = LINE('',#620,#672);
#674 = EDGE_CURVE('',#621,#659,#673,.T.);
#675 = ORIENTED_EDGE('',*,*,#674,.F.);
#676 = CARTESIAN_POINT('',(-0.9550000000000001,-0.315,0.));
#677 = DIRECTION('',(1.,0.,0.));
#678 = DIRECTION('',(0.,0.,-1.));
#679 = AXIS2_PLACEMENT_3D('',#676,#677,#678);
#680 = PLANE('',#679);
#681 = EDGE_LOOP('',(#660,#665,#670,#675));
#682 = FACE_OUTER_BOUND('',#681,.T.);
#683 = ADVANCED_FACE('',(#682),#680,.T.);
#684 = CARTESIAN_POINT('',(-1.095,-0.175,-3.));
#685 = VERTEX_POINT('',#684);
#686 = CARTESIAN_POINT('',(-1.445,-0.175,-3.));
#687 = VERTEX_POINT('',#686);
#688 = DIRECTION('',(-0.38949041885226,0.38949041885226027,-0.8346223261119857));
#689 = VECTOR('',#688,1.);
#690 = LINE('',#626,#689);
#691 = EDGE_CURVE('',#627,#685,#690,.T.);
#692 = ORIENTED_EDGE('',*,*,#691,.F.);
#693 = ORIENTED_EDGE('',*,*,#641,.T.);
#694 = DIRECTION('',(-0.38949041885226,-0.38949041885226027,0.8346223261119857));
#695 = VECTOR('',#694,1.);
#696 = LINE('',#686,#695);
#697 = EDGE_CURVE('',#687,#625,#696,.T.);
#698 = ORIENTED_EDGE('',*,*,#697,.F.);
#699 = DIRECTION('',(-1.,0.,0.));
#700 = VECTOR('',#699,1.);
#701 = LINE('',#684,#700);
#702 = EDGE_CURVE('',#685,#687,#701,.T.);
#703 = ORIENTED_EDGE('',*,*,#702,.F.);
#704 = CARTESIAN_POINT('',(-1.095,-0.175,-3.));
#705 = DIRECTION('',(0.,-0.9061831399952653,-0.4228854653311238));
#706 = DIRECTION('',(0.38949041885226,-0.38949041885226027,0.8346223261119857));
#707 = AXIS2_PLACEMENT_3D('',#704,#705,#706);
#708 = PLANE('',#707);
#709 = EDGE_LOOP('',(#692,#693,#698,#703));
#710 = FACE_OUTER_BOUND('',#709,.T.);
#711 = ADVANCED_FACE('',(#710),#708,.T.);
#712 = CARTESIAN_POINT('',(-1.585,0.315,0.));
#713 = VERTEX_POINT('',#712);
#714 = CARTESIAN_POINT('',(-1.585,0.315,-2.7));
#715 = VERTEX_POINT('',#714);
#716 = DIRECTION('',(-1.,0.,0.));
#717 = VECTOR('',#716,1.);
#718 = LINE('',#658,#717);
#719 = EDGE_CURVE('',#659,#713,#718,.T.);
#720 = ORIENTED_EDGE('',*,*,#719,.F.);
#721 = ORIENTED_EDGE('',*,*,#669,.F.);
#722 = DIRECTION('',(-1.,0.,0.));
#723 = VECTOR('',#722,1.);
#724 = LINE('',#656,#723);
#725 = EDGE_CURVE('',#657,#715,#724,.T.);
#726 = ORIENTED_EDGE('',*,*,#725,.T.);
#727 = DIRECTION('',(0.,0.,1.));
#728 = VECTOR('',#727,1.);
#729 = LINE('',#714,#728);
#730 = EDGE_CURVE('',#715,#713,#729,.T.);
#731 = ORIENTED_EDGE('',*,*,#730,.T.);
#732 = CARTESIAN_POINT('',(-1.585,0.315,0.));
#733 = DIRECTION('',(0.,1.,0.));
#734 = DIRECTION('',(1.,0.,0.));
#735 = AXIS2_PLACEMENT_3D('',#732,#733,#734);
#736 = PLANE('',#735);
#737 = EDGE_LOOP('',(#720,#721,#726,#731));
#738 = FACE_OUTER_BOUND('',#737,.T.);
#739 = ADVANCED_FACE('',(#738),#736,.T.);
#740 = ORIENTED_EDGE('',*,*,#730,.F.);
#741 = DIRECTION('',(0.,1.,0.));
#742 = VECTOR('',#741,1.);
#743 = LINE('',#624,#742);
#744 = EDGE_CURVE('',#625,#715,#743,.T.);
#745 = ORIENTED_EDGE('',*,*,#744,.F.);
#746 = ORIENTED_EDGE('',*,*,#636,.T.);
#747 = DIRECTION('',(0.,1.,0.));
#748 = VECTOR('',#747,1.);
#749 = LINE('',#622,#748);
#750 = EDGE_CURVE('',#623,#713,#749,.T.);
#751 = ORIENTED_EDGE('',*,*,#750,.T.);
#752 = CARTESIAN_POINT('',(-1.585,0.315,0.));
#753 = DIRECTION('',(-1.,0.,0.));
#754 = DIRECTION('',(0.,0.,-1.));
#755 = AXIS2_PLACEMENT_3D('',#752,#753,#754);
#756 = PLANE('',#755);
#757 = EDGE_LOOP('',(#740,#745,#746,#751));
#758 = FACE_OUTER_BOUND('',#757,.T.);
#759 = ADVANCED_FACE('',(#758),#756,.T.);
#760 = ORIENTED_EDGE('',*,*,#750,.F.);
#761 = ORIENTED_EDGE('',*,*,#631,.F.);
#762 = ORIENTED_EDGE('',*,*,#674,.T.);
#763 = ORIENTED_EDGE('',*,*,#719,.T.);
#764 = CARTESIAN_POINT('',(-1.585,0.315,0.));
#765 = DIRECTION('',(0.,0.,1.));
#766 = DIRECTION('',(0.,-1.,0.));
#767 = AXIS2_PLACEMENT_3D('',#764,#765,#766);
#768 = PLANE('',#767);
#769 = EDGE_LOOP('',(#760,#761,#762,#763));
#770 = FACE_OUTER_BOUND('',#769,.T.);
#771 = ADVANCED_FACE('',(#770),#768,.T.);
#772 = CARTESIAN_POINT('',(-1.095,0.175,-3.));
#773 = VERTEX_POINT('',#772);
#774 = DIRECTION('',(-0.38949041885226,-0.38949041885226027,-0.8346223261119857));
#775 = VECTOR('',#774,1.);
#776 = LINE('',#656,#775);
#777 = EDGE_CURVE('',#657,#773,#776,.T.);
#778 = ORIENTED_EDGE('',*,*,#777,.F.);
#779 = ORIENTED_EDGE('',*,*,#664,.F.);
#780 = ORIENTED_EDGE('',*,*,#691,.T.);
#781 = DIRECTION('',(0.,1.,0.));
#782 = VECTOR('',#781,1.);
#783 = LINE('',#684,#782);
#784 = EDGE_CURVE('',#685,#773,#783,.T.);
#785 = ORIENTED_EDGE('',*,*,#784,.T.);
#786 = CARTESIAN_POINT('',(-1.095,0.175,-3.));
#787 = DIRECTION('',(0.9061831399952653,0.,-0.4228854653311241));
#788 = DIRECTION('',(0.38949041885226,0.38949041885226027,0.8346223261119857));
#789 = AXIS2_PLACEMENT_3D('',#786,#787,#788);
#790 = PLANE('',#789);
#791 = EDGE_LOOP('',(#778,#779,#780,#785));
#792 = FACE_OUTER_BOUND('',#791,.T.);
#793 = ADVANCED_FACE('',(#792),#790,.T.);
#794 = CARTESIAN_POINT('',(-1.445,0.175,-3.));
#795 = VERTEX_POINT('',#794);
#796 = DIRECTION('',(-0.38949041885226,0.38949041885226027,0.8346223261119857));
#797 = VECTOR('',#796,1.);
#798 = LINE('',#794,#797);
#799 = EDGE_CURVE('',#795,#715,#798,.T.);
#800 = ORIENTED_EDGE('',*,*,#799,.T.);
#801 = ORIENTED_EDGE('',*,*,#725,.F.);
#802 = ORIENTED_EDGE('',*,*,#777,.T.);
#803 = DIRECTION('',(-1.,0.,0.));
#804 = VECTOR('',#803,1.);
#805 = LINE('',#772,#804);
#806 = EDGE_CURVE('',#773,#795,#805,.T.);
#807 = ORIENTED_EDGE('',*,*,#806,.T.);
#808 = CARTESIAN_POINT('',(-1.445,0.175,-3.));
#809 = DIRECTION('',(0.,0.9061831399952653,-0.4228854653311238));
#810 = DIRECTION('',(-0.38949041885226,0.38949041885226027,0.8346223261119857));
#811 = AXIS2_PLACEMENT_3D('',#808,#809,#810);
#812 = PLANE('',#811);
#813 = EDGE_LOOP('',(#800,#801,#802,#807));
#814 = FACE_OUTER_BOUND('',#813,.T.);
#815 = ADVANCED_FACE('',(#814),#812,.T.);
#816 = ORIENTED_EDGE('',*,*,#806,.F.);
#817 = ORIENTED_EDGE('',*,*,#784,.F.);
#818 = ORIENTED_EDGE('',*,*,#702,.T.);
#819 = DIRECTION('',(0.,1.,0.));
#820 = VECTOR('',#819,1.);
#821 = LINE('',#686,#820);
#822 = EDGE_CURVE('',#687,#795,#821,.T.);
#823 = ORIENTED_EDGE('',*,*,#822,.T.);
#824 = CARTESIAN_POINT('',(-1.445,0.175,-3.));
#825 = DIRECTION('',(0.,0.,-1.));
#826 = DIRECTION('',(1.,0.,0.));
#827 = AXIS2_PLACEMENT_3D('',#824,#825,#826);
#828 = PLANE('',#827);
#829 = EDGE_LOOP('',(#816,#817,#818,#823));
#830 = FACE_OUTER_BOUND('',#829,.T.);
#831 = ADVANCED_FACE('',(#830),#828,.T.);
#832 = ORIENTED_EDGE('',*,*,#822,.F.);
#833 = ORIENTED_EDGE('',*,*,#697,.T.);
#834 = ORIENTED_EDGE('',*,*,#744,.T.);
#835 = ORIENTED_EDGE('',*,*,#799,.F.);
#836 = CARTESIAN_POINT('',(-1.445,0.175,-3.));
#837 = DIRECTION('',(-0.9061831399952653,0.,-0.422885465331124));
#838 = DIRECTION('',(0.,-1.,0.));
#839 = AXIS2_PLACEMENT_3D('',#836,#837,#838);
#840 = PLANE('',#839);
#841 = EDGE_LOOP('',(#832,#833,#834,#835));
#842 = FACE_OUTER_BOUND('',#841,.T.);
#843 = ADVANCED_FACE('',(#842),#840,.T.);
#844 = CLOSED_SHELL('',(#655,#683,#711,#739,#759,#771,#793,#815,#831,#843));
#845 = MANIFOLD_SOLID_BREP('',#844);
#846 = CARTESIAN_POINT('',(-1.774,-0.504,0.));
#847 = VERTEX_POINT('',#846);
#848 = CARTESIAN_POINT('',(-1.774,-0.504,0.504));
#849 = VERTEX_POINT('',#848);
#850 = CARTESIAN_POINT('',(-1.774,0.504,0.504));
#851 = VERTEX_POINT('',#850);
#852 = CARTESIAN_POINT('',(-1.774,0.504,0.));
#853 = VERTEX_POINT('',#852);
#854 = DIRECTION('',(0.,0.,1.));
#855 = VECTOR('',#854,1.);
#856 = LINE('',#846,#855);
#857 = EDGE_CURVE('',#847,#849,#856,.T.);
#858 = ORIENTED_EDGE('',*,*,#857,.T.);
#859 = DIRECTION('',(0.,1.,0.));
#860 = VECTOR('',#859,1.);
#861 = LINE('',#848,#860);
#862 = EDGE_CURVE('',#849,#851,#861,.T.);
#863 = ORIENTED_EDGE('',*,*,#862,.T.);
#864 = DIRECTION('',(0.,0.,1.));
#865 = VECTOR('',#864,1.);
#866 = LINE('',#852,#865);
#867 = EDGE_CURVE('',#853,#851,#866,.T.);
#868 = ORIENTED_EDGE('',*,*,#867,.F.);
#869 = DIRECTION('',(0.,1.,0.));
#870 = VECTOR('',#869,1.);
#871 = LINE('',#846,#870);
#872 = EDGE_CURVE('',#847,#853,#871,.T.);
#873 = ORIENTED_EDGE('',*,*,#872,.F.);
#874 = CARTESIAN_POINT('',(-1.774,-0.504,0.));
#875 = DIRECTION('',(-1.,0.,0.));
#876 = DIRECTION('',(0.,0.,1.));
#877 = AXIS2_PLACEMENT_3D('',#874,#875,#876);
#878 = PLANE('',#877);
#879 = EDGE_LOOP('',(#858,#863,#868,#873));
#880 = FACE_OUTER_BOUND('',#879,.T.);
#881 = ADVANCED_FACE('',(#880),#878,.T.);
#882 = CARTESIAN_POINT('',(-0.766,-0.504,0.));
#883 = VERTEX_POINT('',#882);
#884 = CARTESIAN_POINT('',(-0.766,0.504,0.));
#885 = VERTEX_POINT('',#884);
#886 = CARTESIAN_POINT('',(-0.766,0.504,0.504));
#887 = VERTEX_POINT('',#886);
#888 = CARTESIAN_POINT('',(-0.766,-0.504,0.504));
#889 = VERTEX_POINT('',#888);
#890 = DIRECTION('',(0.,1.,0.));
#891 = VECTOR('',#890,1.);
#892 = LINE('',#882,#891);
#893 = EDGE_CURVE('',#883,#885,#892,.T.);
#894 = ORIENTED_EDGE('',*,*,#893,.T.);
#895 = DIRECTION('',(0.,0.,1.));
#896 = VECTOR('',#895,1.);
#897 = LINE('',#884,#896);
#898 = EDGE_CURVE('',#885,#887,#897,.T.);
#899 = ORIENTED_EDGE('',*,*,#898,.T.);
#900 = DIRECTION('',(0.,1.,0.));
#901 = VECTOR('',#900,1.);
#902 = LINE('',#888,#901);
#903 = EDGE_CURVE('',#889,#887,#902,.T.);
#904 = ORIENTED_EDGE('',*,*,#903,.F.);
#905 = DIRECTION('',(0.,0.,1.));
#906 = VECTOR('',#905,1.);
#907 = LINE('',#882,#906);
#908 = EDGE_CURVE('',#883,#889,#907,.T.);
#909 = ORIENTED_EDGE('',*,*,#908,.F.);
#910 = CARTESIAN_POINT('',(-0.766,-0.504,0.));
#911 = DIRECTION('',(1.,0.,0.));
#912 = DIRECTION('',(0.,1.,0.));
#913 = AXIS2_PLACEMENT_3D('',#910,#911,#912);
#914 = PLANE('',#913);
#915 = EDGE_LOOP('',(#894,#899,#904,#909));
#916 = FACE_OUTER_BOUND('',#915,.T.);
#917 = ADVANCED_FACE('',(#916),#914,.T.);
#918 = DIRECTION('',(-1.,0.,0.));
#919 = VECTOR('',#918,1.);
#920 = LINE('',#882,#919);
#921 = EDGE_CURVE('',#883,#847,#920,.T.);
#922 = ORIENTED_EDGE('',*,*,#921,.F.);
#923 = ORIENTED_EDGE('',*,*,#908,.T.);
#924 = DIRECTION('',(-1.,0.,0.));
#925 = VECTOR('',#924,1.);
#926 = LINE('',#888,#925);
#927 = EDGE_CURVE('',#889,#849,#926,.T.);
#928 = ORIENTED_EDGE('',*,*,#927,.T.);
#929 = ORIENTED_EDGE('',*,*,#857,.F.);
#930 = CARTESIAN_POINT('',(-1.774,-0.504,0.));
#931 = DIRECTION('',(0.,-1.,0.));
#932 = DIRECTION('',(1.,0.,0.));
#933 = AXIS2_PLACEMENT_3D('',#930,#931,#932);
#934 = PLANE('',#933);
#935 = EDGE_LOOP('',(#922,#923,#928,#929));
#936 = FACE_OUTER_BOUND('',#935,.T.);
#937 = ADVANCED_FACE('',(#936),#934,.T.);
#938 = ORIENTED_EDGE('',*,*,#867,.T.);
#939 = DIRECTION('',(-1.,0.,0.));
#940 = VECTOR('',#939,1.);
#941 = LINE('',#886,#940);
#942 = EDGE_CURVE('',#887,#851,#941,.T.);
#943 = ORIENTED_EDGE('',*,*,#942,.F.);
#944 = ORIENTED_EDGE('',*,*,#898,.F.);
#945 = DIRECTION('',(-1.,0.,0.));
#946 = VECTOR('',#945,1.);
#947 = LINE('',#884,#946);
#948 = EDGE_CURVE('',#885,#853,#947,.T.);
#949 = ORIENTED_EDGE('',*,*,#948,.T.);
#950 = CARTESIAN_POINT('',(-1.774,0.504,0.));
#951 = DIRECTION('',(0.,1.,0.));
#952 = DIRECTION('',(0.,0.,1.));
#953 = AXIS2_PLACEMENT_3D('',#950,#951,#952);
#954 = PLANE('',#953);
#955 = EDGE_LOOP('',(#938,#943,#944,#949));
#956 = FACE_OUTER_BOUND('',#955,.T.);
#957 = ADVANCED_FACE('',(#956),#954,.T.);
#958 = ORIENTED_EDGE('',*,*,#872,.T.);
#959 = ORIENTED_EDGE('',*,*,#948,.F.);
#960 = ORIENTED_EDGE('',*,*,#893,.F.);
#961 = ORIENTED_EDGE('',*,*,#921,.T.);
#962 = CARTESIAN_POINT('',(-1.774,-0.504,0.));
#963 = DIRECTION('',(0.,0.,-1.));
#964 = DIRECTION('',(0.,1.,0.));
#965 = AXIS2_PLACEMENT_3D('',#962,#963,#964);
#966 = PLANE('',#965);
#967 = EDGE_LOOP('',(#958,#959,#960,#961));
#968 = FACE_OUTER_BOUND('',#967,.T.);
#969 = ADVANCED_FACE('',(#968),#966,.T.);
#970 = ORIENTED_EDGE('',*,*,#927,.F.);
#971 = ORIENTED_EDGE('',*,*,#903,.T.);
#972 = ORIENTED_EDGE('',*,*,#942,.T.);
#973 = ORIENTED_EDGE('',*,*,#862,.F.);
#974 = CARTESIAN_POINT('',(-1.774,-0.504,0.504));
#975 = DIRECTION('',(0.,0.,1.));
#976 = DIRECTION('',(1.,0.,0.));
#977 = AXIS2_PLACEMENT_3D('',#974,#975,#976);
#978 = PLANE('',#977);
#979 = EDGE_LOOP('',(#970,#971,#972,#973));
#980 = FACE_OUTER_BOUND('',#979,.T.);
#981 = ADVANCED_FACE('',(#980),#978,.T.);
#982 = CLOSED_SHELL('',(#881,#917,#937,#957,#969,#981));
#983 = MANIFOLD_SOLID_BREP('',#982);
#984 = CARTESIAN_POINT('',(0.,-1.27,0.));
#985 = VERTEX_POINT('',#984);
#986 = CARTESIAN_POINT('',(0.,-1.27,5.));
#987 = VERTEX_POINT('',#986);
#988 = CARTESIAN_POINT('',(0.,-0.8504999999999999,5.));
#989 = VERTEX_POINT('',#988);
#990 = CARTESIAN_POINT('',(0.,0.8504999999999999,5.));
#991 = VERTEX_POINT('',#990);
#992 = CARTESIAN_POINT('',(0.,1.27,5.));
#993 = VERTEX_POINT('',#992);
#994 = CARTESIAN_POINT('',(0.,1.27,0.));
#995 = VERTEX_POINT('',#994);
#996 = CARTESIAN_POINT('',(0.,0.4724999999999999,0.));
#997 = VERTEX_POINT('',#996);
#998 = CARTESIAN_POINT('',(0.,-0.4724999999999999,0.));
#999 = VERTEX_POINT('',#998);
#1000 = DIRECTION('',(0.,0.,1.));
#1001 = VECTOR('',#1000,1.);
#1002 = LINE('',#984,#1001);
#1003 = EDGE_CURVE('',#985,#987,#1002,.T.);
#1004 = ORIENTED_EDGE('',*,*,#1003,.T.);
#1005 = DIRECTION('',(0.,-1.,0.));
#1006 = VECTOR('',#1005,1.);
#1007 = LINE('',#988,#1006);
#1008 = EDGE_CURVE('',#989,#987,#1007,.T.);
#1009 = ORIENTED_EDGE('',*,*,#1008,.F.);
#1010 = DIRECTION('',(0.,1.,0.));
#1011 = VECTOR('',#1010,1.);
#1012 = LINE('',#988,#1011);
#1013 = EDGE_CURVE('',#989,#991,#1012,.T.);
#1014 = ORIENTED_EDGE('',*,*,#1013,.T.);
#1015 = DIRECTION('',(0.,1.,0.));
#1016 = VECTOR('',#1015,1.);
#1017 = LINE('',#990,#1016);
#1018 = EDGE_CURVE('',#991,#993,#1017,.T.);
#1019 = ORIENTED_EDGE('',*,*,#1018,.T.);
#1020 = DIRECTION('',(0.,0.,1.));
#1021 = VECTOR('',#1020,1.);
#1022 = LINE('',#994,#1021);
#1023 = EDGE_CURVE('',#995,#993,#1022,.T.);
#1024 = ORIENTED_EDGE('',*,*,#1023,.F.);
#1025 = DIRECTION('',(0.,1.,0.));
#1026 = VECTOR('',#1025,1.);
#1027 = LINE('',#996,#1026);
#1028 = EDGE_CURVE('',#997,#995,#1027,.T.);
#1029 = ORIENTED_EDGE('',*,*,#1028,.F.);
#1030 = DIRECTION('',(0.,1.,0.));
#1031 = VECTOR('',#1030,1.);
#1032 = LINE('',#998,#1031);
#1033 = EDGE_CURVE('',#999,#997,#1032,.T.);
#1034 = ORIENTED_EDGE('',*,*,#1033,.F.);
#1035 = DIRECTION('',(0.,-1.,0.));
#1036 = VECTOR('',#1035,1.);
#1037 = LINE('',#998,#1036);
#1038 = EDGE_CURVE('',#999,#985,#1037,.T.);
#1039 = ORIENTED_EDGE('',*,*,#1038,.T.);
#1040 = CARTESIAN_POINT('',(0.,-1.27,0.));
#1041 = DIRECTION('',(-1.,0.,0.));
#1042 = DIRECTION('',(0.,0.,1.));
#1043 = AXIS2_PLACEMENT_3D('',#1040,#1041,#1042);
#1044 = PLANE('',#1043);
#1045 = EDGE_LOOP('',(#1004,#1009,#1014,#1019,#1024,#1029,#1034,#1039));
#1046 = FACE_OUTER_BOUND('',#1045,.T.);
#1047 = ADVANCED_FACE('',(#1046),#1044,.T.);
#1048 = CARTESIAN_POINT('',(2.54,-1.27,0.));
#1049 = VERTEX_POINT('',#1048);
#1050 = CARTESIAN_POINT('',(2.54,-0.4724999999999999,0.));
#1051 = VERTEX_POINT('',#1050);
#1052 = CARTESIAN_POINT('',(2.54,0.4724999999999999,0.));
#1053 = VERTEX_POINT('',#1052);
#1054 = CARTESIAN_POINT('',(2.54,1.27,0.));
#1055 = VERTEX_POINT('',#1054);
#1056 = CARTESIAN_POINT('',(2.54,1.27,5.));
#1057 = VERTEX_POINT('',#1056);
#1058 = CARTESIAN_POINT('',(2.54,0.8504999999999999,5.));
#1059 = VERTEX_POINT('',#1058);
#1060 = CARTESIAN_POINT('',(2.54,-0.8504999999999999,5.));
#1061 = VERTEX_POINT('',#1060);
#1062 = CARTESIAN_POINT('',(2.54,-1.27,5.));
#1063 = VERTEX_POINT('',#1062);
#1064 = DIRECTION('',(0.,-1.,0.));
#1065 = VECTOR('',#1064,1.);
#1066 = LINE('',#1050,#1065);
#1067 = EDGE_CURVE('',#1051,#1049,#1066,.T.);
#1068 = ORIENTED_EDGE('',*,*,#1067,.F.);
#1069 = DIRECTION('',(0.,1.,0.));
#1070 = VECTOR('',#1069,1.);
#1071 = LINE('',#1050,#1070);
#1072 = EDGE_CURVE('',#1051,#1053,#1071,.T.);
#1073 = ORIENTED_EDGE('',*,*,#1072,.T.);
#1074 = DIRECTION('',(0.,1.,0.));
#1075 = VECTOR('',#1074,1.);
#1076 = LINE('',#1052,#1075);
#1077 = EDGE_CURVE('',#1053,#1055,#1076,.T.);
#1078 = ORIENTED_EDGE('',*,*,#1077,.T.);
#1079 = DIRECTION('',(0.,0.,1.));
#1080 = VECTOR('',#1079,1.);
#1081 = LINE('',#1054,#1080);
#1082 = EDGE_CURVE('',#1055,#1057,#1081,.T.);
#1083 = ORIENTED_EDGE('',*,*,#1082,.T.);
#1084 = DIRECTION('',(0.,1.,0.));
#1085 = VECTOR('',#1084,1.);
#1086 = LINE('',#1058,#1085);
#1087 = EDGE_CURVE('',#1059,#1057,#1086,.T.);
#1088 = ORIENTED_EDGE('',*,*,#1087,.F.);
#1089 = DIRECTION('',(0.,1.,0.));
#1090 = VECTOR('',#1089,1.);
#1091 = LINE('',#1060,#1090);
#1092 = EDGE_CURVE('',#1061,#1059,#1091,.T.);
#1093 = ORIENTED_EDGE('',*,*,#1092,.F.);
#1094 = DIRECTION('',(0.,-1.,0.));
#1095 = VECTOR('',#1094,1.);
#1096 = LINE('',#1060,#1095);
#1097 = EDGE_CURVE('',#1061,#1063,#1096,.T.);
#1098 = ORIENTED_EDGE('',*,*,#1097,.T.);
#1099 = DIRECTION('',(0.,0.,1.));
#1100 = VECTOR('',#1099,1.);
#1101 = LINE('',#1048,#1100);
#1102 = EDGE_CURVE('',#1049,#1063,#1101,.T.);
#1103 = ORIENTED_EDGE('',*,*,#1102,.F.);
#1104 = CARTESIAN_POINT('',(2.54,-1.27,0.));
#1105 = DIRECTION('',(1.,0.,0.));
#1106 = DIRECTION('',(0.,1.,0.));
#1107 = AXIS2_PLACEMENT_3D('',#1104,#1105,#1106);
#1108 = PLANE('',#1107);
#1109 = EDGE_LOOP('',(#1068,#1073,#1078,#1083,#1088,#1093,#1098,#1103));
#1110 = FACE_OUTER_BOUND('',#1109,.T.);
#1111 = ADVANCED_FACE('',(#1110),#1108,.T.);
#1112 = DIRECTION('',(1.,0.,0.));
#1113 = VECTOR('',#1112,1.);
#1114 = LINE('',#984,#1113);
#1115 = EDGE_CURVE('',#985,#1049,#1114,.T.);
#1116 = ORIENTED_EDGE('',*,*,#1115,.T.);
#1117 = ORIENTED_EDGE('',*,*,#1102,.T.);
#1118 = DIRECTION('',(1.,0.,0.));
#1119 = VECTOR('',#1118,1.);
#1120 = LINE('',#986,#1119);
#1121 = EDGE_CURVE('',#987,#1063,#1120,.T.);
#1122 = ORIENTED_EDGE('',*,*,#1121,.F.);
#1123 = ORIENTED_EDGE('',*,*,#1003,.F.);
#1124 = CARTESIAN_POINT('',(0.,-1.27,0.));
#1125 = DIRECTION('',(0.,-1.,0.));
#1126 = DIRECTION('',(1.,0.,0.));
#1127 = AXIS2_PLACEMENT_3D('',#1124,#1125,#1126);
#1128 = PLANE('',#1127);
#1129 = EDGE_LOOP('',(#1116,#1117,#1122,#1123));
#1130 = FACE_OUTER_BOUND('',#1129,.T.);
#1131 = ADVANCED_FACE('',(#1130),#1128,.T.);
#1132 = ORIENTED_EDGE('',*,*,#1023,.T.);
#1133 = DIRECTION('',(1.,0.,0.));
#1134 = VECTOR('',#1133,1.);
#1135 = LINE('',#992,#1134);
#1136 = EDGE_CURVE('',#993,#1057,#1135,.T.);
#1137 = ORIENTED_EDGE('',*,*,#1136,.T.);
#1138 = ORIENTED_EDGE('',*,*,#1082,.F.);
#1139 = DIRECTION('',(1.,0.,0.));
#1140 = VECTOR('',#1139,1.);
#1141 = LINE('',#994,#1140);
#1142 = EDGE_CURVE('',#995,#1055,#1141,.T.);
#1143 = ORIENTED_EDGE('',*,*,#1142,.F.);
#1144 = CARTESIAN_POINT('',(0.,1.27,0.));
#1145 = DIRECTION('',(0.,1.,0.));
#1146 = DIRECTION('',(0.,0.,1.));
#1147 = AXIS2_PLACEMENT_3D('',#1144,#1145,#1146);
#1148 = PLANE('',#1147);
#1149 = EDGE_LOOP('',(#1132,#1137,#1138,#1143));
#1150 = FACE_OUTER_BOUND('',#1149,.T.);
#1151 = ADVANCED_FACE('',(#1150),#1148,.T.);
#1152 = CARTESIAN_POINT('',(1.7425,0.4725,0.));
#1153 = VERTEX_POINT('',#1152);
#1154 = CARTESIAN_POINT('',(0.7975000000000001,0.4725,0.));
#1155 = VERTEX_POINT('',#1154);
#1156 = ORIENTED_EDGE('',*,*,#1077,.F.);
#1157 = DIRECTION('',(1.,0.,0.));
#1158 = VECTOR('',#1157,1.);
#1159 = LINE('',#1152,#1158);
#1160 = EDGE_CURVE('',#1153,#1053,#1159,.T.);
#1161 = ORIENTED_EDGE('',*,*,#1160,.F.);
#1162 = DIRECTION('',(1.,0.,0.));
#1163 = VECTOR('',#1162,1.);
#1164 = LINE('',#1154,#1163);
#1165 = EDGE_CURVE('',#1155,#1153,#1164,.T.);
#1166 = ORIENTED_EDGE('',*,*,#1165,.F.);
#1167 = DIRECTION('',(1.,0.,0.));
#1168 = VECTOR('',#1167,1.);
#1169 = LINE('',#996,#1168);
#1170 = EDGE_CURVE('',#997,#1155,#1169,.T.);
#1171 = ORIENTED_EDGE('',*,*,#1170,.F.);
#1172 = ORIENTED_EDGE('',*,*,#1028,.T.);
#1173 = ORIENTED_EDGE('',*,*,#1142,.T.);
#1174 = CARTESIAN_POINT('',(2.54,1.27,0.));
#1175 = DIRECTION('',(0.,0.,-1.));
#1176 = DIRECTION('',(0.,-1.,0.));
#1177 = AXIS2_PLACEMENT_3D('',#1174,#1175,#1176);
#1178 = PLANE('',#1177);
#1179 = EDGE_LOOP('',(#1156,#1161,#1166,#1171,#1172,#1173));
#1180 = FACE_OUTER_BOUND('',#1179,.T.);
#1181 = ADVANCED_FACE('',(#1180),#1178,.T.);
#1182 = CARTESIAN_POINT('',(0.7975000000000001,-0.4724999999999999,0.));
#1183 = VERTEX_POINT('',#1182);
#1184 = DIRECTION('',(0.,1.,0.));
#1185 = VECTOR('',#1184,1.);
#1186 = LINE('',#1182,#1185);
#1187 = EDGE_CURVE('',#1183,#1155,#1186,.T.);
#1188 = ORIENTED_EDGE('',*,*,#1187,.F.);
#1189 = DIRECTION('',(1.,0.,0.));
#1190 = VECTOR('',#1189,1.);
#1191 = LINE('',#998,#1190);
#1192 = EDGE_CURVE('',#999,#1183,#1191,.T.);
#1193 = ORIENTED_EDGE('',*,*,#1192,.F.);
#1194 = ORIENTED_EDGE('',*,*,#1033,.T.);
#1195 = ORIENTED_EDGE('',*,*,#1170,.T.);
#1196 = CARTESIAN_POINT('',(0.7975000000000001,0.4724999999999999,0.));
#1197 = DIRECTION('',(0.,0.,-1.));
#1198 = DIRECTION('',(0.,-1.,0.));
#1199 = AXIS2_PLACEMENT_3D('',#1196,#1197,#1198);
#1200 = PLANE('',#1199);
#1201 = EDGE_LOOP('',(#1188,#1193,#1194,#1195));
#1202 = FACE_OUTER_BOUND('',#1201,.T.);
#1203 = ADVANCED_FACE('',(#1202),#1200,.T.);
#1204 = CARTESIAN_POINT('',(1.7425,-0.4724999999999999,0.));
#1205 = VERTEX_POINT('',#1204);
#1206 = ORIENTED_EDGE('',*,*,#1072,.F.);
#1207 = DIRECTION('',(1.,0.,0.));
#1208 = VECTOR('',#1207,1.);
#1209 = LINE('',#1204,#1208);
#1210 = EDGE_CURVE('',#1205,#1051,#1209,.T.);
#1211 = ORIENTED_EDGE('',*,*,#1210,.F.);
#1212 = DIRECTION('',(0.,1.,0.));
#1213 = VECTOR('',#1212,1.);
#1214 = LINE('',#1204,#1213);
#1215 = EDGE_CURVE('',#1205,#1153,#1214,.T.);
#1216 = ORIENTED_EDGE('',*,*,#1215,.T.);
#1217 = ORIENTED_EDGE('',*,*,#1160,.T.);
#1218 = CARTESIAN_POINT('',(2.54,0.4724999999999999,0.));
#1219 = DIRECTION('',(0.,0.,-1.));
#1220 = DIRECTION('',(0.,-1.,0.));
#1221 = AXIS2_PLACEMENT_3D('',#1218,#1219,#1220);
#1222 = PLANE('',#1221);
#1223 = EDGE_LOOP('',(#1206,#1211,#1216,#1217));
#1224 = FACE_OUTER_BOUND('',#1223,.T.);
#1225 = ADVANCED_FACE('',(#1224),#1222,.T.);
#1226 = ORIENTED_EDGE('',*,*,#1067,.T.);
#1227 = ORIENTED_EDGE('',*,*,#1115,.F.);
#1228 = ORIENTED_EDGE('',*,*,#1038,.F.);
#1229 = ORIENTED_EDGE('',*,*,#1192,.T.);
#1230 = DIRECTION('',(1.,0.,0.));
#1231 = VECTOR('',#1230,1.);
#1232 = LINE('',#1182,#1231);
#1233 = EDGE_CURVE('',#1183,#1205,#1232,.T.);
#1234 = ORIENTED_EDGE('',*,*,#1233,.T.);
#1235 = ORIENTED_EDGE('',*,*,#1210,.T.);
#1236 = CARTESIAN_POINT('',(2.54,-0.4724999999999999,0.));
#1237 = DIRECTION('',(0.,0.,-1.));
#1238 = DIRECTION('',(0.,-1.,0.));
#1239 = AXIS2_PLACEMENT_3D('',#1236,#1237,#1238);
#1240 = PLANE('',#1239);
#1241 = EDGE_LOOP('',(#1226,#1227,#1228,#1229,#1234,#1235));
#1242 = FACE_OUTER_BOUND('',#1241,.T.);
#1243 = ADVANCED_FACE('',(#1242),#1240,.T.);
#1244 = CARTESIAN_POINT('',(2.1205,0.8504999999999999,4.995));
#1245 = VERTEX_POINT('',#1244);
#1246 = CARTESIAN_POINT('',(0.4195000000000001,0.8504999999999999,4.995));
#1247 = VERTEX_POINT('',#1246);
#1248 = CARTESIAN_POINT('',(0.7975000000000001,0.4725,4.3854));
#1249 = VERTEX_POINT('',#1248);
#1250 = CARTESIAN_POINT('',(1.7425,0.4725,4.3854));
#1251 = VERTEX_POINT('',#1250);
#1252 = DIRECTION('',(1.,0.,0.));
#1253 = VECTOR('',#1252,1.);
#1254 = LINE('',#1246,#1253);
#1255 = EDGE_CURVE('',#1247,#1245,#1254,.T.);
#1256 = ORIENTED_EDGE('',*,*,#1255,.F.);
#1257 = DIRECTION('',(0.46621205975657004,-0.46621205975656993,-0.7518594487502784));
#1258 = VECTOR('',#1257,1.);
#1259 = LINE('',#1246,#1258);
#1260 = EDGE_CURVE('',#1247,#1249,#1259,.T.);
#1261 = ORIENTED_EDGE('',*,*,#1260,.T.);
#1262 = DIRECTION('',(1.,0.,0.));
#1263 = VECTOR('',#1262,1.);
#1264 = LINE('',#1248,#1263);
#1265 = EDGE_CURVE('',#1249,#1251,#1264,.T.);
#1266 = ORIENTED_EDGE('',*,*,#1265,.T.);
#1267 = DIRECTION('',(0.46621205975657,0.4662120597565701,0.7518594487502787));
#1268 = VECTOR('',#1267,1.);
#1269 = LINE('',#1250,#1268);
#1270 = EDGE_CURVE('',#1251,#1245,#1269,.T.);
#1271 = ORIENTED_EDGE('',*,*,#1270,.T.);
#1272 = CARTESIAN_POINT('',(2.1205,0.8504999999999999,4.995));
#1273 = DIRECTION('',(0.,-0.8498727207846388,0.5269880059983486));
#1274 = DIRECTION('',(-1.,0.,0.));
#1275 = AXIS2_PLACEMENT_3D('',#1272,#1273,#1274);
#1276 = PLANE('',#1275);
#1277 = EDGE_LOOP('',(#1256,#1261,#1266,#1271));
#1278 = FACE_OUTER_BOUND('',#1277,.T.);
#1279 = ADVANCED_FACE('',(#1278),#1276,.T.);
#1280 = CARTESIAN_POINT('',(0.4195000000000001,-0.8504999999999999,4.995));
#1281 = VERTEX_POINT('',#1280);
#1282 = CARTESIAN_POINT('',(0.7975000000000001,-0.4725,4.3854));
#1283 = VERTEX_POINT('',#1282);
#1284 = ORIENTED_EDGE('',*,*,#1260,.F.);
#1285 = DIRECTION('',(0.,1.,0.));
#1286 = VECTOR('',#1285,1.);
#1287 = LINE('',#1280,#1286);
#1288 = EDGE_CURVE('',#1281,#1247,#1287,.T.);
#1289 = ORIENTED_EDGE('',*,*,#1288,.F.);
#1290 = DIRECTION('',(0.46621205975657004,0.46621205975656993,-0.7518594487502784));
#1291 = VECTOR('',#1290,1.);
#1292 = LINE('',#1280,#1291);
#1293 = EDGE_CURVE('',#1281,#1283,#1292,.T.);
#1294 = ORIENTED_EDGE('',*,*,#1293,.T.);
#1295 = DIRECTION('',(0.,1.,0.));
#1296 = VECTOR('',#1295,1.);
#1297 = LINE('',#1282,#1296);
#1298 = EDGE_CURVE('',#1283,#1249,#1297,.T.);
#1299 = ORIENTED_EDGE('',*,*,#1298,.T.);
#1300 = CARTESIAN_POINT('',(0.7975000000000001,0.4725,4.3854));
#1301 = DIRECTION('',(0.8498727207846387,0.,0.5269880059983487));
#1302 = DIRECTION('',(-0.46621205975657004,0.46621205975656993,0.7518594487502784));
#1303 = AXIS2_PLACEMENT_3D('',#1300,#1301,#1302);
#1304 = PLANE('',#1303);
#1305 = EDGE_LOOP('',(#1284,#1289,#1294,#1299));
#1306 = FACE_OUTER_BOUND('',#1305,.T.);
#1307 = ADVANCED_FACE('',(#1306),#1304,.T.);
#1308 = CARTESIAN_POINT('',(1.7425,-0.4725,4.3854));
#1309 = VERTEX_POINT('',#1308);
#1310 = CARTESIAN_POINT('',(2.1205,-0.8504999999999999,4.995));
#1311 = VERTEX_POINT('',#1310);
#1312 = ORIENTED_EDGE('',*,*,#1270,.F.);
#1313 = DIRECTION('',(0.,1.,0.));
#1314 = VECTOR('',#1313,1.);
#1315 = LINE('',#1308,#1314);
#1316 = EDGE_CURVE('',#1309,#1251,#1315,.T.);
#1317 = ORIENTED_EDGE('',*,*,#1316,.F.);
#1318 = DIRECTION('',(0.46621205975657,-0.4662120597565701,0.7518594487502787));
#1319 = VECTOR('',#1318,1.);
#1320 = LINE('',#1308,#1319);
#1321 = EDGE_CURVE('',#1309,#1311,#1320,.T.);
#1322 = ORIENTED_EDGE('',*,*,#1321,.T.);
#1323 = DIRECTION('',(0.,1.,0.));
#1324 = VECTOR('',#1323,1.);
#1325 = LINE('',#1310,#1324);
#1326 = EDGE_CURVE('',#1311,#1245,#1325,.T.);
#1327 = ORIENTED_EDGE('',*,*,#1326,.T.);
#1328 = CARTESIAN_POINT('',(2.1205,0.8504999999999999,4.995));
#1329 = DIRECTION('',(-0.8498727207846388,0.,0.5269880059983486));
#1330 = DIRECTION('',(-0.46621205975657,-0.4662120597565701,-0.7518594487502787));
#1331 = AXIS2_PLACEMENT_3D('',#1328,#1329,#1330);
#1332 = PLANE('',#1331);
#1333 = EDGE_LOOP('',(#1312,#1317,#1322,#1327));
#1334 = FACE_OUTER_BOUND('',#1333,.T.);
#1335 = ADVANCED_FACE('',(#1334),#1332,.T.);
#1336 = DIRECTION('',(1.,0.,0.));
#1337 = VECTOR('',#1336,1.);
#1338 = LINE('',#1282,#1337);
#1339 = EDGE_CURVE('',#1283,#1309,#1338,.T.);
#1340 = ORIENTED_EDGE('',*,*,#1339,.F.);
#1341 = ORIENTED_EDGE('',*,*,#1293,.F.);
#1342 = DIRECTION('',(1.,0.,0.));
#1343 = VECTOR('',#1342,1.);
#1344 = LINE('',#1280,#1343);
#1345 = EDGE_CURVE('',#1281,#1311,#1344,.T.);
#1346 = ORIENTED_EDGE('',*,*,#1345,.T.);
#1347 = ORIENTED_EDGE('',*,*,#1321,.F.);
#1348 = CARTESIAN_POINT('',(1.7425,-0.4725,4.3854));
#1349 = DIRECTION('',(0.,0.8498727207846388,0.5269880059983483));
#1350 = DIRECTION('',(-1.,0.,0.));
#1351 = AXIS2_PLACEMENT_3D('',#1348,#1349,#1350);
#1352 = PLANE('',#1351);
#1353 = EDGE_LOOP('',(#1340,#1341,#1346,#1347));
#1354 = FACE_OUTER_BOUND('',#1353,.T.);
#1355 = ADVANCED_FACE('',(#1354),#1352,.T.);
#1356 = CARTESIAN_POINT('',(0.4195000000000001,-0.8504999999999999,5.));
#1357 = VERTEX_POINT('',#1356);
#1358 = CARTESIAN_POINT('',(2.1205,-0.8504999999999999,5.));
#1359 = VERTEX_POINT('',#1358);
#1360 = DIRECTION('',(0.,0.,1.));
#1361 = VECTOR('',#1360,1.);
#1362 = LINE('',#1280,#1361);
#1363 = EDGE_CURVE('',#1281,#1357,#1362,.T.);
#1364 = ORIENTED_EDGE('',*,*,#1363,.T.);
#1365 = DIRECTION('',(1.,0.,0.));
#1366 = VECTOR('',#1365,1.);
#1367 = LINE('',#1356,#1366);
#1368 = EDGE_CURVE('',#1357,#1359,#1367,.T.);
#1369 = ORIENTED_EDGE('',*,*,#1368,.T.);
#1370 = DIRECTION('',(0.,0.,1.));
#1371 = VECTOR('',#1370,1.);
#1372 = LINE('',#1310,#1371);
#1373 = EDGE_CURVE('',#1311,#1359,#1372,.T.);
#1374 = ORIENTED_EDGE('',*,*,#1373,.F.);
#1375 = ORIENTED_EDGE('',*,*,#1345,.F.);
#1376 = CARTESIAN_POINT('',(0.4195000000000001,-0.8504999999999999,4.995));
#1377 = DIRECTION('',(0.,1.,0.));
#1378 = DIRECTION('',(0.,0.,1.));
#1379 = AXIS2_PLACEMENT_3D('',#1376,#1377,#1378);
#1380 = PLANE('',#1379);
#1381 = EDGE_LOOP('',(#1364,#1369,#1374,#1375));
#1382 = FACE_OUTER_BOUND('',#1381,.T.);
#1383 = ADVANCED_FACE('',(#1382),#1380,.T.);
#1384 = CARTESIAN_POINT('',(0.4195000000000001,0.8504999999999999,5.));
#1385 = VERTEX_POINT('',#1384);
#1386 = CARTESIAN_POINT('',(2.1205,0.8504999999999999,5.));
#1387 = VERTEX_POINT('',#1386);
#1388 = DIRECTION('',(0.,0.,1.));
#1389 = VECTOR('',#1388,1.);
#1390 = LINE('',#1246,#1389);
#1391 = EDGE_CURVE('',#1247,#1385,#1390,.T.);
#1392 = ORIENTED_EDGE('',*,*,#1391,.F.);
#1393 = ORIENTED_EDGE('',*,*,#1255,.T.);
#1394 = DIRECTION('',(0.,0.,1.));
#1395 = VECTOR('',#1394,1.);
#1396 = LINE('',#1244,#1395);
#1397 = EDGE_CURVE('',#1245,#1387,#1396,.T.);
#1398 = ORIENTED_EDGE('',*,*,#1397,.T.);
#1399 = DIRECTION('',(1.,0.,0.));
#1400 = VECTOR('',#1399,1.);
#1401 = LINE('',#1384,#1400);
#1402 = EDGE_CURVE('',#1385,#1387,#1401,.T.);
#1403 = ORIENTED_EDGE('',*,*,#1402,.F.);
#1404 = CARTESIAN_POINT('',(0.4195000000000001,0.8504999999999999,5.));
#1405 = DIRECTION('',(0.,-1.,0.));
#1406 = DIRECTION('',(0.,0.,-1.));
#1407 = AXIS2_PLACEMENT_3D('',#1404,#1405,#1406);
#1408 = PLANE('',#1407);
#1409 = EDGE_LOOP('',(#1392,#1393,#1398,#1403));
#1410 = FACE_OUTER_BOUND('',#1409,.T.);
#1411 = ADVANCED_FACE('',(#1410),#1408,.T.);
#1412 = ORIENTED_EDGE('',*,*,#1363,.F.);
#1413 = ORIENTED_EDGE('',*,*,#1288,.T.);
#1414 = ORIENTED_EDGE('',*,*,#1391,.T.);
#1415 = DIRECTION('',(0.,1.,0.));
#1416 = VECTOR('',#1415,1.);
#1417 = LINE('',#1356,#1416);
#1418 = EDGE_CURVE('',#1357,#1385,#1417,.T.);
#1419 = ORIENTED_EDGE('',*,*,#1418,.F.);
#1420 = CARTESIAN_POINT('',(0.4195000000000001,-0.8504999999999999,5.));
#1421 = DIRECTION('',(1.,0.,0.));
#1422 = DIRECTION('',(0.,0.,-1.));
#1423 = AXIS2_PLACEMENT_3D('',#1420,#1421,#1422);
#1424 = PLANE('',#1423);
#1425 = EDGE_LOOP('',(#1412,#1413,#1414,#1419));
#1426 = FACE_OUTER_BOUND('',#1425,.T.);
#1427 = ADVANCED_FACE('',(#1426),#1424,.T.);
#1428 = ORIENTED_EDGE('',*,*,#1397,.F.);
#1429 = ORIENTED_EDGE('',*,*,#1326,.F.);
#1430 = ORIENTED_EDGE('',*,*,#1373,.T.);
#1431 = DIRECTION('',(0.,1.,0.));
#1432 = VECTOR('',#1431,1.);
#1433 = LINE('',#1358,#1432);
#1434 = EDGE_CURVE('',#1359,#1387,#1433,.T.);
#1435 = ORIENTED_EDGE('',*,*,#1434,.T.);
#1436 = CARTESIAN_POINT('',(2.1205,0.8504999999999999,5.));
#1437 = DIRECTION('',(-1.,0.,0.));
#1438 = DIRECTION('',(0.,0.,-1.));
#1439 = AXIS2_PLACEMENT_3D('',#1436,#1437,#1438);
#1440 = PLANE('',#1439);
#1441 = EDGE_LOOP('',(#1428,#1429,#1430,#1435));
#1442 = FACE_OUTER_BOUND('',#1441,.T.);
#1443 = ADVANCED_FACE('',(#1442),#1440,.T.);
#1444 = DIRECTION('',(0.,0.,1.));
#1445 = VECTOR('',#1444,1.);
#1446 = LINE('',#1182,#1445);
#1447 = EDGE_CURVE('',#1183,#1283,#1446,.T.);
#1448 = ORIENTED_EDGE('',*,*,#1447,.F.);
#1449 = ORIENTED_EDGE('',*,*,#1187,.T.);
#1450 = DIRECTION('',(0.,0.,1.));
#1451 = VECTOR('',#1450,1.);
#1452 = LINE('',#1154,#1451);
#1453 = EDGE_CURVE('',#1155,#1249,#1452,.T.);
#1454 = ORIENTED_EDGE('',*,*,#1453,.T.);
#1455 = ORIENTED_EDGE('',*,*,#1298,.F.);
#1456 = CARTESIAN_POINT('',(0.7975000000000001,-0.4725,4.385399999999999));
#1457 = DIRECTION('',(1.,0.,0.));
#1458 = DIRECTION('',(0.,0.,-1.));
#1459 = AXIS2_PLACEMENT_3D('',#1456,#1457,#1458);
#1460 = PLANE('',#1459);
#1461 = EDGE_LOOP('',(#1448,#1449,#1454,#1455));
#1462 = FACE_OUTER_BOUND('',#1461,.T.);
#1463 = ADVANCED_FACE('',(#1462),#1460,.T.);
#1464 = ORIENTED_EDGE('',*,*,#1316,.T.);
#1465 = DIRECTION('',(0.,0.,1.));
#1466 = VECTOR('',#1465,1.);
#1467 = LINE('',#1152,#1466);
#1468 = EDGE_CURVE('',#1153,#1251,#1467,.T.);
#1469 = ORIENTED_EDGE('',*,*,#1468,.F.);
#1470 = ORIENTED_EDGE('',*,*,#1215,.F.);
#1471 = DIRECTION('',(0.,0.,1.));
#1472 = VECTOR('',#1471,1.);
#1473 = LINE('',#1204,#1472);
#1474 = EDGE_CURVE('',#1205,#1309,#1473,.T.);
#1475 = ORIENTED_EDGE('',*,*,#1474,.T.);
#1476 = CARTESIAN_POINT('',(1.7425,-0.4725,4.3854));
#1477 = DIRECTION('',(-1.,0.,0.));
#1478 = DIRECTION('',(0.,1.,0.));
#1479 = AXIS2_PLACEMENT_3D('',#1476,#1477,#1478);
#1480 = PLANE('',#1479);
#1481 = EDGE_LOOP('',(#1464,#1469,#1470,#1475));
#1482 = FACE_OUTER_BOUND('',#1481,.T.);
#1483 = ADVANCED_FACE('',(#1482),#1480,.T.);
#1484 = ORIENTED_EDGE('',*,*,#1474,.F.);
#1485 = ORIENTED_EDGE('',*,*,#1233,.F.);
#1486 = ORIENTED_EDGE('',*,*,#1447,.T.);
#1487 = ORIENTED_EDGE('',*,*,#1339,.T.);
#1488 = CARTESIAN_POINT('',(1.7425,-0.4725,4.3854));
#1489 = DIRECTION('',(0.,1.,0.));
#1490 = DIRECTION('',(0.,0.,-1.));
#1491 = AXIS2_PLACEMENT_3D('',#1488,#1489,#1490);
#1492 = PLANE('',#1491);
#1493 = EDGE_LOOP('',(#1484,#1485,#1486,#1487));
#1494 = FACE_OUTER_BOUND('',#1493,.T.);
#1495 = ADVANCED_FACE('',(#1494),#1492,.T.);
#1496 = ORIENTED_EDGE('',*,*,#1453,.F.);
#1497 = ORIENTED_EDGE('',*,*,#1165,.T.);
#1498 = ORIENTED_EDGE('',*,*,#1468,.T.);
#1499 = ORIENTED_EDGE('',*,*,#1265,.F.);
#1500 = CARTESIAN_POINT('',(0.7975000000000001,0.4725,4.3854));
#1501 = DIRECTION('',(0.,-1.,0.));
#1502 = DIRECTION('',(0.,0.,-1.));
#1503 = AXIS2_PLACEMENT_3D('',#1500,#1501,#1502);
#1504 = PLANE('',#1503);
#1505 = EDGE_LOOP('',(#1496,#1497,#1498,#1499));
#1506 = FACE_OUTER_BOUND('',#1505,.T.);
#1507 = ADVANCED_FACE('',(#1506),#1504,.T.);
#1508 = ORIENTED_EDGE('',*,*,#1018,.F.);
#1509 = DIRECTION('',(1.,0.,0.));
#1510 = VECTOR('',#1509,1.);
#1511 = LINE('',#990,#1510);
#1512 = EDGE_CURVE('',#991,#1385,#1511,.T.);
#1513 = ORIENTED_EDGE('',*,*,#1512,.T.);
#1514 = ORIENTED_EDGE('',*,*,#1402,.T.);
#1515 = DIRECTION('',(1.,0.,0.));
#1516 = VECTOR('',#1515,1.);
#1517 = LINE('',#1386,#1516);
#1518 = EDGE_CURVE('',#1387,#1059,#1517,.T.);
#1519 = ORIENTED_EDGE('',*,*,#1518,.T.);
#1520 = ORIENTED_EDGE('',*,*,#1087,.T.);
#1521 = ORIENTED_EDGE('',*,*,#1136,.F.);
#1522 = CARTESIAN_POINT('',(0.,1.27,5.));
#1523 = DIRECTION('',(0.,0.,1.));
#1524 = DIRECTION('',(0.,-1.,0.));
#1525 = AXIS2_PLACEMENT_3D('',#1522,#1523,#1524);
#1526 = PLANE('',#1525);
#1527 = EDGE_LOOP('',(#1508,#1513,#1514,#1519,#1520,#1521));
#1528 = FACE_OUTER_BOUND('',#1527,.T.);
#1529 = ADVANCED_FACE('',(#1528),#1526,.T.);
#1530 = ORIENTED_EDGE('',*,*,#1434,.F.);
#1531 = DIRECTION('',(1.,0.,0.));
#1532 = VECTOR('',#1531,1.);
#1533 = LINE('',#1358,#1532);
#1534 = EDGE_CURVE('',#1359,#1061,#1533,.T.);
#1535 = ORIENTED_EDGE('',*,*,#1534,.T.);
#1536 = ORIENTED_EDGE('',*,*,#1092,.T.);
#1537 = ORIENTED_EDGE('',*,*,#1518,.F.);
#1538 = CARTESIAN_POINT('',(2.1205,0.8504999999999999,5.));
#1539 = DIRECTION('',(0.,0.,1.));
#1540 = DIRECTION('',(0.,-1.,0.));
#1541 = AXIS2_PLACEMENT_3D('',#1538,#1539,#1540);
#1542 = PLANE('',#1541);
#1543 = EDGE_LOOP('',(#1530,#1535,#1536,#1537));
#1544 = FACE_OUTER_BOUND('',#1543,.T.);
#1545 = ADVANCED_FACE('',(#1544),#1542,.T.);
#1546 = ORIENTED_EDGE('',*,*,#1013,.F.);
#1547 = DIRECTION('',(1.,0.,0.));
#1548 = VECTOR('',#1547,1.);
#1549 = LINE('',#988,#1548);
#1550 = EDGE_CURVE('',#989,#1357,#1549,.T.);
#1551 = ORIENTED_EDGE('',*,*,#1550,.T.);
#1552 = ORIENTED_EDGE('',*,*,#1418,.T.);
#1553 = ORIENTED_EDGE('',*,*,#1512,.F.);
#1554 = CARTESIAN_POINT('',(0.,0.8504999999999999,5.));
#1555 = DIRECTION('',(0.,0.,1.));
#1556 = DIRECTION('',(0.,-1.,0.));
#1557 = AXIS2_PLACEMENT_3D('',#1554,#1555,#1556);
#1558 = PLANE('',#1557);
#1559 = EDGE_LOOP('',(#1546,#1551,#1552,#1553));
#1560 = FACE_OUTER_BOUND('',#1559,.T.);
#1561 = ADVANCED_FACE('',(#1560),#1558,.T.);
#1562 = ORIENTED_EDGE('',*,*,#1008,.T.);
#1563 = ORIENTED_EDGE('',*,*,#1121,.T.);
#1564 = ORIENTED_EDGE('',*,*,#1097,.F.);
#1565 = ORIENTED_EDGE('',*,*,#1534,.F.);
#1566 = ORIENTED_EDGE('',*,*,#1368,.F.);
#1567 = ORIENTED_EDGE('',*,*,#1550,.F.);
#1568 = CARTESIAN_POINT('',(0.,-0.8504999999999999,5.));
#1569 = DIRECTION('',(0.,0.,1.));
#1570 = DIRECTION('',(0.,-1.,0.));
#1571 = AXIS2_PLACEMENT_3D('',#1568,#1569,#1570);
#1572 = PLANE('',#1571);
#1573 = EDGE_LOOP('',(#1562,#1563,#1564,#1565,#1566,#1567));
#1574 = FACE_OUTER_BOUND('',#1573,.T.);
#1575 = ADVANCED_FACE('',(#1574),#1572,.T.);
#1576 = CLOSED_SHELL('',(#1047,#1111,#1131,#1151,#1181,#1203,#1225,#1243,#1279,#1307,#1335,#1355,#1383,#1411,#1427,#1443,#1463,#1483,#1495,#1507,#1529,#1545,#1561,#1575));
#1577 = MANIFOLD_SOLID_BREP('',#1576);
#1578 = COLOUR_RGB('',0.10196078431372549,0.10196078431372549,0.10196078431372549);
#1579 = FILL_AREA_STYLE_COLOUR('',#1578);
#1580 = FILL_AREA_STYLE('',(#1579));
#1581 = SURFACE_STYLE_FILL_AREA(#1580);
#1582 = SURFACE_SIDE_STYLE('',(#1581));
#1583 = SURFACE_STYLE_USAGE(.BOTH.,#1582);
#1584 = PRESENTATION_STYLE_ASSIGNMENT((#1583));
#1585 = STYLED_ITEM('',(#1584),#1577);
#1586 = CARTESIAN_POINT('',(1.585,-0.315,0.));
#1587 = VERTEX_POINT('',#1586);
#1588 = CARTESIAN_POINT('',(0.9550000000000001,-0.315,0.));
#1589 = VERTEX_POINT('',#1588);
#1590 = CARTESIAN_POINT('',(0.9550000000000001,-0.315,-2.7));
#1591 = VERTEX_POINT('',#1590);
#1592 = CARTESIAN_POINT('',(1.585,-0.315,-2.7));
#1593 = VERTEX_POINT('',#1592);
#1594 = DIRECTION('',(1.,0.,0.));
#1595 = VECTOR('',#1594,1.);
#1596 = LINE('',#1588,#1595);
#1597 = EDGE_CURVE('',#1589,#1587,#1596,.T.);
#1598 = ORIENTED_EDGE('',*,*,#1597,.F.);
#1599 = DIRECTION('',(0.,0.,1.));
#1600 = VECTOR('',#1599,1.);
#1601 = LINE('',#1590,#1600);
#1602 = EDGE_CURVE('',#1591,#1589,#1601,.T.);
#1603 = ORIENTED_EDGE('',*,*,#1602,.F.);
#1604 = DIRECTION('',(1.,0.,0.));
#1605 = VECTOR('',#1604,1.);
#1606 = LINE('',#1590,#1605);
#1607 = EDGE_CURVE('',#1591,#1593,#1606,.T.);
#1608 = ORIENTED_EDGE('',*,*,#1607,.T.);
#1609 = DIRECTION('',(0.,0.,1.));
#1610 = VECTOR('',#1609,1.);
#1611 = LINE('',#1592,#1610);
#1612 = EDGE_CURVE('',#1593,#1587,#1611,.T.);
#1613 = ORIENTED_EDGE('',*,*,#1612,.T.);
#1614 = CARTESIAN_POINT('',(1.585,-0.315,0.));
#1615 = DIRECTION('',(0.,-1.,0.));
#1616 = DIRECTION('',(-1.,0.,0.));
#1617 = AXIS2_PLACEMENT_3D('',#1614,#1615,#1616);
#1618 = PLANE('',#1617);
#1619 = EDGE_LOOP('',(#1598,#1603,#1608,#1613));
#1620 = FACE_OUTER_BOUND('',#1619,.T.);
#1621 = ADVANCED_FACE('',(#1620),#1618,.T.);
#1622 = CARTESIAN_POINT('',(1.585,0.315,-2.7));
#1623 = VERTEX_POINT('',#1622);
#1624 = CARTESIAN_POINT('',(1.585,0.315,0.));
#1625 = VERTEX_POINT('',#1624);
#1626 = ORIENTED_EDGE('',*,*,#1612,.F.);
#1627 = DIRECTION('',(0.,1.,0.));
#1628 = VECTOR('',#1627,1.);
#1629 = LINE('',#1592,#1628);
#1630 = EDGE_CURVE('',#1593,#1623,#1629,.T.);
#1631 = ORIENTED_EDGE('',*,*,#1630,.T.);
#1632 = DIRECTION('',(0.,0.,1.));
#1633 = VECTOR('',#1632,1.);
#1634 = LINE('',#1622,#1633);
#1635 = EDGE_CURVE('',#1623,#1625,#1634,.T.);
#1636 = ORIENTED_EDGE('',*,*,#1635,.T.);
#1637 = DIRECTION('',(0.,1.,0.));
#1638 = VECTOR('',#1637,1.);
#1639 = LINE('',#1586,#1638);
#1640 = EDGE_CURVE('',#1587,#1625,#1639,.T.);
#1641 = ORIENTED_EDGE('',*,*,#1640,.F.);
#1642 = CARTESIAN_POINT('',(1.585,-0.315,0.));
#1643 = DIRECTION('',(1.,0.,0.));
#1644 = DIRECTION('',(0.,0.,-1.));
#1645 = AXIS2_PLACEMENT_3D('',#1642,#1643,#1644);
#1646 = PLANE('',#1645);
#1647 = EDGE_LOOP('',(#1626,#1631,#1636,#1641));
#1648 = FACE_OUTER_BOUND('',#1647,.T.);
#1649 = ADVANCED_FACE('',(#1648),#1646,.T.);
#1650 = CARTESIAN_POINT('',(0.9550000000000001,0.315,0.));
#1651 = VERTEX_POINT('',#1650);
#1652 = DIRECTION('',(0.,1.,0.));
#1653 = VECTOR('',#1652,1.);
#1654 = LINE('',#1588,#1653);
#1655 = EDGE_CURVE('',#1589,#1651,#1654,.T.);
#1656 = ORIENTED_EDGE('',*,*,#1655,.F.);
#1657 = ORIENTED_EDGE('',*,*,#1597,.T.);
#1658 = ORIENTED_EDGE('',*,*,#1640,.T.);
#1659 = DIRECTION('',(1.,0.,0.));
#1660 = VECTOR('',#1659,1.);
#1661 = LINE('',#1650,#1660);
#1662 = EDGE_CURVE('',#1651,#1625,#1661,.T.);
#1663 = ORIENTED_EDGE('',*,*,#1662,.F.);
#1664 = CARTESIAN_POINT('',(0.9550000000000001,0.315,0.));
#1665 = DIRECTION('',(0.,0.,1.));
#1666 = DIRECTION('',(0.,-1.,0.));
#1667 = AXIS2_PLACEMENT_3D('',#1664,#1665,#1666);
#1668 = PLANE('',#1667);
#1669 = EDGE_LOOP('',(#1656,#1657,#1658,#1663));
#1670 = FACE_OUTER_BOUND('',#1669,.T.);
#1671 = ADVANCED_FACE('',(#1670),#1668,.T.);
#1672 = CARTESIAN_POINT('',(1.445,-0.175,-3.));
#1673 = VERTEX_POINT('',#1672);
#1674 = CARTESIAN_POINT('',(1.095,-0.175,-3.));
#1675 = VERTEX_POINT('',#1674);
#1676 = DIRECTION('',(0.38949041885226,-0.38949041885226027,0.8346223261119857));
#1677 = VECTOR('',#1676,1.);
#1678 = LINE('',#1672,#1677);
#1679 = EDGE_CURVE('',#1673,#1593,#1678,.T.);
#1680 = ORIENTED_EDGE('',*,*,#1679,.T.);
#1681 = ORIENTED_EDGE('',*,*,#1607,.F.);
#1682 = DIRECTION('',(0.38949041885226,0.38949041885226027,-0.8346223261119857));
#1683 = VECTOR('',#1682,1.);
#1684 = LINE('',#1590,#1683);
#1685 = EDGE_CURVE('',#1591,#1675,#1684,.T.);
#1686 = ORIENTED_EDGE('',*,*,#1685,.T.);
#1687 = DIRECTION('',(1.,0.,0.));
#1688 = VECTOR('',#1687,1.);
#1689 = LINE('',#1674,#1688);
#1690 = EDGE_CURVE('',#1675,#1673,#1689,.T.);
#1691 = ORIENTED_EDGE('',*,*,#1690,.T.);
#1692 = CARTESIAN_POINT('',(1.445,-0.175,-3.));
#1693 = DIRECTION('',(0.,-0.9061831399952653,-0.4228854653311238));
#1694 = DIRECTION('',(0.38949041885226,-0.38949041885226027,0.8346223261119857));
#1695 = AXIS2_PLACEMENT_3D('',#1692,#1693,#1694);
#1696 = PLANE('',#1695);
#1697 = EDGE_LOOP('',(#1680,#1681,#1686,#1691));
#1698 = FACE_OUTER_BOUND('',#1697,.T.);
#1699 = ADVANCED_FACE('',(#1698),#1696,.T.);
#1700 = CARTESIAN_POINT('',(0.9550000000000001,0.315,-2.7));
#1701 = VERTEX_POINT('',#1700);
#1702 = DIRECTION('',(0.,1.,0.));
#1703 = VECTOR('',#1702,1.);
#1704 = LINE('',#1590,#1703);
#1705 = EDGE_CURVE('',#1591,#1701,#1704,.T.);
#1706 = ORIENTED_EDGE('',*,*,#1705,.F.);
#1707 = ORIENTED_EDGE('',*,*,#1602,.T.);
#1708 = ORIENTED_EDGE('',*,*,#1655,.T.);
#1709 = DIRECTION('',(0.,0.,1.));
#1710 = VECTOR('',#1709,1.);
#1711 = LINE('',#1700,#1710);
#1712 = EDGE_CURVE('',#1701,#1651,#1711,.T.);
#1713 = ORIENTED_EDGE('',*,*,#1712,.F.);
#1714 = CARTESIAN_POINT('',(0.9550000000000001,0.315,-2.7));
#1715 = DIRECTION('',(-1.,0.,0.));
#1716 = DIRECTION('',(0.,-1.,0.));
#1717 = AXIS2_PLACEMENT_3D('',#1714,#1715,#1716);
#1718 = PLANE('',#1717);
#1719 = EDGE_LOOP('',(#1706,#1707,#1708,#1713));
#1720 = FACE_OUTER_BOUND('',#1719,.T.);
#1721 = ADVANCED_FACE('',(#1720),#1718,.T.);
#1722 = ORIENTED_EDGE('',*,*,#1712,.T.);
#1723 = ORIENTED_EDGE('',*,*,#1662,.T.);
#1724 = ORIENTED_EDGE('',*,*,#1635,.F.);
#1725 = DIRECTION('',(1.,0.,0.));
#1726 = VECTOR('',#1725,1.);
#1727 = LINE('',#1700,#1726);
#1728 = EDGE_CURVE('',#1701,#1623,#1727,.T.);
#1729 = ORIENTED_EDGE('',*,*,#1728,.F.);
#1730 = CARTESIAN_POINT('',(0.9550000000000001,0.315,-2.7));
#1731 = DIRECTION('',(0.,1.,0.));
#1732 = DIRECTION('',(0.,0.,1.));
#1733 = AXIS2_PLACEMENT_3D('',#1730,#1731,#1732);
#1734 = PLANE('',#1733);
#1735 = EDGE_LOOP('',(#1722,#1723,#1724,#1729));
#1736 = FACE_OUTER_BOUND('',#1735,.T.);
#1737 = ADVANCED_FACE('',(#1736),#1734,.T.);
#1738 = CARTESIAN_POINT('',(1.095,0.175,-3.));
#1739 = VERTEX_POINT('',#1738);
#1740 = DIRECTION('',(0.,1.,0.));
#1741 = VECTOR('',#1740,1.);
#1742 = LINE('',#1674,#1741);
#1743 = EDGE_CURVE('',#1675,#1739,#1742,.T.);
#1744 = ORIENTED_EDGE('',*,*,#1743,.F.);
#1745 = ORIENTED_EDGE('',*,*,#1685,.F.);
#1746 = ORIENTED_EDGE('',*,*,#1705,.T.);
#1747 = DIRECTION('',(0.38949041885226,-0.38949041885226027,-0.8346223261119857));
#1748 = VECTOR('',#1747,1.);
#1749 = LINE('',#1700,#1748);
#1750 = EDGE_CURVE('',#1701,#1739,#1749,.T.);
#1751 = ORIENTED_EDGE('',*,*,#1750,.T.);
#1752 = CARTESIAN_POINT('',(1.095,0.175,-3.));
#1753 = DIRECTION('',(-0.9061831399952653,0.,-0.422885465331124));
#1754 = DIRECTION('',(0.,-1.,0.));
#1755 = AXIS2_PLACEMENT_3D('',#1752,#1753,#1754);
#1756 = PLANE('',#1755);
#1757 = EDGE_LOOP('',(#1744,#1745,#1746,#1751));
#1758 = FACE_OUTER_BOUND('',#1757,.T.);
#1759 = ADVANCED_FACE('',(#1758),#1756,.T.);
#1760 = CARTESIAN_POINT('',(1.445,0.175,-3.));
#1761 = VERTEX_POINT('',#1760);
#1762 = DIRECTION('',(0.,1.,0.));
#1763 = VECTOR('',#1762,1.);
#1764 = LINE('',#1672,#1763);
#1765 = EDGE_CURVE('',#1673,#1761,#1764,.T.);
#1766 = ORIENTED_EDGE('',*,*,#1765,.F.);
#1767 = ORIENTED_EDGE('',*,*,#1690,.F.);
#1768 = ORIENTED_EDGE('',*,*,#1743,.T.);
#1769 = DIRECTION('',(1.,0.,0.));
#1770 = VECTOR('',#1769,1.);
#1771 = LINE('',#1738,#1770);
#1772 = EDGE_CURVE('',#1739,#1761,#1771,.T.);
#1773 = ORIENTED_EDGE('',*,*,#1772,.T.);
#1774 = CARTESIAN_POINT('',(1.445,0.175,-3.));
#1775 = DIRECTION('',(0.,0.,-1.));
#1776 = DIRECTION('',(0.,-1.,0.));
#1777 = AXIS2_PLACEMENT_3D('',#1774,#1775,#1776);
#1778 = PLANE('',#1777);
#1779 = EDGE_LOOP('',(#1766,#1767,#1768,#1773));
#1780 = FACE_OUTER_BOUND('',#1779,.T.);
#1781 = ADVANCED_FACE('',(#1780),#1778,.T.);
#1782 = ORIENTED_EDGE('',*,*,#1772,.F.);
#1783 = ORIENTED_EDGE('',*,*,#1750,.F.);
#1784 = ORIENTED_EDGE('',*,*,#1728,.T.);
#1785 = DIRECTION('',(0.38949041885226,0.38949041885226027,0.8346223261119857));
#1786 = VECTOR('',#1785,1.);
#1787 = LINE('',#1760,#1786);
#1788 = EDGE_CURVE('',#1761,#1623,#1787,.T.);
#1789 = ORIENTED_EDGE('',*,*,#1788,.F.);
#1790 = CARTESIAN_POINT('',(1.445,0.175,-3.));
#1791 = DIRECTION('',(0.,0.9061831399952656,-0.42288546533112387));
#1792 = DIRECTION('',(-1.,0.,0.));
#1793 = AXIS2_PLACEMENT_3D('',#1790,#1791,#1792);
#1794 = PLANE('',#1793);
#1795 = EDGE_LOOP('',(#1782,#1783,#1784,#1789));
#1796 = FACE_OUTER_BOUND('',#1795,.T.);
#1797 = ADVANCED_FACE('',(#1796),#1794,.T.);
#1798 = ORIENTED_EDGE('',*,*,#1788,.T.);
#1799 = ORIENTED_EDGE('',*,*,#1630,.F.);
#1800 = ORIENTED_EDGE('',*,*,#1679,.F.);
#1801 = ORIENTED_EDGE('',*,*,#1765,.T.);
#1802 = CARTESIAN_POINT('',(1.445,0.175,-3.));
#1803 = DIRECTION('',(0.9061831399952653,0.,-0.4228854653311241));
#1804 = DIRECTION('',(0.38949041885226,0.38949041885226027,0.8346223261119857));
#1805 = AXIS2_PLACEMENT_3D('',#1802,#1803,#1804);
#1806 = PLANE('',#1805);
#1807 = EDGE_LOOP('',(#1798,#1799,#1800,#1801));
#1808 = FACE_OUTER_BOUND('',#1807,.T.);
#1809 = ADVANCED_FACE('',(#1808),#1806,.T.);
#1810 = CLOSED_SHELL('',(#1621,#1649,#1671,#1699,#1721,#1737,#1759,#1781,#1797,#1809));
#1811 = MANIFOLD_SOLID_BREP('',#1810);
#1812 = CARTESIAN_POINT('',(0.766,-0.504,0.));
#1813 = VERTEX_POINT('',#1812);
#1814 = CARTESIAN_POINT('',(0.766,-0.504,0.504));
#1815 = VERTEX_POINT('',#1814);
#1816 = CARTESIAN_POINT('',(0.766,0.504,0.504));
#1817 = VERTEX_POINT('',#1816);
#1818 = CARTESIAN_POINT('',(0.766,0.504,0.));
#1819 = VERTEX_POINT('',#1818);
#1820 = DIRECTION('',(0.,0.,1.));
#1821 = VECTOR('',#1820,1.);
#1822 = LINE('',#1812,#1821);
#1823 = EDGE_CURVE('',#1813,#1815,#1822,.T.);
#1824 = ORIENTED_EDGE('',*,*,#1823,.T.);
#1825 = DIRECTION('',(0.,1.,0.));
#1826 = VECTOR('',#1825,1.);
#1827 = LINE('',#1814,#1826);
#1828 = EDGE_CURVE('',#1815,#1817,#1827,.T.);
#1829 = ORIENTED_EDGE('',*,*,#1828,.T.);
#1830 = DIRECTION('',(0.,0.,1.));
#1831 = VECTOR('',#1830,1.);
#1832 = LINE('',#1818,#1831);
#1833 = EDGE_CURVE('',#1819,#1817,#1832,.T.);
#1834 = ORIENTED_EDGE('',*,*,#1833,.F.);
#1835 = DIRECTION('',(0.,1.,0.));
#1836 = VECTOR('',#1835,1.);
#1837 = LINE('',#1812,#1836);
#1838 = EDGE_CURVE('',#1813,#1819,#1837,.T.);
#1839 = ORIENTED_EDGE('',*,*,#1838,.F.);
#1840 = CARTESIAN_POINT('',(0.766,-0.504,0.));
#1841 = DIRECTION('',(-1.,0.,0.));
#1842 = DIRECTION('',(0.,0.,1.));
#1843 = AXIS2_PLACEMENT_3D('',#1840,#1841,#1842);
#1844 = PLANE('',#1843);
#1845 = EDGE_LOOP('',(#1824,#1829,#1834,#1839));
#1846 = FACE_OUTER_BOUND('',#1845,.T.);
#1847 = ADVANCED_FACE('',(#1846),#1844,.T.);
#1848 = CARTESIAN_POINT('',(1.774,-0.504,0.));
#1849 = VERTEX_POINT('',#1848);
#1850 = CARTESIAN_POINT('',(1.774,0.504,0.));
#1851 = VERTEX_POINT('',#1850);
#1852 = CARTESIAN_POINT('',(1.774,0.504,0.504));
#1853 = VERTEX_POINT('',#1852);
#1854 = CARTESIAN_POINT('',(1.774,-0.504,0.504));
#1855 = VERTEX_POINT('',#1854);
#1856 = DIRECTION('',(0.,1.,0.));
#1857 = VECTOR('',#1856,1.);
#1858 = LINE('',#1848,#1857);
#1859 = EDGE_CURVE('',#1849,#1851,#1858,.T.);
#1860 = ORIENTED_EDGE('',*,*,#1859,.T.);
#1861 = DIRECTION('',(0.,0.,1.));
#1862 = VECTOR('',#1861,1.);
#1863 = LINE('',#1850,#1862);
#1864 = EDGE_CURVE('',#1851,#1853,#1863,.T.);
#1865 = ORIENTED_EDGE('',*,*,#1864,.T.);
#1866 = DIRECTION('',(0.,1.,0.));
#1867 = VECTOR('',#1866,1.);
#1868 = LINE('',#1854,#1867);
#1869 = EDGE_CURVE('',#1855,#1853,#1868,.T.);
#1870 = ORIENTED_EDGE('',*,*,#1869,.F.);
#1871 = DIRECTION('',(0.,0.,1.));
#1872 = VECTOR('',#1871,1.);
#1873 = LINE('',#1848,#1872);
#1874 = EDGE_CURVE('',#1849,#1855,#1873,.T.);
#1875 = ORIENTED_EDGE('',*,*,#1874,.F.);
#1876 = CARTESIAN_POINT('',(1.774,-0.504,0.));
#1877 = DIRECTION('',(1.,0.,0.));
#1878 = DIRECTION('',(0.,1.,0.));
#1879 = AXIS2_PLACEMENT_3D('',#1876,#1877,#1878);
#1880 = PLANE('',#1879);
#1881 = EDGE_LOOP('',(#1860,#1865,#1870,#1875));
#1882 = FACE_OUTER_BOUND('',#1881,.T.);
#1883 = ADVANCED_FACE('',(#1882),#1880,.T.);
#1884 = DIRECTION('',(1.,0.,0.));
#1885 = VECTOR('',#1884,1.);
#1886 = LINE('',#1812,#1885);
#1887 = EDGE_CURVE('',#1813,#1849,#1886,.T.);
#1888 = ORIENTED_EDGE('',*,*,#1887,.T.);
#1889 = ORIENTED_EDGE('',*,*,#1874,.T.);
#1890 = DIRECTION('',(1.,0.,0.));
#1891 = VECTOR('',#1890,1.);
#1892 = LINE('',#1814,#1891);
#1893 = EDGE_CURVE('',#1815,#1855,#1892,.T.);
#1894 = ORIENTED_EDGE('',*,*,#1893,.F.);
#1895 = ORIENTED_EDGE('',*,*,#1823,.F.);
#1896 = CARTESIAN_POINT('',(0.766,-0.504,0.));
#1897 = DIRECTION('',(0.,-1.,0.));
#1898 = DIRECTION('',(1.,0.,0.));
#1899 = AXIS2_PLACEMENT_3D('',#1896,#1897,#1898);
#1900 = PLANE('',#1899);
#1901 = EDGE_LOOP('',(#1888,#1889,#1894,#1895));
#1902 = FACE_OUTER_BOUND('',#1901,.T.);
#1903 = ADVANCED_FACE('',(#1902),#1900,.T.);
#1904 = ORIENTED_EDGE('',*,*,#1833,.T.);
#1905 = DIRECTION('',(1.,0.,0.));
#1906 = VECTOR('',#1905,1.);
#1907 = LINE('',#1816,#1906);
#1908 = EDGE_CURVE('',#1817,#1853,#1907,.T.);
#1909 = ORIENTED_EDGE('',*,*,#1908,.T.);
#1910 = ORIENTED_EDGE('',*,*,#1864,.F.);
#1911 = DIRECTION('',(1.,0.,0.));
#1912 = VECTOR('',#1911,1.);
#1913 = LINE('',#1818,#1912);
#1914 = EDGE_CURVE('',#1819,#1851,#1913,.T.);
#1915 = ORIENTED_EDGE('',*,*,#1914,.F.);
#1916 = CARTESIAN_POINT('',(0.766,0.504,0.));
#1917 = DIRECTION('',(0.,1.,0.));
#1918 = DIRECTION('',(0.,0.,1.));
#1919 = AXIS2_PLACEMENT_3D('',#1916,#1917,#1918);
#1920 = PLANE('',#1919);
#1921 = EDGE_LOOP('',(#1904,#1909,#1910,#1915));
#1922 = FACE_OUTER_BOUND('',#1921,.T.);
#1923 = ADVANCED_FACE('',(#1922),#1920,.T.);
#1924 = ORIENTED_EDGE('',*,*,#1838,.T.);
#1925 = ORIENTED_EDGE('',*,*,#1914,.T.);
#1926 = ORIENTED_EDGE('',*,*,#1859,.F.);
#1927 = ORIENTED_EDGE('',*,*,#1887,.F.);
#1928 = CARTESIAN_POINT('',(0.766,-0.504,0.));
#1929 = DIRECTION('',(0.,0.,-1.));
#1930 = DIRECTION('',(0.,1.,0.));
#1931 = AXIS2_PLACEMENT_3D('',#1928,#1929,#1930);
#1932 = PLANE('',#1931);
#1933 = EDGE_LOOP('',(#1924,#1925,#1926,#1927));
#1934 = FACE_OUTER_BOUND('',#1933,.T.);
#1935 = ADVANCED_FACE('',(#1934),#1932,.T.);
#1936 = ORIENTED_EDGE('',*,*,#1893,.T.);
#1937 = ORIENTED_EDGE('',*,*,#1869,.T.);
#1938 = ORIENTED_EDGE('',*,*,#1908,.F.);
#1939 = ORIENTED_EDGE('',*,*,#1828,.F.);
#1940 = CARTESIAN_POINT('',(0.766,-0.504,0.504));
#1941 = DIRECTION('',(0.,0.,1.));
#1942 = DIRECTION('',(1.,0.,0.));
#1943 = AXIS2_PLACEMENT_3D('',#1940,#1941,#1942);
#1944 = PLANE('',#1943);
#1945 = EDGE_LOOP('',(#1936,#1937,#1938,#1939));
#1946 = FACE_OUTER_BOUND('',#1945,.T.);
#1947 = ADVANCED_FACE('',(#1946),#1944,.T.);
#1948 = CLOSED_SHELL('',(#1847,#1883,#1903,#1923,#1935,#1947));
#1949 = MANIFOLD_SOLID_BREP('',#1948);
#1950 = ADVANCED_BREP_SHAPE_REPRESENTATION('',(#17,#611,#845,#983,#1577,#1811,#1949),#13);
#1951 = SHAPE_DEFINITION_REPRESENTATION(#8,#1950);
#1952 = MECHANICAL_DESIGN_GEOMETRIC_PRESENTATION_REPRESENTATION('',(#619,#1585),#13);
ENDSEC;
END-ISO-10303-21;