ISO-10303-21;
HEADER;
FILE_DESCRIPTION(('shape.step'),'2;1');
FILE_NAME('shape.step','2026-09-12',('tscircuit'),('tscircuit'),'generator','','');
FILE_SCHEMA(('AUTOMOTIVE_DESIGN { 1 0 10303 214 1 1 1 1 }'));
ENDSEC;
DATA;
#1 = APPLICATION_CONTEXT('core data for automotive mechanical design processes');
#2 = APPLICATION_PROTOCOL_DEFINITION('international standard','automotive_design',2000,#1);
#3 = PRODUCT_CONTEXT('',#1,'mechanical');
#4 = PRODUCT('shape','shape','',(#3));
#5 = PRODUCT_DEFINITION_CONTEXT('part definition',#1,'design');
#6 = PRODUCT_DEFINITION_FORMATION('','',#4);
#7 = PRODUCT_DEFINITION('design','',#6,#5);
#8 = PRODUCT_DEFINITION_SHAPE('','',#7);
#9 = (
LENGTH_UNIT()
NAMED_UNIT(*)
SI_UNIT(.MILLI.,.METRE.)
);
#10 = (
NAMED_UNIT(*)
PLANE_ANGLE_UNIT()
SI_UNIT($,.RADIAN.)
);
#11 = (
NAMED_UNIT(*)
SI_UNIT($,.STERADIAN.)
SOLID_ANGLE_UNIT()
);
#12 = UNCERTAINTY_MEASURE_WITH_UNIT(LENGTH_MEASURE(1.E-07),#9,'distance_accuracy_value','confusion accuracy');
#13 = (
GEOMETRIC_REPRESENTATION_CONTEXT(3)
GLOBAL_UNCERTAINTY_ASSIGNED_CONTEXT((#12))
GLOBAL_UNIT_ASSIGNED_CONTEXT((#9,#10,#11))
REPRESENTATION_CONTEXT('Context #1','3D
Context with
TORTURE://UNITS')
);
#14 = CARTESIAN_POINT('',(0.,0.,0.));
#15 = DIRECTION('',(0.,0.,1.));
#16 = DIRECTION('',(1.,0.,0.));
#17 = AXIS2_PLACEMENT_3D('',#14,#15,#16);
#18 = CARTESIAN_POINT('',(-3.81,-1.27,-3.6));
#19 = VERTEX_POINT('',#18);
#20 = CARTESIAN_POINT('',(-3.81,-1.27,-1.6));
#21 = VERTEX_POINT('',#20);
#22 = CARTESIAN_POINT('',(-3.81,1.27,-1.6));
#23 = VERTEX_POINT('',#22);
#24 = CARTESIAN_POINT('',(-3.81,1.27,-3.6));
#25 = VERTEX_POINT('',#24);
#26 = DIRECTION('',(0.,0.,-1.));
#27 = VECTOR('',#26,1.);
#28 = LINE('',#20,#27);
#29 = EDGE_CURVE('',#21,#19,#28,.T.);
#30 = ORIENTED_EDGE('',*,*,#29,.F.);
#31 = DIRECTION('',(0.,1.,0.));
#32 = VECTOR('',#31,1.);
#33 = LINE('',#20,#32);
#34 = EDGE_CURVE('',#21,#23,#33,.T.);
#35 = ORIENTED_EDGE('',*,*,#34,.T.);
#36 = DIRECTION('',(0.,0.,-1.));
#37 = VECTOR('',#36,1.);
#38 = LINE('',#22,#37);
#39 = EDGE_CURVE('',#23,#25,#38,.T.);
#40 = ORIENTED_EDGE('',*,*,#39,.T.);
#41 = DIRECTION('',(0.,1.,0.));
#42 = VECTOR('',#41,1.);
#43 = LINE('',#18,#42);
#44 = EDGE_CURVE('',#19,#25,#43,.T.);
#45 = ORIENTED_EDGE('',*,*,#44,.F.);
#46 = CARTESIAN_POINT('',(-3.81,-1.27,-3.6));
#47 = DIRECTION('',(-1.,0.,0.));
#48 = DIRECTION('',(0.,0.,1.));
#49 = AXIS2_PLACEMENT_3D('',#46,#47,#48);
#50 = PLANE('',#49);
#51 = EDGE_LOOP('',(#30,#35,#40,#45));
#52 = FACE_OUTER_BOUND('',#51,.T.);
#53 = ADVANCED_FACE('',(#52),#50,.T.);
#54 = CARTESIAN_POINT('',(-1.27,-1.27,-3.6));
#55 = VERTEX_POINT('',#54);
#56 = CARTESIAN_POINT('',(-1.27,1.27,-3.6));
#57 = VERTEX_POINT('',#56);
#58 = CARTESIAN_POINT('',(-1.27,1.27,-1.6));
#59 = VERTEX_POINT('',#58);
#60 = CARTESIAN_POINT('',(-1.27,-1.27,-1.6));
#61 = VERTEX_POINT('',#60);
#62 = DIRECTION('',(0.,1.,0.));
#63 = VECTOR('',#62,1.);
#64 = LINE('',#54,#63);
#65 = EDGE_CURVE('',#55,#57,#64,.T.);
#66 = ORIENTED_EDGE('',*,*,#65,.T.);
#67 = DIRECTION('',(0.,0.,-1.));
#68 = VECTOR('',#67,1.);
#69 = LINE('',#58,#68);
#70 = EDGE_CURVE('',#59,#57,#69,.T.);
#71 = ORIENTED_EDGE('',*,*,#70,.F.);
#72 = DIRECTION('',(0.,1.,0.));
#73 = VECTOR('',#72,1.);
#74 = LINE('',#60,#73);
#75 = EDGE_CURVE('',#61,#59,#74,.T.);
#76 = ORIENTED_EDGE('',*,*,#75,.F.);
#77 = DIRECTION('',(0.,0.,-1.));
#78 = VECTOR('',#77,1.);
#79 = LINE('',#60,#78);
#80 = EDGE_CURVE('',#61,#55,#79,.T.);
#81 = ORIENTED_EDGE('',*,*,#80,.T.);
#82 = CARTESIAN_POINT('',(-1.27,-1.27,-3.6));
#83 = DIRECTION('',(1.,0.,0.));
#84 = DIRECTION('',(0.,1.,0.));
#85 = AXIS2_PLACEMENT_3D('',#82,#83,#84);
#86 = PLANE('',#85);
#87 = EDGE_LOOP('',(#66,#71,#76,#81));
#88 = FACE_OUTER_BOUND('',#87,.T.);
#89 = ADVANCED_FACE('',(#88),#86,.T.);
#90 = DIRECTION('',(-1.,0.,0.));
#91 = VECTOR('',#90,1.);
#92 = LINE('',#54,#91);
#93 = EDGE_CURVE('',#55,#19,#92,.T.);
#94 = ORIENTED_EDGE('',*,*,#93,.F.);
#95 = ORIENTED_EDGE('',*,*,#80,.F.);
#96 = DIRECTION('',(-1.,0.,0.));
#97 = VECTOR('',#96,1.);
#98 = LINE('',#60,#97);
#99 = EDGE_CURVE('',#61,#21,#98,.T.);
#100 = ORIENTED_EDGE('',*,*,#99,.T.);
#101 = ORIENTED_EDGE('',*,*,#29,.T.);
#102 = CARTESIAN_POINT('',(-3.81,-1.27,-3.6));
#103 = DIRECTION('',(0.,-1.,0.));
#104 = DIRECTION('',(1.,0.,0.));
#105 = AXIS2_PLACEMENT_3D('',#102,#103,#104);
#106 = PLANE('',#105);
#107 = EDGE_LOOP('',(#94,#95,#100,#101));
#108 = FACE_OUTER_BOUND('',#107,.T.);
#109 = ADVANCED_FACE('',(#108),#106,.T.);
#110 = ORIENTED_EDGE('',*,*,#39,.F.);
#111 = DIRECTION('',(-1.,0.,0.));
#112 = VECTOR('',#111,1.);
#113 = LINE('',#58,#112);
#114 = EDGE_CURVE('',#59,#23,#113,.T.);
#115 = ORIENTED_EDGE('',*,*,#114,.F.);
#116 = ORIENTED_EDGE('',*,*,#70,.T.);
#117 = DIRECTION('',(-1.,0.,0.));
#118 = VECTOR('',#117,1.);
#119 = LINE('',#56,#118);
#120 = EDGE_CURVE('',#57,#25,#119,.T.);
#121 = ORIENTED_EDGE('',*,*,#120,.T.);
#122 = CARTESIAN_POINT('',(-3.81,1.27,-3.6));
#123 = DIRECTION('',(0.,1.,0.));
#124 = DIRECTION('',(0.,0.,1.));
#125 = AXIS2_PLACEMENT_3D('',#122,#123,#124);
#126 = PLANE('',#125);
#127 = EDGE_LOOP('',(#110,#115,#116,#121));
#128 = FACE_OUTER_BOUND('',#127,.T.);
#129 = ADVANCED_FACE('',(#128),#126,.T.);
#130 = ORIENTED_EDGE('',*,*,#44,.T.);
#131 = ORIENTED_EDGE('',*,*,#120,.F.);
#132 = ORIENTED_EDGE('',*,*,#65,.F.);
#133 = ORIENTED_EDGE('',*,*,#93,.T.);
#134 = CARTESIAN_POINT('',(-3.81,-1.27,-3.6));
#135 = DIRECTION('',(0.,0.,-1.));
#136 = DIRECTION('',(0.,1.,0.));
#137 = AXIS2_PLACEMENT_3D('',#134,#135,#136);
#138 = PLANE('',#137);
#139 = EDGE_LOOP('',(#130,#131,#132,#133));
#140 = FACE_OUTER_BOUND('',#139,.T.);
#141 = ADVANCED_FACE('',(#140),#138,.T.);
#142 = ORIENTED_EDGE('',*,*,#99,.F.);
#143 = ORIENTED_EDGE('',*,*,#75,.T.);
#144 = ORIENTED_EDGE('',*,*,#114,.T.);
#145 = ORIENTED_EDGE('',*,*,#34,.F.);
#146 = CARTESIAN_POINT('',(-3.81,-1.27,-1.6));
#147 = DIRECTION('',(0.,0.,1.));
#148 = DIRECTION('',(1.,0.,0.));
#149 = AXIS2_PLACEMENT_3D('',#146,#147,#148);
#150 = PLANE('',#149);
#151 = EDGE_LOOP('',(#142,#143,#144,#145));
#152 = FACE_OUTER_BOUND('',#151,.T.);
#153 = ADVANCED_FACE('',(#152),#150,.T.);
#154 = CLOSED_SHELL('',(#53,#89,#109,#129,#141,#153));
#155 = MANIFOLD_SOLID_BREP('',#154);
#156 = COLOUR_RGB('',0.13333333333333333,0.13333333333333333,0.13333333333333333);
#157 = FILL_AREA_STYLE_COLOUR('',#156);
#158 = FILL_AREA_STYLE('',(#157));
#159 = SURFACE_STYLE_FILL_AREA(#158);
#160 = SURFACE_SIDE_STYLE('',(#159));
#161 = SURFACE_STYLE_USAGE(.BOTH.,#160);
#162 = PRESENTATION_STYLE_ASSIGNMENT((#161));
#163 = STYLED_ITEM('',(#162),#155);
#164 = CARTESIAN_POINT('',(-2.855,0.315,-2.1500000000000004));
#165 = VERTEX_POINT('',#164);
#166 = CARTESIAN_POINT('',(-2.855,-0.315,-2.1500000000000004));
#167 = VERTEX_POINT('',#166);
#168 = CARTESIAN_POINT('',(-2.855,-0.315,0.5499999999999998));
#169 = VERTEX_POINT('',#168);
#170 = CARTESIAN_POINT('',(-2.855,0.315,0.5499999999999998));
#171 = VERTEX_POINT('',#170);
#172 = DIRECTION('',(0.,1.,0.));
#173 = VECTOR('',#172,1.);
#174 = LINE('',#166,#173);
#175 = EDGE_CURVE('',#167,#165,#174,.T.);
#176 = ORIENTED_EDGE('',*,*,#175,.F.);
#177 = DIRECTION('',(0.,0.,1.));
#178 = VECTOR('',#177,1.);
#179 = LINE('',#166,#178);
#180 = EDGE_CURVE('',#167,#169,#179,.T.);
#181 = ORIENTED_EDGE('',*,*,#180,.T.);
#182 = DIRECTION('',(0.,1.,0.));
#183 = VECTOR('',#182,1.);
#184 = LINE('',#168,#183);
#185 = EDGE_CURVE('',#169,#171,#184,.T.);
#186 = ORIENTED_EDGE('',*,*,#185,.T.);
#187 = DIRECTION('',(0.,0.,1.));
#188 = VECTOR('',#187,1.);
#189 = LINE('',#164,#188);
#190 = EDGE_CURVE('',#165,#171,#189,.T.);
#191 = ORIENTED_EDGE('',*,*,#190,.F.);
#192 = CARTESIAN_POINT('',(-2.855,0.315,-2.1500000000000004));
#193 = DIRECTION('',(-1.,0.,0.));
#194 = DIRECTION('',(0.,-1.,0.));
#195 = AXIS2_PLACEMENT_3D('',#192,#193,#194);
#196 = PLANE('',#195);
#197 = EDGE_LOOP('',(#176,#181,#186,#191));
#198 = FACE_OUTER_BOUND('',#197,.T.);
#199 = ADVANCED_FACE('',(#198),#196,.T.);
#200 = CARTESIAN_POINT('',(-2.225,0.315,0.5499999999999998));
#201 = VERTEX_POINT('',#200);
#202 = CARTESIAN_POINT('',(-2.225,0.315,-2.1500000000000004));
#203 = VERTEX_POINT('',#202);
#204 = DIRECTION('',(0.,0.,1.));
#205 = VECTOR('',#204,1.);
#206 = LINE('',#202,#205);
#207 = EDGE_CURVE('',#203,#201,#206,.T.);
#208 = ORIENTED_EDGE('',*,*,#207,.F.);
#209 = DIRECTION('',(-1.,0.,0.));
#210 = VECTOR('',#209,1.);
#211 = LINE('',#202,#210);
#212 = EDGE_CURVE('',#203,#165,#211,.T.);
#213 = ORIENTED_EDGE('',*,*,#212,.T.);
#214 = ORIENTED_EDGE('',*,*,#190,.T.);
#215 = DIRECTION('',(-1.,0.,0.));
#216 = VECTOR('',#215,1.);
#217 = LINE('',#200,#216);
#218 = EDGE_CURVE('',#201,#171,#217,.T.);
#219 = ORIENTED_EDGE('',*,*,#218,.F.);
#220 = CARTESIAN_POINT('',(-2.225,0.315,0.5499999999999998));
#221 = DIRECTION('',(0.,1.,0.));
#222 = DIRECTION('',(0.,0.,-1.));
#223 = AXIS2_PLACEMENT_3D('',#220,#221,#222);
#224 = PLANE('',#223);
#225 = EDGE_LOOP('',(#208,#213,#214,#219));
#226 = FACE_OUTER_BOUND('',#225,.T.);
#227 = ADVANCED_FACE('',(#226),#224,.T.);
#228 = CARTESIAN_POINT('',(-2.715,0.175,0.8999999999999999));
#229 = VERTEX_POINT('',#228);
#230 = CARTESIAN_POINT('',(-2.715,-0.175,0.8999999999999999));
#231 = VERTEX_POINT('',#230);
#232 = DIRECTION('',(-0.34815531191139587,0.3481553119113956,-0.8703882797784892));
#233 = VECTOR('',#232,1.);
#234 = LINE('',#228,#233);
#235 = EDGE_CURVE('',#229,#171,#234,.T.);
#236 = ORIENTED_EDGE('',*,*,#235,.T.);
#237 = ORIENTED_EDGE('',*,*,#185,.F.);
#238 = DIRECTION('',(-0.34815531191139587,-0.3481553119113956,-0.8703882797784892));
#239 = VECTOR('',#238,1.);
#240 = LINE('',#230,#239);
#241 = EDGE_CURVE('',#231,#169,#240,.T.);
#242 = ORIENTED_EDGE('',*,*,#241,.F.);
#243 = DIRECTION('',(0.,1.,0.));
#244 = VECTOR('',#243,1.);
#245 = LINE('',#230,#244);
#246 = EDGE_CURVE('',#231,#229,#245,.T.);
#247 = ORIENTED_EDGE('',*,*,#246,.T.);
#248 = CARTESIAN_POINT('',(-2.715,0.175,0.8999999999999999));
#249 = DIRECTION('',(-0.9284766908852591,0.,0.3713906763541039));
#250 = DIRECTION('',(-0.34815531191139587,0.3481553119113956,-0.8703882797784892));
#251 = AXIS2_PLACEMENT_3D('',#248,#249,#250);
#252 = PLANE('',#251);
#253 = EDGE_LOOP('',(#236,#237,#242,#247));
#254 = FACE_OUTER_BOUND('',#253,.T.);
#255 = ADVANCED_FACE('',(#254),#252,.T.);
#256 = CARTESIAN_POINT('',(-2.225,-0.315,-2.1500000000000004));
#257 = VERTEX_POINT('',#256);
#258 = CARTESIAN_POINT('',(-2.225,-0.315,0.5499999999999998));
#259 = VERTEX_POINT('',#258);
#260 = DIRECTION('',(0.,1.,0.));
#261 = VECTOR('',#260,1.);
#262 = LINE('',#256,#261);
#263 = EDGE_CURVE('',#257,#203,#262,.T.);
#264 = ORIENTED_EDGE('',*,*,#263,.T.);
#265 = ORIENTED_EDGE('',*,*,#207,.T.);
#266 = DIRECTION('',(0.,1.,0.));
#267 = VECTOR('',#266,1.);
#268 = LINE('',#258,#267);
#269 = EDGE_CURVE('',#259,#201,#268,.T.);
#270 = ORIENTED_EDGE('',*,*,#269,.F.);
#271 = DIRECTION('',(0.,0.,1.));
#272 = VECTOR('',#271,1.);
#273 = LINE('',#256,#272);
#274 = EDGE_CURVE('',#257,#259,#273,.T.);
#275 = ORIENTED_EDGE('',*,*,#274,.F.);
#276 = CARTESIAN_POINT('',(-2.225,-0.315,-2.1500000000000004));
#277 = DIRECTION('',(1.,0.,0.));
#278 = DIRECTION('',(0.,1.,0.));
#279 = AXIS2_PLACEMENT_3D('',#276,#277,#278);
#280 = PLANE('',#279);
#281 = EDGE_LOOP('',(#264,#265,#270,#275));
#282 = FACE_OUTER_BOUND('',#281,.T.);
#283 = ADVANCED_FACE('',(#282),#280,.T.);
#284 = ORIENTED_EDGE('',*,*,#274,.T.);
#285 = DIRECTION('',(-1.,0.,0.));
#286 = VECTOR('',#285,1.);
#287 = LINE('',#258,#286);
#288 = EDGE_CURVE('',#259,#169,#287,.T.);
#289 = ORIENTED_EDGE('',*,*,#288,.T.);
#290 = ORIENTED_EDGE('',*,*,#180,.F.);
#291 = DIRECTION('',(-1.,0.,0.));
#292 = VECTOR('',#291,1.);
#293 = LINE('',#256,#292);
#294 = EDGE_CURVE('',#257,#167,#293,.T.);
#295 = ORIENTED_EDGE('',*,*,#294,.F.);
#296 = CARTESIAN_POINT('',(-2.225,-0.315,-2.1500000000000004));
#297 = DIRECTION('',(0.,-1.,0.));
#298 = DIRECTION('',(0.,0.,1.));
#299 = AXIS2_PLACEMENT_3D('',#296,#297,#298);
#300 = PLANE('',#299);
#301 = EDGE_LOOP('',(#284,#289,#290,#295));
#302 = FACE_OUTER_BOUND('',#301,.T.);
#303 = ADVANCED_FACE('',(#302),#300,.T.);
#304 = ORIENTED_EDGE('',*,*,#294,.T.);
#305 = ORIENTED_EDGE('',*,*,#175,.T.);
#306 = ORIENTED_EDGE('',*,*,#212,.F.);
#307 = ORIENTED_EDGE('',*,*,#263,.F.);
#308 = CARTESIAN_POINT('',(-2.225,-0.315,-2.1500000000000004));
#309 = DIRECTION('',(0.,0.,-1.));
#310 = DIRECTION('',(-1.,0.,0.));
#311 = AXIS2_PLACEMENT_3D('',#308,#309,#310);
#312 = PLANE('',#311);
#313 = EDGE_LOOP('',(#304,#305,#306,#307));
#314 = FACE_OUTER_BOUND('',#313,.T.);
#315 = ADVANCED_FACE('',(#314),#312,.T.);
#316 = CARTESIAN_POINT('',(-2.365,0.175,0.8999999999999999));
#317 = VERTEX_POINT('',#316);
#318 = DIRECTION('',(-0.34815531191139587,-0.3481553119113956,0.8703882797784892));
#319 = VECTOR('',#318,1.);
#320 = LINE('',#200,#319);
#321 = EDGE_CURVE('',#201,#317,#320,.T.);
#322 = ORIENTED_EDGE('',*,*,#321,.F.);
#323 = ORIENTED_EDGE('',*,*,#218,.T.);
#324 = ORIENTED_EDGE('',*,*,#235,.F.);
#325 = DIRECTION('',(-1.,0.,0.));
#326 = VECTOR('',#325,1.);
#327 = LINE('',#316,#326);
#328 = EDGE_CURVE('',#317,#229,#327,.T.);
#329 = ORIENTED_EDGE('',*,*,#328,.F.);
#330 = CARTESIAN_POINT('',(-2.365,0.175,0.8999999999999999));
#331 = DIRECTION('',(0.,0.9284766908852596,0.3713906763541032));
#332 = DIRECTION('',(0.34815531191139587,0.3481553119113956,-0.8703882797784892));
#333 = AXIS2_PLACEMENT_3D('',#330,#331,#332);
#334 = PLANE('',#333);
#335 = EDGE_LOOP('',(#322,#323,#324,#329));
#336 = FACE_OUTER_BOUND('',#335,.T.);
#337 = ADVANCED_FACE('',(#336),#334,.T.);
#338 = CARTESIAN_POINT('',(-2.365,-0.175,0.8999999999999999));
#339 = VERTEX_POINT('',#338);
#340 = DIRECTION('',(-0.34815531191139587,0.3481553119113956,0.8703882797784892));
#341 = VECTOR('',#340,1.);
#342 = LINE('',#258,#341);
#343 = EDGE_CURVE('',#259,#339,#342,.T.);
#344 = ORIENTED_EDGE('',*,*,#343,.F.);
#345 = ORIENTED_EDGE('',*,*,#269,.T.);
#346 = ORIENTED_EDGE('',*,*,#321,.T.);
#347 = DIRECTION('',(0.,1.,0.));
#348 = VECTOR('',#347,1.);
#349 = LINE('',#338,#348);
#350 = EDGE_CURVE('',#339,#317,#349,.T.);
#351 = ORIENTED_EDGE('',*,*,#350,.F.);
#352 = CARTESIAN_POINT('',(-2.365,-0.175,0.8999999999999999));
#353 = DIRECTION('',(0.9284766908852591,0.,0.3713906763541039));
#354 = DIRECTION('',(0.34815531191139587,-0.3481553119113956,-0.8703882797784892));
#355 = AXIS2_PLACEMENT_3D('',#352,#353,#354);
#356 = PLANE('',#355);
#357 = EDGE_LOOP('',(#344,#345,#346,#351));
#358 = FACE_OUTER_BOUND('',#357,.T.);
#359 = ADVANCED_FACE('',(#358),#356,.T.);
#360 = ORIENTED_EDGE('',*,*,#350,.T.);
#361 = ORIENTED_EDGE('',*,*,#328,.T.);
#362 = ORIENTED_EDGE('',*,*,#246,.F.);
#363 = DIRECTION('',(-1.,0.,0.));
#364 = VECTOR('',#363,1.);
#365 = LINE('',#338,#364);
#366 = EDGE_CURVE('',#339,#231,#365,.T.);
#367 = ORIENTED_EDGE('',*,*,#366,.F.);
#368 = CARTESIAN_POINT('',(-2.365,-0.175,0.8999999999999999));
#369 = DIRECTION('',(0.,0.,1.));
#370 = DIRECTION('',(0.,1.,0.));
#371 = AXIS2_PLACEMENT_3D('',#368,#369,#370);
#372 = PLANE('',#371);
#373 = EDGE_LOOP('',(#360,#361,#362,#367));
#374 = FACE_OUTER_BOUND('',#373,.T.);
#375 = ADVANCED_FACE('',(#374),#372,.T.);
#376 = ORIENTED_EDGE('',*,*,#366,.T.);
#377 = ORIENTED_EDGE('',*,*,#241,.T.);
#378 = ORIENTED_EDGE('',*,*,#288,.F.);
#379 = ORIENTED_EDGE('',*,*,#343,.T.);
#380 = CARTESIAN_POINT('',(-2.365,-0.175,0.8999999999999999));
#381 = DIRECTION('',(0.,-0.9284766908852596,0.3713906763541032));
#382 = DIRECTION('',(-1.,0.,0.));
#383 = AXIS2_PLACEMENT_3D('',#380,#381,#382);
#384 = PLANE('',#383);
#385 = EDGE_LOOP('',(#376,#377,#378,#379));
#386 = FACE_OUTER_BOUND('',#385,.T.);
#387 = ADVANCED_FACE('',(#386),#384,.T.);
#388 = CLOSED_SHELL('',(#199,#227,#255,#283,#303,#315,#337,#359,#375,#387));
#389 = MANIFOLD_SOLID_BREP('',#388);
#390 = CARTESIAN_POINT('',(-2.225,0.315,-3.6000000000000005));
#391 = VERTEX_POINT('',#390);
#392 = CARTESIAN_POINT('',(-2.225,0.315,-9.));
#393 = VERTEX_POINT('',#392);
#394 = CARTESIAN_POINT('',(-2.855,0.315,-9.));
#395 = VERTEX_POINT('',#394);
#396 = CARTESIAN_POINT('',(-2.855,0.315,-3.6000000000000005));
#397 = VERTEX_POINT('',#396);
#398 = DIRECTION('',(0.,0.,-1.));
#399 = VECTOR('',#398,1.);
#400 = LINE('',#390,#399);
#401 = EDGE_CURVE('',#391,#393,#400,.T.);
#402 = ORIENTED_EDGE('',*,*,#401,.T.);
#403 = DIRECTION('',(-1.,0.,0.));
#404 = VECTOR('',#403,1.);
#405 = LINE('',#392,#404);
#406 = EDGE_CURVE('',#393,#395,#405,.T.);
#407 = ORIENTED_EDGE('',*,*,#406,.T.);
#408 = DIRECTION('',(0.,0.,-1.));
#409 = VECTOR('',#408,1.);
#410 = LINE('',#396,#409);
#411 = EDGE_CURVE('',#397,#395,#410,.T.);
#412 = ORIENTED_EDGE('',*,*,#411,.F.);
#413 = DIRECTION('',(-1.,0.,0.));
#414 = VECTOR('',#413,1.);
#415 = LINE('',#390,#414);
#416 = EDGE_CURVE('',#391,#397,#415,.T.);
#417 = ORIENTED_EDGE('',*,*,#416,.F.);
#418 = CARTESIAN_POINT('',(-2.225,0.315,-3.6000000000000005));
#419 = DIRECTION('',(0.,1.,0.));
#420 = DIRECTION('',(0.,0.,-1.));
#421 = AXIS2_PLACEMENT_3D('',#418,#419,#420);
#422 = PLANE('',#421);
#423 = EDGE_LOOP('',(#402,#407,#412,#417));
#424 = FACE_OUTER_BOUND('',#423,.T.);
#425 = ADVANCED_FACE('',(#424),#422,.T.);
#426 = CARTESIAN_POINT('',(-2.855,-0.315,-9.));
#427 = VERTEX_POINT('',#426);
#428 = CARTESIAN_POINT('',(-2.855,-0.315,-3.6000000000000005));
#429 = VERTEX_POINT('',#428);
#430 = DIRECTION('',(0.,0.,-1.));
#431 = VECTOR('',#430,1.);
#432 = LINE('',#428,#431);
#433 = EDGE_CURVE('',#429,#427,#432,.T.);
#434 = ORIENTED_EDGE('',*,*,#433,.F.);
#435 = DIRECTION('',(0.,1.,0.));
#436 = VECTOR('',#435,1.);
#437 = LINE('',#428,#436);
#438 = EDGE_CURVE('',#429,#397,#437,.T.);
#439 = ORIENTED_EDGE('',*,*,#438,.T.);
#440 = ORIENTED_EDGE('',*,*,#411,.T.);
#441 = DIRECTION('',(0.,1.,0.));
#442 = VECTOR('',#441,1.);
#443 = LINE('',#426,#442);
#444 = EDGE_CURVE('',#427,#395,#443,.T.);
#445 = ORIENTED_EDGE('',*,*,#444,.F.);
#446 = CARTESIAN_POINT('',(-2.855,-0.315,-9.));
#447 = DIRECTION('',(-1.,0.,0.));
#448 = DIRECTION('',(0.,0.,1.));
#449 = AXIS2_PLACEMENT_3D('',#446,#447,#448);
#450 = PLANE('',#449);
#451 = EDGE_LOOP('',(#434,#439,#440,#445));
#452 = FACE_OUTER_BOUND('',#451,.T.);
#453 = ADVANCED_FACE('',(#452),#450,.T.);
#454 = CARTESIAN_POINT('',(-2.715,0.175,-9.6));
#455 = VERTEX_POINT('',#454);
#456 = CARTESIAN_POINT('',(-2.715,-0.175,-9.6));
#457 = VERTEX_POINT('',#456);
#458 = ORIENTED_EDGE('',*,*,#444,.T.);
#459 = DIRECTION('',(-0.22158112824152176,0.22158112824152157,0.9496334067493776));
#460 = VECTOR('',#459,1.);
#461 = LINE('',#454,#460);
#462 = EDGE_CURVE('',#455,#395,#461,.T.);
#463 = ORIENTED_EDGE('',*,*,#462,.F.);
#464 = DIRECTION('',(0.,1.,0.));
#465 = VECTOR('',#464,1.);
#466 = LINE('',#456,#465);
#467 = EDGE_CURVE('',#457,#455,#466,.T.);
#468 = ORIENTED_EDGE('',*,*,#467,.F.);
#469 = DIRECTION('',(-0.22158112824152176,-0.22158112824152157,0.9496334067493776));
#470 = VECTOR('',#469,1.);
#471 = LINE('',#456,#470);
#472 = EDGE_CURVE('',#457,#427,#471,.T.);
#473 = ORIENTED_EDGE('',*,*,#472,.T.);
#474 = CARTESIAN_POINT('',(-2.855,-0.315,-9.));
#475 = DIRECTION('',(-0.9738412097417934,0.,-0.22722961560641813));
#476 = DIRECTION('',(0.,1.,0.));
#477 = AXIS2_PLACEMENT_3D('',#474,#475,#476);
#478 = PLANE('',#477);
#479 = EDGE_LOOP('',(#458,#463,#468,#473));
#480 = FACE_OUTER_BOUND('',#479,.T.);
#481 = ADVANCED_FACE('',(#480),#478,.T.);
#482 = CARTESIAN_POINT('',(-2.365,0.175,-9.6));
#483 = VERTEX_POINT('',#482);
#484 = DIRECTION('',(-1.,0.,0.));
#485 = VECTOR('',#484,1.);
#486 = LINE('',#482,#485);
#487 = EDGE_CURVE('',#483,#455,#486,.T.);
#488 = ORIENTED_EDGE('',*,*,#487,.T.);
#489 = ORIENTED_EDGE('',*,*,#462,.T.);
#490 = ORIENTED_EDGE('',*,*,#406,.F.);
#491 = DIRECTION('',(-0.22158112824152176,-0.22158112824152157,-0.9496334067493776));
#492 = VECTOR('',#491,1.);
#493 = LINE('',#392,#492);
#494 = EDGE_CURVE('',#393,#483,#493,.T.);
#495 = ORIENTED_EDGE('',*,*,#494,.T.);
#496 = CARTESIAN_POINT('',(-2.365,0.175,-9.6));
#497 = DIRECTION('',(0.,0.9738412097417933,-0.2272296156064183));
#498 = DIRECTION('',(-1.,0.,0.));
#499 = AXIS2_PLACEMENT_3D('',#496,#497,#498);
#500 = PLANE('',#499);
#501 = EDGE_LOOP('',(#488,#489,#490,#495));
#502 = FACE_OUTER_BOUND('',#501,.T.);
#503 = ADVANCED_FACE('',(#502),#500,.T.);
#504 = CARTESIAN_POINT('',(-2.225,-0.315,-3.6000000000000005));
#505 = VERTEX_POINT('',#504);
#506 = DIRECTION('',(0.,1.,0.));
#507 = VECTOR('',#506,1.);
#508 = LINE('',#504,#507);
#509 = EDGE_CURVE('',#505,#391,#508,.T.);
#510 = ORIENTED_EDGE('',*,*,#509,.T.);
#511 = ORIENTED_EDGE('',*,*,#416,.T.);
#512 = ORIENTED_EDGE('',*,*,#438,.F.);
#513 = DIRECTION('',(-1.,0.,0.));
#514 = VECTOR('',#513,1.);
#515 = LINE('',#504,#514);
#516 = EDGE_CURVE('',#505,#429,#515,.T.);
#517 = ORIENTED_EDGE('',*,*,#516,.F.);
#518 = CARTESIAN_POINT('',(-2.225,-0.315,-3.6000000000000005));
#519 = DIRECTION('',(0.,0.,1.));
#520 = DIRECTION('',(0.,1.,0.));
#521 = AXIS2_PLACEMENT_3D('',#518,#519,#520);
#522 = PLANE('',#521);
#523 = EDGE_LOOP('',(#510,#511,#512,#517));
#524 = FACE_OUTER_BOUND('',#523,.T.);
#525 = ADVANCED_FACE('',(#524),#522,.T.);
#526 = CARTESIAN_POINT('',(-2.225,-0.315,-9.));
#527 = VERTEX_POINT('',#526);
#528 = DIRECTION('',(0.,1.,0.));
#529 = VECTOR('',#528,1.);
#530 = LINE('',#526,#529);
#531 = EDGE_CURVE('',#527,#393,#530,.T.);
#532 = ORIENTED_EDGE('',*,*,#531,.T.);
#533 = ORIENTED_EDGE('',*,*,#401,.F.);
#534 = ORIENTED_EDGE('',*,*,#509,.F.);
#535 = DIRECTION('',(0.,0.,-1.));
#536 = VECTOR('',#535,1.);
#537 = LINE('',#504,#536);
#538 = EDGE_CURVE('',#505,#527,#537,.T.);
#539 = ORIENTED_EDGE('',*,*,#538,.T.);
#540 = CARTESIAN_POINT('',(-2.225,-0.315,-9.));
#541 = DIRECTION('',(1.,0.,0.));
#542 = DIRECTION('',(0.,1.,0.));
#543 = AXIS2_PLACEMENT_3D('',#540,#541,#542);
#544 = PLANE('',#543);
#545 = EDGE_LOOP('',(#532,#533,#534,#539));
#546 = FACE_OUTER_BOUND('',#545,.T.);
#547 = ADVANCED_FACE('',(#546),#544,.T.);
#548 = ORIENTED_EDGE('',*,*,#538,.F.);
#549 = ORIENTED_EDGE('',*,*,#516,.T.);
#550 = ORIENTED_EDGE('',*,*,#433,.T.);
#551 = DIRECTION('',(-1.,0.,0.));
#552 = VECTOR('',#551,1.);
#553 = LINE('',#526,#552);
#554 = EDGE_CURVE('',#527,#427,#553,.T.);
#555 = ORIENTED_EDGE('',*,*,#554,.F.);
#556 = CARTESIAN_POINT('',(-2.225,-0.315,-9.));
#557 = DIRECTION('',(0.,-1.,0.));
#558 = DIRECTION('',(0.,0.,1.));
#559 = AXIS2_PLACEMENT_3D('',#556,#557,#558);
#560 = PLANE('',#559);
#561 = EDGE_LOOP('',(#548,#549,#550,#555));
#562 = FACE_OUTER_BOUND('',#561,.T.);
#563 = ADVANCED_FACE('',(#562),#560,.T.);
#564 = CARTESIAN_POINT('',(-2.365,-0.175,-9.6));
#565 = VERTEX_POINT('',#564);
#566 = DIRECTION('',(0.,1.,0.));
#567 = VECTOR('',#566,1.);
#568 = LINE('',#564,#567);
#569 = EDGE_CURVE('',#565,#483,#568,.T.);
#570 = ORIENTED_EDGE('',*,*,#569,.T.);
#571 = ORIENTED_EDGE('',*,*,#494,.F.);
#572 = ORIENTED_EDGE('',*,*,#531,.F.);
#573 = DIRECTION('',(-0.22158112824152176,0.22158112824152157,-0.9496334067493776));
#574 = VECTOR('',#573,1.);
#575 = LINE('',#526,#574);
#576 = EDGE_CURVE('',#527,#565,#575,.T.);
#577 = ORIENTED_EDGE('',*,*,#576,.T.);
#578 = CARTESIAN_POINT('',(-2.365,-0.175,-9.6));
#579 = DIRECTION('',(0.9738412097417932,0.,-0.2272296156064184));
#580 = DIRECTION('',(0.,1.,0.));
#581 = AXIS2_PLACEMENT_3D('',#578,#579,#580);
#582 = PLANE('',#581);
#583 = EDGE_LOOP('',(#570,#571,#572,#577));
#584 = FACE_OUTER_BOUND('',#583,.T.);
#585 = ADVANCED_FACE('',(#584),#582,.T.);
#586 = ORIENTED_EDGE('',*,*,#576,.F.);
#587 = ORIENTED_EDGE('',*,*,#554,.T.);
#588 = ORIENTED_EDGE('',*,*,#472,.F.);
#589 = DIRECTION('',(-1.,0.,0.));
#590 = VECTOR('',#589,1.);
#591 = LINE('',#564,#590);
#592 = EDGE_CURVE('',#565,#457,#591,.T.);
#593 = ORIENTED_EDGE('',*,*,#592,.F.);
#594 = CARTESIAN_POINT('',(-2.365,-0.175,-9.6));
#595 = DIRECTION('',(0.,-0.9738412097417933,-0.2272296156064183));
#596 = DIRECTION('',(0.22158112824152176,-0.22158112824152157,0.9496334067493776));
#597 = AXIS2_PLACEMENT_3D('',#594,#595,#596);
#598 = PLANE('',#597);
#599 = EDGE_LOOP('',(#586,#587,#588,#593));
#600 = FACE_OUTER_BOUND('',#599,.T.);
#601 = ADVANCED_FACE('',(#600),#598,.T.);
#602 = ORIENTED_EDGE('',*,*,#592,.T.);
#603 = ORIENTED_EDGE('',*,*,#467,.T.);
#604 = ORIENTED_EDGE('',*,*,#487,.F.);
#605 = ORIENTED_EDGE('',*,*,#569,.F.);
#606 = CARTESIAN_POINT('',(-2.365,-0.175,-9.6));
#607 = DIRECTION('',(0.,0.,-1.));
#608 = DIRECTION('',(-1.,0.,0.));
#609 = AXIS2_PLACEMENT_3D('',#606,#607,#608);
#610 = PLANE('',#609);
#611 = EDGE_LOOP('',(#602,#603,#604,#605));
#612 = FACE_OUTER_BOUND('',#611,.T.);
#613 = ADVANCED_FACE('',(#612),#610,.T.);
#614 = CLOSED_SHELL('',(#425,#453,#481,#503,#525,#547,#563,#585,#601,#613));
#615 = MANIFOLD_SOLID_BREP('',#614);
#616 = CARTESIAN_POINT('',(-1.27,-1.27,-3.6));
#617 = VERTEX_POINT('',#616);
#618 = CARTESIAN_POINT('',(-1.27,-1.27,-1.6));
#619 = VERTEX_POINT('',#618);
#620 = CARTESIAN_POINT('',(-1.27,1.27,-1.6));
#621 = VERTEX_POINT('',#620);
#622 = CARTESIAN_POINT('',(-1.27,1.27,-3.6));
#623 = VERTEX_POINT('',#622);
#624 = DIRECTION('',(0.,0.,-1.));
#625 = VECTOR('',#624,1.);
#626 = LINE('',#618,#625);
#627 = EDGE_CURVE('',#619,#617,#626,.T.);
#628 = ORIENTED_EDGE('',*,*,#627,.F.);
#629 = DIRECTION('',(0.,1.,0.));
#630 = VECTOR('',#629,1.);
#631 = LINE('',#618,#630);
#632 = EDGE_CURVE('',#619,#621,#631,.T.);
#633 = ORIENTED_EDGE('',*,*,#632,.T.);
#634 = DIRECTION('',(0.,0.,-1.));
#635 = VECTOR('',#634,1.);
#636 = LINE('',#620,#635);
#637 = EDGE_CURVE('',#621,#623,#636,.T.);
#638 = ORIENTED_EDGE('',*,*,#637,.T.);
#639 = DIRECTION('',(0.,1.,0.));
#640 = VECTOR('',#639,1.);
#641 = LINE('',#616,#640);
#642 = EDGE_CURVE('',#617,#623,#641,.T.);
#643 = ORIENTED_EDGE('',*,*,#642,.F.);
#644 = CARTESIAN_POINT('',(-1.27,-1.27,-3.6));
#645 = DIRECTION('',(-1.,0.,0.));
#646 = DIRECTION('',(0.,0.,1.));
#647 = AXIS2_PLACEMENT_3D('',#644,#645,#646);
#648 = PLANE('',#647);
#649 = EDGE_LOOP('',(#628,#633,#638,#643));
#650 = FACE_OUTER_BOUND('',#649,.T.);
#651 = ADVANCED_FACE('',(#650),#648,.T.);
#652 = CARTESIAN_POINT('',(1.27,-1.27,-3.6));
#653 = VERTEX_POINT('',#652);
#654 = CARTESIAN_POINT('',(1.27,1.27,-3.6));
#655 = VERTEX_POINT('',#654);
#656 = CARTESIAN_POINT('',(1.27,1.27,-1.6));
#657 = VERTEX_POINT('',#656);
#658 = CARTESIAN_POINT('',(1.27,-1.27,-1.6));
#659 = VERTEX_POINT('',#658);
#660 = DIRECTION('',(0.,1.,0.));
#661 = VECTOR('',#660,1.);
#662 = LINE('',#652,#661);
#663 = EDGE_CURVE('',#653,#655,#662,.T.);
#664 = ORIENTED_EDGE('',*,*,#663,.T.);
#665 = DIRECTION('',(0.,0.,-1.));
#666 = VECTOR('',#665,1.);
#667 = LINE('',#656,#666);
#668 = EDGE_CURVE('',#657,#655,#667,.T.);
#669 = ORIENTED_EDGE('',*,*,#668,.F.);
#670 = DIRECTION('',(0.,1.,0.));
#671 = VECTOR('',#670,1.);
#672 = LINE('',#658,#671);
#673 = EDGE_CURVE('',#659,#657,#672,.T.);
#674 = ORIENTED_EDGE('',*,*,#673,.F.);
#675 = DIRECTION('',(0.,0.,-1.));
#676 = VECTOR('',#675,1.);
#677 = LINE('',#658,#676);
#678 = EDGE_CURVE('',#659,#653,#677,.T.);
#679 = ORIENTED_EDGE('',*,*,#678,.T.);
#680 = CARTESIAN_POINT('',(1.27,-1.27,-3.6));
#681 = DIRECTION('',(1.,0.,0.));
#682 = DIRECTION('',(0.,1.,0.));
#683 = AXIS2_PLACEMENT_3D('',#680,#681,#682);
#684 = PLANE('',#683);
#685 = EDGE_LOOP('',(#664,#669,#674,#679));
#686 = FACE_OUTER_BOUND('',#685,.T.);
#687 = ADVANCED_FACE('',(#686),#684,.T.);
#688 = DIRECTION('',(1.,0.,0.));
#689 = VECTOR('',#688,1.);
#690 = LINE('',#616,#689);
#691 = EDGE_CURVE('',#617,#653,#690,.T.);
#692 = ORIENTED_EDGE('',*,*,#691,.T.);
#693 = ORIENTED_EDGE('',*,*,#678,.F.);
#694 = DIRECTION('',(1.,0.,0.));
#695 = VECTOR('',#694,1.);
#696 = LINE('',#618,#695);
#697 = EDGE_CURVE('',#619,#659,#696,.T.);
#698 = ORIENTED_EDGE('',*,*,#697,.F.);
#699 = ORIENTED_EDGE('',*,*,#627,.T.);
#700 = CARTESIAN_POINT('',(-1.27,-1.27,-3.6));
#701 = DIRECTION('',(0.,-1.,0.));
#702 = DIRECTION('',(1.,0.,0.));
#703 = AXIS2_PLACEMENT_3D('',#700,#701,#702);
#704 = PLANE('',#703);
#705 = EDGE_LOOP('',(#692,#693,#698,#699));
#706 = FACE_OUTER_BOUND('',#705,.T.);
#707 = ADVANCED_FACE('',(#706),#704,.T.);
#708 = ORIENTED_EDGE('',*,*,#637,.F.);
#709 = DIRECTION('',(1.,0.,0.));
#710 = VECTOR('',#709,1.);
#711 = LINE('',#620,#710);
#712 = EDGE_CURVE('',#621,#657,#711,.T.);
#713 = ORIENTED_EDGE('',*,*,#712,.T.);
#714 = ORIENTED_EDGE('',*,*,#668,.T.);
#715 = DIRECTION('',(1.,0.,0.));
#716 = VECTOR('',#715,1.);
#717 = LINE('',#622,#716);
#718 = EDGE_CURVE('',#623,#655,#717,.T.);
#719 = ORIENTED_EDGE('',*,*,#718,.F.);
#720 = CARTESIAN_POINT('',(-1.27,1.27,-3.6));
#721 = DIRECTION('',(0.,1.,0.));
#722 = DIRECTION('',(0.,0.,1.));
#723 = AXIS2_PLACEMENT_3D('',#720,#721,#722);
#724 = PLANE('',#723);
#725 = EDGE_LOOP('',(#708,#713,#714,#719));
#726 = FACE_OUTER_BOUND('',#725,.T.);
#727 = ADVANCED_FACE('',(#726),#724,.T.);
#728 = ORIENTED_EDGE('',*,*,#642,.T.);
#729 = ORIENTED_EDGE('',*,*,#718,.T.);
#730 = ORIENTED_EDGE('',*,*,#663,.F.);
#731 = ORIENTED_EDGE('',*,*,#691,.F.);
#732 = CARTESIAN_POINT('',(-1.27,-1.27,-3.6));
#733 = DIRECTION('',(0.,0.,-1.));
#734 = DIRECTION('',(0.,1.,0.));
#735 = AXIS2_PLACEMENT_3D('',#732,#733,#734);
#736 = PLANE('',#735);
#737 = EDGE_LOOP('',(#728,#729,#730,#731));
#738 = FACE_OUTER_BOUND('',#737,.T.);
#739 = ADVANCED_FACE('',(#738),#736,.T.);
#740 = ORIENTED_EDGE('',*,*,#697,.T.);
#741 = ORIENTED_EDGE('',*,*,#673,.T.);
#742 = ORIENTED_EDGE('',*,*,#712,.F.);
#743 = ORIENTED_EDGE('',*,*,#632,.F.);
#744 = CARTESIAN_POINT('',(-1.27,-1.27,-1.6));
#745 = DIRECTION('',(0.,0.,1.));
#746 = DIRECTION('',(1.,0.,0.));
#747 = AXIS2_PLACEMENT_3D('',#744,#745,#746);
#748 = PLANE('',#747);
#749 = EDGE_LOOP('',(#740,#741,#742,#743));
#750 = FACE_OUTER_BOUND('',#749,.T.);
#751 = ADVANCED_FACE('',(#750),#748,.T.);
#752 = CLOSED_SHELL('',(#651,#687,#707,#727,#739,#751));
#753 = MANIFOLD_SOLID_BREP('',#752);
#754 = COLOUR_RGB('',0.13333333333333333,0.13333333333333333,0.13333333333333333);
#755 = FILL_AREA_STYLE_COLOUR('',#754);
#756 = FILL_AREA_STYLE('',(#755));
#757 = SURFACE_STYLE_FILL_AREA(#756);
#758 = SURFACE_SIDE_STYLE('',(#757));
#759 = SURFACE_STYLE_USAGE(.BOTH.,#758);
#760 = PRESENTATION_STYLE_ASSIGNMENT((#759));
#761 = STYLED_ITEM('',(#760),#753);
#762 = CARTESIAN_POINT('',(-0.315,0.315,-2.1500000000000004));
#763 = VERTEX_POINT('',#762);
#764 = CARTESIAN_POINT('',(-0.315,-0.315,-2.1500000000000004));
#765 = VERTEX_POINT('',#764);
#766 = CARTESIAN_POINT('',(-0.315,-0.315,0.5499999999999998));
#767 = VERTEX_POINT('',#766);
#768 = CARTESIAN_POINT('',(-0.315,0.315,0.5499999999999998));
#769 = VERTEX_POINT('',#768);
#770 = DIRECTION('',(0.,1.,0.));
#771 = VECTOR('',#770,1.);
#772 = LINE('',#764,#771);
#773 = EDGE_CURVE('',#765,#763,#772,.T.);
#774 = ORIENTED_EDGE('',*,*,#773,.F.);
#775 = DIRECTION('',(0.,0.,1.));
#776 = VECTOR('',#775,1.);
#777 = LINE('',#764,#776);
#778 = EDGE_CURVE('',#765,#767,#777,.T.);
#779 = ORIENTED_EDGE('',*,*,#778,.T.);
#780 = DIRECTION('',(0.,1.,0.));
#781 = VECTOR('',#780,1.);
#782 = LINE('',#766,#781);
#783 = EDGE_CURVE('',#767,#769,#782,.T.);
#784 = ORIENTED_EDGE('',*,*,#783,.T.);
#785 = DIRECTION('',(0.,0.,1.));
#786 = VECTOR('',#785,1.);
#787 = LINE('',#762,#786);
#788 = EDGE_CURVE('',#763,#769,#787,.T.);
#789 = ORIENTED_EDGE('',*,*,#788,.F.);
#790 = CARTESIAN_POINT('',(-0.315,0.315,-2.1500000000000004));
#791 = DIRECTION('',(-1.,0.,0.));
#792 = DIRECTION('',(0.,-1.,0.));
#793 = AXIS2_PLACEMENT_3D('',#790,#791,#792);
#794 = PLANE('',#793);
#795 = EDGE_LOOP('',(#774,#779,#784,#789));
#796 = FACE_OUTER_BOUND('',#795,.T.);
#797 = ADVANCED_FACE('',(#796),#794,.T.);
#798 = CARTESIAN_POINT('',(0.315,0.315,0.5499999999999998));
#799 = VERTEX_POINT('',#798);
#800 = CARTESIAN_POINT('',(0.315,0.315,-2.1500000000000004));
#801 = VERTEX_POINT('',#800);
#802 = DIRECTION('',(0.,0.,1.));
#803 = VECTOR('',#802,1.);
#804 = LINE('',#800,#803);
#805 = EDGE_CURVE('',#801,#799,#804,.T.);
#806 = ORIENTED_EDGE('',*,*,#805,.F.);
#807 = DIRECTION('',(1.,0.,0.));
#808 = VECTOR('',#807,1.);
#809 = LINE('',#762,#808);
#810 = EDGE_CURVE('',#763,#801,#809,.T.);
#811 = ORIENTED_EDGE('',*,*,#810,.F.);
#812 = ORIENTED_EDGE('',*,*,#788,.T.);
#813 = DIRECTION('',(1.,0.,0.));
#814 = VECTOR('',#813,1.);
#815 = LINE('',#768,#814);
#816 = EDGE_CURVE('',#769,#799,#815,.T.);
#817 = ORIENTED_EDGE('',*,*,#816,.T.);
#818 = CARTESIAN_POINT('',(0.315,0.315,0.5499999999999998));
#819 = DIRECTION('',(0.,1.,0.));
#820 = DIRECTION('',(0.,0.,-1.));
#821 = AXIS2_PLACEMENT_3D('',#818,#819,#820);
#822 = PLANE('',#821);
#823 = EDGE_LOOP('',(#806,#811,#812,#817));
#824 = FACE_OUTER_BOUND('',#823,.T.);
#825 = ADVANCED_FACE('',(#824),#822,.T.);
#826 = CARTESIAN_POINT('',(-0.175,0.175,0.8999999999999999));
#827 = VERTEX_POINT('',#826);
#828 = CARTESIAN_POINT('',(-0.175,-0.175,0.8999999999999999));
#829 = VERTEX_POINT('',#828);
#830 = DIRECTION('',(-0.3481553119113956,0.3481553119113956,-0.8703882797784892));
#831 = VECTOR('',#830,1.);
#832 = LINE('',#826,#831);
#833 = EDGE_CURVE('',#827,#769,#832,.T.);
#834 = ORIENTED_EDGE('',*,*,#833,.T.);
#835 = ORIENTED_EDGE('',*,*,#783,.F.);
#836 = DIRECTION('',(-0.3481553119113956,-0.3481553119113956,-0.8703882797784892));
#837 = VECTOR('',#836,1.);
#838 = LINE('',#828,#837);
#839 = EDGE_CURVE('',#829,#767,#838,.T.);
#840 = ORIENTED_EDGE('',*,*,#839,.F.);
#841 = DIRECTION('',(0.,1.,0.));
#842 = VECTOR('',#841,1.);
#843 = LINE('',#828,#842);
#844 = EDGE_CURVE('',#829,#827,#843,.T.);
#845 = ORIENTED_EDGE('',*,*,#844,.T.);
#846 = CARTESIAN_POINT('',(-0.175,0.175,0.8999999999999999));
#847 = DIRECTION('',(-0.9284766908852594,0.,0.3713906763541037));
#848 = DIRECTION('',(-0.3481553119113956,0.3481553119113956,-0.8703882797784892));
#849 = AXIS2_PLACEMENT_3D('',#846,#847,#848);
#850 = PLANE('',#849);
#851 = EDGE_LOOP('',(#834,#835,#840,#845));
#852 = FACE_OUTER_BOUND('',#851,.T.);
#853 = ADVANCED_FACE('',(#852),#850,.T.);
#854 = CARTESIAN_POINT('',(0.315,-0.315,-2.1500000000000004));
#855 = VERTEX_POINT('',#854);
#856 = CARTESIAN_POINT('',(0.315,-0.315,0.5499999999999998));
#857 = VERTEX_POINT('',#856);
#858 = DIRECTION('',(0.,1.,0.));
#859 = VECTOR('',#858,1.);
#860 = LINE('',#854,#859);
#861 = EDGE_CURVE('',#855,#801,#860,.T.);
#862 = ORIENTED_EDGE('',*,*,#861,.T.);
#863 = ORIENTED_EDGE('',*,*,#805,.T.);
#864 = DIRECTION('',(0.,1.,0.));
#865 = VECTOR('',#864,1.);
#866 = LINE('',#856,#865);
#867 = EDGE_CURVE('',#857,#799,#866,.T.);
#868 = ORIENTED_EDGE('',*,*,#867,.F.);
#869 = DIRECTION('',(0.,0.,1.));
#870 = VECTOR('',#869,1.);
#871 = LINE('',#854,#870);
#872 = EDGE_CURVE('',#855,#857,#871,.T.);
#873 = ORIENTED_EDGE('',*,*,#872,.F.);
#874 = CARTESIAN_POINT('',(0.315,-0.315,-2.1500000000000004));
#875 = DIRECTION('',(1.,0.,0.));
#876 = DIRECTION('',(0.,1.,0.));
#877 = AXIS2_PLACEMENT_3D('',#874,#875,#876);
#878 = PLANE('',#877);
#879 = EDGE_LOOP('',(#862,#863,#868,#873));
#880 = FACE_OUTER_BOUND('',#879,.T.);
#881 = ADVANCED_FACE('',(#880),#878,.T.);
#882 = ORIENTED_EDGE('',*,*,#872,.T.);
#883 = DIRECTION('',(1.,0.,0.));
#884 = VECTOR('',#883,1.);
#885 = LINE('',#766,#884);
#886 = EDGE_CURVE('',#767,#857,#885,.T.);
#887 = ORIENTED_EDGE('',*,*,#886,.F.);
#888 = ORIENTED_EDGE('',*,*,#778,.F.);
#889 = DIRECTION('',(1.,0.,0.));
#890 = VECTOR('',#889,1.);
#891 = LINE('',#764,#890);
#892 = EDGE_CURVE('',#765,#855,#891,.T.);
#893 = ORIENTED_EDGE('',*,*,#892,.T.);
#894 = CARTESIAN_POINT('',(0.315,-0.315,-2.1500000000000004));
#895 = DIRECTION('',(0.,-1.,0.));
#896 = DIRECTION('',(0.,0.,1.));
#897 = AXIS2_PLACEMENT_3D('',#894,#895,#896);
#898 = PLANE('',#897);
#899 = EDGE_LOOP('',(#882,#887,#888,#893));
#900 = FACE_OUTER_BOUND('',#899,.T.);
#901 = ADVANCED_FACE('',(#900),#898,.T.);
#902 = ORIENTED_EDGE('',*,*,#892,.F.);
#903 = ORIENTED_EDGE('',*,*,#773,.T.);
#904 = ORIENTED_EDGE('',*,*,#810,.T.);
#905 = ORIENTED_EDGE('',*,*,#861,.F.);
#906 = CARTESIAN_POINT('',(0.315,-0.315,-2.1500000000000004));
#907 = DIRECTION('',(0.,0.,-1.));
#908 = DIRECTION('',(-1.,0.,0.));
#909 = AXIS2_PLACEMENT_3D('',#906,#907,#908);
#910 = PLANE('',#909);
#911 = EDGE_LOOP('',(#902,#903,#904,#905));
#912 = FACE_OUTER_BOUND('',#911,.T.);
#913 = ADVANCED_FACE('',(#912),#910,.T.);
#914 = CARTESIAN_POINT('',(0.175,0.175,0.8999999999999999));
#915 = VERTEX_POINT('',#914);
#916 = DIRECTION('',(0.3481553119113956,0.3481553119113956,-0.8703882797784892));
#917 = VECTOR('',#916,1.);
#918 = LINE('',#914,#917);
#919 = EDGE_CURVE('',#915,#799,#918,.T.);
#920 = ORIENTED_EDGE('',*,*,#919,.T.);
#921 = ORIENTED_EDGE('',*,*,#816,.F.);
#922 = ORIENTED_EDGE('',*,*,#833,.F.);
#923 = DIRECTION('',(1.,0.,0.));
#924 = VECTOR('',#923,1.);
#925 = LINE('',#826,#924);
#926 = EDGE_CURVE('',#827,#915,#925,.T.);
#927 = ORIENTED_EDGE('',*,*,#926,.T.);
#928 = CARTESIAN_POINT('',(0.175,0.175,0.8999999999999999));
#929 = DIRECTION('',(0.,0.9284766908852591,0.37139067635410367));
#930 = DIRECTION('',(0.3481553119113956,0.3481553119113956,-0.8703882797784892));
#931 = AXIS2_PLACEMENT_3D('',#928,#929,#930);
#932 = PLANE('',#931);
#933 = EDGE_LOOP('',(#920,#921,#922,#927));
#934 = FACE_OUTER_BOUND('',#933,.T.);
#935 = ADVANCED_FACE('',(#934),#932,.T.);
#936 = CARTESIAN_POINT('',(0.175,-0.175,0.8999999999999999));
#937 = VERTEX_POINT('',#936);
#938 = DIRECTION('',(0.3481553119113956,-0.3481553119113956,-0.8703882797784892));
#939 = VECTOR('',#938,1.);
#940 = LINE('',#936,#939);
#941 = EDGE_CURVE('',#937,#857,#940,.T.);
#942 = ORIENTED_EDGE('',*,*,#941,.T.);
#943 = ORIENTED_EDGE('',*,*,#867,.T.);
#944 = ORIENTED_EDGE('',*,*,#919,.F.);
#945 = DIRECTION('',(0.,1.,0.));
#946 = VECTOR('',#945,1.);
#947 = LINE('',#936,#946);
#948 = EDGE_CURVE('',#937,#915,#947,.T.);
#949 = ORIENTED_EDGE('',*,*,#948,.F.);
#950 = CARTESIAN_POINT('',(0.175,-0.175,0.8999999999999999));
#951 = DIRECTION('',(0.9284766908852594,0.,0.3713906763541037));
#952 = DIRECTION('',(0.3481553119113956,-0.3481553119113956,-0.8703882797784892));
#953 = AXIS2_PLACEMENT_3D('',#950,#951,#952);
#954 = PLANE('',#953);
#955 = EDGE_LOOP('',(#942,#943,#944,#949));
#956 = FACE_OUTER_BOUND('',#955,.T.);
#957 = ADVANCED_FACE('',(#956),#954,.T.);
#958 = ORIENTED_EDGE('',*,*,#948,.T.);
#959 = ORIENTED_EDGE('',*,*,#926,.F.);
#960 = ORIENTED_EDGE('',*,*,#844,.F.);
#961 = DIRECTION('',(1.,0.,0.));
#962 = VECTOR('',#961,1.);
#963 = LINE('',#828,#962);
#964 = EDGE_CURVE('',#829,#937,#963,.T.);
#965 = ORIENTED_EDGE('',*,*,#964,.T.);
#966 = CARTESIAN_POINT('',(0.175,-0.175,0.8999999999999999));
#967 = DIRECTION('',(0.,0.,1.));
#968 = DIRECTION('',(0.,1.,0.));
#969 = AXIS2_PLACEMENT_3D('',#966,#967,#968);
#970 = PLANE('',#969);
#971 = EDGE_LOOP('',(#958,#959,#960,#965));
#972 = FACE_OUTER_BOUND('',#971,.T.);
#973 = ADVANCED_FACE('',(#972),#970,.T.);
#974 = ORIENTED_EDGE('',*,*,#964,.F.);
#975 = ORIENTED_EDGE('',*,*,#839,.T.);
#976 = ORIENTED_EDGE('',*,*,#886,.T.);
#977 = ORIENTED_EDGE('',*,*,#941,.F.);
#978 = CARTESIAN_POINT('',(0.175,-0.175,0.8999999999999999));
#979 = DIRECTION('',(0.,-0.9284766908852591,0.37139067635410367));
#980 = DIRECTION('',(-1.,0.,0.));
#981 = AXIS2_PLACEMENT_3D('',#978,#979,#980);
#982 = PLANE('',#981);
#983 = EDGE_LOOP('',(#974,#975,#976,#977));
#984 = FACE_OUTER_BOUND('',#983,.T.);
#985 = ADVANCED_FACE('',(#984),#982,.T.);
#986 = CLOSED_SHELL('',(#797,#825,#853,#881,#901,#913,#935,#957,#973,#985));
#987 = MANIFOLD_SOLID_BREP('',#986);
#988 = CARTESIAN_POINT('',(0.315,0.315,-3.6000000000000005));
#989 = VERTEX_POINT('',#988);
#990 = CARTESIAN_POINT('',(0.315,0.315,-9.));
#991 = VERTEX_POINT('',#990);
#992 = CARTESIAN_POINT('',(-0.315,0.315,-9.));
#993 = VERTEX_POINT('',#992);
#994 = CARTESIAN_POINT('',(-0.315,0.315,-3.6000000000000005));
#995 = VERTEX_POINT('',#994);
#996 = DIRECTION('',(0.,0.,-1.));
#997 = VECTOR('',#996,1.);
#998 = LINE('',#988,#997);
#999 = EDGE_CURVE('',#989,#991,#998,.T.);
#1000 = ORIENTED_EDGE('',*,*,#999,.T.);
#1001 = DIRECTION('',(1.,0.,0.));
#1002 = VECTOR('',#1001,1.);
#1003 = LINE('',#992,#1002);
#1004 = EDGE_CURVE('',#993,#991,#1003,.T.);
#1005 = ORIENTED_EDGE('',*,*,#1004,.F.);
#1006 = DIRECTION('',(0.,0.,-1.));
#1007 = VECTOR('',#1006,1.);
#1008 = LINE('',#994,#1007);
#1009 = EDGE_CURVE('',#995,#993,#1008,.T.);
#1010 = ORIENTED_EDGE('',*,*,#1009,.F.);
#1011 = DIRECTION('',(1.,0.,0.));
#1012 = VECTOR('',#1011,1.);
#1013 = LINE('',#994,#1012);
#1014 = EDGE_CURVE('',#995,#989,#1013,.T.);
#1015 = ORIENTED_EDGE('',*,*,#1014,.T.);
#1016 = CARTESIAN_POINT('',(0.315,0.315,-3.6000000000000005));
#1017 = DIRECTION('',(0.,1.,0.));
#1018 = DIRECTION('',(0.,0.,-1.));
#1019 = AXIS2_PLACEMENT_3D('',#1016,#1017,#1018);
#1020 = PLANE('',#1019);
#1021 = EDGE_LOOP('',(#1000,#1005,#1010,#1015));
#1022 = FACE_OUTER_BOUND('',#1021,.T.);
#1023 = ADVANCED_FACE('',(#1022),#1020,.T.);
#1024 = CARTESIAN_POINT('',(-0.315,-0.315,-9.));
#1025 = VERTEX_POINT('',#1024);
#1026 = CARTESIAN_POINT('',(-0.315,-0.315,-3.6000000000000005));
#1027 = VERTEX_POINT('',#1026);
#1028 = DIRECTION('',(0.,0.,-1.));
#1029 = VECTOR('',#1028,1.);
#1030 = LINE('',#1026,#1029);
#1031 = EDGE_CURVE('',#1027,#1025,#1030,.T.);
#1032 = ORIENTED_EDGE('',*,*,#1031,.F.);
#1033 = DIRECTION('',(0.,1.,0.));
#1034 = VECTOR('',#1033,1.);
#1035 = LINE('',#1026,#1034);
#1036 = EDGE_CURVE('',#1027,#995,#1035,.T.);
#1037 = ORIENTED_EDGE('',*,*,#1036,.T.);
#1038 = ORIENTED_EDGE('',*,*,#1009,.T.);
#1039 = DIRECTION('',(0.,1.,0.));
#1040 = VECTOR('',#1039,1.);
#1041 = LINE('',#1024,#1040);
#1042 = EDGE_CURVE('',#1025,#993,#1041,.T.);
#1043 = ORIENTED_EDGE('',*,*,#1042,.F.);
#1044 = CARTESIAN_POINT('',(-0.315,-0.315,-9.));
#1045 = DIRECTION('',(-1.,0.,0.));
#1046 = DIRECTION('',(0.,0.,1.));
#1047 = AXIS2_PLACEMENT_3D('',#1044,#1045,#1046);
#1048 = PLANE('',#1047);
#1049 = EDGE_LOOP('',(#1032,#1037,#1038,#1043));
#1050 = FACE_OUTER_BOUND('',#1049,.T.);
#1051 = ADVANCED_FACE('',(#1050),#1048,.T.);
#1052 = CARTESIAN_POINT('',(-0.175,0.175,-9.6));
#1053 = VERTEX_POINT('',#1052);
#1054 = CARTESIAN_POINT('',(-0.175,-0.175,-9.6));
#1055 = VERTEX_POINT('',#1054);
#1056 = ORIENTED_EDGE('',*,*,#1042,.T.);
#1057 = DIRECTION('',(-0.22158112824152157,0.22158112824152157,0.9496334067493776));
#1058 = VECTOR('',#1057,1.);
#1059 = LINE('',#1052,#1058);
#1060 = EDGE_CURVE('',#1053,#993,#1059,.T.);
#1061 = ORIENTED_EDGE('',*,*,#1060,.F.);
#1062 = DIRECTION('',(0.,1.,0.));
#1063 = VECTOR('',#1062,1.);
#1064 = LINE('',#1054,#1063);
#1065 = EDGE_CURVE('',#1055,#1053,#1064,.T.);
#1066 = ORIENTED_EDGE('',*,*,#1065,.F.);
#1067 = DIRECTION('',(-0.22158112824152157,-0.22158112824152157,0.9496334067493776));
#1068 = VECTOR('',#1067,1.);
#1069 = LINE('',#1054,#1068);
#1070 = EDGE_CURVE('',#1055,#1025,#1069,.T.);
#1071 = ORIENTED_EDGE('',*,*,#1070,.T.);
#1072 = CARTESIAN_POINT('',(-0.315,-0.315,-9.));
#1073 = DIRECTION('',(-0.9738412097417934,0.,-0.22722961560641794));
#1074 = DIRECTION('',(0.,1.,0.));
#1075 = AXIS2_PLACEMENT_3D('',#1072,#1073,#1074);
#1076 = PLANE('',#1075);
#1077 = EDGE_LOOP('',(#1056,#1061,#1066,#1071));
#1078 = FACE_OUTER_BOUND('',#1077,.T.);
#1079 = ADVANCED_FACE('',(#1078),#1076,.T.);
#1080 = CARTESIAN_POINT('',(0.175,0.175,-9.6));
#1081 = VERTEX_POINT('',#1080);
#1082 = DIRECTION('',(1.,0.,0.));
#1083 = VECTOR('',#1082,1.);
#1084 = LINE('',#1052,#1083);
#1085 = EDGE_CURVE('',#1053,#1081,#1084,.T.);
#1086 = ORIENTED_EDGE('',*,*,#1085,.F.);
#1087 = ORIENTED_EDGE('',*,*,#1060,.T.);
#1088 = ORIENTED_EDGE('',*,*,#1004,.T.);
#1089 = DIRECTION('',(0.22158112824152157,0.22158112824152157,0.9496334067493776));
#1090 = VECTOR('',#1089,1.);
#1091 = LINE('',#1080,#1090);
#1092 = EDGE_CURVE('',#1081,#991,#1091,.T.);
#1093 = ORIENTED_EDGE('',*,*,#1092,.F.);
#1094 = CARTESIAN_POINT('',(0.175,0.175,-9.6));
#1095 = DIRECTION('',(0.,0.9738412097417931,-0.2272296156064186));
#1096 = DIRECTION('',(-1.,0.,0.));
#1097 = AXIS2_PLACEMENT_3D('',#1094,#1095,#1096);
#1098 = PLANE('',#1097);
#1099 = EDGE_LOOP('',(#1086,#1087,#1088,#1093));
#1100 = FACE_OUTER_BOUND('',#1099,.T.);
#1101 = ADVANCED_FACE('',(#1100),#1098,.T.);
#1102 = CARTESIAN_POINT('',(0.315,-0.315,-3.6000000000000005));
#1103 = VERTEX_POINT('',#1102);
#1104 = DIRECTION('',(0.,1.,0.));
#1105 = VECTOR('',#1104,1.);
#1106 = LINE('',#1102,#1105);
#1107 = EDGE_CURVE('',#1103,#989,#1106,.T.);
#1108 = ORIENTED_EDGE('',*,*,#1107,.T.);
#1109 = ORIENTED_EDGE('',*,*,#1014,.F.);
#1110 = ORIENTED_EDGE('',*,*,#1036,.F.);
#1111 = DIRECTION('',(1.,0.,0.));
#1112 = VECTOR('',#1111,1.);
#1113 = LINE('',#1026,#1112);
#1114 = EDGE_CURVE('',#1027,#1103,#1113,.T.);
#1115 = ORIENTED_EDGE('',*,*,#1114,.T.);
#1116 = CARTESIAN_POINT('',(0.315,-0.315,-3.6000000000000005));
#1117 = DIRECTION('',(0.,0.,1.));
#1118 = DIRECTION('',(0.,1.,0.));
#1119 = AXIS2_PLACEMENT_3D('',#1116,#1117,#1118);
#1120 = PLANE('',#1119);
#1121 = EDGE_LOOP('',(#1108,#1109,#1110,#1115));
#1122 = FACE_OUTER_BOUND('',#1121,.T.);
#1123 = ADVANCED_FACE('',(#1122),#1120,.T.);
#1124 = CARTESIAN_POINT('',(0.315,-0.315,-9.));
#1125 = VERTEX_POINT('',#1124);
#1126 = DIRECTION('',(0.,1.,0.));
#1127 = VECTOR('',#1126,1.);
#1128 = LINE('',#1124,#1127);
#1129 = EDGE_CURVE('',#1125,#991,#1128,.T.);
#1130 = ORIENTED_EDGE('',*,*,#1129,.T.);
#1131 = ORIENTED_EDGE('',*,*,#999,.F.);
#1132 = ORIENTED_EDGE('',*,*,#1107,.F.);
#1133 = DIRECTION('',(0.,0.,-1.));
#1134 = VECTOR('',#1133,1.);
#1135 = LINE('',#1102,#1134);
#1136 = EDGE_CURVE('',#1103,#1125,#1135,.T.);
#1137 = ORIENTED_EDGE('',*,*,#1136,.T.);
#1138 = CARTESIAN_POINT('',(0.315,-0.315,-9.));
#1139 = DIRECTION('',(1.,0.,0.));
#1140 = DIRECTION('',(0.,1.,0.));
#1141 = AXIS2_PLACEMENT_3D('',#1138,#1139,#1140);
#1142 = PLANE('',#1141);
#1143 = EDGE_LOOP('',(#1130,#1131,#1132,#1137));
#1144 = FACE_OUTER_BOUND('',#1143,.T.);
#1145 = ADVANCED_FACE('',(#1144),#1142,.T.);
#1146 = ORIENTED_EDGE('',*,*,#1136,.F.);
#1147 = ORIENTED_EDGE('',*,*,#1114,.F.);
#1148 = ORIENTED_EDGE('',*,*,#1031,.T.);
#1149 = DIRECTION('',(1.,0.,0.));
#1150 = VECTOR('',#1149,1.);
#1151 = LINE('',#1024,#1150);
#1152 = EDGE_CURVE('',#1025,#1125,#1151,.T.);
#1153 = ORIENTED_EDGE('',*,*,#1152,.T.);
#1154 = CARTESIAN_POINT('',(0.315,-0.315,-9.));
#1155 = DIRECTION('',(0.,-1.,0.));
#1156 = DIRECTION('',(0.,0.,1.));
#1157 = AXIS2_PLACEMENT_3D('',#1154,#1155,#1156);
#1158 = PLANE('',#1157);
#1159 = EDGE_LOOP('',(#1146,#1147,#1148,#1153));
#1160 = FACE_OUTER_BOUND('',#1159,.T.);
#1161 = ADVANCED_FACE('',(#1160),#1158,.T.);
#1162 = CARTESIAN_POINT('',(0.175,-0.175,-9.6));
#1163 = VERTEX_POINT('',#1162);
#1164 = DIRECTION('',(0.,1.,0.));
#1165 = VECTOR('',#1164,1.);
#1166 = LINE('',#1162,#1165);
#1167 = EDGE_CURVE('',#1163,#1081,#1166,.T.);
#1168 = ORIENTED_EDGE('',*,*,#1167,.T.);
#1169 = ORIENTED_EDGE('',*,*,#1092,.T.);
#1170 = ORIENTED_EDGE('',*,*,#1129,.F.);
#1171 = DIRECTION('',(0.22158112824152157,-0.22158112824152157,0.9496334067493776));
#1172 = VECTOR('',#1171,1.);
#1173 = LINE('',#1162,#1172);
#1174 = EDGE_CURVE('',#1163,#1125,#1173,.T.);
#1175 = ORIENTED_EDGE('',*,*,#1174,.F.);
#1176 = CARTESIAN_POINT('',(0.175,-0.175,-9.6));
#1177 = DIRECTION('',(0.9738412097417933,0.,-0.22722961560641827));
#1178 = DIRECTION('',(0.,1.,0.));
#1179 = AXIS2_PLACEMENT_3D('',#1176,#1177,#1178);
#1180 = PLANE('',#1179);
#1181 = EDGE_LOOP('',(#1168,#1169,#1170,#1175));
#1182 = FACE_OUTER_BOUND('',#1181,.T.);
#1183 = ADVANCED_FACE('',(#1182),#1180,.T.);
#1184 = ORIENTED_EDGE('',*,*,#1174,.T.);
#1185 = ORIENTED_EDGE('',*,*,#1152,.F.);
#1186 = ORIENTED_EDGE('',*,*,#1070,.F.);
#1187 = DIRECTION('',(1.,0.,0.));
#1188 = VECTOR('',#1187,1.);
#1189 = LINE('',#1054,#1188);
#1190 = EDGE_CURVE('',#1055,#1163,#1189,.T.);
#1191 = ORIENTED_EDGE('',*,*,#1190,.T.);
#1192 = CARTESIAN_POINT('',(0.175,-0.175,-9.6));
#1193 = DIRECTION('',(0.,-0.9738412097417931,-0.2272296156064186));
#1194 = DIRECTION('',(0.22158112824152157,-0.22158112824152157,0.9496334067493776));
#1195 = AXIS2_PLACEMENT_3D('',#1192,#1193,#1194);
#1196 = PLANE('',#1195);
#1197 = EDGE_LOOP('',(#1184,#1185,#1186,#1191));
#1198 = FACE_OUTER_BOUND('',#1197,.T.);
#1199 = ADVANCED_FACE('',(#1198),#1196,.T.);
#1200 = ORIENTED_EDGE('',*,*,#1190,.F.);
#1201 = ORIENTED_EDGE('',*,*,#1065,.T.);
#1202 = ORIENTED_EDGE('',*,*,#1085,.T.);
#1203 = ORIENTED_EDGE('',*,*,#1167,.F.);
#1204 = CARTESIAN_POINT('',(0.175,-0.175,-9.6));
#1205 = DIRECTION('',(0.,0.,-1.));
#1206 = DIRECTION('',(-1.,0.,0.));
#1207 = AXIS2_PLACEMENT_3D('',#1204,#1205,#1206);
#1208 = PLANE('',#1207);
#1209 = EDGE_LOOP('',(#1200,#1201,#1202,#1203));
#1210 = FACE_OUTER_BOUND('',#1209,.T.);
#1211 = ADVANCED_FACE('',(#1210),#1208,.T.);
#1212 = CLOSED_SHELL('',(#1023,#1051,#1079,#1101,#1123,#1145,#1161,#1183,#1199,#1211));
#1213 = MANIFOLD_SOLID_BREP('',#1212);
#1214 = CARTESIAN_POINT('',(1.27,-1.27,-3.6));
#1215 = VERTEX_POINT('',#1214);
#1216 = CARTESIAN_POINT('',(1.27,-1.27,-1.6));
#1217 = VERTEX_POINT('',#1216);
#1218 = CARTESIAN_POINT('',(1.27,1.27,-1.6));
#1219 = VERTEX_POINT('',#1218);
#1220 = CARTESIAN_POINT('',(1.27,1.27,-3.6));
#1221 = VERTEX_POINT('',#1220);
#1222 = DIRECTION('',(0.,0.,-1.));
#1223 = VECTOR('',#1222,1.);
#1224 = LINE('',#1216,#1223);
#1225 = EDGE_CURVE('',#1217,#1215,#1224,.T.);
#1226 = ORIENTED_EDGE('',*,*,#1225,.F.);
#1227 = DIRECTION('',(0.,1.,0.));
#1228 = VECTOR('',#1227,1.);
#1229 = LINE('',#1216,#1228);
#1230 = EDGE_CURVE('',#1217,#1219,#1229,.T.);
#1231 = ORIENTED_EDGE('',*,*,#1230,.T.);
#1232 = DIRECTION('',(0.,0.,-1.));
#1233 = VECTOR('',#1232,1.);
#1234 = LINE('',#1218,#1233);
#1235 = EDGE_CURVE('',#1219,#1221,#1234,.T.);
#1236 = ORIENTED_EDGE('',*,*,#1235,.T.);
#1237 = DIRECTION('',(0.,1.,0.));
#1238 = VECTOR('',#1237,1.);
#1239 = LINE('',#1214,#1238);
#1240 = EDGE_CURVE('',#1215,#1221,#1239,.T.);
#1241 = ORIENTED_EDGE('',*,*,#1240,.F.);
#1242 = CARTESIAN_POINT('',(1.27,-1.27,-3.6));
#1243 = DIRECTION('',(-1.,0.,0.));
#1244 = DIRECTION('',(0.,0.,1.));
#1245 = AXIS2_PLACEMENT_3D('',#1242,#1243,#1244);
#1246 = PLANE('',#1245);
#1247 = EDGE_LOOP('',(#1226,#1231,#1236,#1241));
#1248 = FACE_OUTER_BOUND('',#1247,.T.);
#1249 = ADVANCED_FACE('',(#1248),#1246,.T.);
#1250 = CARTESIAN_POINT('',(3.81,-1.27,-3.6));
#1251 = VERTEX_POINT('',#1250);
#1252 = CARTESIAN_POINT('',(3.81,1.27,-3.6));
#1253 = VERTEX_POINT('',#1252);
#1254 = CARTESIAN_POINT('',(3.81,1.27,-1.6));
#1255 = VERTEX_POINT('',#1254);
#1256 = CARTESIAN_POINT('',(3.81,-1.27,-1.6));
#1257 = VERTEX_POINT('',#1256);
#1258 = DIRECTION('',(0.,1.,0.));
#1259 = VECTOR('',#1258,1.);
#1260 = LINE('',#1250,#1259);
#1261 = EDGE_CURVE('',#1251,#1253,#1260,.T.);
#1262 = ORIENTED_EDGE('',*,*,#1261,.T.);
#1263 = DIRECTION('',(0.,0.,-1.));
#1264 = VECTOR('',#1263,1.);
#1265 = LINE('',#1254,#1264);
#1266 = EDGE_CURVE('',#1255,#1253,#1265,.T.);
#1267 = ORIENTED_EDGE('',*,*,#1266,.F.);
#1268 = DIRECTION('',(0.,1.,0.));
#1269 = VECTOR('',#1268,1.);
#1270 = LINE('',#1256,#1269);
#1271 = EDGE_CURVE('',#1257,#1255,#1270,.T.);
#1272 = ORIENTED_EDGE('',*,*,#1271,.F.);
#1273 = DIRECTION('',(0.,0.,-1.));
#1274 = VECTOR('',#1273,1.);
#1275 = LINE('',#1256,#1274);
#1276 = EDGE_CURVE('',#1257,#1251,#1275,.T.);
#1277 = ORIENTED_EDGE('',*,*,#1276,.T.);
#1278 = CARTESIAN_POINT('',(3.81,-1.27,-3.6));
#1279 = DIRECTION('',(1.,0.,0.));
#1280 = DIRECTION('',(0.,1.,0.));
#1281 = AXIS2_PLACEMENT_3D('',#1278,#1279,#1280);
#1282 = PLANE('',#1281);
#1283 = EDGE_LOOP('',(#1262,#1267,#1272,#1277));
#1284 = FACE_OUTER_BOUND('',#1283,.T.);
#1285 = ADVANCED_FACE('',(#1284),#1282,.T.);
#1286 = DIRECTION('',(1.,0.,0.));
#1287 = VECTOR('',#1286,1.);
#1288 = LINE('',#1214,#1287);
#1289 = EDGE_CURVE('',#1215,#1251,#1288,.T.);
#1290 = ORIENTED_EDGE('',*,*,#1289,.T.);
#1291 = ORIENTED_EDGE('',*,*,#1276,.F.);
#1292 = DIRECTION('',(1.,0.,0.));
#1293 = VECTOR('',#1292,1.);
#1294 = LINE('',#1216,#1293);
#1295 = EDGE_CURVE('',#1217,#1257,#1294,.T.);
#1296 = ORIENTED_EDGE('',*,*,#1295,.F.);
#1297 = ORIENTED_EDGE('',*,*,#1225,.T.);
#1298 = CARTESIAN_POINT('',(1.27,-1.27,-3.6));
#1299 = DIRECTION('',(0.,-1.,0.));
#1300 = DIRECTION('',(1.,0.,0.));
#1301 = AXIS2_PLACEMENT_3D('',#1298,#1299,#1300);
#1302 = PLANE('',#1301);
#1303 = EDGE_LOOP('',(#1290,#1291,#1296,#1297));
#1304 = FACE_OUTER_BOUND('',#1303,.T.);
#1305 = ADVANCED_FACE('',(#1304),#1302,.T.);
#1306 = ORIENTED_EDGE('',*,*,#1235,.F.);
#1307 = DIRECTION('',(1.,0.,0.));
#1308 = VECTOR('',#1307,1.);
#1309 = LINE('',#1218,#1308);
#1310 = EDGE_CURVE('',#1219,#1255,#1309,.T.);
#1311 = ORIENTED_EDGE('',*,*,#1310,.T.);
#1312 = ORIENTED_EDGE('',*,*,#1266,.T.);
#1313 = DIRECTION('',(1.,0.,0.));
#1314 = VECTOR('',#1313,1.);
#1315 = LINE('',#1220,#1314);
#1316 = EDGE_CURVE('',#1221,#1253,#1315,.T.);
#1317 = ORIENTED_EDGE('',*,*,#1316,.F.);
#1318 = CARTESIAN_POINT('',(1.27,1.27,-3.6));
#1319 = DIRECTION('',(0.,1.,0.));
#1320 = DIRECTION('',(0.,0.,1.));
#1321 = AXIS2_PLACEMENT_3D('',#1318,#1319,#1320);
#1322 = PLANE('',#1321);
#1323 = EDGE_LOOP('',(#1306,#1311,#1312,#1317));
#1324 = FACE_OUTER_BOUND('',#1323,.T.);
#1325 = ADVANCED_FACE('',(#1324),#1322,.T.);
#1326 = ORIENTED_EDGE('',*,*,#1240,.T.);
#1327 = ORIENTED_EDGE('',*,*,#1316,.T.);
#1328 = ORIENTED_EDGE('',*,*,#1261,.F.);
#1329 = ORIENTED_EDGE('',*,*,#1289,.F.);
#1330 = CARTESIAN_POINT('',(1.27,-1.27,-3.6));
#1331 = DIRECTION('',(0.,0.,-1.));
#1332 = DIRECTION('',(0.,1.,0.));
#1333 = AXIS2_PLACEMENT_3D('',#1330,#1331,#1332);
#1334 = PLANE('',#1333);
#1335 = EDGE_LOOP('',(#1326,#1327,#1328,#1329));
#1336 = FACE_OUTER_BOUND('',#1335,.T.);
#1337 = ADVANCED_FACE('',(#1336),#1334,.T.);
#1338 = ORIENTED_EDGE('',*,*,#1295,.T.);
#1339 = ORIENTED_EDGE('',*,*,#1271,.T.);
#1340 = ORIENTED_EDGE('',*,*,#1310,.F.);
#1341 = ORIENTED_EDGE('',*,*,#1230,.F.);
#1342 = CARTESIAN_POINT('',(1.27,-1.27,-1.6));
#1343 = DIRECTION('',(0.,0.,1.));
#1344 = DIRECTION('',(1.,0.,0.));
#1345 = AXIS2_PLACEMENT_3D('',#1342,#1343,#1344);
#1346 = PLANE('',#1345);
#1347 = EDGE_LOOP('',(#1338,#1339,#1340,#1341));
#1348 = FACE_OUTER_BOUND('',#1347,.T.);
#1349 = ADVANCED_FACE('',(#1348),#1346,.T.);
#1350 = CLOSED_SHELL('',(#1249,#1285,#1305,#1325,#1337,#1349));
#1351 = MANIFOLD_SOLID_BREP('',#1350);
#1352 = COLOUR_RGB('',0.13333333333333333,0.13333333333333333,0.13333333333333333);
#1353 = FILL_AREA_STYLE_COLOUR('',#1352);
#1354 = FILL_AREA_STYLE('',(#1353));
#1355 = SURFACE_STYLE_FILL_AREA(#1354);
#1356 = SURFACE_SIDE_STYLE('',(#1355));
#1357 = SURFACE_STYLE_USAGE(.BOTH.,#1356);
#1358 = PRESENTATION_STYLE_ASSIGNMENT((#1357));
#1359 = STYLED_ITEM('',(#1358),#1351);
#1360 = CARTESIAN_POINT('',(2.225,0.315,-2.1500000000000004));
#1361 = VERTEX_POINT('',#1360);
#1362 = CARTESIAN_POINT('',(2.225,-0.315,-2.1500000000000004));
#1363 = VERTEX_POINT('',#1362);
#1364 = CARTESIAN_POINT('',(2.225,-0.315,0.5499999999999998));
#1365 = VERTEX_POINT('',#1364);
#1366 = CARTESIAN_POINT('',(2.225,0.315,0.5499999999999998));
#1367 = VERTEX_POINT('',#1366);
#1368 = DIRECTION('',(0.,1.,0.));
#1369 = VECTOR('',#1368,1.);
#1370 = LINE('',#1362,#1369);
#1371 = EDGE_CURVE('',#1363,#1361,#1370,.T.);
#1372 = ORIENTED_EDGE('',*,*,#1371,.F.);
#1373 = DIRECTION('',(0.,0.,1.));
#1374 = VECTOR('',#1373,1.);
#1375 = LINE('',#1362,#1374);
#1376 = EDGE_CURVE('',#1363,#1365,#1375,.T.);
#1377 = ORIENTED_EDGE('',*,*,#1376,.T.);
#1378 = DIRECTION('',(0.,1.,0.));
#1379 = VECTOR('',#1378,1.);
#1380 = LINE('',#1364,#1379);
#1381 = EDGE_CURVE('',#1365,#1367,#1380,.T.);
#1382 = ORIENTED_EDGE('',*,*,#1381,.T.);
#1383 = DIRECTION('',(0.,0.,1.));
#1384 = VECTOR('',#1383,1.);
#1385 = LINE('',#1360,#1384);
#1386 = EDGE_CURVE('',#1361,#1367,#1385,.T.);
#1387 = ORIENTED_EDGE('',*,*,#1386,.F.);
#1388 = CARTESIAN_POINT('',(2.225,0.315,-2.1500000000000004));
#1389 = DIRECTION('',(-1.,0.,0.));
#1390 = DIRECTION('',(0.,-1.,0.));
#1391 = AXIS2_PLACEMENT_3D('',#1388,#1389,#1390);
#1392 = PLANE('',#1391);
#1393 = EDGE_LOOP('',(#1372,#1377,#1382,#1387));
#1394 = FACE_OUTER_BOUND('',#1393,.T.);
#1395 = ADVANCED_FACE('',(#1394),#1392,.T.);
#1396 = CARTESIAN_POINT('',(2.855,0.315,0.5499999999999998));
#1397 = VERTEX_POINT('',#1396);
#1398 = CARTESIAN_POINT('',(2.855,0.315,-2.1500000000000004));
#1399 = VERTEX_POINT('',#1398);
#1400 = DIRECTION('',(0.,0.,1.));
#1401 = VECTOR('',#1400,1.);
#1402 = LINE('',#1398,#1401);
#1403 = EDGE_CURVE('',#1399,#1397,#1402,.T.);
#1404 = ORIENTED_EDGE('',*,*,#1403,.F.);
#1405 = DIRECTION('',(1.,0.,0.));
#1406 = VECTOR('',#1405,1.);
#1407 = LINE('',#1360,#1406);
#1408 = EDGE_CURVE('',#1361,#1399,#1407,.T.);
#1409 = ORIENTED_EDGE('',*,*,#1408,.F.);
#1410 = ORIENTED_EDGE('',*,*,#1386,.T.);
#1411 = DIRECTION('',(1.,0.,0.));
#1412 = VECTOR('',#1411,1.);
#1413 = LINE('',#1366,#1412);
#1414 = EDGE_CURVE('',#1367,#1397,#1413,.T.);
#1415 = ORIENTED_EDGE('',*,*,#1414,.T.);
#1416 = CARTESIAN_POINT('',(2.855,0.315,0.5499999999999998));
#1417 = DIRECTION('',(0.,1.,0.));
#1418 = DIRECTION('',(0.,0.,-1.));
#1419 = AXIS2_PLACEMENT_3D('',#1416,#1417,#1418);
#1420 = PLANE('',#1419);
#1421 = EDGE_LOOP('',(#1404,#1409,#1410,#1415));
#1422 = FACE_OUTER_BOUND('',#1421,.T.);
#1423 = ADVANCED_FACE('',(#1422),#1420,.T.);
#1424 = CARTESIAN_POINT('',(2.365,0.175,0.8999999999999999));
#1425 = VERTEX_POINT('',#1424);
#1426 = CARTESIAN_POINT('',(2.365,-0.175,0.8999999999999999));
#1427 = VERTEX_POINT('',#1426);
#1428 = DIRECTION('',(0.34815531191139587,-0.3481553119113956,0.8703882797784892));
#1429 = VECTOR('',#1428,1.);
#1430 = LINE('',#1366,#1429);
#1431 = EDGE_CURVE('',#1367,#1425,#1430,.T.);
#1432 = ORIENTED_EDGE('',*,*,#1431,.F.);
#1433 = ORIENTED_EDGE('',*,*,#1381,.F.);
#1434 = DIRECTION('',(0.34815531191139587,0.3481553119113956,0.8703882797784892));
#1435 = VECTOR('',#1434,1.);
#1436 = LINE('',#1364,#1435);
#1437 = EDGE_CURVE('',#1365,#1427,#1436,.T.);
#1438 = ORIENTED_EDGE('',*,*,#1437,.T.);
#1439 = DIRECTION('',(0.,1.,0.));
#1440 = VECTOR('',#1439,1.);
#1441 = LINE('',#1426,#1440);
#1442 = EDGE_CURVE('',#1427,#1425,#1441,.T.);
#1443 = ORIENTED_EDGE('',*,*,#1442,.T.);
#1444 = CARTESIAN_POINT('',(2.365,0.175,0.8999999999999999));
#1445 = DIRECTION('',(-0.9284766908852591,0.,0.3713906763541039));
#1446 = DIRECTION('',(-0.34815531191139587,0.3481553119113956,-0.8703882797784892));
#1447 = AXIS2_PLACEMENT_3D('',#1444,#1445,#1446);
#1448 = PLANE('',#1447);
#1449 = EDGE_LOOP('',(#1432,#1433,#1438,#1443));
#1450 = FACE_OUTER_BOUND('',#1449,.T.);
#1451 = ADVANCED_FACE('',(#1450),#1448,.T.);
#1452 = CARTESIAN_POINT('',(2.855,-0.315,-2.1500000000000004));
#1453 = VERTEX_POINT('',#1452);
#1454 = CARTESIAN_POINT('',(2.855,-0.315,0.5499999999999998));
#1455 = VERTEX_POINT('',#1454);
#1456 = DIRECTION('',(0.,1.,0.));
#1457 = VECTOR('',#1456,1.);
#1458 = LINE('',#1452,#1457);
#1459 = EDGE_CURVE('',#1453,#1399,#1458,.T.);
#1460 = ORIENTED_EDGE('',*,*,#1459,.T.);
#1461 = ORIENTED_EDGE('',*,*,#1403,.T.);
#1462 = DIRECTION('',(0.,1.,0.));
#1463 = VECTOR('',#1462,1.);
#1464 = LINE('',#1454,#1463);
#1465 = EDGE_CURVE('',#1455,#1397,#1464,.T.);
#1466 = ORIENTED_EDGE('',*,*,#1465,.F.);
#1467 = DIRECTION('',(0.,0.,1.));
#1468 = VECTOR('',#1467,1.);
#1469 = LINE('',#1452,#1468);
#1470 = EDGE_CURVE('',#1453,#1455,#1469,.T.);
#1471 = ORIENTED_EDGE('',*,*,#1470,.F.);
#1472 = CARTESIAN_POINT('',(2.855,-0.315,-2.1500000000000004));
#1473 = DIRECTION('',(1.,0.,0.));
#1474 = DIRECTION('',(0.,1.,0.));
#1475 = AXIS2_PLACEMENT_3D('',#1472,#1473,#1474);
#1476 = PLANE('',#1475);
#1477 = EDGE_LOOP('',(#1460,#1461,#1466,#1471));
#1478 = FACE_OUTER_BOUND('',#1477,.T.);
#1479 = ADVANCED_FACE('',(#1478),#1476,.T.);
#1480 = ORIENTED_EDGE('',*,*,#1470,.T.);
#1481 = DIRECTION('',(1.,0.,0.));
#1482 = VECTOR('',#1481,1.);
#1483 = LINE('',#1364,#1482);
#1484 = EDGE_CURVE('',#1365,#1455,#1483,.T.);
#1485 = ORIENTED_EDGE('',*,*,#1484,.F.);
#1486 = ORIENTED_EDGE('',*,*,#1376,.F.);
#1487 = DIRECTION('',(1.,0.,0.));
#1488 = VECTOR('',#1487,1.);
#1489 = LINE('',#1362,#1488);
#1490 = EDGE_CURVE('',#1363,#1453,#1489,.T.);
#1491 = ORIENTED_EDGE('',*,*,#1490,.T.);
#1492 = CARTESIAN_POINT('',(2.855,-0.315,-2.1500000000000004));
#1493 = DIRECTION('',(0.,-1.,0.));
#1494 = DIRECTION('',(0.,0.,1.));
#1495 = AXIS2_PLACEMENT_3D('',#1492,#1493,#1494);
#1496 = PLANE('',#1495);
#1497 = EDGE_LOOP('',(#1480,#1485,#1486,#1491));
#1498 = FACE_OUTER_BOUND('',#1497,.T.);
#1499 = ADVANCED_FACE('',(#1498),#1496,.T.);
#1500 = ORIENTED_EDGE('',*,*,#1490,.F.);
#1501 = ORIENTED_EDGE('',*,*,#1371,.T.);
#1502 = ORIENTED_EDGE('',*,*,#1408,.T.);
#1503 = ORIENTED_EDGE('',*,*,#1459,.F.);
#1504 = CARTESIAN_POINT('',(2.855,-0.315,-2.1500000000000004));
#1505 = DIRECTION('',(0.,0.,-1.));
#1506 = DIRECTION('',(-1.,0.,0.));
#1507 = AXIS2_PLACEMENT_3D('',#1504,#1505,#1506);
#1508 = PLANE('',#1507);
#1509 = EDGE_LOOP('',(#1500,#1501,#1502,#1503));
#1510 = FACE_OUTER_BOUND('',#1509,.T.);
#1511 = ADVANCED_FACE('',(#1510),#1508,.T.);
#1512 = CARTESIAN_POINT('',(2.715,0.175,0.8999999999999999));
#1513 = VERTEX_POINT('',#1512);
#1514 = DIRECTION('',(0.34815531191139587,0.3481553119113956,-0.8703882797784892));
#1515 = VECTOR('',#1514,1.);
#1516 = LINE('',#1512,#1515);
#1517 = EDGE_CURVE('',#1513,#1397,#1516,.T.);
#1518 = ORIENTED_EDGE('',*,*,#1517,.T.);
#1519 = ORIENTED_EDGE('',*,*,#1414,.F.);
#1520 = ORIENTED_EDGE('',*,*,#1431,.T.);
#1521 = DIRECTION('',(1.,0.,0.));
#1522 = VECTOR('',#1521,1.);
#1523 = LINE('',#1424,#1522);
#1524 = EDGE_CURVE('',#1425,#1513,#1523,.T.);
#1525 = ORIENTED_EDGE('',*,*,#1524,.T.);
#1526 = CARTESIAN_POINT('',(2.715,0.175,0.8999999999999999));
#1527 = DIRECTION('',(0.,0.9284766908852596,0.3713906763541032));
#1528 = DIRECTION('',(0.34815531191139587,0.3481553119113956,-0.8703882797784892));
#1529 = AXIS2_PLACEMENT_3D('',#1526,#1527,#1528);
#1530 = PLANE('',#1529);
#1531 = EDGE_LOOP('',(#1518,#1519,#1520,#1525));
#1532 = FACE_OUTER_BOUND('',#1531,.T.);
#1533 = ADVANCED_FACE('',(#1532),#1530,.T.);
#1534 = CARTESIAN_POINT('',(2.715,-0.175,0.8999999999999999));
#1535 = VERTEX_POINT('',#1534);
#1536 = DIRECTION('',(0.34815531191139587,-0.3481553119113956,-0.8703882797784892));
#1537 = VECTOR('',#1536,1.);
#1538 = LINE('',#1534,#1537);
#1539 = EDGE_CURVE('',#1535,#1455,#1538,.T.);
#1540 = ORIENTED_EDGE('',*,*,#1539,.T.);
#1541 = ORIENTED_EDGE('',*,*,#1465,.T.);
#1542 = ORIENTED_EDGE('',*,*,#1517,.F.);
#1543 = DIRECTION('',(0.,1.,0.));
#1544 = VECTOR('',#1543,1.);
#1545 = LINE('',#1534,#1544);
#1546 = EDGE_CURVE('',#1535,#1513,#1545,.T.);
#1547 = ORIENTED_EDGE('',*,*,#1546,.F.);
#1548 = CARTESIAN_POINT('',(2.715,-0.175,0.8999999999999999));
#1549 = DIRECTION('',(0.9284766908852591,0.,0.3713906763541039));
#1550 = DIRECTION('',(0.34815531191139587,-0.3481553119113956,-0.8703882797784892));
#1551 = AXIS2_PLACEMENT_3D('',#1548,#1549,#1550);
#1552 = PLANE('',#1551);
#1553 = EDGE_LOOP('',(#1540,#1541,#1542,#1547));
#1554 = FACE_OUTER_BOUND('',#1553,.T.);
#1555 = ADVANCED_FACE('',(#1554),#1552,.T.);
#1556 = ORIENTED_EDGE('',*,*,#1546,.T.);
#1557 = ORIENTED_EDGE('',*,*,#1524,.F.);
#1558 = ORIENTED_EDGE('',*,*,#1442,.F.);
#1559 = DIRECTION('',(1.,0.,0.));
#1560 = VECTOR('',#1559,1.);
#1561 = LINE('',#1426,#1560);
#1562 = EDGE_CURVE('',#1427,#1535,#1561,.T.);
#1563 = ORIENTED_EDGE('',*,*,#1562,.T.);
#1564 = CARTESIAN_POINT('',(2.715,-0.175,0.8999999999999999));
#1565 = DIRECTION('',(0.,0.,1.));
#1566 = DIRECTION('',(0.,1.,0.));
#1567 = AXIS2_PLACEMENT_3D('',#1564,#1565,#1566);
#1568 = PLANE('',#1567);
#1569 = EDGE_LOOP('',(#1556,#1557,#1558,#1563));
#1570 = FACE_OUTER_BOUND('',#1569,.T.);
#1571 = ADVANCED_FACE('',(#1570),#1568,.T.);
#1572 = ORIENTED_EDGE('',*,*,#1562,.F.);
#1573 = ORIENTED_EDGE('',*,*,#1437,.F.);
#1574 = ORIENTED_EDGE('',*,*,#1484,.T.);
#1575 = ORIENTED_EDGE('',*,*,#1539,.F.);
#1576 = CARTESIAN_POINT('',(2.715,-0.175,0.8999999999999999));
#1577 = DIRECTION('',(0.,-0.9284766908852596,0.3713906763541032));
#1578 = DIRECTION('',(-1.,0.,0.));
#1579 = AXIS2_PLACEMENT_3D('',#1576,#1577,#1578);
#1580 = PLANE('',#1579);
#1581 = EDGE_LOOP('',(#1572,#1573,#1574,#1575));
#1582 = FACE_OUTER_BOUND('',#1581,.T.);
#1583 = ADVANCED_FACE('',(#1582),#1580,.T.);
#1584 = CLOSED_SHELL('',(#1395,#1423,#1451,#1479,#1499,#1511,#1533,#1555,#1571,#1583));
#1585 = MANIFOLD_SOLID_BREP('',#1584);
#1586 = CARTESIAN_POINT('',(2.855,0.315,-3.6000000000000005));
#1587 = VERTEX_POINT('',#1586);
#1588 = CARTESIAN_POINT('',(2.855,0.315,-9.));
#1589 = VERTEX_POINT('',#1588);
#1590 = CARTESIAN_POINT('',(2.225,0.315,-9.));
#1591 = VERTEX_POINT('',#1590);
#1592 = CARTESIAN_POINT('',(2.225,0.315,-3.6000000000000005));
#1593 = VERTEX_POINT('',#1592);
#1594 = DIRECTION('',(0.,0.,-1.));
#1595 = VECTOR('',#1594,1.);
#1596 = LINE('',#1586,#1595);
#1597 = EDGE_CURVE('',#1587,#1589,#1596,.T.);
#1598 = ORIENTED_EDGE('',*,*,#1597,.T.);
#1599 = DIRECTION('',(1.,0.,0.));
#1600 = VECTOR('',#1599,1.);
#1601 = LINE('',#1590,#1600);
#1602 = EDGE_CURVE('',#1591,#1589,#1601,.T.);
#1603 = ORIENTED_EDGE('',*,*,#1602,.F.);
#1604 = DIRECTION('',(0.,0.,-1.));
#1605 = VECTOR('',#1604,1.);
#1606 = LINE('',#1592,#1605);
#1607 = EDGE_CURVE('',#1593,#1591,#1606,.T.);
#1608 = ORIENTED_EDGE('',*,*,#1607,.F.);
#1609 = DIRECTION('',(1.,0.,0.));
#1610 = VECTOR('',#1609,1.);
#1611 = LINE('',#1592,#1610);
#1612 = EDGE_CURVE('',#1593,#1587,#1611,.T.);
#1613 = ORIENTED_EDGE('',*,*,#1612,.T.);
#1614 = CARTESIAN_POINT('',(2.855,0.315,-3.6000000000000005));
#1615 = DIRECTION('',(0.,1.,0.));
#1616 = DIRECTION('',(0.,0.,-1.));
#1617 = AXIS2_PLACEMENT_3D('',#1614,#1615,#1616);
#1618 = PLANE('',#1617);
#1619 = EDGE_LOOP('',(#1598,#1603,#1608,#1613));
#1620 = FACE_OUTER_BOUND('',#1619,.T.);
#1621 = ADVANCED_FACE('',(#1620),#1618,.T.);
#1622 = CARTESIAN_POINT('',(2.225,-0.315,-9.));
#1623 = VERTEX_POINT('',#1622);
#1624 = CARTESIAN_POINT('',(2.225,-0.315,-3.6000000000000005));
#1625 = VERTEX_POINT('',#1624);
#1626 = DIRECTION('',(0.,0.,-1.));
#1627 = VECTOR('',#1626,1.);
#1628 = LINE('',#1624,#1627);
#1629 = EDGE_CURVE('',#1625,#1623,#1628,.T.);
#1630 = ORIENTED_EDGE('',*,*,#1629,.F.);
#1631 = DIRECTION('',(0.,1.,0.));
#1632 = VECTOR('',#1631,1.);
#1633 = LINE('',#1624,#1632);
#1634 = EDGE_CURVE('',#1625,#1593,#1633,.T.);
#1635 = ORIENTED_EDGE('',*,*,#1634,.T.);
#1636 = ORIENTED_EDGE('',*,*,#1607,.T.);
#1637 = DIRECTION('',(0.,1.,0.));
#1638 = VECTOR('',#1637,1.);
#1639 = LINE('',#1622,#1638);
#1640 = EDGE_CURVE('',#1623,#1591,#1639,.T.);
#1641 = ORIENTED_EDGE('',*,*,#1640,.F.);
#1642 = CARTESIAN_POINT('',(2.225,-0.315,-9.));
#1643 = DIRECTION('',(-1.,0.,0.));
#1644 = DIRECTION('',(0.,0.,1.));
#1645 = AXIS2_PLACEMENT_3D('',#1642,#1643,#1644);
#1646 = PLANE('',#1645);
#1647 = EDGE_LOOP('',(#1630,#1635,#1636,#1641));
#1648 = FACE_OUTER_BOUND('',#1647,.T.);
#1649 = ADVANCED_FACE('',(#1648),#1646,.T.);
#1650 = CARTESIAN_POINT('',(2.365,0.175,-9.6));
#1651 = VERTEX_POINT('',#1650);
#1652 = CARTESIAN_POINT('',(2.365,-0.175,-9.6));
#1653 = VERTEX_POINT('',#1652);
#1654 = ORIENTED_EDGE('',*,*,#1640,.T.);
#1655 = DIRECTION('',(0.22158112824152176,-0.22158112824152157,-0.9496334067493776));
#1656 = VECTOR('',#1655,1.);
#1657 = LINE('',#1590,#1656);
#1658 = EDGE_CURVE('',#1591,#1651,#1657,.T.);
#1659 = ORIENTED_EDGE('',*,*,#1658,.T.);
#1660 = DIRECTION('',(0.,1.,0.));
#1661 = VECTOR('',#1660,1.);
#1662 = LINE('',#1652,#1661);
#1663 = EDGE_CURVE('',#1653,#1651,#1662,.T.);
#1664 = ORIENTED_EDGE('',*,*,#1663,.F.);
#1665 = DIRECTION('',(0.22158112824152176,0.22158112824152157,-0.9496334067493776));
#1666 = VECTOR('',#1665,1.);
#1667 = LINE('',#1622,#1666);
#1668 = EDGE_CURVE('',#1623,#1653,#1667,.T.);
#1669 = ORIENTED_EDGE('',*,*,#1668,.F.);
#1670 = CARTESIAN_POINT('',(2.225,-0.315,-9.));
#1671 = DIRECTION('',(-0.9738412097417934,0.,-0.22722961560641813));
#1672 = DIRECTION('',(0.,1.,0.));
#1673 = AXIS2_PLACEMENT_3D('',#1670,#1671,#1672);
#1674 = PLANE('',#1673);
#1675 = EDGE_LOOP('',(#1654,#1659,#1664,#1669));
#1676 = FACE_OUTER_BOUND('',#1675,.T.);
#1677 = ADVANCED_FACE('',(#1676),#1674,.T.);
#1678 = CARTESIAN_POINT('',(2.715,0.175,-9.6));
#1679 = VERTEX_POINT('',#1678);
#1680 = DIRECTION('',(1.,0.,0.));
#1681 = VECTOR('',#1680,1.);
#1682 = LINE('',#1650,#1681);
#1683 = EDGE_CURVE('',#1651,#1679,#1682,.T.);
#1684 = ORIENTED_EDGE('',*,*,#1683,.F.);
#1685 = ORIENTED_EDGE('',*,*,#1658,.F.);
#1686 = ORIENTED_EDGE('',*,*,#1602,.T.);
#1687 = DIRECTION('',(0.22158112824152176,0.22158112824152157,0.9496334067493776));
#1688 = VECTOR('',#1687,1.);
#1689 = LINE('',#1678,#1688);
#1690 = EDGE_CURVE('',#1679,#1589,#1689,.T.);
#1691 = ORIENTED_EDGE('',*,*,#1690,.F.);
#1692 = CARTESIAN_POINT('',(2.715,0.175,-9.6));
#1693 = DIRECTION('',(0.,0.9738412097417933,-0.2272296156064183));
#1694 = DIRECTION('',(-1.,0.,0.));
#1695 = AXIS2_PLACEMENT_3D('',#1692,#1693,#1694);
#1696 = PLANE('',#1695);
#1697 = EDGE_LOOP('',(#1684,#1685,#1686,#1691));
#1698 = FACE_OUTER_BOUND('',#1697,.T.);
#1699 = ADVANCED_FACE('',(#1698),#1696,.T.);
#1700 = CARTESIAN_POINT('',(2.855,-0.315,-3.6000000000000005));
#1701 = VERTEX_POINT('',#1700);
#1702 = DIRECTION('',(0.,1.,0.));
#1703 = VECTOR('',#1702,1.);
#1704 = LINE('',#1700,#1703);
#1705 = EDGE_CURVE('',#1701,#1587,#1704,.T.);
#1706 = ORIENTED_EDGE('',*,*,#1705,.T.);
#1707 = ORIENTED_EDGE('',*,*,#1612,.F.);
#1708 = ORIENTED_EDGE('',*,*,#1634,.F.);
#1709 = DIRECTION('',(1.,0.,0.));
#1710 = VECTOR('',#1709,1.);
#1711 = LINE('',#1624,#1710);
#1712 = EDGE_CURVE('',#1625,#1701,#1711,.T.);
#1713 = ORIENTED_EDGE('',*,*,#1712,.T.);
#1714 = CARTESIAN_POINT('',(2.855,-0.315,-3.6000000000000005));
#1715 = DIRECTION('',(0.,0.,1.));
#1716 = DIRECTION('',(0.,1.,0.));
#1717 = AXIS2_PLACEMENT_3D('',#1714,#1715,#1716);
#1718 = PLANE('',#1717);
#1719 = EDGE_LOOP('',(#1706,#1707,#1708,#1713));
#1720 = FACE_OUTER_BOUND('',#1719,.T.);
#1721 = ADVANCED_FACE('',(#1720),#1718,.T.);
#1722 = CARTESIAN_POINT('',(2.855,-0.315,-9.));
#1723 = VERTEX_POINT('',#1722);
#1724 = DIRECTION('',(0.,1.,0.));
#1725 = VECTOR('',#1724,1.);
#1726 = LINE('',#1722,#1725);
#1727 = EDGE_CURVE('',#1723,#1589,#1726,.T.);
#1728 = ORIENTED_EDGE('',*,*,#1727,.T.);
#1729 = ORIENTED_EDGE('',*,*,#1597,.F.);
#1730 = ORIENTED_EDGE('',*,*,#1705,.F.);
#1731 = DIRECTION('',(0.,0.,-1.));
#1732 = VECTOR('',#1731,1.);
#1733 = LINE('',#1700,#1732);
#1734 = EDGE_CURVE('',#1701,#1723,#1733,.T.);
#1735 = ORIENTED_EDGE('',*,*,#1734,.T.);
#1736 = CARTESIAN_POINT('',(2.855,-0.315,-9.));
#1737 = DIRECTION('',(1.,0.,0.));
#1738 = DIRECTION('',(0.,1.,0.));
#1739 = AXIS2_PLACEMENT_3D('',#1736,#1737,#1738);
#1740 = PLANE('',#1739);
#1741 = EDGE_LOOP('',(#1728,#1729,#1730,#1735));
#1742 = FACE_OUTER_BOUND('',#1741,.T.);
#1743 = ADVANCED_FACE('',(#1742),#1740,.T.);
#1744 = ORIENTED_EDGE('',*,*,#1734,.F.);
#1745 = ORIENTED_EDGE('',*,*,#1712,.F.);
#1746 = ORIENTED_EDGE('',*,*,#1629,.T.);
#1747 = DIRECTION('',(1.,0.,0.));
#1748 = VECTOR('',#1747,1.);
#1749 = LINE('',#1622,#1748);
#1750 = EDGE_CURVE('',#1623,#1723,#1749,.T.);
#1751 = ORIENTED_EDGE('',*,*,#1750,.T.);
#1752 = CARTESIAN_POINT('',(2.855,-0.315,-9.));
#1753 = DIRECTION('',(0.,-1.,0.));
#1754 = DIRECTION('',(0.,0.,1.));
#1755 = AXIS2_PLACEMENT_3D('',#1752,#1753,#1754);
#1756 = PLANE('',#1755);
#1757 = EDGE_LOOP('',(#1744,#1745,#1746,#1751));
#1758 = FACE_OUTER_BOUND('',#1757,.T.);
#1759 = ADVANCED_FACE('',(#1758),#1756,.T.);
#1760 = CARTESIAN_POINT('',(2.715,-0.175,-9.6));
#1761 = VERTEX_POINT('',#1760);
#1762 = DIRECTION('',(0.,1.,0.));
#1763 = VECTOR('',#1762,1.);
#1764 = LINE('',#1760,#1763);
#1765 = EDGE_CURVE('',#1761,#1679,#1764,.T.);
#1766 = ORIENTED_EDGE('',*,*,#1765,.T.);
#1767 = ORIENTED_EDGE('',*,*,#1690,.T.);
#1768 = ORIENTED_EDGE('',*,*,#1727,.F.);
#1769 = DIRECTION('',(0.22158112824152176,-0.22158112824152157,0.9496334067493776));
#1770 = VECTOR('',#1769,1.);
#1771 = LINE('',#1760,#1770);
#1772 = EDGE_CURVE('',#1761,#1723,#1771,.T.);
#1773 = ORIENTED_EDGE('',*,*,#1772,.F.);
#1774 = CARTESIAN_POINT('',(2.715,-0.175,-9.6));
#1775 = DIRECTION('',(0.9738412097417932,0.,-0.2272296156064184));
#1776 = DIRECTION('',(0.,1.,0.));
#1777 = AXIS2_PLACEMENT_3D('',#1774,#1775,#1776);
#1778 = PLANE('',#1777);
#1779 = EDGE_LOOP('',(#1766,#1767,#1768,#1773));
#1780 = FACE_OUTER_BOUND('',#1779,.T.);
#1781 = ADVANCED_FACE('',(#1780),#1778,.T.);
#1782 = ORIENTED_EDGE('',*,*,#1772,.T.);
#1783 = ORIENTED_EDGE('',*,*,#1750,.F.);
#1784 = ORIENTED_EDGE('',*,*,#1668,.T.);
#1785 = DIRECTION('',(1.,0.,0.));
#1786 = VECTOR('',#1785,1.);
#1787 = LINE('',#1652,#1786);
#1788 = EDGE_CURVE('',#1653,#1761,#1787,.T.);
#1789 = ORIENTED_EDGE('',*,*,#1788,.T.);
#1790 = CARTESIAN_POINT('',(2.715,-0.175,-9.6));
#1791 = DIRECTION('',(0.,-0.9738412097417933,-0.2272296156064183));
#1792 = DIRECTION('',(0.22158112824152176,-0.22158112824152157,0.9496334067493776));
#1793 = AXIS2_PLACEMENT_3D('',#1790,#1791,#1792);
#1794 = PLANE('',#1793);
#1795 = EDGE_LOOP('',(#1782,#1783,#1784,#1789));
#1796 = FACE_OUTER_BOUND('',#1795,.T.);
#1797 = ADVANCED_FACE('',(#1796),#1794,.T.);
#1798 = ORIENTED_EDGE('',*,*,#1788,.F.);
#1799 = ORIENTED_EDGE('',*,*,#1663,.T.);
#1800 = ORIENTED_EDGE('',*,*,#1683,.T.);
#1801 = ORIENTED_EDGE('',*,*,#1765,.F.);
#1802 = CARTESIAN_POINT('',(2.715,-0.175,-9.6));
#1803 = DIRECTION('',(0.,0.,-1.));
#1804 = DIRECTION('',(-1.,0.,0.));
#1805 = AXIS2_PLACEMENT_3D('',#1802,#1803,#1804);
#1806 = PLANE('',#1805);
#1807 = EDGE_LOOP('',(#1798,#1799,#1800,#1801));
#1808 = FACE_OUTER_BOUND('',#1807,.T.);
#1809 = ADVANCED_FACE('',(#1808),#1806,.T.);
#1810 = CLOSED_SHELL('',(#1621,#1649,#1677,#1699,#1721,#1743,#1759,#1781,#1797,#1809));
#1811 = MANIFOLD_SOLID_BREP('',#1810);
#1812 = ADVANCED_BREP_SHAPE_REPRESENTATION('',(#17,#155,#389,#615,#753,#987,#1213,#1351,#1585,#1811),#13);
#1813 = SHAPE_DEFINITION_REPRESENTATION(#8,#1812);
#1814 = MECHANICAL_DESIGN_GEOMETRIC_PRESENTATION_REPRESENTATION('',(#163,#761,#1359),#13);
ENDSEC;
END-ISO-10303-21;