ISO-10303-21;
HEADER;
FILE_DESCRIPTION(('shape.step'),'2;1');
FILE_NAME('shape.step','2026-09-12',('tscircuit'),('tscircuit'),'generator','','');
FILE_SCHEMA(('AUTOMOTIVE_DESIGN { 1 0 10303 214 1 1 1 1 }'));
ENDSEC;
DATA;
#1 = APPLICATION_CONTEXT('core data for automotive mechanical design processes');
#2 = APPLICATION_PROTOCOL_DEFINITION('international standard','automotive_design',2000,#1);
#3 = PRODUCT_CONTEXT('',#1,'mechanical');
#4 = PRODUCT('shape','shape','',(#3));
#5 = PRODUCT_DEFINITION_CONTEXT('part definition',#1,'design');
#6 = PRODUCT_DEFINITION_FORMATION('','',#4);
#7 = PRODUCT_DEFINITION('design','',#6,#5);
#8 = PRODUCT_DEFINITION_SHAPE('','',#7);
#9 = (
LENGTH_UNIT()
NAMED_UNIT(*)
SI_UNIT(.MILLI.,.METRE.)
);
#10 = (
NAMED_UNIT(*)
PLANE_ANGLE_UNIT()
SI_UNIT($,.RADIAN.)
);
#11 = (
NAMED_UNIT(*)
SI_UNIT($,.STERADIAN.)
SOLID_ANGLE_UNIT()
);
#12 = UNCERTAINTY_MEASURE_WITH_UNIT(LENGTH_MEASURE(1.E-07),#9,'distance_accuracy_value','confusion accuracy');
#13 = (
GEOMETRIC_REPRESENTATION_CONTEXT(3)
GLOBAL_UNCERTAINTY_ASSIGNED_CONTEXT((#12))
GLOBAL_UNIT_ASSIGNED_CONTEXT((#9,#10,#11))
REPRESENTATION_CONTEXT('Context #1','3D
Context with
TORTURE://UNITS')
);
#14 = CARTESIAN_POINT('',(0.,0.,0.));
#15 = DIRECTION('',(0.,0.,1.));
#16 = DIRECTION('',(1.,0.,0.));
#17 = AXIS2_PLACEMENT_3D('',#14,#15,#16);
#18 = CARTESIAN_POINT('',(0.468216772838708,3.353884672967753,10.5));
#19 = VERTEX_POINT('',#18);
#20 = CARTESIAN_POINT('',(0.9184402376762155,3.2173108780270883,10.5));
#21 = VERTEX_POINT('',#20);
#22 = CARTESIAN_POINT('',(1.3333685592470454,2.9955270695261085,10.5));
#23 = VERTEX_POINT('',#22);
#24 = CARTESIAN_POINT('',(1.697056274847714,2.697056274847714,10.5));
#25 = VERTEX_POINT('',#24);
#26 = CARTESIAN_POINT('',(1.9955270695261085,2.3333685592470452,10.5));
#27 = VERTEX_POINT('',#26);
#28 = CARTESIAN_POINT('',(2.2173108780270883,1.9184402376762155,10.5));
#29 = VERTEX_POINT('',#28);
#30 = CARTESIAN_POINT('',(2.353884672967753,1.4682167728387077,10.5));
#31 = VERTEX_POINT('',#30);
#32 = CARTESIAN_POINT('',(2.4,1.,10.5));
#33 = VERTEX_POINT('',#32);
#34 = CARTESIAN_POINT('',(2.3538846729677525,0.5317832271612919,10.5));
#35 = VERTEX_POINT('',#34);
#36 = CARTESIAN_POINT('',(2.2173108780270874,0.08155976232378481,10.5));
#37 = VERTEX_POINT('',#36);
#38 = CARTESIAN_POINT('',(2.013362936034288,-0.2999999999999998,10.5));
#39 = VERTEX_POINT('',#38);
#40 = CARTESIAN_POINT('',(-2.013362936034288,-0.2999999999999998,10.5));
#41 = VERTEX_POINT('',#40);
#42 = CARTESIAN_POINT('',(-2.2173108780270883,0.08155976232378481,10.5));
#43 = VERTEX_POINT('',#42);
#44 = CARTESIAN_POINT('',(-2.353884672967753,0.5317832271612919,10.5));
#45 = VERTEX_POINT('',#44);
#46 = CARTESIAN_POINT('',(-2.4,1.,10.5));
#47 = VERTEX_POINT('',#46);
#48 = CARTESIAN_POINT('',(-2.353884672967753,1.4682167728387077,10.5));
#49 = VERTEX_POINT('',#48);
#50 = CARTESIAN_POINT('',(-2.2173108780270883,1.9184402376762155,10.5));
#51 = VERTEX_POINT('',#50);
#52 = CARTESIAN_POINT('',(-1.9955270695261087,2.3333685592470452,10.5));
#53 = VERTEX_POINT('',#52);
#54 = CARTESIAN_POINT('',(-1.6970562748477138,2.697056274847714,10.5));
#55 = VERTEX_POINT('',#54);
#56 = CARTESIAN_POINT('',(-1.3333685592470446,2.9955270695261085,10.5));
#57 = VERTEX_POINT('',#56);
#58 = CARTESIAN_POINT('',(-0.9184402376762153,3.2173108780270883,10.5));
#59 = VERTEX_POINT('',#58);
#60 = CARTESIAN_POINT('',(-0.46821677283870766,3.353884672967753,10.5));
#61 = VERTEX_POINT('',#60);
#62 = CARTESIAN_POINT('',(0.,3.4,10.5));
#63 = VERTEX_POINT('',#62);
#64 = DIRECTION('',(0.9569403357322089,-0.29028467725446205,0.));
#65 = VECTOR('',#64,1.);
#66 = LINE('',#18,#65);
#67 = EDGE_CURVE('',#19,#21,#66,.T.);
#68 = ORIENTED_EDGE('',*,*,#67,.T.);
#69 = DIRECTION('',(0.8819212643483548,-0.4713967368259978,0.));
#70 = VECTOR('',#69,1.);
#71 = LINE('',#20,#70);
#72 = EDGE_CURVE('',#21,#23,#71,.T.);
#73 = ORIENTED_EDGE('',*,*,#72,.T.);
#74 = DIRECTION('',(0.7730104533627368,-0.6343932841636458,0.));
#75 = VECTOR('',#74,1.);
#76 = LINE('',#22,#75);
#77 = EDGE_CURVE('',#23,#25,#76,.T.);
#78 = ORIENTED_EDGE('',*,*,#77,.T.);
#79 = DIRECTION('',(0.6343932841636455,-0.7730104533627369,0.));
#80 = VECTOR('',#79,1.);
#81 = LINE('',#24,#80);
#82 = EDGE_CURVE('',#25,#27,#81,.T.);
#83 = ORIENTED_EDGE('',*,*,#82,.T.);
#84 = DIRECTION('',(0.471396736825998,-0.8819212643483547,0.));
#85 = VECTOR('',#84,1.);
#86 = LINE('',#26,#85);
#87 = EDGE_CURVE('',#27,#29,#86,.T.);
#88 = ORIENTED_EDGE('',*,*,#87,.T.);
#89 = DIRECTION('',(0.29028467725446183,-0.9569403357322088,0.));
#90 = VECTOR('',#89,1.);
#91 = LINE('',#28,#90);
#92 = EDGE_CURVE('',#29,#31,#91,.T.);
#93 = ORIENTED_EDGE('',*,*,#92,.T.);
#94 = DIRECTION('',(0.09801714032956073,-0.9951847266721969,0.));
#95 = VECTOR('',#94,1.);
#96 = LINE('',#30,#95);
#97 = EDGE_CURVE('',#31,#33,#96,.T.);
#98 = ORIENTED_EDGE('',*,*,#97,.T.);
#99 = DIRECTION('',(0.09801714032956158,0.9951847266721968,0.));
#100 = VECTOR('',#99,1.);
#101 = LINE('',#34,#100);
#102 = EDGE_CURVE('',#35,#33,#101,.T.);
#103 = ORIENTED_EDGE('',*,*,#102,.F.);
#104 = DIRECTION('',(0.29028467725446316,0.9569403357322086,0.));
#105 = VECTOR('',#104,1.);
#106 = LINE('',#36,#105);
#107 = EDGE_CURVE('',#37,#35,#106,.T.);
#108 = ORIENTED_EDGE('',*,*,#107,.F.);
#109 = DIRECTION('',(0.47139673682599587,0.881921264348356,0.));
#110 = VECTOR('',#109,1.);
#111 = LINE('',#38,#110);
#112 = EDGE_CURVE('',#39,#37,#111,.T.);
#113 = ORIENTED_EDGE('',*,*,#112,.F.);
#114 = DIRECTION('',(1.,0.,0.));
#115 = VECTOR('',#114,1.);
#116 = LINE('',#40,#115);
#117 = EDGE_CURVE('',#41,#39,#116,.T.);
#118 = ORIENTED_EDGE('',*,*,#117,.F.);
#119 = DIRECTION('',(-0.47139673682599736,0.881921264348355,0.));
#120 = VECTOR('',#119,1.);
#121 = LINE('',#40,#120);
#122 = EDGE_CURVE('',#41,#43,#121,.T.);
#123 = ORIENTED_EDGE('',*,*,#122,.T.);
#124 = DIRECTION('',(-0.29028467725446233,0.9569403357322089,0.));
#125 = VECTOR('',#124,1.);
#126 = LINE('',#42,#125);
#127 = EDGE_CURVE('',#43,#45,#126,.T.);
#128 = ORIENTED_EDGE('',*,*,#127,.T.);
#129 = DIRECTION('',(-0.09801714032956065,0.9951847266721969,0.));
#130 = VECTOR('',#129,1.);
#131 = LINE('',#44,#130);
#132 = EDGE_CURVE('',#45,#47,#131,.T.);
#133 = ORIENTED_EDGE('',*,*,#132,.T.);
#134 = DIRECTION('',(-0.09801714032956073,-0.9951847266721969,0.));
#135 = VECTOR('',#134,1.);
#136 = LINE('',#48,#135);
#137 = EDGE_CURVE('',#49,#47,#136,.T.);
#138 = ORIENTED_EDGE('',*,*,#137,.F.);
#139 = DIRECTION('',(-0.29028467725446183,-0.9569403357322088,0.));
#140 = VECTOR('',#139,1.);
#141 = LINE('',#50,#140);
#142 = EDGE_CURVE('',#51,#49,#141,.T.);
#143 = ORIENTED_EDGE('',*,*,#142,.F.);
#144 = DIRECTION('',(-0.4713967368259977,-0.881921264348355,0.));
#145 = VECTOR('',#144,1.);
#146 = LINE('',#52,#145);
#147 = EDGE_CURVE('',#53,#51,#146,.T.);
#148 = ORIENTED_EDGE('',*,*,#147,.F.);
#149 = DIRECTION('',(-0.6343932841636462,-0.7730104533627365,0.));
#150 = VECTOR('',#149,1.);
#151 = LINE('',#54,#150);
#152 = EDGE_CURVE('',#55,#53,#151,.T.);
#153 = ORIENTED_EDGE('',*,*,#152,.F.);
#154 = DIRECTION('',(-0.7730104533627373,-0.6343932841636452,0.));
#155 = VECTOR('',#154,1.);
#156 = LINE('',#56,#155);
#157 = EDGE_CURVE('',#57,#55,#156,.T.);
#158 = ORIENTED_EDGE('',*,*,#157,.F.);
#159 = DIRECTION('',(-0.8819212643483547,-0.4713967368259985,0.));
#160 = VECTOR('',#159,1.);
#161 = LINE('',#58,#160);
#162 = EDGE_CURVE('',#59,#57,#161,.T.);
#163 = ORIENTED_EDGE('',*,*,#162,.F.);
#164 = DIRECTION('',(-0.9569403357322089,-0.290284677254462,0.));
#165 = VECTOR('',#164,1.);
#166 = LINE('',#60,#165);
#167 = EDGE_CURVE('',#61,#59,#166,.T.);
#168 = ORIENTED_EDGE('',*,*,#167,.F.);
#169 = DIRECTION('',(0.9951847266721969,0.09801714032956073,0.));
#170 = VECTOR('',#169,1.);
#171 = LINE('',#60,#170);
#172 = EDGE_CURVE('',#61,#63,#171,.T.);
#173 = ORIENTED_EDGE('',*,*,#172,.T.);
#174 = DIRECTION('',(0.9951847266721969,-0.09801714032956066,0.));
#175 = VECTOR('',#174,1.);
#176 = LINE('',#62,#175);
#177 = EDGE_CURVE('',#63,#19,#176,.T.);
#178 = ORIENTED_EDGE('',*,*,#177,.T.);
#179 = CARTESIAN_POINT('',(0.468216772838708,3.353884672967753,10.5));
#180 = DIRECTION('',(0.,0.,-1.));
#181 = DIRECTION('',(0.9569403357322089,-0.29028467725446205,0.));
#182 = AXIS2_PLACEMENT_3D('',#179,#180,#181);
#183 = PLANE('',#182);
#184 = EDGE_LOOP('',(#68,#73,#78,#83,#88,#93,#98,#103,#108,#113,#118,#123,#128,#133,#138,#143,#148,#153,#158,#163,#168,#173,#178));
#185 = FACE_OUTER_BOUND('',#184,.T.);
#186 = ADVANCED_FACE('',(#185),#183,.T.);
#187 = CARTESIAN_POINT('',(2.353884672967753,1.4682167728387077,15.));
#188 = VERTEX_POINT('',#187);
#189 = CARTESIAN_POINT('',(2.4,1.,15.));
#190 = VERTEX_POINT('',#189);
#191 = DIRECTION('',(0.,0.,1.));
#192 = VECTOR('',#191,1.);
#193 = LINE('',#30,#192);
#194 = EDGE_CURVE('',#31,#188,#193,.T.);
#195 = ORIENTED_EDGE('',*,*,#194,.T.);
#196 = DIRECTION('',(0.09801714032956073,-0.9951847266721969,0.));
#197 = VECTOR('',#196,1.);
#198 = LINE('',#187,#197);
#199 = EDGE_CURVE('',#188,#190,#198,.T.);
#200 = ORIENTED_EDGE('',*,*,#199,.T.);
#201 = DIRECTION('',(0.,0.,1.));
#202 = VECTOR('',#201,1.);
#203 = LINE('',#32,#202);
#204 = EDGE_CURVE('',#33,#190,#203,.T.);
#205 = ORIENTED_EDGE('',*,*,#204,.F.);
#206 = ORIENTED_EDGE('',*,*,#97,.F.);
#207 = CARTESIAN_POINT('',(2.353884672967753,1.4682167728387077,10.5));
#208 = DIRECTION('',(0.9951847266721969,0.09801714032956076,0.));
#209 = DIRECTION('',(0.,0.,1.));
#210 = AXIS2_PLACEMENT_3D('',#207,#208,#209);
#211 = PLANE('',#210);
#212 = EDGE_LOOP('',(#195,#200,#205,#206));
#213 = FACE_OUTER_BOUND('',#212,.T.);
#214 = ADVANCED_FACE('',(#213),#211,.T.);
#215 = CARTESIAN_POINT('',(-0.46821677283870766,3.353884672967753,15.));
#216 = VERTEX_POINT('',#215);
#217 = CARTESIAN_POINT('',(-0.9184402376762153,3.2173108780270883,15.));
#218 = VERTEX_POINT('',#217);
#219 = CARTESIAN_POINT('',(-1.3333685592470446,2.9955270695261085,15.));
#220 = VERTEX_POINT('',#219);
#221 = CARTESIAN_POINT('',(-1.6970562748477138,2.697056274847714,15.));
#222 = VERTEX_POINT('',#221);
#223 = CARTESIAN_POINT('',(-1.9955270695261087,2.3333685592470452,15.));
#224 = VERTEX_POINT('',#223);
#225 = CARTESIAN_POINT('',(-2.2173108780270883,1.9184402376762155,15.));
#226 = VERTEX_POINT('',#225);
#227 = CARTESIAN_POINT('',(-2.353884672967753,1.4682167728387077,15.));
#228 = VERTEX_POINT('',#227);
#229 = CARTESIAN_POINT('',(-2.4,1.,15.));
#230 = VERTEX_POINT('',#229);
#231 = CARTESIAN_POINT('',(-2.353884672967753,0.5317832271612919,15.));
#232 = VERTEX_POINT('',#231);
#233 = CARTESIAN_POINT('',(-2.2173108780270883,0.08155976232378481,15.));
#234 = VERTEX_POINT('',#233);
#235 = CARTESIAN_POINT('',(-2.013362936034288,-0.2999999999999998,15.));
#236 = VERTEX_POINT('',#235);
#237 = CARTESIAN_POINT('',(2.013362936034288,-0.2999999999999998,15.));
#238 = VERTEX_POINT('',#237);
#239 = CARTESIAN_POINT('',(2.2173108780270874,0.08155976232378481,15.));
#240 = VERTEX_POINT('',#239);
#241 = CARTESIAN_POINT('',(2.3538846729677525,0.5317832271612919,15.));
#242 = VERTEX_POINT('',#241);
#243 = CARTESIAN_POINT('',(2.2173108780270883,1.9184402376762155,15.));
#244 = VERTEX_POINT('',#243);
#245 = CARTESIAN_POINT('',(1.9955270695261085,2.3333685592470452,15.));
#246 = VERTEX_POINT('',#245);
#247 = CARTESIAN_POINT('',(1.697056274847714,2.697056274847714,15.));
#248 = VERTEX_POINT('',#247);
#249 = CARTESIAN_POINT('',(1.3333685592470454,2.9955270695261085,15.));
#250 = VERTEX_POINT('',#249);
#251 = CARTESIAN_POINT('',(0.9184402376762155,3.2173108780270883,15.));
#252 = VERTEX_POINT('',#251);
#253 = CARTESIAN_POINT('',(0.468216772838708,3.353884672967753,15.));
#254 = VERTEX_POINT('',#253);
#255 = CARTESIAN_POINT('',(0.,3.4,15.));
#256 = VERTEX_POINT('',#255);
#257 = DIRECTION('',(-0.9569403357322089,-0.290284677254462,0.));
#258 = VECTOR('',#257,1.);
#259 = LINE('',#215,#258);
#260 = EDGE_CURVE('',#216,#218,#259,.T.);
#261 = ORIENTED_EDGE('',*,*,#260,.T.);
#262 = DIRECTION('',(-0.8819212643483547,-0.4713967368259985,0.));
#263 = VECTOR('',#262,1.);
#264 = LINE('',#217,#263);
#265 = EDGE_CURVE('',#218,#220,#264,.T.);
#266 = ORIENTED_EDGE('',*,*,#265,.T.);
#267 = DIRECTION('',(-0.7730104533627373,-0.6343932841636452,0.));
#268 = VECTOR('',#267,1.);
#269 = LINE('',#219,#268);
#270 = EDGE_CURVE('',#220,#222,#269,.T.);
#271 = ORIENTED_EDGE('',*,*,#270,.T.);
#272 = DIRECTION('',(-0.6343932841636462,-0.7730104533627365,0.));
#273 = VECTOR('',#272,1.);
#274 = LINE('',#221,#273);
#275 = EDGE_CURVE('',#222,#224,#274,.T.);
#276 = ORIENTED_EDGE('',*,*,#275,.T.);
#277 = DIRECTION('',(-0.4713967368259977,-0.881921264348355,0.));
#278 = VECTOR('',#277,1.);
#279 = LINE('',#223,#278);
#280 = EDGE_CURVE('',#224,#226,#279,.T.);
#281 = ORIENTED_EDGE('',*,*,#280,.T.);
#282 = DIRECTION('',(-0.29028467725446183,-0.9569403357322088,0.));
#283 = VECTOR('',#282,1.);
#284 = LINE('',#225,#283);
#285 = EDGE_CURVE('',#226,#228,#284,.T.);
#286 = ORIENTED_EDGE('',*,*,#285,.T.);
#287 = DIRECTION('',(-0.09801714032956073,-0.9951847266721969,0.));
#288 = VECTOR('',#287,1.);
#289 = LINE('',#227,#288);
#290 = EDGE_CURVE('',#228,#230,#289,.T.);
#291 = ORIENTED_EDGE('',*,*,#290,.T.);
#292 = DIRECTION('',(-0.09801714032956065,0.9951847266721969,0.));
#293 = VECTOR('',#292,1.);
#294 = LINE('',#231,#293);
#295 = EDGE_CURVE('',#232,#230,#294,.T.);
#296 = ORIENTED_EDGE('',*,*,#295,.F.);
#297 = DIRECTION('',(-0.29028467725446233,0.9569403357322089,0.));
#298 = VECTOR('',#297,1.);
#299 = LINE('',#233,#298);
#300 = EDGE_CURVE('',#234,#232,#299,.T.);
#301 = ORIENTED_EDGE('',*,*,#300,.F.);
#302 = DIRECTION('',(-0.47139673682599736,0.881921264348355,0.));
#303 = VECTOR('',#302,1.);
#304 = LINE('',#235,#303);
#305 = EDGE_CURVE('',#236,#234,#304,.T.);
#306 = ORIENTED_EDGE('',*,*,#305,.F.);
#307 = DIRECTION('',(1.,0.,0.));
#308 = VECTOR('',#307,1.);
#309 = LINE('',#235,#308);
#310 = EDGE_CURVE('',#236,#238,#309,.T.);
#311 = ORIENTED_EDGE('',*,*,#310,.T.);
#312 = DIRECTION('',(0.47139673682599587,0.881921264348356,0.));
#313 = VECTOR('',#312,1.);
#314 = LINE('',#237,#313);
#315 = EDGE_CURVE('',#238,#240,#314,.T.);
#316 = ORIENTED_EDGE('',*,*,#315,.T.);
#317 = DIRECTION('',(0.29028467725446316,0.9569403357322086,0.));
#318 = VECTOR('',#317,1.);
#319 = LINE('',#239,#318);
#320 = EDGE_CURVE('',#240,#242,#319,.T.);
#321 = ORIENTED_EDGE('',*,*,#320,.T.);
#322 = DIRECTION('',(0.09801714032956158,0.9951847266721968,0.));
#323 = VECTOR('',#322,1.);
#324 = LINE('',#241,#323);
#325 = EDGE_CURVE('',#242,#190,#324,.T.);
#326 = ORIENTED_EDGE('',*,*,#325,.T.);
#327 = ORIENTED_EDGE('',*,*,#199,.F.);
#328 = DIRECTION('',(0.29028467725446183,-0.9569403357322088,0.));
#329 = VECTOR('',#328,1.);
#330 = LINE('',#243,#329);
#331 = EDGE_CURVE('',#244,#188,#330,.T.);
#332 = ORIENTED_EDGE('',*,*,#331,.F.);
#333 = DIRECTION('',(0.471396736825998,-0.8819212643483547,0.));
#334 = VECTOR('',#333,1.);
#335 = LINE('',#245,#334);
#336 = EDGE_CURVE('',#246,#244,#335,.T.);
#337 = ORIENTED_EDGE('',*,*,#336,.F.);
#338 = DIRECTION('',(0.6343932841636455,-0.7730104533627369,0.));
#339 = VECTOR('',#338,1.);
#340 = LINE('',#247,#339);
#341 = EDGE_CURVE('',#248,#246,#340,.T.);
#342 = ORIENTED_EDGE('',*,*,#341,.F.);
#343 = DIRECTION('',(0.7730104533627368,-0.6343932841636458,0.));
#344 = VECTOR('',#343,1.);
#345 = LINE('',#249,#344);
#346 = EDGE_CURVE('',#250,#248,#345,.T.);
#347 = ORIENTED_EDGE('',*,*,#346,.F.);
#348 = DIRECTION('',(0.8819212643483548,-0.4713967368259978,0.));
#349 = VECTOR('',#348,1.);
#350 = LINE('',#251,#349);
#351 = EDGE_CURVE('',#252,#250,#350,.T.);
#352 = ORIENTED_EDGE('',*,*,#351,.F.);
#353 = DIRECTION('',(0.9569403357322089,-0.29028467725446205,0.));
#354 = VECTOR('',#353,1.);
#355 = LINE('',#253,#354);
#356 = EDGE_CURVE('',#254,#252,#355,.T.);
#357 = ORIENTED_EDGE('',*,*,#356,.F.);
#358 = DIRECTION('',(0.9951847266721969,-0.09801714032956066,0.));
#359 = VECTOR('',#358,1.);
#360 = LINE('',#255,#359);
#361 = EDGE_CURVE('',#256,#254,#360,.T.);
#362 = ORIENTED_EDGE('',*,*,#361,.F.);
#363 = DIRECTION('',(0.9951847266721969,0.09801714032956073,0.));
#364 = VECTOR('',#363,1.);
#365 = LINE('',#215,#364);
#366 = EDGE_CURVE('',#216,#256,#365,.T.);
#367 = ORIENTED_EDGE('',*,*,#366,.F.);
#368 = CARTESIAN_POINT('',(-0.46821677283870766,3.353884672967753,15.));
#369 = DIRECTION('',(0.,0.,1.));
#370 = DIRECTION('',(-0.9569403357322089,-0.290284677254462,0.));
#371 = AXIS2_PLACEMENT_3D('',#368,#369,#370);
#372 = PLANE('',#371);
#373 = EDGE_LOOP('',(#261,#266,#271,#276,#281,#286,#291,#296,#301,#306,#311,#316,#321,#326,#327,#332,#337,#342,#347,#352,#357,#362,#367));
#374 = FACE_OUTER_BOUND('',#373,.T.);
#375 = ADVANCED_FACE('',(#374),#372,.T.);
#376 = DIRECTION('',(0.,0.,1.));
#377 = VECTOR('',#376,1.);
#378 = LINE('',#28,#377);
#379 = EDGE_CURVE('',#29,#244,#378,.T.);
#380 = ORIENTED_EDGE('',*,*,#379,.T.);
#381 = ORIENTED_EDGE('',*,*,#331,.T.);
#382 = ORIENTED_EDGE('',*,*,#194,.F.);
#383 = ORIENTED_EDGE('',*,*,#92,.F.);
#384 = CARTESIAN_POINT('',(2.2173108780270883,1.9184402376762155,10.5));
#385 = DIRECTION('',(0.956940335732209,0.29028467725446155,0.));
#386 = DIRECTION('',(0.,0.,1.));
#387 = AXIS2_PLACEMENT_3D('',#384,#385,#386);
#388 = PLANE('',#387);
#389 = EDGE_LOOP('',(#380,#381,#382,#383));
#390 = FACE_OUTER_BOUND('',#389,.T.);
#391 = ADVANCED_FACE('',(#390),#388,.T.);
#392 = DIRECTION('',(0.,0.,1.));
#393 = VECTOR('',#392,1.);
#394 = LINE('',#26,#393);
#395 = EDGE_CURVE('',#27,#246,#394,.T.);
#396 = ORIENTED_EDGE('',*,*,#395,.T.);
#397 = ORIENTED_EDGE('',*,*,#336,.T.);
#398 = ORIENTED_EDGE('',*,*,#379,.F.);
#399 = ORIENTED_EDGE('',*,*,#87,.F.);
#400 = CARTESIAN_POINT('',(1.9955270695261085,2.3333685592470452,10.5));
#401 = DIRECTION('',(0.8819212643483547,0.47139673682599825,0.));
#402 = DIRECTION('',(0.,0.,1.));
#403 = AXIS2_PLACEMENT_3D('',#400,#401,#402);
#404 = PLANE('',#403);
#405 = EDGE_LOOP('',(#396,#397,#398,#399));
#406 = FACE_OUTER_BOUND('',#405,.T.);
#407 = ADVANCED_FACE('',(#406),#404,.T.);
#408 = DIRECTION('',(0.,0.,1.));
#409 = VECTOR('',#408,1.);
#410 = LINE('',#24,#409);
#411 = EDGE_CURVE('',#25,#248,#410,.T.);
#412 = ORIENTED_EDGE('',*,*,#411,.T.);
#413 = ORIENTED_EDGE('',*,*,#341,.T.);
#414 = ORIENTED_EDGE('',*,*,#395,.F.);
#415 = ORIENTED_EDGE('',*,*,#82,.F.);
#416 = CARTESIAN_POINT('',(1.697056274847714,2.697056274847714,10.5));
#417 = DIRECTION('',(0.7730104533627369,0.6343932841636457,0.));
#418 = DIRECTION('',(0.,0.,1.));
#419 = AXIS2_PLACEMENT_3D('',#416,#417,#418);
#420 = PLANE('',#419);
#421 = EDGE_LOOP('',(#412,#413,#414,#415));
#422 = FACE_OUTER_BOUND('',#421,.T.);
#423 = ADVANCED_FACE('',(#422),#420,.T.);
#424 = DIRECTION('',(0.,0.,1.));
#425 = VECTOR('',#424,1.);
#426 = LINE('',#22,#425);
#427 = EDGE_CURVE('',#23,#250,#426,.T.);
#428 = ORIENTED_EDGE('',*,*,#427,.T.);
#429 = ORIENTED_EDGE('',*,*,#346,.T.);
#430 = ORIENTED_EDGE('',*,*,#411,.F.);
#431 = ORIENTED_EDGE('',*,*,#77,.F.);
#432 = CARTESIAN_POINT('',(1.3333685592470454,2.9955270695261085,10.5));
#433 = DIRECTION('',(0.6343932841636458,0.7730104533627364,0.));
#434 = DIRECTION('',(0.,0.,1.));
#435 = AXIS2_PLACEMENT_3D('',#432,#433,#434);
#436 = PLANE('',#435);
#437 = EDGE_LOOP('',(#428,#429,#430,#431));
#438 = FACE_OUTER_BOUND('',#437,.T.);
#439 = ADVANCED_FACE('',(#438),#436,.T.);
#440 = DIRECTION('',(0.,0.,1.));
#441 = VECTOR('',#440,1.);
#442 = LINE('',#20,#441);
#443 = EDGE_CURVE('',#21,#252,#442,.T.);
#444 = ORIENTED_EDGE('',*,*,#443,.T.);
#445 = ORIENTED_EDGE('',*,*,#351,.T.);
#446 = ORIENTED_EDGE('',*,*,#427,.F.);
#447 = ORIENTED_EDGE('',*,*,#72,.F.);
#448 = CARTESIAN_POINT('',(0.9184402376762155,3.2173108780270883,10.5));
#449 = DIRECTION('',(0.47139673682599764,0.8819212643483548,0.));
#450 = DIRECTION('',(0.,0.,1.));
#451 = AXIS2_PLACEMENT_3D('',#448,#449,#450);
#452 = PLANE('',#451);
#453 = EDGE_LOOP('',(#444,#445,#446,#447));
#454 = FACE_OUTER_BOUND('',#453,.T.);
#455 = ADVANCED_FACE('',(#454),#452,.T.);
#456 = DIRECTION('',(0.,0.,1.));
#457 = VECTOR('',#456,1.);
#458 = LINE('',#18,#457);
#459 = EDGE_CURVE('',#19,#254,#458,.T.);
#460 = ORIENTED_EDGE('',*,*,#459,.T.);
#461 = ORIENTED_EDGE('',*,*,#356,.T.);
#462 = ORIENTED_EDGE('',*,*,#443,.F.);
#463 = ORIENTED_EDGE('',*,*,#67,.F.);
#464 = CARTESIAN_POINT('',(0.468216772838708,3.353884672967753,10.5));
#465 = DIRECTION('',(0.29028467725446205,0.9569403357322088,0.));
#466 = DIRECTION('',(0.,0.,1.));
#467 = AXIS2_PLACEMENT_3D('',#464,#465,#466);
#468 = PLANE('',#467);
#469 = EDGE_LOOP('',(#460,#461,#462,#463));
#470 = FACE_OUTER_BOUND('',#469,.T.);
#471 = ADVANCED_FACE('',(#470),#468,.T.);
#472 = DIRECTION('',(0.,0.,1.));
#473 = VECTOR('',#472,1.);
#474 = LINE('',#62,#473);
#475 = EDGE_CURVE('',#63,#256,#474,.T.);
#476 = ORIENTED_EDGE('',*,*,#475,.T.);
#477 = ORIENTED_EDGE('',*,*,#361,.T.);
#478 = ORIENTED_EDGE('',*,*,#459,.F.);
#479 = ORIENTED_EDGE('',*,*,#177,.F.);
#480 = CARTESIAN_POINT('',(0.,3.4,10.5));
#481 = DIRECTION('',(0.09801714032956067,0.9951847266721969,0.));
#482 = DIRECTION('',(0.,0.,1.));
#483 = AXIS2_PLACEMENT_3D('',#480,#481,#482);
#484 = PLANE('',#483);
#485 = EDGE_LOOP('',(#476,#477,#478,#479));
#486 = FACE_OUTER_BOUND('',#485,.T.);
#487 = ADVANCED_FACE('',(#486),#484,.T.);
#488 = DIRECTION('',(0.,0.,1.));
#489 = VECTOR('',#488,1.);
#490 = LINE('',#60,#489);
#491 = EDGE_CURVE('',#61,#216,#490,.T.);
#492 = ORIENTED_EDGE('',*,*,#491,.T.);
#493 = ORIENTED_EDGE('',*,*,#366,.T.);
#494 = ORIENTED_EDGE('',*,*,#475,.F.);
#495 = ORIENTED_EDGE('',*,*,#172,.F.);
#496 = CARTESIAN_POINT('',(-0.46821677283870766,3.353884672967753,10.5));
#497 = DIRECTION('',(-0.09801714032956074,0.9951847266721969,0.));
#498 = DIRECTION('',(0.,0.,1.));
#499 = AXIS2_PLACEMENT_3D('',#496,#497,#498);
#500 = PLANE('',#499);
#501 = EDGE_LOOP('',(#492,#493,#494,#495));
#502 = FACE_OUTER_BOUND('',#501,.T.);
#503 = ADVANCED_FACE('',(#502),#500,.T.);
#504 = DIRECTION('',(0.,0.,1.));
#505 = VECTOR('',#504,1.);
#506 = LINE('',#58,#505);
#507 = EDGE_CURVE('',#59,#218,#506,.T.);
#508 = ORIENTED_EDGE('',*,*,#507,.T.);
#509 = ORIENTED_EDGE('',*,*,#260,.F.);
#510 = ORIENTED_EDGE('',*,*,#491,.F.);
#511 = ORIENTED_EDGE('',*,*,#167,.T.);
#512 = CARTESIAN_POINT('',(-0.9184402376762153,3.2173108780270883,10.5));
#513 = DIRECTION('',(-0.290284677254462,0.9569403357322088,0.));
#514 = DIRECTION('',(0.,0.,1.));
#515 = AXIS2_PLACEMENT_3D('',#512,#513,#514);
#516 = PLANE('',#515);
#517 = EDGE_LOOP('',(#508,#509,#510,#511));
#518 = FACE_OUTER_BOUND('',#517,.T.);
#519 = ADVANCED_FACE('',(#518),#516,.T.);
#520 = DIRECTION('',(0.,0.,1.));
#521 = VECTOR('',#520,1.);
#522 = LINE('',#56,#521);
#523 = EDGE_CURVE('',#57,#220,#522,.T.);
#524 = ORIENTED_EDGE('',*,*,#523,.T.);
#525 = ORIENTED_EDGE('',*,*,#265,.F.);
#526 = ORIENTED_EDGE('',*,*,#507,.F.);
#527 = ORIENTED_EDGE('',*,*,#162,.T.);
#528 = CARTESIAN_POINT('',(-1.3333685592470446,2.9955270695261085,10.5));
#529 = DIRECTION('',(-0.47139673682599825,0.8819212643483546,0.));
#530 = DIRECTION('',(0.,0.,1.));
#531 = AXIS2_PLACEMENT_3D('',#528,#529,#530);
#532 = PLANE('',#531);
#533 = EDGE_LOOP('',(#524,#525,#526,#527));
#534 = FACE_OUTER_BOUND('',#533,.T.);
#535 = ADVANCED_FACE('',(#534),#532,.T.);
#536 = DIRECTION('',(0.,0.,1.));
#537 = VECTOR('',#536,1.);
#538 = LINE('',#54,#537);
#539 = EDGE_CURVE('',#55,#222,#538,.T.);
#540 = ORIENTED_EDGE('',*,*,#539,.T.);
#541 = ORIENTED_EDGE('',*,*,#270,.F.);
#542 = ORIENTED_EDGE('',*,*,#523,.F.);
#543 = ORIENTED_EDGE('',*,*,#157,.T.);
#544 = CARTESIAN_POINT('',(-1.6970562748477138,2.6970562748477143,10.5));
#545 = DIRECTION('',(-0.6343932841636446,0.7730104533627378,0.));
#546 = DIRECTION('',(0.,0.,1.));
#547 = AXIS2_PLACEMENT_3D('',#544,#545,#546);
#548 = PLANE('',#547);
#549 = EDGE_LOOP('',(#540,#541,#542,#543));
#550 = FACE_OUTER_BOUND('',#549,.T.);
#551 = ADVANCED_FACE('',(#550),#548,.T.);
#552 = DIRECTION('',(0.,0.,1.));
#553 = VECTOR('',#552,1.);
#554 = LINE('',#52,#553);
#555 = EDGE_CURVE('',#53,#224,#554,.T.);
#556 = ORIENTED_EDGE('',*,*,#555,.T.);
#557 = ORIENTED_EDGE('',*,*,#275,.F.);
#558 = ORIENTED_EDGE('',*,*,#539,.F.);
#559 = ORIENTED_EDGE('',*,*,#152,.T.);
#560 = CARTESIAN_POINT('',(-1.9955270695261087,2.3333685592470452,10.5));
#561 = DIRECTION('',(-0.7730104533627369,0.6343932841636459,0.));
#562 = DIRECTION('',(0.,0.,1.));
#563 = AXIS2_PLACEMENT_3D('',#560,#561,#562);
#564 = PLANE('',#563);
#565 = EDGE_LOOP('',(#556,#557,#558,#559));
#566 = FACE_OUTER_BOUND('',#565,.T.);
#567 = ADVANCED_FACE('',(#566),#564,.T.);
#568 = DIRECTION('',(0.,0.,1.));
#569 = VECTOR('',#568,1.);
#570 = LINE('',#50,#569);
#571 = EDGE_CURVE('',#51,#226,#570,.T.);
#572 = ORIENTED_EDGE('',*,*,#571,.T.);
#573 = ORIENTED_EDGE('',*,*,#280,.F.);
#574 = ORIENTED_EDGE('',*,*,#555,.F.);
#575 = ORIENTED_EDGE('',*,*,#147,.T.);
#576 = CARTESIAN_POINT('',(-2.2173108780270883,1.9184402376762157,10.5));
#577 = DIRECTION('',(-0.881921264348355,0.4713967368259976,0.));
#578 = DIRECTION('',(0.,0.,1.));
#579 = AXIS2_PLACEMENT_3D('',#576,#577,#578);
#580 = PLANE('',#579);
#581 = EDGE_LOOP('',(#572,#573,#574,#575));
#582 = FACE_OUTER_BOUND('',#581,.T.);
#583 = ADVANCED_FACE('',(#582),#580,.T.);
#584 = DIRECTION('',(0.,0.,1.));
#585 = VECTOR('',#584,1.);
#586 = LINE('',#48,#585);
#587 = EDGE_CURVE('',#49,#228,#586,.T.);
#588 = ORIENTED_EDGE('',*,*,#587,.T.);
#589 = ORIENTED_EDGE('',*,*,#285,.F.);
#590 = ORIENTED_EDGE('',*,*,#571,.F.);
#591 = ORIENTED_EDGE('',*,*,#142,.T.);
#592 = CARTESIAN_POINT('',(-2.353884672967753,1.4682167728387086,10.5));
#593 = DIRECTION('',(-0.9569403357322088,0.2902846772544619,0.));
#594 = DIRECTION('',(0.,0.,1.));
#595 = AXIS2_PLACEMENT_3D('',#592,#593,#594);
#596 = PLANE('',#595);
#597 = EDGE_LOOP('',(#588,#589,#590,#591));
#598 = FACE_OUTER_BOUND('',#597,.T.);
#599 = ADVANCED_FACE('',(#598),#596,.T.);
#600 = DIRECTION('',(0.,0.,1.));
#601 = VECTOR('',#600,1.);
#602 = LINE('',#46,#601);
#603 = EDGE_CURVE('',#47,#230,#602,.T.);
#604 = ORIENTED_EDGE('',*,*,#603,.T.);
#605 = ORIENTED_EDGE('',*,*,#290,.F.);
#606 = ORIENTED_EDGE('',*,*,#587,.F.);
#607 = ORIENTED_EDGE('',*,*,#137,.T.);
#608 = CARTESIAN_POINT('',(-2.4,1.,10.5));
#609 = DIRECTION('',(-0.9951847266721969,0.09801714032956055,0.));
#610 = DIRECTION('',(0.,0.,1.));
#611 = AXIS2_PLACEMENT_3D('',#608,#609,#610);
#612 = PLANE('',#611);
#613 = EDGE_LOOP('',(#604,#605,#606,#607));
#614 = FACE_OUTER_BOUND('',#613,.T.);
#615 = ADVANCED_FACE('',(#614),#612,.T.);
#616 = DIRECTION('',(0.,0.,1.));
#617 = VECTOR('',#616,1.);
#618 = LINE('',#44,#617);
#619 = EDGE_CURVE('',#45,#232,#618,.T.);
#620 = ORIENTED_EDGE('',*,*,#619,.T.);
#621 = ORIENTED_EDGE('',*,*,#295,.T.);
#622 = ORIENTED_EDGE('',*,*,#603,.F.);
#623 = ORIENTED_EDGE('',*,*,#132,.F.);
#624 = CARTESIAN_POINT('',(-2.353884672967753,0.5317832271612919,10.5));
#625 = DIRECTION('',(-0.9951847266721969,-0.09801714032956067,0.));
#626 = DIRECTION('',(0.,0.,1.));
#627 = AXIS2_PLACEMENT_3D('',#624,#625,#626);
#628 = PLANE('',#627);
#629 = EDGE_LOOP('',(#620,#621,#622,#623));
#630 = FACE_OUTER_BOUND('',#629,.T.);
#631 = ADVANCED_FACE('',(#630),#628,.T.);
#632 = DIRECTION('',(0.,0.,1.));
#633 = VECTOR('',#632,1.);
#634 = LINE('',#42,#633);
#635 = EDGE_CURVE('',#43,#234,#634,.T.);
#636 = ORIENTED_EDGE('',*,*,#635,.T.);
#637 = ORIENTED_EDGE('',*,*,#300,.T.);
#638 = ORIENTED_EDGE('',*,*,#619,.F.);
#639 = ORIENTED_EDGE('',*,*,#127,.F.);
#640 = CARTESIAN_POINT('',(-2.2173108780270883,0.08155976232378481,10.5));
#641 = DIRECTION('',(-0.956940335732209,-0.29028467725446205,0.));
#642 = DIRECTION('',(0.,0.,1.));
#643 = AXIS2_PLACEMENT_3D('',#640,#641,#642);
#644 = PLANE('',#643);
#645 = EDGE_LOOP('',(#636,#637,#638,#639));
#646 = FACE_OUTER_BOUND('',#645,.T.);
#647 = ADVANCED_FACE('',(#646),#644,.T.);
#648 = DIRECTION('',(0.,0.,1.));
#649 = VECTOR('',#648,1.);
#650 = LINE('',#34,#649);
#651 = EDGE_CURVE('',#35,#242,#650,.T.);
#652 = ORIENTED_EDGE('',*,*,#651,.T.);
#653 = ORIENTED_EDGE('',*,*,#320,.F.);
#654 = DIRECTION('',(0.,0.,1.));
#655 = VECTOR('',#654,1.);
#656 = LINE('',#36,#655);
#657 = EDGE_CURVE('',#37,#240,#656,.T.);
#658 = ORIENTED_EDGE('',*,*,#657,.F.);
#659 = ORIENTED_EDGE('',*,*,#107,.T.);
#660 = CARTESIAN_POINT('',(2.3538846729677525,0.5317832271612911,10.5));
#661 = DIRECTION('',(0.9569403357322089,-0.2902846772544622,0.));
#662 = DIRECTION('',(0.,0.,1.));
#663 = AXIS2_PLACEMENT_3D('',#660,#661,#662);
#664 = PLANE('',#663);
#665 = EDGE_LOOP('',(#652,#653,#658,#659));
#666 = FACE_OUTER_BOUND('',#665,.T.);
#667 = ADVANCED_FACE('',(#666),#664,.T.);
#668 = ORIENTED_EDGE('',*,*,#204,.T.);
#669 = ORIENTED_EDGE('',*,*,#325,.F.);
#670 = ORIENTED_EDGE('',*,*,#651,.F.);
#671 = ORIENTED_EDGE('',*,*,#102,.T.);
#672 = CARTESIAN_POINT('',(2.4,1.,10.5));
#673 = DIRECTION('',(0.9951847266721969,-0.09801714032956131,0.));
#674 = DIRECTION('',(0.,0.,1.));
#675 = AXIS2_PLACEMENT_3D('',#672,#673,#674);
#676 = PLANE('',#675);
#677 = EDGE_LOOP('',(#668,#669,#670,#671));
#678 = FACE_OUTER_BOUND('',#677,.T.);
#679 = ADVANCED_FACE('',(#678),#676,.T.);
#680 = ORIENTED_EDGE('',*,*,#310,.F.);
#681 = DIRECTION('',(0.,0.,1.));
#682 = VECTOR('',#681,1.);
#683 = LINE('',#40,#682);
#684 = EDGE_CURVE('',#41,#236,#683,.T.);
#685 = ORIENTED_EDGE('',*,*,#684,.F.);
#686 = ORIENTED_EDGE('',*,*,#117,.T.);
#687 = DIRECTION('',(0.,0.,1.));
#688 = VECTOR('',#687,1.);
#689 = LINE('',#38,#688);
#690 = EDGE_CURVE('',#39,#238,#689,.T.);
#691 = ORIENTED_EDGE('',*,*,#690,.T.);
#692 = CARTESIAN_POINT('',(2.0133629360342873,-0.2999999999999998,15.));
#693 = DIRECTION('',(0.,-1.,0.));
#694 = DIRECTION('',(-1.,0.,0.));
#695 = AXIS2_PLACEMENT_3D('',#692,#693,#694);
#696 = PLANE('',#695);
#697 = EDGE_LOOP('',(#680,#685,#686,#691));
#698 = FACE_OUTER_BOUND('',#697,.T.);
#699 = ADVANCED_FACE('',(#698),#696,.T.);
#700 = ORIENTED_EDGE('',*,*,#684,.T.);
#701 = ORIENTED_EDGE('',*,*,#305,.T.);
#702 = ORIENTED_EDGE('',*,*,#635,.F.);
#703 = ORIENTED_EDGE('',*,*,#122,.F.);
#704 = CARTESIAN_POINT('',(-2.013362936034288,-0.2999999999999998,10.5));
#705 = DIRECTION('',(-0.881921264348355,-0.4713967368259977,0.));
#706 = DIRECTION('',(0.,0.,1.));
#707 = AXIS2_PLACEMENT_3D('',#704,#705,#706);
#708 = PLANE('',#707);
#709 = EDGE_LOOP('',(#700,#701,#702,#703));
#710 = FACE_OUTER_BOUND('',#709,.T.);
#711 = ADVANCED_FACE('',(#710),#708,.T.);
#712 = ORIENTED_EDGE('',*,*,#112,.T.);
#713 = ORIENTED_EDGE('',*,*,#657,.T.);
#714 = ORIENTED_EDGE('',*,*,#315,.F.);
#715 = ORIENTED_EDGE('',*,*,#690,.F.);
#716 = CARTESIAN_POINT('',(2.013362936034288,-0.2999999999999998,10.5));
#717 = DIRECTION('',(0.8819212643483549,-0.47139673682599775,0.));
#718 = DIRECTION('',(0.47139673682599736,0.881921264348355,0.));
#719 = AXIS2_PLACEMENT_3D('',#716,#717,#718);
#720 = PLANE('',#719);
#721 = EDGE_LOOP('',(#712,#713,#714,#715));
#722 = FACE_OUTER_BOUND('',#721,.T.);
#723 = ADVANCED_FACE('',(#722),#720,.T.);
#724 = CLOSED_SHELL('',(#186,#214,#375,#391,#407,#423,#439,#455,#471,#487,#503,#519,#535,#551,#567,#583,#599,#615,#631,#647,#667,#679,#699,#711,#723));
#725 = MANIFOLD_SOLID_BREP('',#724);
#726 = COLOUR_RGB('',0.13333333333333333,0.13333333333333333,0.13333333333333333);
#727 = FILL_AREA_STYLE_COLOUR('',#726);
#728 = FILL_AREA_STYLE('',(#727));
#729 = SURFACE_STYLE_FILL_AREA(#728);
#730 = SURFACE_SIDE_STYLE('',(#729));
#731 = SURFACE_STYLE_USAGE(.BOTH.,#730);
#732 = PRESENTATION_STYLE_ASSIGNMENT((#731));
#733 = STYLED_ITEM('',(#732),#725);
#734 = CARTESIAN_POINT('',(-0.215,0.8,9.18));
#735 = VERTEX_POINT('',#734);
#736 = CARTESIAN_POINT('',(-0.215,0.8,10.5));
#737 = VERTEX_POINT('',#736);
#738 = CARTESIAN_POINT('',(-0.215,1.2,10.5));
#739 = VERTEX_POINT('',#738);
#740 = CARTESIAN_POINT('',(-0.215,1.2,9.18));
#741 = VERTEX_POINT('',#740);
#742 = DIRECTION('',(0.,0.,-1.));
#743 = VECTOR('',#742,1.);
#744 = LINE('',#736,#743);
#745 = EDGE_CURVE('',#737,#735,#744,.T.);
#746 = ORIENTED_EDGE('',*,*,#745,.F.);
#747 = DIRECTION('',(0.,1.,0.));
#748 = VECTOR('',#747,1.);
#749 = LINE('',#736,#748);
#750 = EDGE_CURVE('',#737,#739,#749,.T.);
#751 = ORIENTED_EDGE('',*,*,#750,.T.);
#752 = DIRECTION('',(0.,0.,-1.));
#753 = VECTOR('',#752,1.);
#754 = LINE('',#738,#753);
#755 = EDGE_CURVE('',#739,#741,#754,.T.);
#756 = ORIENTED_EDGE('',*,*,#755,.T.);
#757 = DIRECTION('',(0.,1.,0.));
#758 = VECTOR('',#757,1.);
#759 = LINE('',#734,#758);
#760 = EDGE_CURVE('',#735,#741,#759,.T.);
#761 = ORIENTED_EDGE('',*,*,#760,.F.);
#762 = CARTESIAN_POINT('',(-0.215,0.8,9.18));
#763 = DIRECTION('',(-1.,0.,0.));
#764 = DIRECTION('',(0.,0.,1.));
#765 = AXIS2_PLACEMENT_3D('',#762,#763,#764);
#766 = PLANE('',#765);
#767 = EDGE_LOOP('',(#746,#751,#756,#761));
#768 = FACE_OUTER_BOUND('',#767,.T.);
#769 = ADVANCED_FACE('',(#768),#766,.T.);
#770 = CARTESIAN_POINT('',(0.215,0.8,9.18));
#771 = VERTEX_POINT('',#770);
#772 = CARTESIAN_POINT('',(0.215,1.2,9.18));
#773 = VERTEX_POINT('',#772);
#774 = CARTESIAN_POINT('',(0.215,1.2,10.5));
#775 = VERTEX_POINT('',#774);
#776 = CARTESIAN_POINT('',(0.215,0.8,10.5));
#777 = VERTEX_POINT('',#776);
#778 = DIRECTION('',(0.,1.,0.));
#779 = VECTOR('',#778,1.);
#780 = LINE('',#770,#779);
#781 = EDGE_CURVE('',#771,#773,#780,.T.);
#782 = ORIENTED_EDGE('',*,*,#781,.T.);
#783 = DIRECTION('',(0.,0.,-1.));
#784 = VECTOR('',#783,1.);
#785 = LINE('',#774,#784);
#786 = EDGE_CURVE('',#775,#773,#785,.T.);
#787 = ORIENTED_EDGE('',*,*,#786,.F.);
#788 = DIRECTION('',(0.,1.,0.));
#789 = VECTOR('',#788,1.);
#790 = LINE('',#776,#789);
#791 = EDGE_CURVE('',#777,#775,#790,.T.);
#792 = ORIENTED_EDGE('',*,*,#791,.F.);
#793 = DIRECTION('',(0.,0.,-1.));
#794 = VECTOR('',#793,1.);
#795 = LINE('',#776,#794);
#796 = EDGE_CURVE('',#777,#771,#795,.T.);
#797 = ORIENTED_EDGE('',*,*,#796,.T.);
#798 = CARTESIAN_POINT('',(0.215,0.8,9.18));
#799 = DIRECTION('',(1.,0.,0.));
#800 = DIRECTION('',(0.,1.,0.));
#801 = AXIS2_PLACEMENT_3D('',#798,#799,#800);
#802 = PLANE('',#801);
#803 = EDGE_LOOP('',(#782,#787,#792,#797));
#804 = FACE_OUTER_BOUND('',#803,.T.);
#805 = ADVANCED_FACE('',(#804),#802,.T.);
#806 = DIRECTION('',(1.,0.,0.));
#807 = VECTOR('',#806,1.);
#808 = LINE('',#734,#807);
#809 = EDGE_CURVE('',#735,#771,#808,.T.);
#810 = ORIENTED_EDGE('',*,*,#809,.T.);
#811 = ORIENTED_EDGE('',*,*,#796,.F.);
#812 = DIRECTION('',(1.,0.,0.));
#813 = VECTOR('',#812,1.);
#814 = LINE('',#736,#813);
#815 = EDGE_CURVE('',#737,#777,#814,.T.);
#816 = ORIENTED_EDGE('',*,*,#815,.F.);
#817 = ORIENTED_EDGE('',*,*,#745,.T.);
#818 = CARTESIAN_POINT('',(-0.215,0.8,9.18));
#819 = DIRECTION('',(0.,-1.,0.));
#820 = DIRECTION('',(1.,0.,0.));
#821 = AXIS2_PLACEMENT_3D('',#818,#819,#820);
#822 = PLANE('',#821);
#823 = EDGE_LOOP('',(#810,#811,#816,#817));
#824 = FACE_OUTER_BOUND('',#823,.T.);
#825 = ADVANCED_FACE('',(#824),#822,.T.);
#826 = ORIENTED_EDGE('',*,*,#755,.F.);
#827 = DIRECTION('',(1.,0.,0.));
#828 = VECTOR('',#827,1.);
#829 = LINE('',#738,#828);
#830 = EDGE_CURVE('',#739,#775,#829,.T.);
#831 = ORIENTED_EDGE('',*,*,#830,.T.);
#832 = ORIENTED_EDGE('',*,*,#786,.T.);
#833 = DIRECTION('',(1.,0.,0.));
#834 = VECTOR('',#833,1.);
#835 = LINE('',#740,#834);
#836 = EDGE_CURVE('',#741,#773,#835,.T.);
#837 = ORIENTED_EDGE('',*,*,#836,.F.);
#838 = CARTESIAN_POINT('',(-0.215,1.2,9.18));
#839 = DIRECTION('',(0.,1.,0.));
#840 = DIRECTION('',(0.,0.,1.));
#841 = AXIS2_PLACEMENT_3D('',#838,#839,#840);
#842 = PLANE('',#841);
#843 = EDGE_LOOP('',(#826,#831,#832,#837));
#844 = FACE_OUTER_BOUND('',#843,.T.);
#845 = ADVANCED_FACE('',(#844),#842,.T.);
#846 = ORIENTED_EDGE('',*,*,#760,.T.);
#847 = ORIENTED_EDGE('',*,*,#836,.T.);
#848 = ORIENTED_EDGE('',*,*,#781,.F.);
#849 = ORIENTED_EDGE('',*,*,#809,.F.);
#850 = CARTESIAN_POINT('',(-0.215,0.8,9.18));
#851 = DIRECTION('',(0.,0.,-1.));
#852 = DIRECTION('',(0.,1.,0.));
#853 = AXIS2_PLACEMENT_3D('',#850,#851,#852);
#854 = PLANE('',#853);
#855 = EDGE_LOOP('',(#846,#847,#848,#849));
#856 = FACE_OUTER_BOUND('',#855,.T.);
#857 = ADVANCED_FACE('',(#856),#854,.T.);
#858 = ORIENTED_EDGE('',*,*,#815,.T.);
#859 = ORIENTED_EDGE('',*,*,#791,.T.);
#860 = ORIENTED_EDGE('',*,*,#830,.F.);
#861 = ORIENTED_EDGE('',*,*,#750,.F.);
#862 = CARTESIAN_POINT('',(-0.215,0.8,10.5));
#863 = DIRECTION('',(0.,0.,1.));
#864 = DIRECTION('',(1.,0.,0.));
#865 = AXIS2_PLACEMENT_3D('',#862,#863,#864);
#866 = PLANE('',#865);
#867 = EDGE_LOOP('',(#858,#859,#860,#861));
#868 = FACE_OUTER_BOUND('',#867,.T.);
#869 = ADVANCED_FACE('',(#868),#866,.T.);
#870 = CLOSED_SHELL('',(#769,#805,#825,#845,#857,#869));
#871 = MANIFOLD_SOLID_BREP('',#870);
#872 = CARTESIAN_POINT('',(-0.215,2.08,7.654999999999999));
#873 = VERTEX_POINT('',#872);
#874 = CARTESIAN_POINT('',(0.215,2.08,7.654999999999999));
#875 = VERTEX_POINT('',#874);
#876 = CARTESIAN_POINT('',(0.215,0.8,9.055));
#877 = VERTEX_POINT('',#876);
#878 = CARTESIAN_POINT('',(-0.215,0.8,9.055));
#879 = VERTEX_POINT('',#878);
#880 = DIRECTION('',(1.,0.,0.));
#881 = VECTOR('',#880,1.);
#882 = LINE('',#872,#881);
#883 = EDGE_CURVE('',#873,#875,#882,.T.);
#884 = ORIENTED_EDGE('',*,*,#883,.T.);
#885 = DIRECTION('',(0.,0.6747691995449355,-0.7380288120022734));
#886 = VECTOR('',#885,1.);
#887 = LINE('',#876,#886);
#888 = EDGE_CURVE('',#877,#875,#887,.T.);
#889 = ORIENTED_EDGE('',*,*,#888,.F.);
#890 = DIRECTION('',(1.,0.,0.));
#891 = VECTOR('',#890,1.);
#892 = LINE('',#878,#891);
#893 = EDGE_CURVE('',#879,#877,#892,.T.);
#894 = ORIENTED_EDGE('',*,*,#893,.F.);
#895 = DIRECTION('',(0.,0.6747691995449355,-0.7380288120022734));
#896 = VECTOR('',#895,1.);
#897 = LINE('',#878,#896);
#898 = EDGE_CURVE('',#879,#873,#897,.T.);
#899 = ORIENTED_EDGE('',*,*,#898,.T.);
#900 = CARTESIAN_POINT('',(-0.215,2.08,7.654999999999999));
#901 = DIRECTION('',(0.,-0.7380288120022734,-0.6747691995449356));
#902 = DIRECTION('',(1.,0.,0.));
#903 = AXIS2_PLACEMENT_3D('',#900,#901,#902);
#904 = PLANE('',#903);
#905 = EDGE_LOOP('',(#884,#889,#894,#899));
#906 = FACE_OUTER_BOUND('',#905,.T.);
#907 = ADVANCED_FACE('',(#906),#904,.T.);
#908 = CARTESIAN_POINT('',(0.215,2.48,7.904999999999999));
#909 = VERTEX_POINT('',#908);
#910 = CARTESIAN_POINT('',(-0.215,2.48,7.904999999999999));
#911 = VERTEX_POINT('',#910);
#912 = CARTESIAN_POINT('',(-0.215,1.2,9.305));
#913 = VERTEX_POINT('',#912);
#914 = CARTESIAN_POINT('',(0.215,1.2,9.305));
#915 = VERTEX_POINT('',#914);
#916 = DIRECTION('',(1.,0.,0.));
#917 = VECTOR('',#916,1.);
#918 = LINE('',#910,#917);
#919 = EDGE_CURVE('',#911,#909,#918,.T.);
#920 = ORIENTED_EDGE('',*,*,#919,.F.);
#921 = DIRECTION('',(0.,0.6747691995449355,-0.7380288120022734));
#922 = VECTOR('',#921,1.);
#923 = LINE('',#912,#922);
#924 = EDGE_CURVE('',#913,#911,#923,.T.);
#925 = ORIENTED_EDGE('',*,*,#924,.F.);
#926 = DIRECTION('',(1.,0.,0.));
#927 = VECTOR('',#926,1.);
#928 = LINE('',#912,#927);
#929 = EDGE_CURVE('',#913,#915,#928,.T.);
#930 = ORIENTED_EDGE('',*,*,#929,.T.);
#931 = DIRECTION('',(0.,0.6747691995449355,-0.7380288120022734));
#932 = VECTOR('',#931,1.);
#933 = LINE('',#914,#932);
#934 = EDGE_CURVE('',#915,#909,#933,.T.);
#935 = ORIENTED_EDGE('',*,*,#934,.T.);
#936 = CARTESIAN_POINT('',(0.215,2.48,7.904999999999999));
#937 = DIRECTION('',(0.,0.7380288120022734,0.6747691995449356));
#938 = DIRECTION('',(-1.,0.,0.));
#939 = AXIS2_PLACEMENT_3D('',#936,#937,#938);
#940 = PLANE('',#939);
#941 = EDGE_LOOP('',(#920,#925,#930,#935));
#942 = FACE_OUTER_BOUND('',#941,.T.);
#943 = ADVANCED_FACE('',(#942),#940,.T.);
#944 = CARTESIAN_POINT('',(0.215,2.48,7.654999999999999));
#945 = VERTEX_POINT('',#944);
#946 = CARTESIAN_POINT('',(0.215,0.8,9.305));
#947 = VERTEX_POINT('',#946);
#948 = DIRECTION('',(0.,0.,1.));
#949 = VECTOR('',#948,1.);
#950 = LINE('',#944,#949);
#951 = EDGE_CURVE('',#945,#909,#950,.T.);
#952 = ORIENTED_EDGE('',*,*,#951,.T.);
#953 = ORIENTED_EDGE('',*,*,#934,.F.);
#954 = DIRECTION('',(0.,1.,0.));
#955 = VECTOR('',#954,1.);
#956 = LINE('',#946,#955);
#957 = EDGE_CURVE('',#947,#915,#956,.T.);
#958 = ORIENTED_EDGE('',*,*,#957,.F.);
#959 = DIRECTION('',(0.,0.,1.));
#960 = VECTOR('',#959,1.);
#961 = LINE('',#876,#960);
#962 = EDGE_CURVE('',#877,#947,#961,.T.);
#963 = ORIENTED_EDGE('',*,*,#962,.F.);
#964 = ORIENTED_EDGE('',*,*,#888,.T.);
#965 = DIRECTION('',(0.,1.,0.));
#966 = VECTOR('',#965,1.);
#967 = LINE('',#874,#966);
#968 = EDGE_CURVE('',#875,#945,#967,.T.);
#969 = ORIENTED_EDGE('',*,*,#968,.T.);
#970 = CARTESIAN_POINT('',(0.215,2.48,7.654999999999999));
#971 = DIRECTION('',(1.,0.,0.));
#972 = DIRECTION('',(0.,0.,1.));
#973 = AXIS2_PLACEMENT_3D('',#970,#971,#972);
#974 = PLANE('',#973);
#975 = EDGE_LOOP('',(#952,#953,#958,#963,#964,#969));
#976 = FACE_OUTER_BOUND('',#975,.T.);
#977 = ADVANCED_FACE('',(#976),#974,.T.);
#978 = CARTESIAN_POINT('',(-0.215,0.8,9.305));
#979 = VERTEX_POINT('',#978);
#980 = DIRECTION('',(0.,0.,1.));
#981 = VECTOR('',#980,1.);
#982 = LINE('',#878,#981);
#983 = EDGE_CURVE('',#879,#979,#982,.T.);
#984 = ORIENTED_EDGE('',*,*,#983,.F.);
#985 = ORIENTED_EDGE('',*,*,#893,.T.);
#986 = ORIENTED_EDGE('',*,*,#962,.T.);
#987 = DIRECTION('',(1.,0.,0.));
#988 = VECTOR('',#987,1.);
#989 = LINE('',#978,#988);
#990 = EDGE_CURVE('',#979,#947,#989,.T.);
#991 = ORIENTED_EDGE('',*,*,#990,.F.);
#992 = CARTESIAN_POINT('',(-0.215,0.8,9.305));
#993 = DIRECTION('',(0.,-1.,0.));
#994 = DIRECTION('',(0.,0.,-1.));
#995 = AXIS2_PLACEMENT_3D('',#992,#993,#994);
#996 = PLANE('',#995);
#997 = EDGE_LOOP('',(#984,#985,#986,#991));
#998 = FACE_OUTER_BOUND('',#997,.T.);
#999 = ADVANCED_FACE('',(#998),#996,.T.);
#1000 = ORIENTED_EDGE('',*,*,#990,.T.);
#1001 = ORIENTED_EDGE('',*,*,#957,.T.);
#1002 = ORIENTED_EDGE('',*,*,#929,.F.);
#1003 = DIRECTION('',(0.,1.,0.));
#1004 = VECTOR('',#1003,1.);
#1005 = LINE('',#978,#1004);
#1006 = EDGE_CURVE('',#979,#913,#1005,.T.);
#1007 = ORIENTED_EDGE('',*,*,#1006,.F.);
#1008 = CARTESIAN_POINT('',(-0.215,0.8,9.305));
#1009 = DIRECTION('',(0.,0.,1.));
#1010 = DIRECTION('',(1.,0.,0.));
#1011 = AXIS2_PLACEMENT_3D('',#1008,#1009,#1010);
#1012 = PLANE('',#1011);
#1013 = EDGE_LOOP('',(#1000,#1001,#1002,#1007));
#1014 = FACE_OUTER_BOUND('',#1013,.T.);
#1015 = ADVANCED_FACE('',(#1014),#1012,.T.);
#1016 = CARTESIAN_POINT('',(-0.215,2.48,7.654999999999999));
#1017 = VERTEX_POINT('',#1016);
#1018 = DIRECTION('',(0.,0.,1.));
#1019 = VECTOR('',#1018,1.);
#1020 = LINE('',#1016,#1019);
#1021 = EDGE_CURVE('',#1017,#911,#1020,.T.);
#1022 = ORIENTED_EDGE('',*,*,#1021,.T.);
#1023 = ORIENTED_EDGE('',*,*,#919,.T.);
#1024 = ORIENTED_EDGE('',*,*,#951,.F.);
#1025 = DIRECTION('',(1.,0.,0.));
#1026 = VECTOR('',#1025,1.);
#1027 = LINE('',#1016,#1026);
#1028 = EDGE_CURVE('',#1017,#945,#1027,.T.);
#1029 = ORIENTED_EDGE('',*,*,#1028,.F.);
#1030 = CARTESIAN_POINT('',(-0.215,2.48,7.654999999999999));
#1031 = DIRECTION('',(0.,1.,0.));
#1032 = DIRECTION('',(0.,0.,1.));
#1033 = AXIS2_PLACEMENT_3D('',#1030,#1031,#1032);
#1034 = PLANE('',#1033);
#1035 = EDGE_LOOP('',(#1022,#1023,#1024,#1029));
#1036 = FACE_OUTER_BOUND('',#1035,.T.);
#1037 = ADVANCED_FACE('',(#1036),#1034,.T.);
#1038 = ORIENTED_EDGE('',*,*,#1028,.T.);
#1039 = ORIENTED_EDGE('',*,*,#968,.F.);
#1040 = ORIENTED_EDGE('',*,*,#883,.F.);
#1041 = DIRECTION('',(0.,1.,0.));
#1042 = VECTOR('',#1041,1.);
#1043 = LINE('',#872,#1042);
#1044 = EDGE_CURVE('',#873,#1017,#1043,.T.);
#1045 = ORIENTED_EDGE('',*,*,#1044,.T.);
#1046 = CARTESIAN_POINT('',(-0.215,2.48,7.654999999999999));
#1047 = DIRECTION('',(0.,0.,-1.));
#1048 = DIRECTION('',(1.,0.,0.));
#1049 = AXIS2_PLACEMENT_3D('',#1046,#1047,#1048);
#1050 = PLANE('',#1049);
#1051 = EDGE_LOOP('',(#1038,#1039,#1040,#1045));
#1052 = FACE_OUTER_BOUND('',#1051,.T.);
#1053 = ADVANCED_FACE('',(#1052),#1050,.T.);
#1054 = ORIENTED_EDGE('',*,*,#1044,.F.);
#1055 = ORIENTED_EDGE('',*,*,#898,.F.);
#1056 = ORIENTED_EDGE('',*,*,#983,.T.);
#1057 = ORIENTED_EDGE('',*,*,#1006,.T.);
#1058 = ORIENTED_EDGE('',*,*,#924,.T.);
#1059 = ORIENTED_EDGE('',*,*,#1021,.F.);
#1060 = CARTESIAN_POINT('',(-0.215,2.48,7.654999999999999));
#1061 = DIRECTION('',(-1.,0.,0.));
#1062 = DIRECTION('',(0.,-1.,0.));
#1063 = AXIS2_PLACEMENT_3D('',#1060,#1061,#1062);
#1064 = PLANE('',#1063);
#1065 = EDGE_LOOP('',(#1054,#1055,#1056,#1057,#1058,#1059));
#1066 = FACE_OUTER_BOUND('',#1065,.T.);
#1067 = ADVANCED_FACE('',(#1066),#1064,.T.);
#1068 = CLOSED_SHELL('',(#907,#943,#977,#999,#1015,#1037,#1053,#1067));
#1069 = MANIFOLD_SOLID_BREP('',#1068);
#1070 = CARTESIAN_POINT('',(-0.215,2.08,-4.5));
#1071 = VERTEX_POINT('',#1070);
#1072 = CARTESIAN_POINT('',(-0.215,2.08,7.699999999999999));
#1073 = VERTEX_POINT('',#1072);
#1074 = CARTESIAN_POINT('',(-0.215,2.4800000000000004,7.699999999999999));
#1075 = VERTEX_POINT('',#1074);
#1076 = CARTESIAN_POINT('',(-0.215,2.4800000000000004,-4.5));
#1077 = VERTEX_POINT('',#1076);
#1078 = DIRECTION('',(0.,0.,1.));
#1079 = VECTOR('',#1078,1.);
#1080 = LINE('',#1070,#1079);
#1081 = EDGE_CURVE('',#1071,#1073,#1080,.T.);
#1082 = ORIENTED_EDGE('',*,*,#1081,.T.);
#1083 = DIRECTION('',(0.,1.,0.));
#1084 = VECTOR('',#1083,1.);
#1085 = LINE('',#1072,#1084);
#1086 = EDGE_CURVE('',#1073,#1075,#1085,.T.);
#1087 = ORIENTED_EDGE('',*,*,#1086,.T.);
#1088 = DIRECTION('',(0.,0.,1.));
#1089 = VECTOR('',#1088,1.);
#1090 = LINE('',#1076,#1089);
#1091 = EDGE_CURVE('',#1077,#1075,#1090,.T.);
#1092 = ORIENTED_EDGE('',*,*,#1091,.F.);
#1093 = DIRECTION('',(0.,1.,0.));
#1094 = VECTOR('',#1093,1.);
#1095 = LINE('',#1070,#1094);
#1096 = EDGE_CURVE('',#1071,#1077,#1095,.T.);
#1097 = ORIENTED_EDGE('',*,*,#1096,.F.);
#1098 = CARTESIAN_POINT('',(-0.215,2.08,-4.5));
#1099 = DIRECTION('',(-1.,0.,0.));
#1100 = DIRECTION('',(0.,0.,1.));
#1101 = AXIS2_PLACEMENT_3D('',#1098,#1099,#1100);
#1102 = PLANE('',#1101);
#1103 = EDGE_LOOP('',(#1082,#1087,#1092,#1097));
#1104 = FACE_OUTER_BOUND('',#1103,.T.);
#1105 = ADVANCED_FACE('',(#1104),#1102,.T.);
#1106 = CARTESIAN_POINT('',(0.215,2.08,-4.5));
#1107 = VERTEX_POINT('',#1106);
#1108 = CARTESIAN_POINT('',(0.215,2.4800000000000004,-4.5));
#1109 = VERTEX_POINT('',#1108);
#1110 = CARTESIAN_POINT('',(0.215,2.4800000000000004,7.699999999999999));
#1111 = VERTEX_POINT('',#1110);
#1112 = CARTESIAN_POINT('',(0.215,2.08,7.699999999999999));
#1113 = VERTEX_POINT('',#1112);
#1114 = DIRECTION('',(0.,1.,0.));
#1115 = VECTOR('',#1114,1.);
#1116 = LINE('',#1106,#1115);
#1117 = EDGE_CURVE('',#1107,#1109,#1116,.T.);
#1118 = ORIENTED_EDGE('',*,*,#1117,.T.);
#1119 = DIRECTION('',(0.,0.,1.));
#1120 = VECTOR('',#1119,1.);
#1121 = LINE('',#1108,#1120);
#1122 = EDGE_CURVE('',#1109,#1111,#1121,.T.);
#1123 = ORIENTED_EDGE('',*,*,#1122,.T.);
#1124 = DIRECTION('',(0.,1.,0.));
#1125 = VECTOR('',#1124,1.);
#1126 = LINE('',#1112,#1125);
#1127 = EDGE_CURVE('',#1113,#1111,#1126,.T.);
#1128 = ORIENTED_EDGE('',*,*,#1127,.F.);
#1129 = DIRECTION('',(0.,0.,1.));
#1130 = VECTOR('',#1129,1.);
#1131 = LINE('',#1106,#1130);
#1132 = EDGE_CURVE('',#1107,#1113,#1131,.T.);
#1133 = ORIENTED_EDGE('',*,*,#1132,.F.);
#1134 = CARTESIAN_POINT('',(0.215,2.08,-4.5));
#1135 = DIRECTION('',(1.,0.,0.));
#1136 = DIRECTION('',(0.,1.,0.));
#1137 = AXIS2_PLACEMENT_3D('',#1134,#1135,#1136);
#1138 = PLANE('',#1137);
#1139 = EDGE_LOOP('',(#1118,#1123,#1128,#1133));
#1140 = FACE_OUTER_BOUND('',#1139,.T.);
#1141 = ADVANCED_FACE('',(#1140),#1138,.T.);
#1142 = DIRECTION('',(1.,0.,0.));
#1143 = VECTOR('',#1142,1.);
#1144 = LINE('',#1070,#1143);
#1145 = EDGE_CURVE('',#1071,#1107,#1144,.T.);
#1146 = ORIENTED_EDGE('',*,*,#1145,.T.);
#1147 = ORIENTED_EDGE('',*,*,#1132,.T.);
#1148 = DIRECTION('',(1.,0.,0.));
#1149 = VECTOR('',#1148,1.);
#1150 = LINE('',#1072,#1149);
#1151 = EDGE_CURVE('',#1073,#1113,#1150,.T.);
#1152 = ORIENTED_EDGE('',*,*,#1151,.F.);
#1153 = ORIENTED_EDGE('',*,*,#1081,.F.);
#1154 = CARTESIAN_POINT('',(-0.215,2.08,-4.5));
#1155 = DIRECTION('',(0.,-1.,0.));
#1156 = DIRECTION('',(1.,0.,0.));
#1157 = AXIS2_PLACEMENT_3D('',#1154,#1155,#1156);
#1158 = PLANE('',#1157);
#1159 = EDGE_LOOP('',(#1146,#1147,#1152,#1153));
#1160 = FACE_OUTER_BOUND('',#1159,.T.);
#1161 = ADVANCED_FACE('',(#1160),#1158,.T.);
#1162 = ORIENTED_EDGE('',*,*,#1091,.T.);
#1163 = DIRECTION('',(1.,0.,0.));
#1164 = VECTOR('',#1163,1.);
#1165 = LINE('',#1074,#1164);
#1166 = EDGE_CURVE('',#1075,#1111,#1165,.T.);
#1167 = ORIENTED_EDGE('',*,*,#1166,.T.);
#1168 = ORIENTED_EDGE('',*,*,#1122,.F.);
#1169 = DIRECTION('',(1.,0.,0.));
#1170 = VECTOR('',#1169,1.);
#1171 = LINE('',#1076,#1170);
#1172 = EDGE_CURVE('',#1077,#1109,#1171,.T.);
#1173 = ORIENTED_EDGE('',*,*,#1172,.F.);
#1174 = CARTESIAN_POINT('',(-0.215,2.4800000000000004,-4.5));
#1175 = DIRECTION('',(0.,1.,0.));
#1176 = DIRECTION('',(0.,0.,1.));
#1177 = AXIS2_PLACEMENT_3D('',#1174,#1175,#1176);
#1178 = PLANE('',#1177);
#1179 = EDGE_LOOP('',(#1162,#1167,#1168,#1173));
#1180 = FACE_OUTER_BOUND('',#1179,.T.);
#1181 = ADVANCED_FACE('',(#1180),#1178,.T.);
#1182 = ORIENTED_EDGE('',*,*,#1096,.T.);
#1183 = ORIENTED_EDGE('',*,*,#1172,.T.);
#1184 = ORIENTED_EDGE('',*,*,#1117,.F.);
#1185 = ORIENTED_EDGE('',*,*,#1145,.F.);
#1186 = CARTESIAN_POINT('',(-0.215,2.08,-4.5));
#1187 = DIRECTION('',(0.,0.,-1.));
#1188 = DIRECTION('',(0.,1.,0.));
#1189 = AXIS2_PLACEMENT_3D('',#1186,#1187,#1188);
#1190 = PLANE('',#1189);
#1191 = EDGE_LOOP('',(#1182,#1183,#1184,#1185));
#1192 = FACE_OUTER_BOUND('',#1191,.T.);
#1193 = ADVANCED_FACE('',(#1192),#1190,.T.);
#1194 = ORIENTED_EDGE('',*,*,#1151,.T.);
#1195 = ORIENTED_EDGE('',*,*,#1127,.T.);
#1196 = ORIENTED_EDGE('',*,*,#1166,.F.);
#1197 = ORIENTED_EDGE('',*,*,#1086,.F.);
#1198 = CARTESIAN_POINT('',(-0.215,2.08,7.699999999999999));
#1199 = DIRECTION('',(0.,0.,1.));
#1200 = DIRECTION('',(1.,0.,0.));
#1201 = AXIS2_PLACEMENT_3D('',#1198,#1199,#1200);
#1202 = PLANE('',#1201);
#1203 = EDGE_LOOP('',(#1194,#1195,#1196,#1197));
#1204 = FACE_OUTER_BOUND('',#1203,.T.);
#1205 = ADVANCED_FACE('',(#1204),#1202,.T.);
#1206 = CLOSED_SHELL('',(#1105,#1141,#1161,#1181,#1193,#1205));
#1207 = MANIFOLD_SOLID_BREP('',#1206);
#1208 = CARTESIAN_POINT('',(1.085,0.8,-4.5));
#1209 = VERTEX_POINT('',#1208);
#1210 = CARTESIAN_POINT('',(1.085,0.8,10.5));
#1211 = VERTEX_POINT('',#1210);
#1212 = CARTESIAN_POINT('',(1.085,1.2,10.5));
#1213 = VERTEX_POINT('',#1212);
#1214 = CARTESIAN_POINT('',(1.085,1.2,-4.5));
#1215 = VERTEX_POINT('',#1214);
#1216 = DIRECTION('',(0.,0.,1.));
#1217 = VECTOR('',#1216,1.);
#1218 = LINE('',#1208,#1217);
#1219 = EDGE_CURVE('',#1209,#1211,#1218,.T.);
#1220 = ORIENTED_EDGE('',*,*,#1219,.T.);
#1221 = DIRECTION('',(0.,1.,0.));
#1222 = VECTOR('',#1221,1.);
#1223 = LINE('',#1210,#1222);
#1224 = EDGE_CURVE('',#1211,#1213,#1223,.T.);
#1225 = ORIENTED_EDGE('',*,*,#1224,.T.);
#1226 = DIRECTION('',(0.,0.,1.));
#1227 = VECTOR('',#1226,1.);
#1228 = LINE('',#1214,#1227);
#1229 = EDGE_CURVE('',#1215,#1213,#1228,.T.);
#1230 = ORIENTED_EDGE('',*,*,#1229,.F.);
#1231 = DIRECTION('',(0.,1.,0.));
#1232 = VECTOR('',#1231,1.);
#1233 = LINE('',#1208,#1232);
#1234 = EDGE_CURVE('',#1209,#1215,#1233,.T.);
#1235 = ORIENTED_EDGE('',*,*,#1234,.F.);
#1236 = CARTESIAN_POINT('',(1.085,0.8,-4.5));
#1237 = DIRECTION('',(-1.,0.,0.));
#1238 = DIRECTION('',(0.,0.,1.));
#1239 = AXIS2_PLACEMENT_3D('',#1236,#1237,#1238);
#1240 = PLANE('',#1239);
#1241 = EDGE_LOOP('',(#1220,#1225,#1230,#1235));
#1242 = FACE_OUTER_BOUND('',#1241,.T.);
#1243 = ADVANCED_FACE('',(#1242),#1240,.T.);
#1244 = CARTESIAN_POINT('',(1.5150000000000001,0.8,-4.5));
#1245 = VERTEX_POINT('',#1244);
#1246 = CARTESIAN_POINT('',(1.5150000000000001,1.2,-4.5));
#1247 = VERTEX_POINT('',#1246);
#1248 = CARTESIAN_POINT('',(1.5150000000000001,1.2,10.5));
#1249 = VERTEX_POINT('',#1248);
#1250 = CARTESIAN_POINT('',(1.5150000000000001,0.8,10.5));
#1251 = VERTEX_POINT('',#1250);
#1252 = DIRECTION('',(0.,1.,0.));
#1253 = VECTOR('',#1252,1.);
#1254 = LINE('',#1244,#1253);
#1255 = EDGE_CURVE('',#1245,#1247,#1254,.T.);
#1256 = ORIENTED_EDGE('',*,*,#1255,.T.);
#1257 = DIRECTION('',(0.,0.,1.));
#1258 = VECTOR('',#1257,1.);
#1259 = LINE('',#1246,#1258);
#1260 = EDGE_CURVE('',#1247,#1249,#1259,.T.);
#1261 = ORIENTED_EDGE('',*,*,#1260,.T.);
#1262 = DIRECTION('',(0.,1.,0.));
#1263 = VECTOR('',#1262,1.);
#1264 = LINE('',#1250,#1263);
#1265 = EDGE_CURVE('',#1251,#1249,#1264,.T.);
#1266 = ORIENTED_EDGE('',*,*,#1265,.F.);
#1267 = DIRECTION('',(0.,0.,1.));
#1268 = VECTOR('',#1267,1.);
#1269 = LINE('',#1244,#1268);
#1270 = EDGE_CURVE('',#1245,#1251,#1269,.T.);
#1271 = ORIENTED_EDGE('',*,*,#1270,.F.);
#1272 = CARTESIAN_POINT('',(1.5150000000000001,0.8,-4.5));
#1273 = DIRECTION('',(1.,0.,0.));
#1274 = DIRECTION('',(0.,1.,0.));
#1275 = AXIS2_PLACEMENT_3D('',#1272,#1273,#1274);
#1276 = PLANE('',#1275);
#1277 = EDGE_LOOP('',(#1256,#1261,#1266,#1271));
#1278 = FACE_OUTER_BOUND('',#1277,.T.);
#1279 = ADVANCED_FACE('',(#1278),#1276,.T.);
#1280 = DIRECTION('',(1.,0.,0.));
#1281 = VECTOR('',#1280,1.);
#1282 = LINE('',#1208,#1281);
#1283 = EDGE_CURVE('',#1209,#1245,#1282,.T.);
#1284 = ORIENTED_EDGE('',*,*,#1283,.T.);
#1285 = ORIENTED_EDGE('',*,*,#1270,.T.);
#1286 = DIRECTION('',(1.,0.,0.));
#1287 = VECTOR('',#1286,1.);
#1288 = LINE('',#1210,#1287);
#1289 = EDGE_CURVE('',#1211,#1251,#1288,.T.);
#1290 = ORIENTED_EDGE('',*,*,#1289,.F.);
#1291 = ORIENTED_EDGE('',*,*,#1219,.F.);
#1292 = CARTESIAN_POINT('',(1.085,0.8,-4.5));
#1293 = DIRECTION('',(0.,-1.,0.));
#1294 = DIRECTION('',(1.,0.,0.));
#1295 = AXIS2_PLACEMENT_3D('',#1292,#1293,#1294);
#1296 = PLANE('',#1295);
#1297 = EDGE_LOOP('',(#1284,#1285,#1290,#1291));
#1298 = FACE_OUTER_BOUND('',#1297,.T.);
#1299 = ADVANCED_FACE('',(#1298),#1296,.T.);
#1300 = ORIENTED_EDGE('',*,*,#1229,.T.);
#1301 = DIRECTION('',(1.,0.,0.));
#1302 = VECTOR('',#1301,1.);
#1303 = LINE('',#1212,#1302);
#1304 = EDGE_CURVE('',#1213,#1249,#1303,.T.);
#1305 = ORIENTED_EDGE('',*,*,#1304,.T.);
#1306 = ORIENTED_EDGE('',*,*,#1260,.F.);
#1307 = DIRECTION('',(1.,0.,0.));
#1308 = VECTOR('',#1307,1.);
#1309 = LINE('',#1214,#1308);
#1310 = EDGE_CURVE('',#1215,#1247,#1309,.T.);
#1311 = ORIENTED_EDGE('',*,*,#1310,.F.);
#1312 = CARTESIAN_POINT('',(1.085,1.2,-4.5));
#1313 = DIRECTION('',(0.,1.,0.));
#1314 = DIRECTION('',(0.,0.,1.));
#1315 = AXIS2_PLACEMENT_3D('',#1312,#1313,#1314);
#1316 = PLANE('',#1315);
#1317 = EDGE_LOOP('',(#1300,#1305,#1306,#1311));
#1318 = FACE_OUTER_BOUND('',#1317,.T.);
#1319 = ADVANCED_FACE('',(#1318),#1316,.T.);
#1320 = ORIENTED_EDGE('',*,*,#1234,.T.);
#1321 = ORIENTED_EDGE('',*,*,#1310,.T.);
#1322 = ORIENTED_EDGE('',*,*,#1255,.F.);
#1323 = ORIENTED_EDGE('',*,*,#1283,.F.);
#1324 = CARTESIAN_POINT('',(1.085,0.8,-4.5));
#1325 = DIRECTION('',(0.,0.,-1.));
#1326 = DIRECTION('',(0.,1.,0.));
#1327 = AXIS2_PLACEMENT_3D('',#1324,#1325,#1326);
#1328 = PLANE('',#1327);
#1329 = EDGE_LOOP('',(#1320,#1321,#1322,#1323));
#1330 = FACE_OUTER_BOUND('',#1329,.T.);
#1331 = ADVANCED_FACE('',(#1330),#1328,.T.);
#1332 = ORIENTED_EDGE('',*,*,#1289,.T.);
#1333 = ORIENTED_EDGE('',*,*,#1265,.T.);
#1334 = ORIENTED_EDGE('',*,*,#1304,.F.);
#1335 = ORIENTED_EDGE('',*,*,#1224,.F.);
#1336 = CARTESIAN_POINT('',(1.085,0.8,10.5));
#1337 = DIRECTION('',(0.,0.,1.));
#1338 = DIRECTION('',(1.,0.,0.));
#1339 = AXIS2_PLACEMENT_3D('',#1336,#1337,#1338);
#1340 = PLANE('',#1339);
#1341 = EDGE_LOOP('',(#1332,#1333,#1334,#1335));
#1342 = FACE_OUTER_BOUND('',#1341,.T.);
#1343 = ADVANCED_FACE('',(#1342),#1340,.T.);
#1344 = CLOSED_SHELL('',(#1243,#1279,#1299,#1319,#1331,#1343));
#1345 = MANIFOLD_SOLID_BREP('',#1344);
#1346 = CARTESIAN_POINT('',(-1.5150000000000001,0.8,-4.5));
#1347 = VERTEX_POINT('',#1346);
#1348 = CARTESIAN_POINT('',(-1.5150000000000001,0.8,10.5));
#1349 = VERTEX_POINT('',#1348);
#1350 = CARTESIAN_POINT('',(-1.5150000000000001,1.2,10.5));
#1351 = VERTEX_POINT('',#1350);
#1352 = CARTESIAN_POINT('',(-1.5150000000000001,1.2,-4.5));
#1353 = VERTEX_POINT('',#1352);
#1354 = DIRECTION('',(0.,0.,1.));
#1355 = VECTOR('',#1354,1.);
#1356 = LINE('',#1346,#1355);
#1357 = EDGE_CURVE('',#1347,#1349,#1356,.T.);
#1358 = ORIENTED_EDGE('',*,*,#1357,.T.);
#1359 = DIRECTION('',(0.,1.,0.));
#1360 = VECTOR('',#1359,1.);
#1361 = LINE('',#1348,#1360);
#1362 = EDGE_CURVE('',#1349,#1351,#1361,.T.);
#1363 = ORIENTED_EDGE('',*,*,#1362,.T.);
#1364 = DIRECTION('',(0.,0.,1.));
#1365 = VECTOR('',#1364,1.);
#1366 = LINE('',#1352,#1365);
#1367 = EDGE_CURVE('',#1353,#1351,#1366,.T.);
#1368 = ORIENTED_EDGE('',*,*,#1367,.F.);
#1369 = DIRECTION('',(0.,1.,0.));
#1370 = VECTOR('',#1369,1.);
#1371 = LINE('',#1346,#1370);
#1372 = EDGE_CURVE('',#1347,#1353,#1371,.T.);
#1373 = ORIENTED_EDGE('',*,*,#1372,.F.);
#1374 = CARTESIAN_POINT('',(-1.5150000000000001,0.8,-4.5));
#1375 = DIRECTION('',(-1.,0.,0.));
#1376 = DIRECTION('',(0.,0.,1.));
#1377 = AXIS2_PLACEMENT_3D('',#1374,#1375,#1376);
#1378 = PLANE('',#1377);
#1379 = EDGE_LOOP('',(#1358,#1363,#1368,#1373));
#1380 = FACE_OUTER_BOUND('',#1379,.T.);
#1381 = ADVANCED_FACE('',(#1380),#1378,.T.);
#1382 = CARTESIAN_POINT('',(-1.085,0.8,-4.5));
#1383 = VERTEX_POINT('',#1382);
#1384 = CARTESIAN_POINT('',(-1.085,1.2,-4.5));
#1385 = VERTEX_POINT('',#1384);
#1386 = CARTESIAN_POINT('',(-1.085,1.2,10.5));
#1387 = VERTEX_POINT('',#1386);
#1388 = CARTESIAN_POINT('',(-1.085,0.8,10.5));
#1389 = VERTEX_POINT('',#1388);
#1390 = DIRECTION('',(0.,1.,0.));
#1391 = VECTOR('',#1390,1.);
#1392 = LINE('',#1382,#1391);
#1393 = EDGE_CURVE('',#1383,#1385,#1392,.T.);
#1394 = ORIENTED_EDGE('',*,*,#1393,.T.);
#1395 = DIRECTION('',(0.,0.,1.));
#1396 = VECTOR('',#1395,1.);
#1397 = LINE('',#1384,#1396);
#1398 = EDGE_CURVE('',#1385,#1387,#1397,.T.);
#1399 = ORIENTED_EDGE('',*,*,#1398,.T.);
#1400 = DIRECTION('',(0.,1.,0.));
#1401 = VECTOR('',#1400,1.);
#1402 = LINE('',#1388,#1401);
#1403 = EDGE_CURVE('',#1389,#1387,#1402,.T.);
#1404 = ORIENTED_EDGE('',*,*,#1403,.F.);
#1405 = DIRECTION('',(0.,0.,1.));
#1406 = VECTOR('',#1405,1.);
#1407 = LINE('',#1382,#1406);
#1408 = EDGE_CURVE('',#1383,#1389,#1407,.T.);
#1409 = ORIENTED_EDGE('',*,*,#1408,.F.);
#1410 = CARTESIAN_POINT('',(-1.085,0.8,-4.5));
#1411 = DIRECTION('',(1.,0.,0.));
#1412 = DIRECTION('',(0.,1.,0.));
#1413 = AXIS2_PLACEMENT_3D('',#1410,#1411,#1412);
#1414 = PLANE('',#1413);
#1415 = EDGE_LOOP('',(#1394,#1399,#1404,#1409));
#1416 = FACE_OUTER_BOUND('',#1415,.T.);
#1417 = ADVANCED_FACE('',(#1416),#1414,.T.);
#1418 = DIRECTION('',(-1.,0.,0.));
#1419 = VECTOR('',#1418,1.);
#1420 = LINE('',#1382,#1419);
#1421 = EDGE_CURVE('',#1383,#1347,#1420,.T.);
#1422 = ORIENTED_EDGE('',*,*,#1421,.F.);
#1423 = ORIENTED_EDGE('',*,*,#1408,.T.);
#1424 = DIRECTION('',(-1.,0.,0.));
#1425 = VECTOR('',#1424,1.);
#1426 = LINE('',#1388,#1425);
#1427 = EDGE_CURVE('',#1389,#1349,#1426,.T.);
#1428 = ORIENTED_EDGE('',*,*,#1427,.T.);
#1429 = ORIENTED_EDGE('',*,*,#1357,.F.);
#1430 = CARTESIAN_POINT('',(-1.5150000000000001,0.8,-4.5));
#1431 = DIRECTION('',(0.,-1.,0.));
#1432 = DIRECTION('',(1.,0.,0.));
#1433 = AXIS2_PLACEMENT_3D('',#1430,#1431,#1432);
#1434 = PLANE('',#1433);
#1435 = EDGE_LOOP('',(#1422,#1423,#1428,#1429));
#1436 = FACE_OUTER_BOUND('',#1435,.T.);
#1437 = ADVANCED_FACE('',(#1436),#1434,.T.);
#1438 = ORIENTED_EDGE('',*,*,#1367,.T.);
#1439 = DIRECTION('',(-1.,0.,0.));
#1440 = VECTOR('',#1439,1.);
#1441 = LINE('',#1386,#1440);
#1442 = EDGE_CURVE('',#1387,#1351,#1441,.T.);
#1443 = ORIENTED_EDGE('',*,*,#1442,.F.);
#1444 = ORIENTED_EDGE('',*,*,#1398,.F.);
#1445 = DIRECTION('',(-1.,0.,0.));
#1446 = VECTOR('',#1445,1.);
#1447 = LINE('',#1384,#1446);
#1448 = EDGE_CURVE('',#1385,#1353,#1447,.T.);
#1449 = ORIENTED_EDGE('',*,*,#1448,.T.);
#1450 = CARTESIAN_POINT('',(-1.5150000000000001,1.2,-4.5));
#1451 = DIRECTION('',(0.,1.,0.));
#1452 = DIRECTION('',(0.,0.,1.));
#1453 = AXIS2_PLACEMENT_3D('',#1450,#1451,#1452);
#1454 = PLANE('',#1453);
#1455 = EDGE_LOOP('',(#1438,#1443,#1444,#1449));
#1456 = FACE_OUTER_BOUND('',#1455,.T.);
#1457 = ADVANCED_FACE('',(#1456),#1454,.T.);
#1458 = ORIENTED_EDGE('',*,*,#1372,.T.);
#1459 = ORIENTED_EDGE('',*,*,#1448,.F.);
#1460 = ORIENTED_EDGE('',*,*,#1393,.F.);
#1461 = ORIENTED_EDGE('',*,*,#1421,.T.);
#1462 = CARTESIAN_POINT('',(-1.5150000000000001,0.8,-4.5));
#1463 = DIRECTION('',(0.,0.,-1.));
#1464 = DIRECTION('',(0.,1.,0.));
#1465 = AXIS2_PLACEMENT_3D('',#1462,#1463,#1464);
#1466 = PLANE('',#1465);
#1467 = EDGE_LOOP('',(#1458,#1459,#1460,#1461));
#1468 = FACE_OUTER_BOUND('',#1467,.T.);
#1469 = ADVANCED_FACE('',(#1468),#1466,.T.);
#1470 = ORIENTED_EDGE('',*,*,#1427,.F.);
#1471 = ORIENTED_EDGE('',*,*,#1403,.T.);
#1472 = ORIENTED_EDGE('',*,*,#1442,.T.);
#1473 = ORIENTED_EDGE('',*,*,#1362,.F.);
#1474 = CARTESIAN_POINT('',(-1.5150000000000001,0.8,10.5));
#1475 = DIRECTION('',(0.,0.,1.));
#1476 = DIRECTION('',(1.,0.,0.));
#1477 = AXIS2_PLACEMENT_3D('',#1474,#1475,#1476);
#1478 = PLANE('',#1477);
#1479 = EDGE_LOOP('',(#1470,#1471,#1472,#1473));
#1480 = FACE_OUTER_BOUND('',#1479,.T.);
#1481 = ADVANCED_FACE('',(#1480),#1478,.T.);
#1482 = CLOSED_SHELL('',(#1381,#1417,#1437,#1457,#1469,#1481));
#1483 = MANIFOLD_SOLID_BREP('',#1482);
#1484 = ADVANCED_BREP_SHAPE_REPRESENTATION('',(#17,#725,#871,#1069,#1207,#1345,#1483),#13);
#1485 = SHAPE_DEFINITION_REPRESENTATION(#8,#1484);
#1486 = MECHANICAL_DESIGN_GEOMETRIC_PRESENTATION_REPRESENTATION('',(#733),#13);
ENDSEC;
END-ISO-10303-21;