<?xml version="1.0" standalone="no"?>
<!DOCTYPE svg PUBLIC "-//W3C//DTD SVG 1.1//EN" "http://www.w3.org/Graphics/SVG/1.1/DTD/svg11.dtd">
<svg width="100%" height="100%" viewBox="0 0 7204 14409" version="1.1" xmlns="http://www.w3.org/2000/svg" xmlns:xlink="http://www.w3.org/1999/xlink" xml:space="preserve" style="fill-rule:evenodd;clip-rule:evenodd;stroke-linejoin:round;stroke-miterlimit:1.41421;">
    <g id="Layer1">
        <rect x="3573.68" y="13336.5" width="353.15" height="18.8976" style="fill:rgb(102,0,255);"/>
        <path d="M3927.9,13391.7L3927.9,13391.8L3572.38,13391.8L3572.38,13391.8L3513.99,13391.8L3513.99,13335.1L3513.99,13335.1L3513.99,13311.6L3590.76,13311.6L3590.76,13335.2L3572.45,13335.2L3572.45,13356.4L3927.8,13356.4L3927.8,13335.1L3909.49,13335.1L3909.49,13311.5L3986.27,13311.5L3986.27,13335L3986.27,13335L3986.27,13391.7L3927.9,13391.7Z" style="fill:black;"/>
        <path d="M3928.09,13485.7L3928.09,13485.8L3572.58,13485.8L3572.58,13485.7L3514.19,13485.7L3514.19,13429.1L3514.19,13429.1L3514.19,13405.5L3590.96,13405.5L3590.96,13429.2L3572.65,13429.2L3572.65,13450.3L3928,13450.3L3928,13429.1L3909.69,13429.1L3909.69,13405.5L3986.46,13405.5L3986.46,13429L3986.47,13429L3986.47,13485.7L3928.09,13485.7Z" style="fill:black;"/>
    </g>
</svg>
