<?xml version="1.0" standalone="no"?>
<!DOCTYPE svg PUBLIC "-//W3C//DTD SVG 1.1//EN" 
  "http://www.w3.org/Graphics/SVG/1.1/DTD/svg11.dtd">
<svg width="100.000mm" height="100.000mm" version="1.1"
     viewBox="0 0 100.000 100.000"
     xmlns="http://www.w3.org/2000/svg"
     xmlns:fpd="http://www.schaeffer-ag.de">
  <desc>Created with the Front Panel Designer by the export of the file 'label.fpd'.</desc>
  <defs>
    <pattern id="revside-fill" x="1" y="1" width="1.5" height="1.5" patternUnits="userSpaceOnUse">
      <line x1="0" y1="0" x2="1" y2="1" style="stroke-width:0.2; stroke:black; stroke-dasharray:none;" />
      <line x1="0" y1="1" x2="1" y2="0" style="stroke-width:0.2; stroke:black; stroke-dasharray:none;" />
    </pattern>
    <pattern id="revside-fill-e0e0e0" x="1" y="1" width="1.5" height="1.5" patternUnits="userSpaceOnUse">
      <line x1="0" y1="0" x2="1.5" y2="1.5" style="stroke-width:0.2; stroke:#e0e0e0; stroke-dasharray:none;" />
      <line x1="0" y1="1.5" x2="1.5" y2="0" style="stroke-width:0.2; stroke:#e0e0e0; stroke-dasharray:none;" />
    </pattern>
  </defs>
<g transform="scale(1,-1) translate(0, -100.000)" 
   fill-rule="evenodd"
   style="stroke-linecap:round; stroke-linejoin:round; stroke-opacity:1.0; stroke-opacity:1.0;">
<path d="M100.000 100.000 
L0.000 100.000
L0.000 100.000
L0.000 0.000
L0.000 0.000
L100.000 0.000
L100.000 0.000
L100.000 100.000
L100.000 100.000z"
fill="#dc3530" vector-effect="non-scaling-stroke" stroke="#000000" stroke-width="0.100mm" />
<path d="M34.689 82.275 
L34.689 78.315
L34.689 80.295
L37.329 80.295
L37.329 78.315
L37.329 82.275
M38.825 79.415 L41.025 79.415
M38.385 78.315 L39.925 82.275L41.465 78.315
M42.521 78.315 
L42.521 82.275
L44.061 79.415
L45.601 82.275
L45.601 78.315
M52.025 81.879 
A1.044,1.044 0 0,1 51.409,82.275
A2.485,2.485 0 0,1 50.177,82.231
A1.176,1.176 0 0,1 49.561,81.791
A0.805,0.805 0 0,1 49.957,80.559
L51.497 80.031
A0.805,0.805 0 0,0 51.893,78.799
A1.176,1.176 0 0,0 51.277,78.359
A2.485,2.485 0 0,0 50.045,78.315
A1.044,1.044 0 0,0 49.429,78.711
M53.081 78.315 
L53.081 82.275
L54.533 82.275
A0.990,0.990 0 0,0 54.533,80.295
L53.081 80.295
M56.513 79.635 
A1.408,1.408 0 0,1 59.329,79.635
L59.329 80.955
A1.408,1.408 0 0,1 56.513,80.955
L56.513 79.635
M60.385 82.275 
L63.025 82.275
L61.705 82.275
L61.705 78.315"
fill="none" vector-effect="non-scaling-stroke" stroke="#000000" stroke-width="0.200mm" fpd:engraving_ral_9005="1" />
<path d="M36.521 76.842 
L36.521 73.872
L36.521 75.357
L38.501 75.357
L38.501 73.872
L38.501 76.842
M41.207 76.545 
A0.783,0.783 0 0,1 40.745,76.842
A1.864,1.864 0 0,1 39.821,76.809
A0.882,0.882 0 0,1 39.359,76.479
A0.604,0.604 0 0,1 39.656,75.555
L40.811 75.159
A0.604,0.604 0 0,0 41.108,74.235
A0.882,0.882 0 0,0 40.646,73.905
A1.864,1.864 0 0,0 39.722,73.872
A0.783,0.783 0 0,0 39.260,74.169
M41.999 75.357 L43.715 75.357
M44.507 76.347 
L44.507 76.842
L46.157 76.842
L44.837 73.872
M46.949 76.380 
A0.867,0.867 0 0,0 47.741,76.908
A0.776,0.776 0 0,0 47.741,75.357
A0.776,0.776 0 0,0 47.741,73.806
A0.918,0.918 0 0,0 46.949,74.268
M49.325 74.829 
A0.858,0.858 0 0,0 51.041,74.829
L51.041 74.664
A0.858,0.858 0 0,0 49.325,74.664
L49.325 75.951
A0.915,0.915 0 0,0 50.876,76.644
M51.833 76.842 
L51.833 74.796
A0.990,0.990 0 0,1 53.813,74.796
L53.813 76.842
M56.519 76.545 
A0.783,0.783 0 0,1 56.057,76.842
A1.864,1.864 0 0,1 55.133,76.809
A0.882,0.882 0 0,1 54.671,76.479
A0.604,0.604 0 0,1 54.968,75.555
L56.123 75.159
A0.604,0.604 0 0,0 56.420,74.235
A0.882,0.882 0 0,0 55.958,73.905
A1.864,1.864 0 0,0 55.034,73.872
A0.783,0.783 0 0,0 54.572,74.169
M58.400 75.357 
A0.743,0.743 0 0,1 58.400,76.842
L57.311 76.842
L57.311 73.872
L58.565 73.872
A0.743,0.743 0 0,1 58.565,75.357
L57.311 75.357"
fill="none" vector-effect="non-scaling-stroke" stroke="#000000" stroke-width="0.200mm" fpd:engraving_ral_9005="1" />
<path d="M36.086 71.000 L37.436 71.000
M37.706 72.215 L36.086 72.215L36.086 69.785
M38.354 72.215 
L39.974 72.215
L39.164 72.215
L39.164 69.785
M40.622 71.000 L42.026 71.000
M42.674 71.810 
L42.674 72.215
L44.024 72.215
L42.944 69.785
M44.672 71.837 
A0.709,0.709 0 0,0 45.320,72.269
A0.634,0.634 0 0,0 45.320,71.000
A0.634,0.634 0 0,0 45.320,69.731
A0.751,0.751 0 0,0 44.672,70.109
M46.616 70.568 
A0.702,0.702 0 0,0 48.020,70.568
L48.020 70.433
A0.702,0.702 0 0,0 46.616,70.433
L46.616 71.486
A0.748,0.748 0 0,0 47.885,72.053
M48.668 69.785 
L48.668 72.215
L49.559 72.215
A0.608,0.608 0 0,0 49.559,71.000
L48.668 71.000
L49.613 71.000
L50.153 69.785
M52.502 72.215 
L52.502 70.541
A0.810,0.810 0 0,1 54.122,70.541
L54.122 72.215
M56.336 71.972 
A0.641,0.641 0 0,1 55.958,72.215
A1.525,1.525 0 0,1 55.202,72.188
A0.722,0.722 0 0,1 54.824,71.918
A0.494,0.494 0 0,1 55.067,71.162
L56.012 70.838
A0.494,0.494 0 0,0 56.255,70.082
A0.722,0.722 0 0,0 55.877,69.812
A1.525,1.525 0 0,0 55.121,69.785
A0.641,0.641 0 0,0 54.743,70.028
M57.875 71.000 
A0.609,0.609 0 0,1 57.875,72.215
L56.984 72.215
L56.984 69.785
L58.010 69.785
A0.609,0.609 0 0,1 58.010,71.000
L56.984 71.000
M36.661 68.114 
A0.792,0.792 0 0,1 35.176,67.709
L35.176 66.791
A0.811,0.811 0 0,1 36.742,66.494
M37.660 66.710 L39.010 66.710
M37.390 66.035 L38.335 68.465L39.280 66.035
M39.928 68.465 
L41.548 68.465
L40.738 68.465
L40.738 66.035
M44.194 66.710 L45.544 66.710
M43.924 66.035 L44.869 68.465L45.814 66.035
M46.462 68.465 
L47.299 68.465
A0.814,0.814 0 0,0 48.082,67.655
L48.082 66.845
A0.782,0.782 0 0,0 47.299,66.035
L46.462 66.035
L46.462 68.465
M49.000 66.710 L50.350 66.710
M48.730 66.035 L49.675 68.465L50.620 66.035
M51.268 66.035 
L51.268 68.465
L52.159 68.465
A0.608,0.608 0 0,0 52.159,67.250
L51.268 67.250
M53.374 68.465 
L54.994 68.465
L54.184 68.465
L54.184 66.035
M55.642 66.845 
A0.864,0.864 0 0,1 57.370,66.845
L57.370 67.655
A0.864,0.864 0 0,1 55.642,67.655
L55.642 66.845
M58.018 66.035 
L58.018 68.465
L58.909 68.465
A0.608,0.608 0 0,0 58.909,67.250
L58.018 67.250
L58.963 67.250
L59.503 66.035"
fill="none" vector-effect="non-scaling-stroke" stroke="#000000" stroke-width="0.200mm" fpd:engraving_ral_9005="1" />
</g>
</svg>
